<?xml version="1.0" encoding="UTF-8" standalone="no"?>
<svg
   width="512"
   height="419"
   viewBox="0 0 512 419"
   fill="none"
   version="1.1"
   id="svg8"
   sodipodi:docname="blender.svg"
   inkscape:version="1.2 (dc2aedaf03, 2022-05-15)"
   xmlns:inkscape="http://www.inkscape.org/namespaces/inkscape"
   xmlns:sodipodi="http://sodipodi.sourceforge.net/DTD/sodipodi-0.dtd"
   xmlns="http://www.w3.org/2000/svg"
   xmlns:svg="http://www.w3.org/2000/svg">
  <defs
     id="defs12" />
  <sodipodi:namedview
     id="namedview10"
     pagecolor="#505050"
     bordercolor="#eeeeee"
     borderopacity="1"
     inkscape:showpageshadow="0"
     inkscape:pageopacity="0"
     inkscape:pagecheckerboard="0"
     inkscape:deskcolor="#505050"
     showgrid="false"
     inkscape:zoom="1.3956499"
     inkscape:cx="346.43359"
     inkscape:cy="214.23711"
     inkscape:window-width="1920"
     inkscape:window-height="1009"
     inkscape:window-x="-8"
     inkscape:window-y="114"
     inkscape:window-maximized="1"
     inkscape:current-layer="svg8" />
  <path
     d="m 191.72483,235.05595 c 1.86245,-33.03819 18.09645,-62.22991 42.69408,-82.85714 24.07061,-20.277 56.39945,-32.68898 91.89036,-32.68898 35.31489,0 67.6427,12.39365 91.71332,32.68898 24.59762,20.62723 40.76204,49.81895 42.6951,82.85714 1.86143,33.91175 -11.86032,65.55206 -35.84293,88.97507 -24.59763,23.77426 -59.38551,38.80689 -98.56549,38.80689 -39.18101,0 -74.14389,-14.92776 -98.56652,-38.80689 -24.07062,-23.42301 -37.77497,-54.8882 -35.84191,-88.79995 z"
     fill="#ffffff"
     id="path2"
     style="stroke-width:1.02072" />
  <path
     d="m 265.33863,231.00992 c 0.95681,-16.97827 9.29996,-31.97935 21.94005,-42.58008 12.36994,-10.4195 28.98257,-16.79806 47.22127,-16.79806 18.14864,0 34.76127,6.3694 47.13121,16.79806 12.64009,10.60073 20.94641,25.60181 21.94005,42.58008 0.95681,17.42625 -6.09491,33.68572 -18.41982,45.72303 -12.64009,12.21751 -30.51653,19.94203 -50.65144,19.94203 -20.13389,0 -38.10141,-7.67158 -50.65145,-19.94203 -12.36993,-12.03731 -19.41244,-28.20617 -18.41982,-45.63344 z"
     fill="#265787"
     id="path4"
     style="stroke-width:1.02072" />
  <path
     d="m 156.99221,266.94163 c 0.11768,6.64734 2.24824,19.58264 5.4451,29.64376 6.7171,21.37963 18.14762,41.14248 33.94773,58.48015 16.25243,17.87626 36.29627,32.24915 59.41007,42.48946 24.28756,10.68931 50.65247,16.16886 78.01,16.16886 27.35753,-0.0356 53.72141,-5.60478 78.00897,-16.43866 23.11381,-10.32991 43.15867,-24.7028 59.41007,-42.66866 15.89119,-17.51686 27.26748,-37.2797 33.94876,-58.65933 3.38618,-10.77992 5.52595,-21.73904 6.38349,-32.69815 0.83913,-10.77992 0.48813,-21.64943 -1.05607,-32.51895 -3.01573,-21.10982 -10.38366,-40.96227 -21.6699,-58.92812 -10.29258,-16.61887 -23.65514,-31.08136 -39.54633,-43.29887 l 0.0368,-0.0265 L 289.50953,6.3174116 c -0.14429,-0.1077891 -0.26197,-0.2246699 -0.41547,-0.3234791 -10.47372,-8.0128567 -28.17005,-7.9858661 -39.63639,0.04495 -11.64747,8.1206455 -13.00235,21.5591985 -2.61868,30.0032315 l -0.045,0.045 66.72274,53.987973 -203.14916,0.215537 h -0.27118 c -16.793557,0.01792 -32.955212,10.959116 -36.115337,24.883006 -3.286506,14.10308 8.125905,25.87059 25.641622,25.87059 l -0.02661,0.0631 L 202.52502,140.9098 18.336095,281.04469 c -0.23475,0.17105 -0.487511,0.35024 -0.704251,0.52128 -17.33542738,13.2051 -22.9333477,35.21393 -12.0083941,49.04721 11.1055161,14.1041 34.6708141,14.1937 52.1868371,0.0804 L 158.03088,248.9493 c 0,0 -1.46233,11.04871 -1.34567,17.60646 z m 258.22647,36.92031 c -20.67625,20.93063 -49.65882,32.87733 -80.89884,32.87733 -31.33007,0.054 -60.31366,-11.67689 -80.98889,-32.60753 -10.11248,-10.24031 -17.51623,-21.91924 -22.12118,-34.40554 -4.48728,-12.30609 -6.23,-25.332 -5.07364,-38.4475 1.09188,-12.84569 4.93856,-25.15179 11.1051,-36.20151 6.03147,-10.86951 14.35621,-20.75043 24.55875,-29.10415 20.13389,-16.25948 45.68627,-25.15281 72.41139,-25.15281 26.81619,-0.0356 52.36756,8.70396 72.50145,24.9726 10.20253,8.30078 18.50987,18.14606 24.55874,29.01558 6.16654,11.0487 10.02243,23.26621 11.10613,36.20151 1.13691,13.11448 -0.60581,26.14039 -5.09309,38.4475 -4.58653,12.57589 -12.00767,24.2538 -22.12016,34.49411 z"
     fill="#ea7600"
     id="path6"
     style="stroke-width:1.02072" />
</svg>
