<svg width="512" height="512" viewBox="0 0 512 512" fill="none" xmlns="http://www.w3.org/2000/svg">
<path opacity="0.95" d="M470 257C470 313.445 447.803 367.626 408.2 407.847C368.597 448.067 314.766 471.101 258.327 471.974C201.889 472.848 147.371 451.492 106.542 412.516C65.7135 373.54 41.8499 320.072 40.103 263.654C38.3561 207.236 58.8661 152.393 97.2051 110.967C135.544 69.5397 188.637 44.8515 245.021 42.2317C301.406 39.6119 356.559 59.2706 398.574 96.9639C440.589 134.657 466.096 187.361 469.588 243.699" fill="#1A1A1A"/>
<path d="M303.203 32.6687L247.734 190.575L466.172 153.825C433.818 91.6902 374.213 46.0315 303.203 32.6687Z" fill="#DC5B04"/>
<path d="M473.012 185.213L308.527 216.129L449.572 386.927C487.205 327.84 496.945 253.391 473.012 185.213Z" fill="#DDBC0A"/>
<path d="M425.809 408.545L316.793 281.554L239.4 489.102C309.388 492.149 378.731 463.36 425.809 408.545Z" fill="#178B14"/>
<path d="M208.797 479.331L264.266 321.425L45.8281 358.175C78.1825 420.31 137.787 465.968 208.797 479.331Z" fill="#1459BF"/>
<path d="M38.9879 326.786L203.473 295.871L62.4279 125.073C24.7948 184.16 15.0554 258.609 38.9879 326.786Z" fill="#A200A2"/>
<path d="M86.191 103.455L195.207 230.446L272.6 22.8983C202.612 19.8506 133.269 48.6402 86.191 103.455Z" fill="#B10016"/>
<path d="M256 288C273.673 288 288 273.673 288 256C288 238.327 273.673 224 256 224C238.327 224 224 238.327 224 256C224 273.673 238.327 288 256 288Z" fill="#D9D9D9"/>
</svg>
