<svg width="512" height="512" viewBox="0 0 512 512" fill="none" xmlns="http://www.w3.org/2000/svg">
<g clip-path="url(#clip0_424_66)">
<path d="M421.333 0H90.6668C40.5929 0 0 41.6336 0 92.9912V419.009C0 470.366 40.5929 512 90.6668 512H421.333C471.407 512 512 470.366 512 419.009V92.9912C512 41.6336 471.407 0 421.333 0Z" fill="#1E3101"/>
<path d="M94.0636 358.347V134.297C94.0306 133.961 94.0625 133.622 94.1577 133.298C94.253 132.975 94.4095 132.674 94.6184 132.414C94.8273 132.153 95.0844 131.937 95.375 131.778C95.6656 131.619 95.9839 131.521 96.3116 131.489H96.4714C99.8983 131.253 104.944 131.079 111.578 130.956C118.211 130.833 126.004 130.731 134.936 130.608C143.868 130.485 153.369 130.434 163.44 130.434C190.921 130.434 213.707 135.246 231.797 144.872C248.942 153.586 263.126 167.398 272.5 184.507C281.545 201.298 286.064 220.614 286.057 242.453C286.336 257.731 283.968 272.938 279.064 287.366C274.739 299.716 268.191 311.124 259.762 320.997C251.801 330.249 242.468 338.158 232.107 344.431C221.834 350.644 210.725 355.271 199.137 358.162C187.79 361.06 176.143 362.539 164.449 362.568H138.873C129.834 362.568 121.422 362.51 113.636 362.394C105.849 362.278 100.008 362.101 96.1118 361.861C94.753 361.861 94.0636 360.693 94.0636 358.347ZM141.46 173.748V319.593C143.978 319.593 146.269 319.651 148.334 319.767L154.688 320.115C156.856 320.238 159.324 320.3 162.071 320.3C172.46 320.433 182.797 318.763 192.643 315.361C201.459 312.291 209.495 307.239 216.162 300.574C222.876 293.702 228.036 285.401 231.278 276.258C234.975 265.749 236.779 254.639 236.603 243.468C236.813 232.951 235.063 222.489 231.448 212.645C228.228 204.151 223.113 196.55 216.511 190.45C209.762 184.353 201.787 179.854 193.153 177.273C183.506 174.371 173.493 172.948 163.44 173.051C158.864 173.051 155.028 173.102 151.941 173.225C148.853 173.348 145.357 173.522 141.46 173.748Z" fill="#99E83F"/>
<path d="M421.044 232.606C414.597 229.201 407.731 226.706 400.632 225.187C392.793 223.339 384.778 222.39 376.734 222.359C372.386 222.245 368.044 222.78 363.846 223.947C361.178 224.562 358.808 226.122 357.152 228.354C356.032 230.138 355.435 232.215 355.434 234.338C355.5 236.397 356.223 238.377 357.492 239.974C359.501 242.38 361.952 244.357 364.705 245.794C369.605 248.482 374.652 250.877 379.821 252.967C391.35 256.942 402.364 262.341 412.621 269.044C419.612 273.565 425.397 279.798 429.456 287.182C432.871 294.172 434.585 301.907 434.451 309.725C434.66 320.051 431.784 330.195 426.209 338.795C420.242 347.522 411.958 354.308 402.341 358.347C391.877 363.04 378.985 365.386 363.666 365.386C353.939 365.486 344.228 364.542 334.693 362.568C327.493 361.174 320.505 358.807 313.912 355.529C313.162 355.129 312.539 354.519 312.114 353.77C311.689 353.02 311.481 352.163 311.514 351.297V313.25C311.471 312.877 311.528 312.5 311.679 312.158C311.831 311.817 312.071 311.524 312.373 311.313C312.668 311.144 313.007 311.07 313.344 311.101C313.681 311.132 314.001 311.266 314.262 311.487C322.115 316.456 330.702 320.086 339.688 322.236C347.86 324.338 356.242 325.459 364.665 325.577C372.658 325.577 378.556 324.521 382.359 322.411C384.065 321.609 385.509 320.316 386.514 318.691C387.519 317.065 388.044 315.175 388.024 313.25C388.024 310.21 386.309 307.276 382.879 304.448C379.448 301.619 372.455 298.204 361.898 294.201C351.115 290.35 340.891 285.018 331.506 278.349C324.795 273.555 319.267 267.222 315.361 259.853C311.976 252.913 310.263 245.242 310.365 237.484C310.391 228.158 312.932 219.022 317.708 211.088C323.104 202.328 330.856 195.357 340.028 191.014C350.099 185.849 362.694 183.267 377.813 183.267C386.665 183.189 395.508 183.837 404.259 185.204C410.423 186.021 416.439 187.747 422.123 190.327C422.588 190.464 423.017 190.711 423.374 191.047C423.731 191.383 424.007 191.8 424.181 192.264C424.413 193.125 424.527 194.014 424.52 194.908V230.485C424.548 230.897 424.47 231.309 424.295 231.681C424.12 232.053 423.853 232.372 423.521 232.606C423.153 232.854 422.723 232.986 422.282 232.986C421.842 232.986 421.412 232.854 421.044 232.606Z" fill="#99E83F"/>
</g>
<defs>
<clipPath id="clip0_424_66">
<rect width="512" height="512" fill="white"/>
</clipPath>
</defs>
</svg>
