<?xml version="1.0" encoding="UTF-8" standalone="no"?>
<svg
   width="512"
   height="512"
   viewBox="0 0 512 512"
   fill="none"
   version="1.1"
   id="svg12"
   sodipodi:docname="figma.svg"
   inkscape:version="1.2 (dc2aedaf03, 2022-05-15)"
   xmlns:inkscape="http://www.inkscape.org/namespaces/inkscape"
   xmlns:sodipodi="http://sodipodi.sourceforge.net/DTD/sodipodi-0.dtd"
   xmlns="http://www.w3.org/2000/svg"
   xmlns:svg="http://www.w3.org/2000/svg">
  <defs
     id="defs16" />
  <sodipodi:namedview
     id="namedview14"
     pagecolor="#505050"
     bordercolor="#eeeeee"
     borderopacity="1"
     inkscape:showpageshadow="0"
     inkscape:pageopacity="0"
     inkscape:pagecheckerboard="0"
     inkscape:deskcolor="#505050"
     showgrid="false"
     inkscape:zoom="1.1421432"
     inkscape:cx="114.25888"
     inkscape:cy="241.65096"
     inkscape:window-width="1920"
     inkscape:window-height="1009"
     inkscape:window-x="-8"
     inkscape:window-y="114"
     inkscape:window-maximized="1"
     inkscape:current-layer="svg12" />
  <g
     id="g829"
     transform="matrix(0.98118942,0,0,0.98118942,5.1427352,4.8155085)">
    <path
       d="m 170.333,512 c 47.084,0 85.334,-38.208 85.334,-85.333 V 341.333 H 170.333 C 123.25,341.333 85,379.542 85,426.667 85,473.792 123.25,512 170.333,512 Z"
       fill="#0acf83"
       id="path2" />
    <path
       d="m 85,256 c 0,-47.083 38.25,-85.333 85.333,-85.333 h 85.334 V 341.333 H 170.333 C 123.25,341.333 85,303.125 85,256 Z"
       fill="#a259ff"
       id="path4" />
    <path
       d="M 85,85.3333 C 85,38.25 123.25,0 170.333,0 h 85.334 V 170.667 H 170.333 C 123.25,170.667 85,132.458 85,85.3333 Z"
       fill="#f24e1e"
       id="path6" />
    <path
       d="M 255.667,0 H 341 c 47.083,0 85.333,38.25 85.333,85.3333 0,47.1247 -38.208,85.3337 -85.333,85.3337 h -85.333 z"
       fill="#ff7262"
       id="path8" />
    <path
       d="m 426.333,256 c 0,47.125 -38.208,85.333 -85.333,85.333 -47.125,0 -85.333,-38.208 -85.333,-85.333 0,-47.083 38.208,-85.333 85.333,-85.333 47.125,0 85.333,38.25 85.333,85.333 z"
       fill="#1abcfe"
       id="path10" />
  </g>
  <g
     id="g841"
     transform="matrix(0.98118942,0,0,0.98118942,5.1427352,4.8155085)">
    <path
       d="m 170.333,512 c 47.084,0 85.334,-38.208 85.334,-85.333 V 341.333 H 170.333 C 123.25,341.333 85,379.542 85,426.667 85,473.792 123.25,512 170.333,512 Z"
       fill="#0acf83"
       id="path831" />
    <path
       d="m 85,256 c 0,-47.083 38.25,-85.333 85.333,-85.333 h 85.334 V 341.333 H 170.333 C 123.25,341.333 85,303.125 85,256 Z"
       fill="#a259ff"
       id="path833" />
    <path
       d="M 85,85.3333 C 85,38.25 123.25,0 170.333,0 h 85.334 V 170.667 H 170.333 C 123.25,170.667 85,132.458 85,85.3333 Z"
       fill="#f24e1e"
       id="path835" />
    <path
       d="M 255.667,0 H 341 c 47.083,0 85.333,38.25 85.333,85.3333 0,47.1247 -38.208,85.3337 -85.333,85.3337 h -85.333 z"
       fill="#ff7262"
       id="path837" />
    <path
       d="m 426.333,256 c 0,47.125 -38.208,85.333 -85.333,85.333 -47.125,0 -85.333,-38.208 -85.333,-85.333 0,-47.083 38.208,-85.333 85.333,-85.333 47.125,0 85.333,38.25 85.333,85.333 z"
       fill="#1abcfe"
       id="path839" />
  </g>
  <g
     id="g853"
     transform="matrix(0.98118942,0,0,0.98118942,5.1427352,4.8155085)">
    <path
       d="m 170.333,512 c 47.084,0 85.334,-38.208 85.334,-85.333 V 341.333 H 170.333 C 123.25,341.333 85,379.542 85,426.667 85,473.792 123.25,512 170.333,512 Z"
       fill="#0acf83"
       id="path843" />
    <path
       d="m 85,256 c 0,-47.083 38.25,-85.333 85.333,-85.333 h 85.334 V 341.333 H 170.333 C 123.25,341.333 85,303.125 85,256 Z"
       fill="#a259ff"
       id="path845" />
    <path
       d="M 85,85.3333 C 85,38.25 123.25,0 170.333,0 h 85.334 V 170.667 H 170.333 C 123.25,170.667 85,132.458 85,85.3333 Z"
       fill="#f24e1e"
       id="path847" />
    <path
       d="M 255.667,0 H 341 c 47.083,0 85.333,38.25 85.333,85.3333 0,47.1247 -38.208,85.3337 -85.333,85.3337 h -85.333 z"
       fill="#ff7262"
       id="path849" />
    <path
       d="m 426.333,256 c 0,47.125 -38.208,85.333 -85.333,85.333 -47.125,0 -85.333,-38.208 -85.333,-85.333 0,-47.083 38.208,-85.333 85.333,-85.333 47.125,0 85.333,38.25 85.333,85.333 z"
       fill="#1abcfe"
       id="path851" />
  </g>
</svg>
