<?xml version="1.0" encoding="UTF-8" standalone="no"?>
<svg
   width="652"
   height="512"
   viewBox="0 0 652 512"
   fill="none"
   version="1.1"
   id="svg117"
   sodipodi:docname="gimp.svg"
   inkscape:version="1.2 (dc2aedaf03, 2022-05-15)"
   xmlns:inkscape="http://www.inkscape.org/namespaces/inkscape"
   xmlns:sodipodi="http://sodipodi.sourceforge.net/DTD/sodipodi-0.dtd"
   xmlns="http://www.w3.org/2000/svg"
   xmlns:svg="http://www.w3.org/2000/svg">
  <sodipodi:namedview
     id="namedview119"
     pagecolor="#505050"
     bordercolor="#eeeeee"
     borderopacity="1"
     inkscape:showpageshadow="0"
     inkscape:pageopacity="0"
     inkscape:pagecheckerboard="0"
     inkscape:deskcolor="#505050"
     showgrid="false"
     inkscape:zoom="0.80761719"
     inkscape:cx="-51.385731"
     inkscape:cy="237.7364"
     inkscape:window-width="1920"
     inkscape:window-height="1009"
     inkscape:window-x="-8"
     inkscape:window-y="114"
     inkscape:window-maximized="1"
     inkscape:current-layer="svg117" />
  <g
     clip-path="url(#clip0_419_13)"
     id="g42"
     transform="matrix(1.3341853,0,0,1.3341853,-11.147493,-105.38554)">
    <path
       fill-rule="evenodd"
       clip-rule="evenodd"
       d="m 110.66,132.991 c 0,0 30.661,63.228 102.392,61.444 150.32,-3.771 176.679,-82.186 180.451,-93.5 3.771,-11.3134 9.541,-9.5997 10.875,0.856 C 453.405,546.797 64.1445,355.863 50.3201,280.069 127.63,257.442 108.774,214.072 108.774,214.072 Z"
       fill="url(#paint0_radial_419_13)"
       stroke="#2e3436"
       stroke-width="6.58333"
       stroke-miterlimit="10"
       id="path2"
       style="fill:url(#paint0_radial_419_13)" />
    <path
       fill-rule="evenodd"
       clip-rule="evenodd"
       d="m 167.87,320.705 c 71.881,14.376 108.487,1.046 129.911,-15.497 -5.657,-7.307 -15.321,-15.32 -15.321,-15.32 0,0 25.102,6.975 33.941,18.384 8.814,11.377 3.273,18.387 0.966,32.943 -5.135,-12.785 -14.719,-17.58 -16.017,-22.66 -19.267,26.634 -67.269,25.528 -133.48,2.15 z"
       fill="url(#paint1_linear_419_13)"
       id="path4"
       style="fill:url(#paint1_linear_419_13)" />
    <path
       opacity="0.185393"
       fill-rule="evenodd"
       clip-rule="evenodd"
       d="m 394.333,126.333 c -5.994,9.887 -15.002,21.687 -28.666,33 -28.074,23.243 -75.206,44.399 -152.334,46.334 -45.06,1.12 -74.162,-20.631 -92,-40 L 120,213.333 c 1.452,4.468 4.432,14.832 -0.667,29 -5.486,15.246 -22.9812,30.842 -52.9997,42.667 2.6702,5.568 5.2852,11.132 13.3333,19 10.9649,10.719 26.2084,22.273 44.3334,32.667 36.25,20.788 83.217,37.261 127,38 43.783,0.739 83.809,-13.169 111.333,-53.334 25.374,-37.026 39.28,-99.711 32,-195 z"
       stroke="url(#paint2_linear_419_13)"
       stroke-width="6.58333"
       stroke-miterlimit="10"
       id="path6"
       style="stroke:url(#paint2_linear_419_13)" />
    <path
       fill-rule="evenodd"
       clip-rule="evenodd"
       d="m 188.913,228.215 c 0.002,5.696 -1.119,11.337 -3.298,16.6 -2.179,5.263 -5.373,10.045 -9.4,14.073 -4.028,4.029 -8.809,7.224 -14.072,9.404 -5.262,2.181 -10.903,3.303 -16.599,3.303 -5.696,0 -11.336,-1.122 -16.599,-3.303 -5.262,-2.18 -10.044,-5.375 -14.071,-9.404 -4.028,-4.028 -7.222,-8.81 -9.401,-14.073 -2.179,-5.263 -3.299,-10.904 -3.298,-16.6 -10e-4,-5.697 1.119,-11.337 3.298,-16.6 2.179,-5.264 5.373,-10.046 9.401,-14.074 4.027,-4.028 8.809,-7.224 14.071,-9.404 5.263,-2.18 10.903,-3.303 16.599,-3.303 5.696,0 11.337,1.123 16.599,3.303 5.263,2.18 10.044,5.376 14.072,9.404 4.027,4.028 7.221,8.81 9.4,14.074 2.179,5.263 3.3,10.903 3.298,16.6 z"
       fill="url(#paint3_radial_419_13)"
       stroke="#888a85"
       stroke-width="6.58333"
       stroke-miterlimit="10"
       id="path8"
       style="fill:url(#paint3_radial_419_13)" />
    <path
       fill-rule="evenodd"
       clip-rule="evenodd"
       d="m 102.519,244.555 c 10.095,13.992 15.829,30.259 15.94,45.222 0.112,14.963 -5.408,27.396 -15.344,34.564 -9.9366,7.169 -23.4761,8.485 -37.64,3.66 C 51.311,323.176 37.6828,312.605 27.5884,298.613 17.494,284.62 11.7603,268.354 11.6486,253.391 c -0.1117,-14.963 5.4079,-27.396 15.3444,-34.565 9.9364,-7.168 23.4759,-8.485 37.6399,-3.66 14.164,4.825 27.7922,15.397 37.8861,29.389 z"
       fill="url(#paint4_radial_419_13)"
       stroke="#000000"
       stroke-width="6.58333"
       stroke-miterlimit="10"
       id="path10"
       style="fill:url(#paint4_radial_419_13)" />
    <path
       fill-rule="evenodd"
       clip-rule="evenodd"
       d="m 176.567,234.64 c 0.001,2.742 -0.539,5.458 -1.588,7.992 -1.049,2.535 -2.587,4.837 -4.526,6.777 -1.939,1.94 -4.241,3.478 -6.775,4.528 -2.534,1.05 -5.25,1.59 -7.993,1.59 -2.742,0 -5.458,-0.54 -7.992,-1.59 -2.534,-1.05 -4.836,-2.588 -6.775,-4.528 -1.939,-1.94 -3.477,-4.242 -4.526,-6.777 -1.049,-2.534 -1.589,-5.25 -1.588,-7.992 -0.001,-2.743 0.539,-5.459 1.588,-7.993 1.049,-2.534 2.587,-4.837 4.526,-6.777 1.939,-1.94 4.241,-3.478 6.775,-4.528 2.534,-1.05 5.25,-1.59 7.992,-1.59 2.743,0 5.459,0.54 7.993,1.59 2.534,1.05 4.836,2.588 6.775,4.528 1.939,1.94 3.477,4.243 4.526,6.777 1.049,2.534 1.589,5.25 1.588,7.993 z"
       fill="#2e3436"
       stroke="#000000"
       stroke-width="6.58333"
       stroke-miterlimit="10"
       id="path12" />
    <path
       opacity="0.280899"
       fill-rule="evenodd"
       clip-rule="evenodd"
       d="m 30.7757,228.356 c -6.8151,5.104 -10.4068,13.741 -10.0832,25.46 0.3236,11.72 4.9487,26.069 14.4415,38.743 9.4929,12.674 21.9619,21.148 33.1173,24.755 11.1555,3.606 20.4533,2.588 27.2683,-2.516 6.8154,-5.104 10.4194,-14.153 10.1504,-25.927 -0.27,-11.773 -4.77,-25.829 -14.2419,-38.476 -9.4722,-12.646 -21.6948,-20.918 -32.9175,-24.488 -11.2226,-3.57 -20.9199,-2.655 -27.7349,2.449 z"
       stroke="url(#paint5_linear_419_13)"
       stroke-width="6.58333"
       stroke-miterlimit="10"
       id="path14"
       style="stroke:url(#paint5_linear_419_13)" />
    <path
       fill-rule="evenodd"
       clip-rule="evenodd"
       d="m 62.2254,248.014 c 6e-4,2.971 -0.4867,5.914 -1.4341,8.66 -0.9473,2.746 -2.3362,5.241 -4.0872,7.343 -1.751,2.102 -3.8299,3.769 -6.1179,4.906 -2.288,1.138 -4.7404,1.723 -7.217,1.723 -2.4766,0 -4.9289,-0.585 -7.217,-1.723 -2.288,-1.137 -4.3669,-2.804 -6.1179,-4.906 -1.751,-2.102 -3.1399,-4.597 -4.0872,-7.343 -0.9474,-2.746 -1.4347,-5.689 -1.4341,-8.66 -6e-4,-2.972 0.4867,-5.915 1.4341,-8.661 0.9473,-2.746 2.3362,-5.241 4.0872,-7.343 1.751,-2.102 3.8299,-3.769 6.1179,-4.906 2.2881,-1.138 4.7404,-1.723 7.217,-1.723 2.4766,0 4.929,0.585 7.217,1.723 2.288,1.137 4.3669,2.804 6.1179,4.906 1.751,2.102 3.1399,4.597 4.0872,7.343 0.9474,2.746 1.4347,5.689 1.4341,8.661 z"
       fill="#ffffff"
       id="path16" />
    <path
       fill-rule="evenodd"
       clip-rule="evenodd"
       d="m 162.11,225.002 c 0,3.834 -1.523,7.511 -4.234,10.222 -2.711,2.711 -6.388,4.234 -10.222,4.234 -3.834,0 -7.511,-1.523 -10.222,-4.234 -2.711,-2.711 -4.234,-6.388 -4.234,-10.222 0,-3.834 1.523,-7.511 4.234,-10.222 2.711,-2.711 6.388,-4.235 10.222,-4.235 3.834,0 7.511,1.524 10.222,4.235 2.711,2.711 4.234,6.388 4.234,10.222 z"
       fill="#ffffff"
       id="path18" />
    <path
       fill-rule="evenodd"
       clip-rule="evenodd"
       d="m 286.023,232.929 c 10e-4,6.687 -1.314,13.308 -3.872,19.487 -2.558,6.178 -6.308,11.792 -11.035,16.521 -4.728,4.729 -10.341,8.48 -16.519,11.039 -6.178,2.56 -12.799,3.877 -19.486,3.877 -6.687,0 -13.308,-1.317 -19.486,-3.877 -6.178,-2.559 -11.791,-6.31 -16.519,-11.039 -4.727,-4.729 -8.477,-10.343 -11.035,-16.521 -2.558,-6.179 -3.873,-12.8 -3.872,-19.487 -0.001,-6.687 1.314,-13.309 3.872,-19.487 2.558,-6.179 6.308,-11.793 11.035,-16.522 4.728,-4.729 10.341,-8.48 16.519,-11.039 6.178,-2.56 12.799,-3.877 19.486,-3.877 6.687,0 13.308,1.317 19.486,3.877 6.178,2.559 11.791,6.31 16.519,11.039 4.727,4.729 8.477,10.343 11.035,16.522 2.558,6.178 3.873,12.8 3.872,19.487 z"
       fill="url(#paint6_radial_419_13)"
       stroke="#888a85"
       stroke-width="6.58333"
       stroke-miterlimit="10"
       id="path20"
       style="fill:url(#paint6_radial_419_13)" />
    <path
       fill-rule="evenodd"
       clip-rule="evenodd"
       d="m 271.529,240.471 c 10e-4,3.22 -0.632,6.408 -1.864,9.383 -1.231,2.975 -3.037,5.678 -5.313,7.955 -2.276,2.277 -4.979,4.083 -7.954,5.316 -2.974,1.232 -6.162,1.866 -9.382,1.866 -3.22,0 -6.408,-0.634 -9.382,-1.866 -2.975,-1.233 -5.678,-3.039 -7.954,-5.316 -2.276,-2.277 -4.082,-4.98 -5.313,-7.955 -1.232,-2.975 -1.865,-6.163 -1.864,-9.383 -10e-4,-3.22 0.632,-6.408 1.864,-9.383 1.231,-2.975 3.037,-5.678 5.313,-7.955 2.276,-2.277 4.979,-4.083 7.954,-5.316 2.974,-1.232 6.162,-1.866 9.382,-1.866 3.22,0 6.408,0.634 9.382,1.866 2.975,1.233 5.678,3.039 7.954,5.316 2.276,2.277 4.082,4.98 5.313,7.955 1.232,2.975 1.865,6.163 1.864,9.383 z"
       fill="#2e3436"
       stroke="#000000"
       stroke-width="6.58333"
       stroke-miterlimit="10"
       id="path22" />
    <path
       fill-rule="evenodd"
       clip-rule="evenodd"
       d="m 254.558,229.157 c 0,4.501 -1.787,8.818 -4.97,12 -3.183,3.183 -7.499,4.971 -12,4.971 -4.501,0 -8.817,-1.788 -12,-4.971 -3.183,-3.182 -4.971,-7.499 -4.971,-12 0,-4.501 1.788,-8.817 4.971,-12 3.183,-3.182 7.499,-4.97 12,-4.97 4.501,0 8.817,1.788 12,4.97 3.183,3.183 4.97,7.499 4.97,12 z"
       fill="#ffffff"
       id="path24" />
    <path
       d="m 390.542,383.507 9.279,-19.642 C 362.856,338.118 295.449,320.28 295.449,320.28 c -11.736,-5.145 -15.139,5.353 -6.938,11.947 0,0 58.254,39.748 102.031,51.28 z"
       fill="url(#paint7_linear_419_13)"
       stroke="#673907"
       stroke-width="6.58334"
       stroke-linecap="round"
       id="path26"
       style="fill:url(#paint7_linear_419_13)" />
    <path
       d="m 437.55,402.317 4.937,-11.682 -41.156,-25.074 -3.237,-0.204 -1.507,-4.443 c -5.794,3.818 -14.009,17.705 -11.551,25.357 l 4.335,-1.753 2.427,2.24 z"
       fill="url(#paint8_linear_419_13)"
       stroke="#888a85"
       stroke-width="6.58334"
       stroke-linecap="round"
       id="path28"
       style="fill:url(#paint8_linear_419_13)" />
    <path
       d="m 410.792,381.286 27.249,10.932"
       stroke="#ffffff"
       stroke-width="6.58334"
       stroke-linecap="round"
       stroke-linejoin="round"
       id="path30" />
    <path
       d="m 497.043,451.85 c -13.535,-42.909 -18.771,-77.094 -51.48,-73.361 -26.359,3.008 -27.327,41.422 0.213,51.444 26.529,9.654 51.267,21.917 51.267,21.917 z"
       fill="url(#paint9_radial_419_13)"
       id="path32"
       style="fill:url(#paint9_radial_419_13)" />
    <path
       opacity="0.527778"
       d="m 448.049,381.712 c 1.384,-0.443 2.843,-0.608 4.292,-0.486 1.449,0.122 2.861,0.529 4.155,1.197 1.294,0.668 2.444,1.585 3.385,2.698 0.942,1.112 1.655,2.399 2.1,3.786 0.446,1.388 0.614,2.848 0.495,4.299 -0.118,1.451 -0.521,2.864 -1.186,4.158 -0.664,1.293 -1.576,2.443 -2.685,3.382 -1.109,0.939 -2.392,1.65 -3.777,2.092 -1.384,0.442 -2.843,0.607 -4.292,0.485 -1.449,-0.122 -2.861,-0.529 -4.155,-1.197 -1.294,-0.668 -2.444,-1.585 -3.386,-2.697 -0.941,-1.113 -1.654,-2.4 -2.1,-3.787 -0.445,-1.387 -0.613,-2.848 -0.494,-4.299 0.118,-1.451 0.521,-2.864 1.185,-4.158 0.665,-1.293 1.577,-2.442 2.686,-3.382 1.109,-0.939 2.392,-1.65 3.777,-2.091 z"
       fill="#ffffff"
       id="path34" />
    <path
       d="m 399.211,365.686 c 0.934,-0.299 1.918,-0.41 2.896,-0.328 0.978,0.082 1.931,0.357 2.804,0.808 0.873,0.451 1.649,1.069 2.284,1.82 0.635,0.75 1.117,1.619 1.417,2.555 0.301,0.936 0.414,1.922 0.334,2.901 -0.08,0.979 -0.352,1.932 -0.8,2.805 -0.448,0.873 -1.064,1.648 -1.812,2.282 -0.748,0.634 -1.614,1.113 -2.548,1.411 -0.935,0.299 -1.919,0.41 -2.897,0.328 -0.978,-0.083 -1.93,-0.357 -2.803,-0.808 -0.873,-0.451 -1.649,-1.069 -2.285,-1.82 -0.635,-0.751 -1.116,-1.619 -1.417,-2.555 -0.3,-0.936 -0.413,-1.922 -0.333,-2.901 0.08,-0.979 0.352,-1.932 0.8,-2.805 0.448,-0.873 1.064,-1.648 1.812,-2.282 0.748,-0.634 1.614,-1.113 2.548,-1.411 z"
       fill="#ffffff"
       id="path36" />
    <path
       opacity="0.427778"
       d="m 480.997,426.766 c 0,0 -4.303,-15.544 -13.377,-23.538 -3.21,-2.828 0.708,-7.115 3.754,-3.441 6.578,7.936 9.623,26.979 9.623,26.979 z"
       fill="url(#paint10_linear_419_13)"
       id="path38"
       style="fill:url(#paint10_linear_419_13)" />
    <path
       fill-rule="evenodd"
       clip-rule="evenodd"
       d="m 245.366,338.523 c 15.972,1.526 30.396,-2.903 36.394,-5.056 1.047,-5.924 5.723,-17.294 21.825,-18.043 l -5.657,-9.899 c 0,0 -20.978,14.378 -43.37,18.62 z"
       fill="url(#paint11_linear_419_13)"
       id="path40"
       style="fill:url(#paint11_linear_419_13)" />
  </g>
  <defs
     id="defs115">
    <radialGradient
       id="paint0_radial_419_13"
       cx="0"
       cy="0"
       r="1"
       gradientUnits="userSpaceOnUse"
       gradientTransform="matrix(363.611,0,0,265.964,176.615,237.867)">
      <stop
         stop-color="#857C63"
         id="stop44" />
      <stop
         offset="1"
         stop-color="#221F19"
         id="stop46" />
    </radialGradient>
    <linearGradient
       id="paint1_linear_419_13"
       x1="304.14499"
       y1="303.246"
       x2="185.351"
       y2="326.81601"
       gradientUnits="userSpaceOnUse">
      <stop
         id="stop49" />
      <stop
         offset="1"
         stop-opacity="0"
         id="stop51" />
    </linearGradient>
    <linearGradient
       id="paint2_linear_419_13"
       x1="159.66701"
       y1="203.847"
       x2="421.595"
       y2="501.181"
       gradientUnits="userSpaceOnUse">
      <stop
         stop-color="white"
         id="stop54" />
      <stop
         offset="1"
         stop-color="white"
         stop-opacity="0"
         id="stop56" />
    </linearGradient>
    <radialGradient
       id="paint3_radial_419_13"
       cx="0"
       cy="0"
       r="1"
       gradientUnits="userSpaceOnUse"
       gradientTransform="matrix(63.172,0,0,63.172,145.544,197.695)">
      <stop
         stop-color="white"
         id="stop59" />
      <stop
         offset="1"
         stop-color="#B9B9B0"
         id="stop61" />
    </radialGradient>
    <radialGradient
       id="paint4_radial_419_13"
       cx="0"
       cy="0"
       r="1"
       gradientUnits="userSpaceOnUse"
       gradientTransform="matrix(41.096543,-23.7271,27.69345,47.966462,47.7204,248.917)">
      <stop
         stop-color="#5B676B"
         id="stop64" />
      <stop
         offset="1"
         stop-color="#141718"
         id="stop66" />
    </radialGradient>
    <linearGradient
       id="paint5_linear_419_13"
       x1="40.2934"
       y1="237.302"
       x2="90.039902"
       y2="309.423"
       gradientUnits="userSpaceOnUse">
      <stop
         stop-color="white"
         id="stop69" />
      <stop
         offset="1"
         stop-color="white"
         stop-opacity="0"
         id="stop71" />
    </linearGradient>
    <radialGradient
       id="paint6_radial_419_13"
       cx="0"
       cy="0"
       r="1"
       gradientUnits="userSpaceOnUse"
       gradientTransform="matrix(74.1585,0,0,74.1584,235.111,197.102)">
      <stop
         stop-color="white"
         id="stop74" />
      <stop
         offset="1"
         stop-color="#B9B9B0"
         id="stop76" />
    </radialGradient>
    <linearGradient
       id="paint7_linear_419_13"
       x1="366.021"
       y1="341.51599"
       x2="345.25201"
       y2="389.746"
       gradientUnits="userSpaceOnUse">
      <stop
         stop-color="#6E3D09"
         id="stop79" />
      <stop
         offset="0.242424"
         stop-color="#EA8113"
         id="stop81" />
      <stop
         offset="0.621212"
         stop-color="#5C3307"
         id="stop83" />
      <stop
         offset="1"
         stop-color="#E07C12"
         id="stop85" />
    </linearGradient>
    <linearGradient
       id="paint8_linear_419_13"
       x1="414.23499"
       y1="394.293"
       x2="423.41501"
       y2="374.68301"
       gradientUnits="userSpaceOnUse">
      <stop
         stop-color="#BDBDBD"
         id="stop88" />
      <stop
         offset="0.333333"
         stop-color="#E2E2E2"
         id="stop90" />
      <stop
         offset="0.666667"
         stop-color="#A3A3A3"
         id="stop92" />
      <stop
         offset="1"
         stop-color="#DDDDDD"
         id="stop94" />
    </linearGradient>
    <radialGradient
       id="paint9_radial_419_13"
       cx="0"
       cy="0"
       r="1"
       gradientUnits="userSpaceOnUse"
       gradientTransform="matrix(-15.447497,-48.972337,47.115903,-14.861916,438.376,406.383)">
      <stop
         stop-color="#696969"
         id="stop97" />
      <stop
         offset="1"
         id="stop99" />
    </radialGradient>
    <linearGradient
       id="paint10_linear_419_13"
       x1="468.733"
       y1="395.634"
       x2="481.76099"
       y2="418.30801"
       gradientUnits="userSpaceOnUse">
      <stop
         stop-color="white"
         id="stop102" />
      <stop
         offset="1"
         stop-color="white"
         stop-opacity="0"
         id="stop104" />
    </linearGradient>
    <linearGradient
       id="paint11_linear_419_13"
       x1="279.07101"
       y1="325.79501"
       x2="259.508"
       y2="330.509"
       gradientUnits="userSpaceOnUse">
      <stop
         id="stop107" />
      <stop
         offset="1"
         stop-opacity="0"
         id="stop109" />
    </linearGradient>
    <clipPath
       id="clip0_419_13">
      <rect
         width="512"
         height="512"
         fill="#ffffff"
         id="rect112"
         x="0"
         y="0" />
    </clipPath>
  </defs>
</svg>
