<?xml version="1.0" encoding="UTF-8" standalone="no"?>
<svg
   id="Layer_1"
   viewBox="16.51 8.48 511.99999 511.99998"
   version="1.1"
   sodipodi:docname="ue.svg"
   width="512"
   height="512"
   inkscape:version="1.2 (dc2aedaf03, 2022-05-15)"
   xmlns:inkscape="http://www.inkscape.org/namespaces/inkscape"
   xmlns:sodipodi="http://sodipodi.sourceforge.net/DTD/sodipodi-0.dtd"
   xmlns="http://www.w3.org/2000/svg"
   xmlns:svg="http://www.w3.org/2000/svg"
   xmlns:rdf="http://www.w3.org/1999/02/22-rdf-syntax-ns#"
   xmlns:cc="http://creativecommons.org/ns#"
   xmlns:dc="http://purl.org/dc/elements/1.1/">
  <sodipodi:namedview
     id="namedview37"
     pagecolor="#505050"
     bordercolor="#eeeeee"
     borderopacity="1"
     inkscape:showpageshadow="0"
     inkscape:pageopacity="0"
     inkscape:pagecheckerboard="0"
     inkscape:deskcolor="#505050"
     showgrid="false"
     inkscape:zoom="0.78758902"
     inkscape:cx="-205.05619"
     inkscape:cy="215.84862"
     inkscape:window-width="1920"
     inkscape:window-height="1009"
     inkscape:window-x="-8"
     inkscape:window-y="114"
     inkscape:window-maximized="1"
     inkscape:current-layer="Layer_1" />
  <title
     id="title2">Unreal Engine logo</title>
  <defs
     id="defs6">
    <style
       id="style4">.cls-1{fill-rule:evenodd;}</style>
  </defs>
  <g
     id="g1763"
     transform="matrix(1.5606044,0,0,1.5606044,-254.86372,-3.2430072)">
    <path
       class="cls-1"
       d="m 337.92,8.48 c -65.95559,0.00404 -125.41479,39.738641 -150.64973,100.67411 -25.23489,60.93535 -11.27555,131.07042 35.36476,177.70501 46.6403,46.63458 116.77708,60.58532 177.70933,35.34296 C 461.27674,296.95966 501.00404,237.49559 501,171.54 501,81.476638 427.98336,8.4689533 337.92,8.48 Z"
       id="path34"
       style="fill:#4d4d4d;fill-opacity:1;stroke:none;stroke-opacity:1"
       sodipodi:nodetypes="cssscc" />
    <path
       class="cls-1"
       d="m 434.82,195 v 0 c -2.81,13.56 -15.32,48.34 -55.19,67.18 l -16,-18 -27,27.16 a 99.72,99.72 0 0 1 -78.86,-40.45 38.88,38.88 0 0 0 8.84,1.66 c 4.42,0.08 9.21,-1.54 9.21,-9 V 150.3 a 12.06,12.06 0 0 0 -15.18,-12.07 c -12.5,2.86 -22.5,34.07 -22.5,34.07 A 99.25,99.25 0 0 1 272.5,96.24 C 291.12,80.46 309.31,75 323.13,72.86 309.48,80.64 301.8,93.34 301.8,104 c 0,17.09 10.32,15.07 13.38,12.55 v 98.92 a 16,16 0 0 0 2,3.49 14.59,14.59 0 0 0 11.97,6.04 c 10.34,0 23.75,-11.8 23.75,-11.8 v -80.1 c 0,-8.15 -6.14,-18 -12.29,-21.36 0,0 11.38,-2 20.18,4.71 v 0 a 74.2,74.2 0 0 1 5.26,-5.79 C 386.51,90.56 405.82,84.86 421.9,82 v 0 c 0,0 -29.27,23 -29.27,53.8 0,22.93 0.59,78.84 0.59,78.84 10.89,10.46 27.02,-4.64 41.6,-19.64 z"
       id="path32"
       style="fill:#ffffff;fill-opacity:1" />
  </g>
  <metadata
     id="metadata162">
    <rdf:RDF>
      <cc:Work
         rdf:about="">
        <dc:title>Unreal Engine logo</dc:title>
      </cc:Work>
    </rdf:RDF>
  </metadata>
</svg>
