<svg width="512" height="512" fill="none" xml:space="preserve" xmlns="http://www.w3.org/2000/svg"><path style="fill:#e5e5e5;fill-opacity:1;fill-rule:evenodd;stroke-width:.890146" d="M252.427 53.935c-109.082.002-197.512 88.598-197.524 197.892v.041a198.148 198.148 0 0 0 45.828 125.95c3.18 3.82 8.762 3.934 12.277.42l266.177-266.154c3.515-3.514 3.405-9.101-.41-12.286a197.295 197.295 0 0 0-126.347-45.863zm146.865 79.482L134.04 398.647c-3.515 3.515-3.26 8.937.723 11.91a197.274 197.274 0 0 0 117.666 39.205h.006c109.09-.001 197.523-88.61 197.524-197.912v-.005a198.172 198.172 0 0 0-38.789-117.678c-2.954-3.997-8.361-4.265-11.876-.75z"/><path style="fill:#e5e5e5;fill-opacity:1;stroke:#e4e4e4;stroke-width:13.1345;stroke-linecap:round;stroke-linejoin:miter;stroke-dasharray:none;stroke-opacity:1" d="M6.567 505.433 108.35 403.616M404.14 107.85 505.433 6.567"/></svg>