<?xml version="1.0" encoding="UTF-8" standalone="no"?>
<!-- Created with Inkscape (http://www.inkscape.org/) -->

<svg
   width="547"
   height="200"
   viewBox="0 0 547 200"
   version="1.1"
   id="SVGRoot"
   sodipodi:docname="design2.svg"
   inkscape:version="1.2 (dc2aedaf03, 2022-05-15)"
   xml:space="preserve"
   xmlns:inkscape="http://www.inkscape.org/namespaces/inkscape"
   xmlns:sodipodi="http://sodipodi.sourceforge.net/DTD/sodipodi-0.dtd"
   xmlns="http://www.w3.org/2000/svg"
   xmlns:svg="http://www.w3.org/2000/svg"><sodipodi:namedview
     id="namedview137"
     pagecolor="#505050"
     bordercolor="#eeeeee"
     borderopacity="1"
     inkscape:showpageshadow="0"
     inkscape:pageopacity="0"
     inkscape:pagecheckerboard="0"
     inkscape:deskcolor="#505050"
     inkscape:document-units="px"
     showgrid="false"
     inkscape:zoom="5.6568545"
     inkscape:cx="454.75802"
     inkscape:cy="99.171721"
     inkscape:window-width="1920"
     inkscape:window-height="1009"
     inkscape:window-x="-8"
     inkscape:window-y="114"
     inkscape:window-maximized="1"
     inkscape:current-layer="layer1" /><defs
     id="defs132" /><g
     inkscape:label="Layer 1"
     inkscape:groupmode="layer"
     id="layer1"><path
       id="path1288-8"
       style="color:#000000;display:inline;fill:#333333;fill-opacity:1;stroke-width:0.246957;stroke-linecap:round;stroke-linejoin:round"
       d="m 274.04535,36.703384 c -34.95816,0 -59.06947,28.339181 -59.06947,63.297346 0,34.95815 24.11131,63.29733 59.06947,63.29733 34.95815,0 59.06946,-28.33918 59.06946,-63.29733 0,-34.958165 -24.11131,-63.297346 -59.06946,-63.297346 z m 0,14.610262 c 26.88912,0 44.57101,21.797949 44.57101,48.687084 0,26.88912 -17.68189,48.68706 -44.57101,48.68706 -26.88913,0 -44.57103,-21.79794 -44.57103,-48.68706 0,-26.889135 17.6819,-48.687084 44.57103,-48.687084 z"
       sodipodi:nodetypes="ssssssssss" /><path
       id="rect6411"
       style="fill:none;stroke:#333333;stroke-width:3;stroke-linejoin:round;stroke-dasharray:6, 3, 1.5, 3.3;stroke-dashoffset:0;stroke-opacity:1"
       d="M 493.70634,145.00254 444.08709,93.383294 495.70635,41.764044"
       sodipodi:nodetypes="ccc" /><path
       id="path2756-2"
       style="fill:#333333;fill-opacity:1;fill-rule:evenodd;stroke-width:0.435183"
       d="m 108.15656,35.939495 c -35.379638,0 -64.060509,28.680871 -64.060509,64.0605 0,35.379635 28.680871,64.060505 64.060509,64.060505 35.37963,0 64.0605,-28.68087 64.0605,-64.060505 0,-35.379629 -28.68087,-64.0605 -64.0605,-64.0605 z m 0,41.565981 c 12.42338,0 22.49453,10.07114 22.49453,22.494519 0,12.423385 -10.07115,22.494525 -22.49453,22.494525 -12.423389,0 -22.494519,-10.07114 -22.494519,-22.494525 0,-12.423379 10.07113,-22.494519 22.494519,-22.494519 z"
       sodipodi:nodetypes="ssssssssss" /><path
       id="path2756-2-5"
       style="fill:none;fill-opacity:1;fill-rule:evenodd;stroke:#008aff;stroke-width:3;stroke-dasharray:none;stroke-dashoffset:0;stroke-opacity:1"
       d="m 108.16749,29.197078 c -39.103633,0 -70.803392,31.699878 -70.803392,70.803662 0,39.10375 31.699759,70.80363 70.803392,70.80363 39.10363,0 70.80339,-31.69988 70.80339,-70.80363 0,-39.103784 -31.69976,-70.803662 -70.80339,-70.803662 z"
       sodipodi:nodetypes="sssss" /><path
       id="path2756-2-5-5"
       style="fill:none;fill-opacity:1;fill-rule:evenodd;stroke:#008aff;stroke-width:3;stroke-dasharray:none;stroke-dashoffset:0;stroke-opacity:1"
       d="m 436.81217,27.525234 c -36.24949,0 -65.63552,29.38613 -65.63552,65.63575 0,36.249616 29.38603,65.635756 65.63552,65.635756 36.24949,0 65.63551,-29.38614 65.63551,-65.635756 0,-36.24962 -29.38602,-65.63575 -65.63551,-65.63575 z"
       sodipodi:nodetypes="sssss" /><path
       id="path2756-2-5-3"
       style="fill:none;fill-opacity:1;fill-rule:evenodd;stroke:#333333;stroke-width:3;stroke-dasharray:3,3.066;stroke-dashoffset:0;stroke-opacity:1"
       d="m 274.0454,30.040638 c -38.63779,0 -69.95991,31.322227 -69.95991,69.960152 0,38.63792 31.32212,69.96015 69.95991,69.96015 38.63778,0 69.95989,-31.32223 69.95989,-69.96015 0,-38.637925 -31.32211,-69.960152 -69.95989,-69.960152 z"
       sodipodi:nodetypes="sssss" /><g
       id="g6153-3-5"
       transform="matrix(-0.33135222,-0.94350713,-0.94350713,0.33135222,557.13851,194.45772)"
       style="stroke-width:2;stroke-dasharray:none"><path
         style="fill:none;stroke:#333333;stroke-width:2;stroke-linecap:butt;stroke-linejoin:miter;stroke-dasharray:none;stroke-opacity:1"
         d="m 272.41289,312.01087 c -0.98107,-15.82905 -6.24784,-25.66022 -15.9099,-37.12311"
         id="path5953-1-2"
         sodipodi:nodetypes="cc" /><path
         style="fill:none;stroke:#333333;stroke-width:2;stroke-linecap:butt;stroke-linejoin:miter;stroke-dasharray:none;stroke-opacity:1"
         d="m 264.72411,277.09283 -8.22112,-2.20507 -0.95017,8.35271"
         id="path5955-6-2"
         sodipodi:nodetypes="ccc" /></g><g
       id="g6153-3-5-9"
       transform="rotate(109.35087,441.22547,307.64153)"
       style="stroke-width:2;stroke-dasharray:none"><path
         style="fill:none;stroke:#333333;stroke-width:2;stroke-linecap:butt;stroke-linejoin:miter;stroke-dasharray:none;stroke-opacity:1"
         d="m 278.07392,310.02277 c -0.98107,-15.82905 -6.24784,-25.66022 -15.9099,-37.12311"
         id="path5953-1-2-5"
         sodipodi:nodetypes="cc" /><path
         style="fill:none;stroke:#333333;stroke-width:2;stroke-linecap:butt;stroke-linejoin:miter;stroke-dasharray:none;stroke-opacity:1"
         d="m 270.38514,275.10473 -8.22112,-2.20507 -0.95017,8.35271"
         id="path5955-6-2-8"
         sodipodi:nodetypes="ccc" /></g><path
       id="path2756-7"
       style="display:inline;fill:#333333;fill-opacity:1;fill-rule:evenodd;stroke-width:0.391021"
       d="m 436.82219,35.601184 c -31.78929,0 -57.55964,25.77036 -57.55964,57.55964 0,31.789276 25.77035,57.559636 57.55964,57.559636 15.89463,0 30.28451,-6.44266 40.70074,-16.85888 l -26.40867,-26.40869 c -3.65761,3.65762 -8.71076,5.91971 -14.29207,5.91971 -11.16266,0 -20.21179,-9.04913 -20.21179,-20.211776 0,-11.16265 9.04913,-20.21178 20.21179,-20.21178 5.58131,0 10.63446,2.2621 14.29207,5.91971 l 26.40867,-26.40868 C 467.1067,42.043844 452.71682,35.601184 436.82219,35.601184 Z" /><path
       id="path6525"
       style="fill:none;fill-rule:evenodd;stroke:#242424;stroke-width:4;stroke-dasharray:none;stroke-opacity:1"
       d="m 478.1619,117.45834 c 4.9342,-7.14609 7.58909,-15.6187 7.61523,-24.302736 -0.002,-8.58345 -2.57234,-16.96996 -7.38086,-24.08008"
       sodipodi:nodetypes="ccc" /><g
       aria-label="90°"
       id="text5876-2-4"
       style="font-size:10.6667px;line-height:1.25;font-family:'Unageo Medium';-inkscape-font-specification:'Unageo Medium, ';fill:#666666"
       transform="translate(311.25565,-237.4733)"><path
         d="m 151.25279,330.86774 q -0.544,0 -0.91733,-0.384 -0.384,-0.37333 -0.384,-0.91734 0,-0.55466 0.384,-0.928 0.37333,-0.37333 0.91733,-0.37333 0.55467,0 0.92801,0.37333 0.37333,0.37334 0.37333,0.928 0,0.54401 -0.37333,0.91734 -0.37334,0.384 -0.92801,0.384 z m -0.10666,3.76535 2.304,-3.81868 q 0.33067,-0.576 0.33067,-1.24801 0,-1.056 -0.736,-1.792 -0.74667,-0.736 -1.79201,-0.736 -1.04533,0 -1.78133,0.736 -0.74667,0.736 -0.74667,1.792 0,0.99201 0.66133,1.68534 0.61867,0.65067 1.48267,0.74667 0.24534,0.0213 0.512,-0.0427 l -1.64267,2.67734 z"
         style="font-family:'Unageo Semibold';-inkscape-font-specification:'Unageo Semibold, '"
         id="path21958" /><path
         d="m 157.59947,328.26507 q 0.46934,0 0.81067,0.224 0.18134,0.10666 0.32,0.26667 0.13867,0.14933 0.24534,0.34133 0.096,0.192 0.17066,0.40533 0.0853,0.21334 0.128,0.43734 0.096,0.448 0.096,0.96 0,0.50134 -0.096,0.96001 -0.0427,0.224 -0.128,0.43733 -0.0747,0.20267 -0.17066,0.39467 -0.10667,0.20266 -0.24534,0.352 -0.13866,0.14933 -0.32,0.26667 -0.34133,0.224 -0.81067,0.224 -0.46933,0 -0.82133,-0.224 -0.17067,-0.11734 -0.32,-0.26667 -0.13867,-0.14934 -0.23467,-0.352 -0.20267,-0.37334 -0.29867,-0.832 -0.0533,-0.22401 -0.0747,-0.45867 -0.0213,-0.24534 -0.0213,-0.50134 0,-0.26667 0.0213,-0.50133 0.0213,-0.23467 0.0747,-0.45867 0.096,-0.45867 0.29867,-0.84267 0.096,-0.192 0.23467,-0.34133 0.14933,-0.16001 0.32,-0.26667 0.352,-0.224 0.82133,-0.224 z m 0,-1.22667 q -0.832,0 -1.472,0.448 -0.448,0.288 -0.768,0.72533 -0.30934,0.43734 -0.50134,1.02401 -0.256,0.77867 -0.256,1.664 0,0.87467 0.256,1.65334 0.192,0.58667 0.50134,1.024 0.32,0.43734 0.768,0.73601 0.64,0.448 1.472,0.448 0.82134,0 1.46134,-0.448 0.896,-0.58667 1.28,-1.76001 0.12801,-0.384 0.19201,-0.8 0.064,-0.416 0.064,-0.85334 0,-0.448 -0.064,-0.85333 -0.064,-0.41601 -0.19201,-0.81067 -0.384,-1.16267 -1.28,-1.74934 -0.64,-0.448 -1.46134,-0.448 z"
         style="font-family:'Unageo Semibold';-inkscape-font-specification:'Unageo Semibold, '"
         id="path21960" /><path
         d="m 163.00748,326.9424 q -0.66133,0 -1.12,0.45866 -0.46934,0.46934 -0.46934,1.12001 0,0.65067 0.46934,1.12 0.45867,0.448 1.12,0.448 0.65067,0 1.10934,-0.448 0.45867,-0.46933 0.45867,-1.12 0,-0.66134 -0.45867,-1.12001 -0.45867,-0.45866 -1.10934,-0.45866 z m -0.0107,1.056 q 0.21334,0 0.36267,0.16 0.14934,0.14933 0.14934,0.36267 0,0.21333 -0.14934,0.36267 -0.14933,0.13866 -0.36267,0.13866 -0.21333,0 -0.36266,-0.13866 -0.14934,-0.14934 -0.14934,-0.36267 0,-0.21334 0.14934,-0.36267 0.14933,-0.16 0.36266,-0.16 z"
         style="font-family:'Unageo Semibold';-inkscape-font-specification:'Unageo Semibold, '"
         id="path21962" /></g></g></svg>
