<?xml version="1.0" encoding="UTF-8" standalone="no"?>
<!-- Created with Inkscape (http://www.inkscape.org/) -->

<svg
   width="530"
   height="200"
   viewBox="0 0 530 200"
   version="1.1"
   id="SVGRoot"
   sodipodi:docname="design3.svg"
   inkscape:version="1.2 (dc2aedaf03, 2022-05-15)"
   xml:space="preserve"
   xmlns:inkscape="http://www.inkscape.org/namespaces/inkscape"
   xmlns:sodipodi="http://sodipodi.sourceforge.net/DTD/sodipodi-0.dtd"
   xmlns="http://www.w3.org/2000/svg"
   xmlns:svg="http://www.w3.org/2000/svg"><sodipodi:namedview
     id="namedview137"
     pagecolor="#505050"
     bordercolor="#eeeeee"
     borderopacity="1"
     inkscape:showpageshadow="0"
     inkscape:pageopacity="0"
     inkscape:pagecheckerboard="0"
     inkscape:deskcolor="#505050"
     inkscape:document-units="px"
     showgrid="false"
     inkscape:zoom="4.0000001"
     inkscape:cx="36.999999"
     inkscape:cy="89.249998"
     inkscape:window-width="1920"
     inkscape:window-height="1009"
     inkscape:window-x="-8"
     inkscape:window-y="114"
     inkscape:window-maximized="1"
     inkscape:current-layer="layer1" /><defs
     id="defs132" /><g
     inkscape:label="Layer 1"
     inkscape:groupmode="layer"
     id="layer1"><path
       id="path2756-2-5-5-4"
       style="fill:none;fill-opacity:1;fill-rule:evenodd;stroke:#333333;stroke-width:3;stroke-dasharray:3, 3.066;stroke-dashoffset:0;stroke-opacity:1"
       d="m 67.694561,34.37002 c -36.24949,0 -65.6355198,29.38613 -65.6355198,65.63575 0,36.24962 29.3860298,65.63576 65.6355198,65.63576 36.249489,0 65.635509,-29.38614 65.635509,-65.63576 0,-36.24962 -29.38602,-65.63575 -65.635509,-65.63575 z"
       sodipodi:nodetypes="sssss" /><path
       id="path1288"
       style="color:#000000;display:inline;fill:#333333;fill-opacity:1;stroke-width:0.22457;stroke-linecap:round;stroke-linejoin:round"
       d="m 68.694561,42.44036 c -31.78927,0 -53.715,25.77036 -53.715,57.55964 0,31.78928 21.92573,57.55964 53.715,57.55964 15.67401,0 28.942349,-6.27298 38.374679,-16.43538 l -9.05076,-9.69911 c -7.071159,7.94042 -17.160099,12.84862 -29.323919,12.84862 -24.45168,0 -40.53083,-19.82208 -40.53083,-44.27377 0,-24.45169 16.07915,-44.27377 40.53083,-44.27377 12.16382,0 22.25276,4.9082 29.323919,12.84862 l 9.05076,-9.69911 C 97.63691,48.71334 84.368571,42.44036 68.694561,42.44036 Z" /></g></svg>
