<svg xmlns="http://www.w3.org/2000/svg" width="712" height="910" viewBox="-10 0 712 910">
  <path d="M60.25 100v391.875c0 93.58315 28.125112 170.50012 84.375 230.75C200.87488 782.87488 269.79183 813 351.375 813s150.50012-30.12512 206.75-90.375c56.24988-60.24988 84.375-137.16685 84.375-230.75v-159.75H312.75v154.75h175v5c0 51.2499-12.91672 91.79173-38.75 121.625-25.83328 29.83327-58.37508 44.75-97.625 44.75s-71.79172-14.91673-97.625-44.75C227.91672 583.66673 215 543.1249 215 491.875V100Z" style="fill:#0095ff;fill-opacity:1"/>
  <path d="M60.25 100v391.875c0 93.58315 28.12511 170.50012 84.375 230.75C200.87488 782.87488 269.79183 813 351.375 813c133.65623-13.98058 107.51615-159.13761 0-154.75-39.24992 0-71.79172-14.91673-97.625-44.75C227.91672 583.66673 215 543.1249 215 491.875V100Z" style="fill:#007eff;fill-opacity:1"/>
  <path d="M60.25 100v291.875c0 129.47912 154.75 128.53843 154.75 0V100Z" style="fill:#0068ff;fill-opacity:1"/>
  <circle cx="555" cy="187.5" r="87.5" style="fill:#00acff;fill-opacity:1;fill-rule:evenodd;stroke-width:1.15682"/>
</svg>
