<?xml version="1.0" encoding="UTF-8" standalone="no"?>
<svg
   version="1.1"
   viewBox="-10 0 712 910"
   id="svg4"
   sodipodi:docname="u_logo.svg"
   inkscape:version="1.2 (dc2aedaf03, 2022-05-15)"
   width="712"
   height="910"
   xmlns:inkscape="http://www.inkscape.org/namespaces/inkscape"
   xmlns:sodipodi="http://sodipodi.sourceforge.net/DTD/sodipodi-0.dtd"
   xmlns="http://www.w3.org/2000/svg"
   xmlns:svg="http://www.w3.org/2000/svg">
  <defs
     id="defs8" />
  <sodipodi:namedview
     id="namedview6"
     pagecolor="#505050"
     bordercolor="#eeeeee"
     borderopacity="1"
     inkscape:showpageshadow="0"
     inkscape:pageopacity="0"
     inkscape:pagecheckerboard="0"
     inkscape:deskcolor="#505050"
     showgrid="false"
     inkscape:zoom="0.58477731"
     inkscape:cx="-96.617976"
     inkscape:cy="312.93964"
     inkscape:window-width="1920"
     inkscape:window-height="1009"
     inkscape:window-x="-8"
     inkscape:window-y="-8"
     inkscape:window-maximized="1"
     inkscape:current-layer="svg4" />
  <path
     id="path2"
     d="m 60.25,100 v 391.875 c 0,93.58315 28.125112,170.50012 84.375,230.75 56.24988,60.24988 125.16683,90.375 206.75,90.375 81.58317,0 150.50012,-30.12512 206.75,-90.375 56.24988,-60.24988 84.375,-137.16685 84.375,-230.75 v -159.75 h -154.75 -175 v 154.75 h 175 v 5 c 0,51.2499 -12.91672,91.79173 -38.75,121.625 -25.83328,29.83327 -58.37508,44.75 -97.625,44.75 -39.24992,0 -71.79172,-14.91673 -97.625,-44.75 C 227.91672,583.66673 215,543.1249 215,491.875 V 100 Z"
     style="fill:#0095ff;fill-opacity:1" />
  <path
     id="path2-31"
     d="m 60.25,100 v 391.875 c 0,93.58315 28.12511,170.50012 84.375,230.75 56.24988,60.24988 125.16683,90.375 206.75,90.375 133.65623,-13.98058 107.51615,-159.13761 0,-154.75 -39.24992,0 -71.79172,-14.91673 -97.625,-44.75 C 227.91672,583.66673 215,543.1249 215,491.875 V 100 Z"
     sodipodi:nodetypes="cssccsscc"
     style="fill:#007eff;fill-opacity:1" />
  <path
     id="path2-3"
     d="m 60.25,100 v 291.875 c 0,129.47912 154.75,128.53843 154.75,0 V 100 Z"
     sodipodi:nodetypes="czzcc"
     style="fill:#0068ff;fill-opacity:1" />
  <circle
     style="fill:#00acff;fill-opacity:1;fill-rule:evenodd;stroke-width:1.15682"
     id="path343"
     cx="555"
     cy="187.5"
     r="87.5" />
</svg>
