<svg width="280" height="280" fill="none" xmlns="http://www.w3.org/2000/svg"><g clip-path="url(#a)"><path fill="#080808" d="M560 0H0v280h560z"/><path fill="#0d0d0d" d="M0 0v280.855h442.559c4.221-22.015 7.821-45.186 7.574-66.783-.518-45.256-17.581-83.357-27.215-116.794-9.316-32.33-11.641-60.485-12.387-97.278Z"/><path fill="#121212" d="M0 0v280.855h299.102c6.033-31.258 15.87-62.531 18.638-88.235 4.051-37.608-7.606-63.351-17.652-96.135-8.682-28.333-16.099-61.93-11.264-96.485Z"/><path fill="#171717" d="M0 0v280.855h209.795c2.388-23.865.338-44.568-7.529-66.783-11.216-31.67-34.046-66.561-23.537-111.232 7.756-32.972 33.59-71.226 46.664-102.84Z"/><path fill="#1c1c1c" d="M0 0v280.855h102.768c-15.527-28.994-32.51-60.488-35.836-86.647-5.321-41.854 24.834-69.181 27.212-102.491C96.221 62.642 77.148 29.015 71.428 0Z"/><path fill="#0095ff" d="M83.243 70.497v76.4c0 18.244 5.482 33.24 16.45 44.986 10.966 11.747 24.402 17.62 40.308 17.62 15.905 0 29.341-5.873 40.307-17.62 10.966-11.746 16.45-26.742 16.45-44.987v-31.144H132.47v30.17h34.117v.974c0 9.992-2.518 17.896-7.554 23.712-5.036 5.817-11.38 8.725-19.032 8.725-7.653 0-13.997-2.908-19.034-8.725-5.037-5.816-7.554-13.72-7.554-23.712v-76.4Z"/><path fill="#007eff" d="M83.243 70.497v76.4c0 18.244 5.482 33.24 16.45 44.986 10.966 11.747 24.402 17.62 40.308 17.62 26.057-2.726 20.96-31.026 0-30.17-7.653 0-13.997-2.908-19.034-8.725-5.037-5.816-7.554-13.72-7.554-23.712v-76.4Z"/><path fill="#0068ff" d="M83.243 70.497V127.4c0 25.243 30.17 25.059 30.17 0V70.497Z"/><path fill="#00acff" d="M179.699 104.614c9.422 0 17.058-7.636 17.058-17.058s-7.636-17.06-17.058-17.06-17.059 7.638-17.059 17.06c0 9.422 7.637 17.058 17.059 17.058z"/></g><defs><clipPath id="a"><path fill="#fff" d="M0 0h560v280H0Z"/></clipPath></defs></svg>