<?xml version="1.0" encoding="UTF-8" standalone="no"?>
<!-- Created with Inkscape (http://www.inkscape.org/) -->

<svg
   width="560"
   height="900"
   viewBox="0 0 560 900"
   version="1.1"
   id="SVGRoot"
   sodipodi:docname="unageo_disclamer.svg"
   inkscape:version="1.2 (dc2aedaf03, 2022-05-15)"
   xml:space="preserve"
   xmlns:inkscape="http://www.inkscape.org/namespaces/inkscape"
   xmlns:sodipodi="http://sodipodi.sourceforge.net/DTD/sodipodi-0.dtd"
   xmlns="http://www.w3.org/2000/svg"
   xmlns:svg="http://www.w3.org/2000/svg"><sodipodi:namedview
     id="namedview137"
     pagecolor="#505050"
     bordercolor="#eeeeee"
     borderopacity="1"
     inkscape:showpageshadow="0"
     inkscape:pageopacity="0"
     inkscape:pagecheckerboard="0"
     inkscape:deskcolor="#505050"
     inkscape:document-units="px"
     showgrid="false"
     inkscape:zoom="0.18418385"
     inkscape:cx="-1503.9321"
     inkscape:cy="494.07155"
     inkscape:window-width="1920"
     inkscape:window-height="1009"
     inkscape:window-x="-8"
     inkscape:window-y="114"
     inkscape:window-maximized="1"
     inkscape:current-layer="layer1" /><defs
     id="defs132"><inkscape:path-effect
       effect="fillet_chamfer"
       id="path-effect2909"
       is_visible="true"
       lpeversion="1"
       nodesatellites_param="F,0,0,1,0,26,0,1 @ F,0,0,1,0,26,0,1 @ F,0,0,1,0,26,0,1 @ F,0,0,1,0,26,0,1 @ F,0,0,1,0,26,0,1 @ F,0,0,1,0,26,0,1 @ F,0,0,1,0,26,0,1"
       unit="px"
       method="auto"
       mode="F"
       radius="26"
       chamfer_steps="1"
       flexible="false"
       use_knot_distance="true"
       apply_no_radius="true"
       apply_with_radius="true"
       only_selected="false"
       hide_knots="false" /></defs><rect
     style="font-variation-settings:'wght' 600;display:inline;fill:#080808;fill-opacity:1;stroke-width:2.18653;stroke-linecap:round;stroke-linejoin:round"
     id="rect370"
     width="560"
     height="900"
     x="0"
     y="0" /><g
     inkscape:label="Layer 1"
     inkscape:groupmode="layer"
     id="layer1"
     transform="matrix(1.513119,0,0,1.513119,-139.18249,-0.2224397)"><g
       id="g1411"
       transform="matrix(0.29508877,0,0,0.29508877,173.34525,57.638786)"><path
         id="path2"
         d="m 60.25,100 v 391.875 c 0,93.58315 28.125112,170.50012 84.375,230.75 56.24988,60.24988 125.16683,90.375 206.75,90.375 81.58317,0 150.50012,-30.12512 206.75,-90.375 56.24988,-60.24988 84.375,-137.16685 84.375,-230.75 v -159.75 h -154.75 -175 v 154.75 h 175 v 5 c 0,51.2499 -12.91672,91.79173 -38.75,121.625 -25.83328,29.83327 -58.37508,44.75 -97.625,44.75 -39.24992,0 -71.79172,-14.91673 -97.625,-44.75 C 227.91672,583.66673 215,543.1249 215,491.875 V 100 Z"
         style="fill:#0095ff;fill-opacity:1" /><path
         id="path2-31"
         d="m 60.25,100 v 391.875 c 0,93.58315 28.12511,170.50012 84.375,230.75 56.24988,60.24988 125.16683,90.375 206.75,90.375 133.65623,-13.98058 107.51615,-159.13761 0,-154.75 -39.24992,0 -71.79172,-14.91673 -97.625,-44.75 C 227.91672,583.66673 215,543.1249 215,491.875 V 100 Z"
         sodipodi:nodetypes="cssccsscc"
         style="fill:#007eff;fill-opacity:1" /><path
         id="path2-3"
         d="m 60.25,100 v 291.875 c 0,129.47912 154.75,128.53843 154.75,0 V 100 Z"
         sodipodi:nodetypes="czzcc"
         style="fill:#0068ff;fill-opacity:1" /><circle
         style="fill:#00acff;fill-opacity:1;fill-rule:evenodd;stroke-width:1.15682"
         id="path343"
         cx="555"
         cy="187.5"
         r="87.5" /></g><g
       aria-label="Unageo"
       id="text1831"
       style="font-size:61.1642px;line-height:1.25;font-family:Untitled1;-inkscape-font-specification:Untitled1;fill:#a8a8a8;fill-opacity:1;stroke-width:0.819163"
       transform="matrix(0.80815383,0,0,0.80815383,-1.680143,270.90784)"><path
         d="m 238.574,73.574602 h 7.64553 V 98.16261 q 0,5.26012 2.75239,8.3795 2.75239,3.11937 6.85039,3.11937 4.15916,0 6.91155,-3.11937 2.75239,-3.11938 2.75239,-8.3795 V 73.574602 h 7.64553 V 98.16261 q 0,8.31833 -5.01547,13.70078 -4.9543,5.38245 -12.23284,5.38245 -7.27854,0 -12.294,-5.38245 -5.01547,-5.38245 -5.01547,-13.70078 z"
         id="path925"
         style="fill:#a8a8a8;fill-opacity:1" /><path
         d="M 279.684,116.38954 V 85.807442 h 6.60573 v 6.666897 l 0.73398,0.42815 v 23.487051 z m 27.89088,0 h -7.33971 v -16.02502 c 0,-2.446567 -0.63203,-4.383433 -1.89609,-5.810598 -1.26406,-1.427165 -2.83394,-2.140747 -4.70964,-2.140747 -1.8757,0 -3.44558,0.713582 -4.70964,2.140747 -1.26406,1.427165 -1.89609,3.364031 -1.89609,5.810598 v 16.02502 h -4.2815 v -16.02502 c 0,-4.52615 1.08057,-8.196002 3.2417,-11.009555 2.16114,-2.854329 4.99508,-4.281494 8.50183,-4.281494 4.28149,0 7.5232,1.366001 9.72511,4.098002 2.24269,2.732001 3.36403,6.463016 3.36403,11.193047 z"
         id="path927"
         sodipodi:nodetypes="cccccccccsssssccscscsc"
         style="fill:#a8a8a8;fill-opacity:1" /><path
         d="m 327.71847,85.073471 c 4.11839,0 7.38048,1.529105 9.78627,4.587315 2.40579,3.05821 3.60869,6.870778 3.60869,11.437704 0,4.64848 -1.16212,8.48144 -3.48636,11.49887 -2.32424,3.01743 -5.62711,4.52615 -9.9086,4.52615 -4.36305,0 -7.97174,-1.54949 -10.82607,-4.64848 -2.85433,-3.09899 -4.28149,-6.89117 -4.28149,-11.37654 0,-4.485373 1.42716,-8.277553 4.28149,-11.376539 2.85433,-3.098987 6.46302,-4.64848 10.82607,-4.64848 z m 0.36698,6.666898 c -2.52812,0 -4.62809,0.917463 -6.29991,2.752389 -1.67182,1.79415 -2.50773,3.996061 -2.50773,6.605732 0,2.60967 0.83591,4.83197 2.50773,6.6669 1.67182,1.79415 3.77179,2.69122 6.29991,2.69122 2.52812,0 4.58732,-0.89707 6.17759,-2.69122 1.63105,-1.79415 2.44657,-4.01645 2.44657,-6.6669 0,-2.650447 -0.81552,-4.872746 -2.44657,-6.666896 -1.59027,-1.79415 -3.64947,-2.691225 -6.17759,-2.691225 z m 9.84744,-5.932927 h 6.36108 v 30.582098 h -6.36108 z"
         id="path929"
         sodipodi:nodetypes="sssssssssscscscscsccccc"
         style="fill:#a8a8a8;fill-opacity:1" /><path
         d="M 380.65403,85.868606 V 113.209 q 0.0612,7.33971 -4.34265,11.80469 -4.34266,4.46499 -11.25422,4.46499 -4.098,0 -7.46203,-0.79513 -3.36403,-0.79514 -5.93293,-2.75239 l 3.24171,-5.68827 q 4.15916,2.69122 9.9086,2.69122 4.15916,0 6.4834,-2.75239 2.32424,-2.75239 2.32424,-6.72806 v -12.84448 l 0.36699,-0.917465 V 85.868606 Z m -16.51433,-0.73397 q 5.8106,0 8.92997,4.342658 3.18054,4.281494 3.18054,10.948396 0,6.66689 -2.93588,10.94839 -3.05821,4.40382 -9.17463,4.40382 -6.23875,0 -10.33675,-4.40382 -4.098,-4.46499 -4.098,-10.88723 0,-6.483406 4.098,-10.887228 4.098,-4.464986 10.33675,-4.464986 z m 0.30582,6.789226 q -3.42519,0 -5.74943,2.507732 -2.26308,2.446568 -2.26308,6.055256 0,3.54752 2.26308,6.05526 2.32424,2.44656 5.74943,2.44656 3.48636,0 5.62711,-2.44656 2.20191,-2.50774 2.20191,-6.05526 0,-3.608688 -2.20191,-6.055256 -2.14075,-2.507732 -5.62711,-2.507732 z"
         id="path931"
         style="fill:#a8a8a8;fill-opacity:1" /><path
         d="m 401.57217,85.073471 q 6.48341,0 10.33675,4.587315 3.91451,4.587315 3.91451,11.437704 v 2.44657 h -22.56959 q 0.73397,3.05821 3.11937,5.01546 2.38541,1.89609 5.68827,1.89609 5.1378,0 7.82902,-2.75238 l 4.64848,4.7708 q -4.58731,4.64848 -12.4775,4.64848 -6.85039,0 -11.4377,-4.64848 -4.58732,-4.64848 -4.58732,-11.37654 0,-6.72806 4.46499,-11.376539 4.46499,-4.64848 11.07072,-4.64848 z m 0,6.177584 q -3.2417,0 -5.44361,1.957255 -2.07959,1.89609 -2.75239,4.831972 h 15.59687 q -0.67281,-3.119375 -2.50773,-4.954301 -1.89609,-1.834926 -4.89314,-1.834926 z"
         id="path933"
         style="fill:#a8a8a8;fill-opacity:1" /><path
         d="m 446.77256,89.721951 q -4.34266,-4.64848 -11.07072,-4.64848 -6.72807,0 -11.07072,4.64848 -4.34266,4.648479 -4.34266,11.376539 0,6.72806 4.34266,11.37654 4.34265,4.64848 11.07072,4.64848 6.72806,0 11.07072,-4.64848 4.40382,-4.64848 4.40382,-11.37654 0,-6.72806 -4.40382,-11.376539 z m -17.37064,4.709643 q 2.44657,-2.691225 6.29992,-2.691225 3.91451,0 6.36107,2.691225 2.44657,2.691225 2.44657,6.666896 0,3.97567 -2.44657,6.6669 -2.44656,2.69122 -6.36107,2.69122 -3.85335,0 -6.29992,-2.69122 -2.44656,-2.69123 -2.44656,-6.6669 0,-3.975671 2.44656,-6.666896 z"
         id="path935"
         style="fill:#a8a8a8;fill-opacity:1" /></g><g
       aria-label="typeface"
       id="text1885"
       style="font-size:52.0747px;line-height:1.25;font-family:Untitled1;-inkscape-font-specification:Untitled1;display:inline;fill:#666666;fill-opacity:1;stroke-width:0.813667"
       transform="matrix(0.80815383,0,0,0.80815383,-1.680143,269.4517)"><path
         d="m 242.84412,142.4753 h 6.24897 v 8.12366 h 6.82178 v 6.24896 h -6.82178 v 9.11307 q 0,2.13507 1.45809,3.59316 1.51016,1.45809 3.59315,1.45809 h 1.77054 v 6.24896 h -1.77054 q -4.68672,0 -8.0195,-3.33278 -3.28071,-3.33278 -3.28071,-7.96743 v -9.11307 H 238.574 v -6.24896 h 4.27012 z"
         id="path987"
         style="fill:#666666;fill-opacity:1" /><path
         d="m 258.7269,150.59896 h 6.76971 l 7.81121,18.22614 7.3946,-18.22614 h 6.87387 l -12.70623,30.15125 q -1.35394,3.12448 -4.3222,4.99917 -2.91618,1.92676 -6.40519,1.92676 h -2.60373 v -5.72821 h 2.60373 q 1.71847,-0.0521 3.12448,-0.93735 1.45809,-0.93734 2.18714,-2.55166 l 0.83319,-1.92676 z"
         id="path989"
         style="fill:#666666;fill-opacity:1" /><path
         d="m 305.12917,177.2612 q -5.25954,0 -8.33195,-3.9056 -3.02033,-3.9056 -3.02033,-9.73797 0,-5.93651 2.96826,-9.79004 2.96825,-3.85353 8.38402,-3.85353 5.572,0 9.21722,3.95768 3.64523,3.95767 3.64523,9.68589 0,5.72822 -3.64523,9.6859 -3.64522,3.95767 -9.21722,3.95767 z m -0.31245,-5.67614 q 3.28071,0 5.3637,-2.29129 2.13506,-2.34336 2.13506,-5.67614 0,-3.33278 -2.13506,-5.62407 -2.08299,-2.34336 -5.3637,-2.34336 -3.22863,0 -5.20747,2.29129 -1.97883,2.29129 -1.97883,5.67614 0,3.38486 1.97883,5.67614 1.97884,2.29129 5.20747,2.29129 z m -8.33195,-20.9861 v 12.81037 l 0.36453,0.2083 v 23.43362 h -5.7803 v -36.45229 z"
         id="path991"
         style="fill:#666666;fill-opacity:1" /><path
         d="m 334.23522,149.97406 q 5.51992,0 8.80063,3.9056 3.33278,3.90561 3.33278,9.73797 v 2.08299 h -19.21557 q 0.6249,2.60373 2.65581,4.27013 2.03092,1.61431 4.84295,1.61431 4.37427,0 6.66556,-2.34336 l 3.95768,4.06183 q -3.9056,3.95767 -10.62324,3.95767 -5.83237,0 -9.73797,-3.95767 -3.9056,-3.95768 -3.9056,-9.6859 0,-5.72822 3.80145,-9.68589 3.80145,-3.95768 9.42552,-3.95768 z m 0,5.25955 q -2.75996,0 -4.63465,1.66639 -1.77054,1.61431 -2.34336,4.1139 h 13.27905 q -0.57282,-2.65581 -2.13506,-4.21805 -1.61432,-1.56224 -4.16598,-1.56224 z"
         id="path993"
         style="fill:#666666;fill-opacity:1" /><path
         d="m 363.50125,139.24667 h 3.489 v 6.24897 h -3.489 q -1.35395,0 -2.34337,0.98942 -0.98941,0.98942 -0.98941,2.34336 v 1.77054 h 6.82178 v 6.24896 h -6.82178 v 19.78839 h -6.24897 v -19.78839 h -4.42635 v -6.24896 h 4.42635 v -1.77054 q 0,-3.95768 2.81203,-6.76971 2.81204,-2.81204 6.76972,-2.81204 z"
         id="path995"
         style="fill:#666666;fill-opacity:1" /><path
         d="m 382.11945,149.97406 c 3.50636,0 6.28368,1.30187 8.33195,3.9056 2.04827,2.60374 3.07241,5.84973 3.07241,9.73797 0,3.95768 -0.98942,7.22103 -2.96826,9.79005 -1.97884,2.56901 -4.79088,3.85352 -8.4361,3.85352 -3.71466,0 -6.78707,-1.31922 -9.21722,-3.95767 -2.43016,-2.63845 -3.64523,-5.86709 -3.64523,-9.6859 0,-3.81881 1.21507,-7.04744 3.64523,-9.68589 2.43015,-2.63845 5.50256,-3.95768 9.21722,-3.95768 z m 0.31245,5.67614 c -2.15242,0 -3.94032,0.78112 -5.3637,2.34336 -1.42338,1.52753 -2.13506,3.40222 -2.13506,5.62407 0,2.22185 0.71168,4.1139 2.13506,5.67614 1.42338,1.52753 3.21128,2.29129 5.3637,2.29129 2.15242,0 3.9056,-0.76376 5.25954,-2.29129 1.38866,-1.52752 2.08299,-3.41957 2.08299,-5.67614 0,-2.25657 -0.69433,-4.14861 -2.08299,-5.67614 -1.35394,-1.52753 -3.10712,-2.29129 -5.25954,-2.29129 z m 8.38403,-5.05124 h 5.41576 v 26.03735 h -5.41576 z"
         id="path997"
         sodipodi:nodetypes="sssssssssscscscscsccccc"
         style="fill:#666666;fill-opacity:1" /><path
         d="m 413.49697,149.974 c 3.71466,0 6.83914,1.31923 9.37344,3.95768 l -4.00975,4.06182 c -1.42337,-1.56224 -3.22863,-2.34336 -5.41577,-2.34336 -2.15242,0 -3.94031,0.78112 -5.36369,2.34336 -1.38866,1.52753 -2.08299,3.40222 -2.08299,5.62407 0,2.22185 0.69433,4.1139 2.08299,5.67614 1.42338,1.52753 3.22863,2.29129 5.41577,2.29129 2.15242,0 3.94032,-0.78112 5.36369,-2.34336 l 3.95768,4.06183 c -2.49958,2.63845 -5.60671,3.95767 -9.32137,3.95767 -3.74938,0 -6.89122,-1.31922 -9.42552,-3.95767 -2.5343,-2.67317 -3.80145,-5.90181 -3.80145,-9.6859 0,-3.78409 1.26715,-6.99537 3.80145,-9.63382 2.5343,-2.67317 5.67614,-4.00975 9.42552,-4.00975 z"
         id="path999"
         sodipodi:nodetypes="sccscscsccscscs"
         style="fill:#666666;fill-opacity:1" /><path
         d="m 438.64297,149.97406 c 3.67995,0 6.61349,1.30187 8.80063,3.9056 2.22185,2.60374 3.33278,5.84973 3.33278,9.73797 v 2.08299 h -19.21556 c 0.41659,1.73582 1.30186,3.1592 2.65581,4.27013 1.35394,1.07621 2.96825,1.61431 4.84294,1.61431 2.91619,0 5.13804,-0.78112 6.66556,-2.34336 l 3.95768,4.06183 c -2.60373,2.63845 -6.14481,3.95767 -10.62324,3.95767 -3.88824,0 -7.13423,-1.31922 -9.73797,-3.95767 -2.60373,-2.63845 -3.9056,-5.86709 -3.9056,-9.6859 0,-3.81881 1.26715,-7.04744 3.80145,-9.68589 2.53431,-2.63845 5.67615,-3.95768 9.42552,-3.95768 z m 0,5.25955 c -1.83997,0 -3.38485,0.55546 -4.63464,1.66639 -1.18036,1.07621 -1.96148,2.44751 -2.34336,4.1139 h 13.27904 c -0.38188,-1.77054 -1.09357,-3.17656 -2.13506,-4.21805 -1.07621,-1.04149 -2.46487,-1.56224 -4.16598,-1.56224 z"
         id="path1001"
         sodipodi:nodetypes="scscccsccssssssccccs"
         style="fill:#666666;fill-opacity:1" /></g><g
       aria-label="Coming soon..."
       id="text947"
       style="font-size:42.2967px;line-height:1.25;font-family:Untitled1;-inkscape-font-specification:Untitled1;stroke-width:0.660887"
       transform="translate(-0.66088416,-1.3217731)"><path
         d="m 152.8173,525.16258 c 2.11484,0 4.08868,0.40887 5.92154,1.22661 1.83286,0.81773 3.42604,1.94564 4.77953,3.38373 l -3.72211,3.72211 c -1.83286,-2.03024 -4.15918,-3.04536 -6.97896,-3.04536 -2.73518,0 -5.00511,0.97282 -6.80977,2.91847 -1.80466,1.91745 -2.70699,4.28607 -2.70699,7.10585 0,2.81978 0.90233,5.20249 2.70699,7.14814 1.80466,1.91745 4.07459,2.87617 6.80977,2.87617 2.81978,0 5.1461,-1.01512 6.97896,-3.04536 l 3.72211,3.67982 c -1.35349,1.46628 -2.94667,2.60829 -4.77953,3.42603 -1.83286,0.81773 -3.8067,1.2266 -5.92154,1.2266 -4.22966,0 -7.76849,-1.50858 -10.61647,-4.52574 -2.76338,-2.96077 -4.14508,-6.55599 -4.14508,-10.78566 0,-4.22967 1.3817,-7.82489 4.14508,-10.78566 2.84798,-3.01717 6.38681,-4.52575 10.61647,-4.52575 z"
         style="fill:#636363"
         id="path1046"
         sodipodi:nodetypes="ssccscscsccsscscs" /><path
         d="m 184.14857,536.83647 q -3.00306,-3.21455 -7.6557,-3.21455 -4.65264,0 -7.6557,3.21455 -3.00307,3.21455 -3.00307,7.86719 0,4.65263 3.00307,7.86718 3.00306,3.21455 7.6557,3.21455 4.65264,0 7.6557,-3.21455 3.04536,-3.21455 3.04536,-7.86718 0,-4.65264 -3.04536,-7.86719 z m -12.01226,3.25685 q 1.69187,-1.86106 4.35656,-1.86106 2.70699,0 4.39886,1.86106 1.69186,1.86105 1.69186,4.61034 0,2.74928 -1.69186,4.61034 -1.69187,1.86105 -4.39886,1.86105 -2.66469,0 -4.35656,-1.86105 -1.69187,-1.86106 -1.69187,-4.61034 0,-2.74929 1.69187,-4.61034 z"
         style="fill:#636363"
         id="path1048" /><path
         d="m 190.32386,555.27783 v -21.14835 h 4.56805 v 4.61034 l 0.50756,0.29608 v 16.24193 z m 14.21169,0 V 544.1961 q 0,-2.53781 -1.31119,-4.01819 -1.2689,-1.48038 -3.25685,-1.48038 -1.94565,0 -3.25685,1.48038 -1.31119,1.48038 -1.31119,4.01819 v 11.08173 H 192.4387 V 544.1961 q 0,-4.69494 2.24172,-7.61341 2.28402,-2.96077 5.87924,-2.96077 4.44116,0 6.72518,2.87618 2.32632,2.83388 2.32632,7.698 v 11.08173 z m 19.2873,0 h -5.0756 V 544.1961 q 0,-2.53781 -1.3112,-4.01819 -1.2689,-1.48038 -3.25685,-1.48038 -1.94565,0 -3.25684,1.48038 -1.3112,1.48038 -1.3112,4.01819 v 11.08173 H 206.4812 V 544.1961 q 0,-4.69494 2.32632,-7.61341 2.32632,-2.96077 5.96384,-2.96077 4.44115,0 6.72517,2.87618 2.32632,2.83388 2.32632,7.698 z"
         style="fill:#636363"
         id="path1050" /><path
         d="m 228.30632,555.27783 v -21.14835 h 5.07561 v 21.14835 z m 2.5801,-24.91275 q -1.18431,0 -2.07254,-0.88823 -0.88823,-0.88824 -0.88823,-2.07254 0,-1.22661 0.88823,-2.07254 0.88823,-0.88823 2.07254,-0.88823 1.2266,0 2.07254,0.88823 0.88823,0.84593 0.88823,2.07254 0,1.1843 -0.88823,2.07254 -0.84594,0.88823 -2.07254,0.88823 z"
         style="fill:#636363"
         id="path1052" /><path
         d="m 238.79587,555.27783 v -21.14835 h 4.56805 v 4.61034 l 0.50756,0.29608 v 16.24193 z m 19.2873,0 h -5.07561 V 544.1961 q 0,-2.53781 -1.31119,-4.01819 -1.3112,-1.48038 -3.25685,-1.48038 -1.94565,0 -3.25684,1.48038 -1.3112,1.48038 -1.3112,4.01819 v 11.08173 h -2.96077 V 544.1961 q 0,-4.69494 2.24172,-7.61341 2.24173,-2.96077 5.87925,-2.96077 4.44115,0 6.72517,2.83388 2.32632,2.83388 2.32632,7.7403 z"
         style="fill:#636363"
         id="path1054" /><path
         d="m 283.12281,534.17178 v 18.90662 q 0.0423,5.07561 -3.00307,8.16327 -3.00306,3.08766 -7.78259,3.08766 -2.83388,0 -5.1602,-0.54986 -2.32632,-0.54986 -4.10278,-1.90335 l 2.24173,-3.9336 q 2.87617,1.86106 6.85206,1.86106 2.87618,0 4.48345,-1.90335 1.60728,-1.90335 1.60728,-4.65264 v -8.88231 l 0.25378,-0.63445 v -9.55905 z m -11.42011,-0.50756 q 4.01819,0 6.17532,3.00306 2.19943,2.96077 2.19943,7.57111 0,4.61034 -2.03024,7.57111 -2.11484,3.04537 -6.34451,3.04537 -4.31426,0 -7.14814,-3.04537 -2.83388,-3.08766 -2.83388,-7.52881 0,-4.48345 2.83388,-7.52881 2.83388,-3.08766 7.14814,-3.08766 z m 0.21148,4.69493 q -2.36861,0 -3.97589,1.73417 -1.56497,1.69186 -1.56497,4.18737 0,2.45321 1.56497,4.18737 1.60728,1.69187 3.97589,1.69187 2.41092,0 3.8913,-1.69187 1.52268,-1.73416 1.52268,-4.18737 0,-2.49551 -1.52268,-4.18737 -1.48038,-1.73417 -3.8913,-1.73417 z"
         style="fill:#636363"
         id="path1056" /><path
         d="m 298.76996,540.13561 c 0.0282,-1.74826 0.60625,-3.17225 1.73417,-4.27196 1.55087,-1.49449 3.58111,-2.24173 6.09072,-2.24173 3.66571,0 6.11892,1.53678 7.35963,4.61034 l -4.06049,1.60728 c -0.62035,-1.55088 -1.72006,-2.32632 -3.29914,-2.32632 -0.81774,0 -1.50858,0.23968 -2.07254,0.71904 -0.53576,0.47937 -0.80364,1.05742 -0.80364,1.73417 0,1.12791 0.95872,1.91744 2.87618,2.36861 l 1.77646,0.46527 c 1.80466,0.47936 3.25684,1.29709 4.35656,2.4532 1.09971,1.12791 1.64957,2.52371 1.64957,4.18738 -0.0564,1.77646 -0.67675,3.18635 -1.86105,4.22967 -1.52268,1.40989 -3.60932,2.11483 -6.25991,2.11483 -1.91746,0 -3.62342,-0.40887 -5.1179,-1.2266 -1.49449,-0.81774 -2.52371,-2.04434 -3.08766,-3.67981 l 4.14507,-1.60728 c 0.87413,1.74827 2.10074,2.6224 3.67982,2.6224 0.84593,0 1.57907,-0.21148 2.19942,-0.63445 0.64855,-0.42297 0.94463,-1.00102 0.88824,-1.73417 -0.0282,-1.40989 -1.01513,-2.36861 -2.96077,-2.87617 l -1.94565,-0.46527 c -1.57908,-0.42297 -2.86208,-1.17021 -3.849,-2.24172 -0.95873,-1.07152 -1.43809,-2.34042 -1.43809,-3.80671 z"
         style="fill:#636363"
         id="path1058"
         sodipodi:nodetypes="ccsccscscccccssccscccccc" /><path
         d="m 335.73985,536.83647 q -3.00307,-3.21455 -7.65571,-3.21455 -4.65263,0 -7.6557,3.21455 -3.00307,3.21455 -3.00307,7.86719 0,4.65263 3.00307,7.86718 3.00307,3.21455 7.6557,3.21455 4.65264,0 7.65571,-3.21455 3.04536,-3.21455 3.04536,-7.86718 0,-4.65264 -3.04536,-7.86719 z m -12.01227,3.25685 q 1.69187,-1.86106 4.35656,-1.86106 2.70699,0 4.39886,1.86106 1.69187,1.86105 1.69187,4.61034 0,2.74928 -1.69187,4.61034 -1.69187,1.86105 -4.39886,1.86105 -2.66469,0 -4.35656,-1.86105 -1.69187,-1.86106 -1.69187,-4.61034 0,-2.74929 1.69187,-4.61034 z"
         style="fill:#636363"
         id="path1060" /><path
         d="m 360.3142,536.83647 q -3.00306,-3.21455 -7.6557,-3.21455 -4.65264,0 -7.6557,3.21455 -3.00307,3.21455 -3.00307,7.86719 0,4.65263 3.00307,7.86718 3.00306,3.21455 7.6557,3.21455 4.65264,0 7.6557,-3.21455 3.04536,-3.21455 3.04536,-7.86718 0,-4.65264 -3.04536,-7.86719 z m -12.01226,3.25685 q 1.69187,-1.86106 4.35656,-1.86106 2.70699,0 4.39886,1.86106 1.69186,1.86105 1.69186,4.61034 0,2.74928 -1.69186,4.61034 -1.69187,1.86105 -4.39886,1.86105 -2.66469,0 -4.35656,-1.86105 -1.69187,-1.86106 -1.69187,-4.61034 0,-2.74929 1.69187,-4.61034 z"
         style="fill:#636363"
         id="path1062" /><path
         d="m 367.04218,555.27783 v -21.14835 h 4.56805 v 4.61034 l 0.50756,0.29608 v 16.24193 z m 19.2873,0 h -5.0756 V 544.1961 c 0,-1.69187 -0.43706,-3.03127 -1.3112,-4.01819 -0.87413,-0.98692 -1.95975,-1.48038 -3.25685,-1.48038 -1.2971,0 -2.38271,0.49346 -3.25684,1.48038 -0.87413,0.98692 -1.3112,2.32632 -1.3112,4.01819 v 11.08173 h -2.96077 V 544.1961 c 0,-3.12996 0.74724,-5.66776 2.24172,-7.61341 1.49449,-1.97385 3.45424,-2.96077 5.87925,-2.96077 2.96077,0 5.20249,0.94463 6.72517,2.83388 1.55088,1.88925 2.32632,4.46935 2.32632,7.7403 z"
         style="fill:#636363"
         id="path1064"
         sodipodi:nodetypes="cccccccccsssssccscscsc" /><path
         d="m 396.18177,554.93946 q -0.93053,0.93053 -2.24172,0.93053 -1.26891,0 -2.19943,-0.93053 -0.93053,-0.93053 -0.93053,-2.19943 0,-1.2689 0.93053,-2.19943 0.93052,-0.93053 2.19943,-0.93053 1.31119,0 2.24172,0.93053 0.93053,0.93053 0.93053,2.19943 0,1.2689 -0.93053,2.19943 z"
         style="fill:#636363"
         id="path1066" /><path
         d="m 406.29072,554.93946 q -0.93053,0.93053 -2.24173,0.93053 -1.2689,0 -2.19943,-0.93053 -0.93052,-0.93053 -0.93052,-2.19943 0,-1.2689 0.93052,-2.19943 0.93053,-0.93053 2.19943,-0.93053 1.3112,0 2.24173,0.93053 0.93053,0.93053 0.93053,2.19943 0,1.2689 -0.93053,2.19943 z"
         style="fill:#636363"
         id="path1068" /><path
         d="m 416.39964,554.93946 q -0.93053,0.93053 -2.24173,0.93053 -1.2689,0 -2.19943,-0.93053 -0.93053,-0.93053 -0.93053,-2.19943 0,-1.2689 0.93053,-2.19943 0.93053,-0.93053 2.19943,-0.93053 1.3112,0 2.24173,0.93053 0.93052,0.93053 0.93052,2.19943 0,1.2689 -0.93052,2.19943 z"
         style="fill:#636363"
         id="path1070" /></g></g></svg>
