<?xml version="1.0" encoding="UTF-8" standalone="no"?>
<svg
   width="560"
   height="280"
   viewBox="0 0 560 280"
   fill="none"
   version="1.1"
   id="svg31"
   sodipodi:docname="unageo_art 1.svg"
   inkscape:version="1.2 (dc2aedaf03, 2022-05-15)"
   xmlns:inkscape="http://www.inkscape.org/namespaces/inkscape"
   xmlns:sodipodi="http://sodipodi.sourceforge.net/DTD/sodipodi-0.dtd"
   xmlns="http://www.w3.org/2000/svg"
   xmlns:svg="http://www.w3.org/2000/svg">
  <sodipodi:namedview
     id="namedview33"
     pagecolor="#505050"
     bordercolor="#eeeeee"
     borderopacity="1"
     inkscape:showpageshadow="0"
     inkscape:pageopacity="0"
     inkscape:pagecheckerboard="0"
     inkscape:deskcolor="#505050"
     showgrid="false"
     inkscape:zoom="1.0678571"
     inkscape:cx="229.43145"
     inkscape:cy="141.40469"
     inkscape:window-width="1920"
     inkscape:window-height="1009"
     inkscape:window-x="-8"
     inkscape:window-y="-8"
     inkscape:window-maximized="1"
     inkscape:current-layer="svg31" />
  <g
     clip-path="url(#clip0_1_2)"
     id="g24">
    <path
       d="M560 0H0V280H560V0Z"
       fill="#080808"
       id="path2" />
    <path
       d="M-3.05176e-05 0V280.855H442.559C446.78 258.84 450.38 235.669 450.133 214.072C449.615 168.816 432.552 130.715 422.918 97.2782C413.602 64.9473 411.277 36.7932 410.531 0H-3.05176e-05Z"
       fill="#0D0D0D"
       id="path4" />
    <path
       d="M0 0V280.855H299.102C305.135 249.597 314.972 218.324 317.74 192.62C321.791 155.012 310.134 129.269 300.088 96.485C291.406 68.1518 283.989 34.5542 288.824 0H0Z"
       fill="#121212"
       id="path6" />
    <path
       d="M0 0V280.855H209.795C212.183 256.99 210.133 236.287 202.266 214.072C191.05 182.402 168.22 147.511 178.729 102.84C186.485 69.868 212.319 31.6141 225.393 0H0Z"
       fill="#171717"
       id="path8" />
    <path
       d="M0 0V280.855H102.768C87.2414 251.861 70.2573 220.367 66.9317 194.208C61.6107 152.354 91.7658 125.027 94.1445 91.7169C96.2208 62.6423 77.1476 29.0146 71.4277 0H0Z"
       fill="#1C1C1C"
       id="path10" />
    <path
       d="M98.1631 80.2778V146.396C98.1631 162.186 102.908 175.164 112.399 185.329C121.89 195.495 133.518 200.578 147.283 200.578C161.048 200.578 172.676 195.495 182.166 185.329C191.657 175.164 196.402 162.186 196.402 146.396V119.443H170.292H140.766V145.553H170.292V146.396C170.292 155.043 168.113 161.884 163.754 166.917C159.396 171.951 153.905 174.468 147.283 174.468C140.66 174.468 135.17 171.951 130.811 166.917C126.452 161.884 124.273 155.043 124.273 146.396V80.2778H98.1631Z"
       fill="#0095FF"
       id="path12" />
    <path
       d="M98.1631 80.2778V146.396C98.1631 162.186 102.908 175.164 112.399 185.329C121.89 195.495 133.518 200.578 147.283 200.578C169.834 198.219 165.423 173.727 147.283 174.468C140.66 174.468 135.17 171.951 130.811 166.917C126.452 161.884 124.273 155.043 124.273 146.396V80.2778H98.1631Z"
       fill="#007EFF"
       id="path14" />
    <path
       d="M98.1631 80.2778V129.524C98.1631 151.37 124.273 151.211 124.273 129.524V80.2778H98.1631Z"
       fill="#0068FF"
       id="path16" />
    <path
       d="M181.639 109.804C189.793 109.804 196.402 103.195 196.402 95.0411C196.402 86.8876 189.793 80.2778 181.639 80.2778C173.485 80.2778 166.876 86.8876 166.876 95.0411C166.876 103.195 173.485 109.804 181.639 109.804Z"
       fill="#00ACFF"
       id="path18" />
  </g>
  <defs
     id="defs29">
    <clipPath
       id="clip0_1_2">
      <rect
         width="560"
         height="280"
         fill="white"
         id="rect26" />
    </clipPath>
  </defs>
  
</svg>
