<svg width="790" height="280" viewBox="0 0 790 280" fill="none" xmlns="http://www.w3.org/2000/svg">
<g clip-path="url(#clip0_6_2)">
<path d="M0 280H790V0H0V280Z" fill="hsl(220deg 9.68% 4.78%)"/>
<path d="M790 280.855V0H347.441C343.22 22.015 339.62 45.186 339.867 66.783C340.385 112.039 357.448 150.14 367.082 183.577C376.398 215.908 378.723 244.062 379.469 280.855H790Z" fill="hsl(220deg 9.68% 5.28%)"/>
<path d="M790 280.855V0H490.898C484.865 31.258 475.028 62.531 472.26 88.235C468.209 125.843 479.866 151.586 489.912 184.37C498.594 212.703 506.011 246.301 501.176 280.855H790Z" fill="hsl(220deg 9.68% 5.78%)"/>
<path d="M790 280.855V0H580.205C577.817 23.865 579.867 44.568 587.734 66.783C598.95 98.453 621.78 133.344 611.271 178.015C603.515 210.987 577.681 249.241 564.607 280.855H790Z" fill="hsl(220deg 9.68% 6.29%)"/>
<path d="M790 280.855V0H687.232C702.759 28.994 719.743 60.488 723.068 86.647C728.389 128.501 698.234 155.828 695.856 189.138C693.779 218.213 712.852 251.84 718.572 280.855H790Z" fill="hsl(220deg 9.68% 6.72%)"/>
</g>
</svg>
