<?xml version="1.0" encoding="UTF-8" standalone="no"?>
<svg
   width="790"
   height="280"
   viewBox="0 0 790 280"
   fill="none"
   version="1.1"
   id="svg31"
   sodipodi:docname="unageo_art-bg.svg"
   inkscape:version="1.2 (dc2aedaf03, 2022-05-15)"
   xmlns:inkscape="http://www.inkscape.org/namespaces/inkscape"
   xmlns:sodipodi="http://sodipodi.sourceforge.net/DTD/sodipodi-0.dtd"
   xmlns="http://www.w3.org/2000/svg"
   xmlns:svg="http://www.w3.org/2000/svg">
  <sodipodi:namedview
     id="namedview33"
     pagecolor="#505050"
     bordercolor="#eeeeee"
     borderopacity="1"
     inkscape:showpageshadow="0"
     inkscape:pageopacity="0"
     inkscape:pagecheckerboard="0"
     inkscape:deskcolor="#505050"
     showgrid="false"
     inkscape:zoom="1.510178"
     inkscape:cx="263.21401"
     inkscape:cy="160.90819"
     inkscape:window-width="1920"
     inkscape:window-height="1009"
     inkscape:window-x="-8"
     inkscape:window-y="114"
     inkscape:window-maximized="1"
     inkscape:current-layer="svg31" />
  <path
     d="M 0,280 H 790 V 0 H 0 Z"
     fill="#080808"
     id="path2"
     style="fill:#0c0c0c;fill-opacity:1;stroke-width:1.18773" />
  <path
     d="M 790,280.855 V 0 H 347.44097 c -4.221,22.015 -7.821,45.186 -7.574,66.783 0.518,45.256 17.581,83.357 27.215,116.7938 9.316,32.3309 11.641,60.485 12.387,97.2782 z"
     fill="#0d0d0d"
     id="path4"
     style="fill:#0d0d0d;fill-opacity:1" />
  <path
     d="M 789.99997,280.855 V 0 h -299.102 c -6.033,31.258 -15.87,62.531 -18.638,88.235 -4.051,37.608 7.606,63.351 17.652,96.135 8.682,28.3332 16.099,61.9308 11.264,96.485 z"
     fill="#121212"
     id="path6"
     style="fill:#0f0f0f;fill-opacity:1" />
  <path
     d="M 789.99997,280.855 V 0 h -209.795 c -2.388,23.865 -0.338,44.568 7.529,66.783 11.216,31.67 34.046,66.561 23.537,111.232 -7.756,32.972 -33.59,71.2259 -46.664,102.84 z"
     fill="#171717"
     id="path8"
     style="fill:#131313;fill-opacity:1" />
  <path
     d="M 789.99997,280.855 V 0 h -102.768 c 15.5266,28.994 32.5107,60.488 35.8363,86.647 5.321,41.854 -24.8341,69.181 -27.2128,102.4911 -2.0763,29.0746 16.9969,62.7023 22.7168,91.7169 z"
     fill="#1c1c1c"
     id="path10"
     style="fill:#161616;fill-opacity:1" />
  <defs
     id="defs29">
    <clipPath
       id="clip0_1_2">
      <rect
         width="560"
         height="280"
         fill="#ffffff"
         id="rect26"
         x="0"
         y="0" />
    </clipPath>
  </defs>
</svg>
