<svg xmlns="http://www.w3.org/2000/svg" xml:space="preserve" width="360" height="220" viewBox="0 0 360 220">
  <path d="M0 0h360v220H0Z" style="font-variation-settings:'wght' 600;display:inline;fill:#1f1f1f;fill-opacity:.980392;stroke-width:2.43902;stroke-linecap:round;stroke-linejoin:round"/>
  <g opacity=".25" style="fill:none" transform="translate(-40.058112 83.590138) scale(.53324)">
    <circle cx="160" cy="160" r="143" stroke="#6b6b6b" stroke-width="34"/>
    <circle cx="245" cy="216" r="160" fill="#4d4d4d"/>
  </g>
  <g opacity=".25" style="fill:none" transform="rotate(-149.232 198.28503041 41.28042727) scale(.55957)">
    <circle cx="160" cy="160" r="143" stroke="#6b6b6b" stroke-width="34"/>
    <circle cx="245" cy="216" r="160" fill="#4d4d4d"/>
  </g>
  <g fill="none" stroke-width="2">
    <path stroke="#0098d5" stroke-opacity=".855" d="M82.12699824 99.77165478q.50393073.17425642.79121835.85244357" vector-effect="non-scaling-stroke"/>
    <path stroke="#00aaec" stroke-opacity=".984" d="M101.6578463 126.15501884q.47567293.13657936.47567293.76296055.00470963.23077202.23077201.27786835 1.83675687.39560917.87599174-.1554179" vector-effect="non-scaling-stroke"/>
    <path stroke="#0098d5" stroke-opacity=".855" d="M107.5825646 112.05908727q.53218854.0282578.17425643-.90424953-.29199725-.77237981.0282578-1.73314495" vector-effect="non-scaling-stroke"/>
  </g>
  <path d="M75.558594 17.123047c-35.401406-.239393-60.950541 29.324934-62.199219 59.502331-1.248678 30.177402 23.028971 64.298962 60.809843 65.054312 37.780872.75535 62.486782-27.99162 63.551482-62.30147 1.0647-34.309845-26.7607-62.01578-62.162106-62.255173Zm16.380859 12.396484c3.169997.2 6.161097.720234 9.371097.240235 2.83999-.426667 5.82875.477606 8.96875 2.710937 5.42999 3.869996 10.19023 8.679693 13.49023 14.429688 2.52 4.399995 4.99 7.990083 6.5 13.080078.65 2.169998-1.79016 6.578749-4.41015 5.71875-2.6-.853333-5.21938-1.109531-7.85938-.769531-1.22667.159999-1.44682.71349-.66016 1.660156.26667.319999.59071.593646.97071.820312 1.14.68 2.25937 1.025729 3.35937 1.039063 1.54667.0067 3.1773.06831 4.89063.18164.37786.02124.66275.35567.6289.738282-.28666 3.37333-1.60875 6.310549-3.96875 8.810547-.11333.339999-.2006.67276-.25976.996093-.0592.323333-.0907.636693-.0957.94336-.005.306666.0172.606484.0664.896484.0492.29.12518.570417.22852.84375-.10334-.273333-.17935-.55375-.22852-.84375-.0492-.29-.0714-.589818-.0664-.896484.005-.306667.0365-.620027.0957-.94336.0592-.323333.14643-.656094.25976-.996093-2.18999 2.399997-5.81148.399607-7.77148-1.400391-3.44666-3.159997-5.99511-6.622009-7.64844-10.388672-.44-1.013332-.64776-.967994-.62109.138672.07 2.609997-.39922 5.019924 1.05078 7.419922 3.39 5.579994 6.67047 9.620155 13.73047 8.660156.28-.04.50635.05148.67968.271484.18.233333.22844.531772.14844.898438-.60666 4.553329-2.49154 8.246748-5.6582 11.080078-1.41333 1.273332-2.33505 2.347371-2.76172 3.220703-1.74 3.569992-1.81875 8.510552-2.21875 12.560542-.0533.55334.11333.62542.5.21876.14667-.15334.31953-.26032.51953-.32032 1.34-.39 4.35985.50094 5.58985.96094 1.67999.62667 2.02262 1.74604 1.02929 3.35938-1.53 2.46999-4.11875 1.35046-6.21875.73046 1.36.78.74062.89008-1.85937.33008-.32-.0667-.48357-.26318-.49024-.58984 0-.88667-.33643-1.42581-1.00976-1.61914-2.52 2.31333-4.73396 4.89161-6.64063 7.73828-2.74999 4.11999-4.470236 5.52172-8.990232 6.51172-2.959997.64666-5.117371-.22467-6.470703-2.61133-1.929998-3.4-3.649453-7.83985-3.189453-11.83984.589999-5.18-1.329845-10.22048-2.589844-15.230473-.819999-3.266664-2.650237-5.216277-5.490234-5.849609-3.099997-.69-7.589144 1.089608-10.369141.599609-7.013326-1.246666-10.623412-5.50907-10.830078-12.789063-.1-3.379996.149456-9.180158 2.939453-11.660156 3.666663-3.259997 7.613181-6.286747 11.839844-9.080078-.101667-.24-.213151-.456927-.333984-.652344-.120834-.195416-.250626-.368698-.390626-.519531-.139999-.150833-.290052-.280469-.449218-.386719-.159167-.10625-.327526-.190286-.50586-.251953-1.079999-.466666-1.362942-1.038751-.849609-1.71875 3.219997-4.306662 7.038989-8.291175 11.458984-11.951172 1.969998-1.629998 4.039769-3.469218 6.759766-3.449219 2.099998.01333 4.164742-.07 6.191406-.25 1.639999-.139999 2.333411-1.023725 2.080078-2.65039-.09572-.649249-.587534-1.16917-1.230468-1.300781-1.926665-.393333-3.896825-.729766-5.910157-1.009766-1.659998-.23-3.020545-2.058517-1.560546-3.478516 1.759998-1.726665 3.846434-2.514661 6.259765-2.361328zM68.740234 57.689453c.178334.06167.346693.145703.50586.251953.159166.10625.309219.235886.449218.386719.14.150833.269792.324115.390626.519531.120833.195417.232317.412344.333984.652344 2.019998-1.606665 4.850238-2.369062 8.490234-2.289062 1.389999.159999 2.939845.908126 3.839844 2.078124C84.956664 62.202393 87.786904 63.69 91.240234 63.75c3.91333.06 8.062557-.06247 12.449216-.369141 1.05334-.07333 2.04404.07898 2.97071.458985.27333.106666.45239.02023.53906-.259766.64-1.999998.21078-3.750548-1.69922-4.810547-6.329994-3.519996-13.740007-5.269768-20.5-7.509765-2.659997-.873333-5.056122-.572942-7.189453.90039-2.659997 2.633331-5.683649 4.475965-9.070313 5.529297zm8.119141-2.900391c-.005.08167-.0015.161329.0098.236329.01125.075.03109.14651.05859.214843.0275.06833.06367.133646.107422.195313.04375.06167.0943.118828.154297.173828-.06-.055-.110547-.112162-.154297-.173828-.04375-.06167-.07992-.126979-.107422-.195313-.0275-.06833-.04734-.139843-.05859-.214843-.01125-.075-.01477-.154662-.0098-.236329zM16.289062 70.203125c.12-.035.324662.206563.611329.726563 1.659998 2.989997 3.130392 5.900862 4.40039 9.130859 2.719998 6.90666 6.729302 12.96326 12.029297 18.169922 3.809996 3.740001.140623 12.880391-2.109375 16.650391-.353843.5994-1.068581.88014-1.730469.67969-1.349998-.4-2.660078-1.5-3.330078-2.75-1.889998-3.49-4.109532-6.77102-5.519531-10.54102C17.350628 93.46954 16.96 85.710382 17 76.650391c.01-1.889998-.670313-3.649768-.820312-5.509766-.04667-.589999-.01062-.9025.109374-.9375z" style="fill:#00a9ea;fill-opacity:.980392" transform="translate(49.752981 72.601782) scale(.47096)"/>
  <path d="M477.93793 62.43761c1.97725-.04212 3.74524.230872 5.11019.552038 1.61068.378985 2.8292 2.253262 2.79813 3.909825l-.245 13.066054c-.0311 1.656563-1.38859 2.823453-3.03969 2.687142-1.13288-.09353-2.45221-.173205-3.70436-.179162-1.65439-.0079-4.30906.48008-5.85843 1.06147-1.28259.481281-2.62845 1.072759-3.75727 1.596489-1.50267.697187-2.70723 2.656637-2.72047 4.313438l-.25581 32.015196a3.0239357 3.0239357 135.23014 0 1-3.02397 2.99977l-17.11625-.00074c-1.65685-.00007-2.94709-1.34224-2.88839-2.99806.21966-6.19524.67046-20.55432.47562-29.236406-.0372-1.656254-.17685-4.339367-.31206-5.990639-.56965-6.956897-1.82019-15.387781-2.50991-19.765248-.25785-1.636511.85119-3.13786 2.49363-3.355994l17.37472-2.307566a3.2429224 3.2429224 35.206377 0 1 3.59875 2.539236l.52528 2.466594c.3451 1.620515 1.44335 1.854308 2.67682.751706 1.10819-.99062 2.64073-2.119838 4.53718-2.933371 1.51943-.6518 2.86086-.881744 2.86086-.881882zm-205.52815.372541 12.79721 1.157096c1.65012.1492 2.81287 1.601912 2.61905 3.247378-.56841 4.825763-1.6089 14.687642-1.7574 23.327414-.0285 1.656277-.001 4.342651.0527 5.998583.29207 8.929548 1.41489 19.709898 1.99366 24.830138.18608 1.64619-.99343 3.00477-2.64999 3.03625l-12.22724.23243a3.1848999 3.1848999 42.198662 0 1-3.23555-2.93369l-.0615-.77897c-.13039-1.65172-1.09268-1.93678-2.38858-.90985-2.10083 1.66477-5.79358 3.81585-11.31376 4.41115-1.64593.1775-4.34194.17901-5.98663-.0135-9.21908-1.07883-16.80312-7.16653-20.75521-16.52539-.64435-1.52587-1.47085-4.08879-1.82648-5.70637-2.43641-11.082057.31957-25.853115 11.72212-33.237842 1.3899-.900148 3.8074-2.094352 5.36221-2.66451 9.50184-3.484374 17.56701-.339523 21.47923 1.803876 1.45173.795367 2.65384.268215 2.80556-1.381678l.10808-1.17531a3.0045822 3.0045822 140.21023 0 1 3.26252-2.717245zm-13.50882 41.139119c3.80295-1.27237 6.54054-4.529997 7.53135-8.016746.45129-1.588168.42036-4.335372-.0605-5.915205-1.04933-3.447538-3.82496-6.52435-7.92542-7.44942-1.61197-.363663-4.34579-.279938-5.94154.151543-4.18146 1.130639-6.9536 4.339316-7.76847 8.109305-.34898 1.614566-.19048 4.34975.31012 5.924602 1.15842 3.644301 4.0368 6.617071 7.93458 7.495501 1.61138.36315 4.35357.22447 5.91988-.29958zm110.6978 20.51262-19.041-.0594a2.1563126 2.1563126 54.471218 0 1-2.03499-2.84992l29.36497-86.438315a4.1868428 4.1868428 144.38649 0 1 3.965-2.840076l16.95976.0027a4.2842107 4.2842107 35.010699 0 1 4.02546 2.819779l31.57158 86.799528a2.1087145 2.1087145 124.9086 0 1-1.97452 2.82951l-20.77118.0707a3.8678189 3.8678189 37.60329 0 1-3.75611-2.89294l-1.9916-7.64672a3.8967075 3.8967075 37.809571 0 0-3.75611-2.91454l-22.96504-.0872a3.9091124 3.9091124 142.7136 0 0-3.78703 2.88353l-2.02215 7.43779a3.9118606 3.9118606 142.69415 0 1-3.78704 2.88556zm15.96623-35.0972 10.32502-.02688a2.2229959 2.2229959 126.38923 0 0 2.11925-2.875614l-6.27852-20.443732a.93458893.93458893.23098823 0 0-1.78457-.0072l-6.47734 20.50062a2.1923125 2.1923125 53.692593 0 0 2.09616 2.8528zm-227.53055-9.768916.11616 41.124236a2.9750513 2.9750513 135.07741 0 1-2.99148 2.98341l-21.57804-.11925c-1.65682-.009-2.35436-1.19506-1.6218-2.68102 3.12403-6.33689 10.50059-23.093697 10.83694-40.63696.0318-1.656059-.0445-4.342664-.16547-5.994956-1.21826-16.636988-8.33086-29.601412-11.63052-34.80773-.8865-1.398757-.37191-2.787396 1.24197-3.162267l17.3606-4.032474a4.7625553 4.7625553 19.130759 0 1 4.79637 1.663777l37.44666 46.80492a1.0153347 1.0153347 160.03628 0 0 1.80791-.656728l-.94393-42.726629a2.9964951 2.9964951 133.7679 0 1 2.93308-3.062023l18.60777-.389325a2.9494859 2.9494859 44.287847 0 1 3.01116 2.937222l.33149 84.153993a3.0407799 3.0407799 134.38752 0 1-2.98772 3.0523l-17.22389.30042a5.9203794 5.9203794 25.873176 0 1-4.8156-2.33555l-32.72407-43.027487a1.0064811 1.0064811 161.29189 0 0-1.80759.612121zm378.76227-12.681473.0312 13.598357a2.9394728 2.9394728 135.4523 0 1-2.99262 2.945741l-10.3038-.186359c-1.65658-.02996-3.02031 1.28876-3.03743 2.945545-.0295 2.855379-.0566 7.187126.001 10.439526.0295 1.655139.11457 4.387259.73676 5.916389.94022 2.31078 2.83248 3.13728 5.79882 3.08069 1.65545-.0316 4.3104-.49612 5.93938-.79859 1.5702-.29155 3.29762-.62641 4.71357-.90471 1.62552-.31948 2.49678.68233 1.9476 2.24552l-4.73096 13.46598c-.54918 1.56319-2.30894 3.10698-3.93769 3.41072-3.00731.56083-7.7951 1.36452-11.82953 1.63813-1.65227.11206-4.33883-.007-5.97583-.26076-7.82805-1.21307-12.40711-4.49853-13.32128-11.78457-.20613-1.64284-.19975-4.33597-.22063-5.99268-.0887-7.037079-.0265-16.15898.0164-20.800446.0153-1.65631-1.31173-3.022833-2.96833-3.052258l-1.78999-.03179a3.0347503 3.0347503 45.687661 0 1-2.9808-3.05322l.0843-13.504533a2.9958073 2.9958073 135.3978 0 1 3.01864-2.977016l1.6667.01274a3.0236964 3.0236964 135.66326 0 0 3.04644-2.976713l.22069-14.228183a2.7411854 2.7411854 138.46981 0 1 3.02982-2.683399l14.63342 1.551201a3.3028855 3.3028855 48.299745 0 1 2.95457 3.316103l-.11756 12.279716a3.0427817 3.0427817 45.954146 0 0 2.97044 3.071054l10.39035.246638a3.0791205 3.0791205 45.614112 0 1 3.00605 3.071183zm-194.87615.207211.0312 13.598357a2.9394728 2.9394728 135.4523 0 1-2.99262 2.945741l-10.30382-.186359c-1.65658-.02996-3.02031 1.288742-3.03743 2.945507-.0295 2.855368-.0566 7.187118.001 10.43953.0295 1.65516.11457 4.387302.73676 5.916422.94023 2.31078 2.83248 3.13728 5.79882 3.08069 1.65545-.0316 4.3104-.49612 5.93938-.79859 1.5702-.29155 3.29762-.62641 4.71357-.90471 1.62552-.31948 2.49678.68233 1.9476 2.24552l-4.73096 13.46598c-.54918 1.56319-2.30894 3.10698-3.93769 3.41072-3.00731.56083-7.7951 1.36452-11.82953 1.63813-1.65227.11206-4.33883-.007-5.97583-.26076-7.82805-1.21307-12.40711-4.49853-13.32128-11.78457-.20613-1.64284-.19975-4.33597-.22063-5.99268-.0887-7.037076-.0265-16.158978.0164-20.800445.0153-1.65631-1.31173-3.022833-2.96833-3.052258l-1.78999-.03179a3.0347503 3.0347503 45.687661 0 1-2.9808-3.05322l.08462-13.504537a2.9958073 2.9958073 135.3978 0 1 3.01864-2.977016l1.6667.01274a3.0236964 3.0236964 135.66326 0 0 3.04644-2.976713l.22069-14.228183a2.7411854 2.7411854 138.46981 0 1 3.02982-2.683399l14.63342 1.551201a3.3028855 3.3028855 48.299745 0 1 2.95457 3.316103l-.11756 12.279716a3.0427817 3.0427817 45.954146 0 0 2.97044 3.071054l10.39035.246638a3.0791205 3.0791205 45.614112 0 1 3.00605 3.071183z" style="fill:#00a9ea;fill-opacity:.980392" transform="translate(49.752981 72.601782) scale(.47096)"/>
  <path fill="#00a7e8" fill-opacity=".973" d="M103.24028298 127.04042985q.96076513.55102706-.87599174.15541789-.22606238-.04709633-.23077201-.27786835 0-.62638119-.47567294-.76296055.18838532-.27786834.4144477-.40973807.2119335-.12716009.28257799.10832156.20251422.67347752.885411 1.18682752z"/>
  <g class="UnoptimicedTransforms">
    <path d="M111.40165 37.430886c-4.31417 13.541659-9.70818 26.69444-16.972687 38.661365l-.000002.000003c-5.638913 9.302455-12.459564 17.876839-20.381711 25.239066-7.011019 6.53557-14.945389 12.16439-23.279073 17.25119-6.839609 4.17079-13.972169 8.00598-21.161992 11.90932" style="display:inline;fill:none;stroke:#bebebe;stroke-width:3.02362;stroke-linecap:butt;stroke-linejoin:miter;stroke-dasharray:none;stroke-opacity:1" transform="matrix(1.40443 .45912 -.45362 1.38759 -12.536026 -116.67447)"/>
    <path d="M119.83455 40.109769c-4.43992 14.015438-10.12227 27.803299-17.8377 40.566604v.000003c-6.025915 9.954898-13.360391 19.160702-21.923185 27.133324-7.593165 7.04977-16.001822 13.03783-24.701933 18.3289-7.112672 4.32966-14.372526 8.23864-21.543875 12.13068" style="display:inline;fill:none;stroke:#ce3636;stroke-width:3.02362;stroke-linecap:butt;stroke-linejoin:miter;stroke-dasharray:none;stroke-opacity:1" transform="matrix(1.40443 .45912 -.45362 1.38759 -12.536026 -116.67447)"/>
    <path d="M27.026462 136.93722c4.939009-2.70861 2.432562-9.81777 6.536224-12.03511 4.10369-2.21735 8.71098 3.75614 13.455157 1.0324-4.744177 2.72374-2.185573 9.76871-6.326405 12.0455-4.535632 2.4938-9.129345-3.53659-13.664976-1.04279zm19.991381-11.00271c2.928043-1.68105 3.086584-4.90425 3.546454-7.68664.307846-1.87572.750589-3.55762 2.277227-4.52843 1.898572-1.20733 4.081613-.43538 6.397534.24062 2.299318.67115 4.746334 1.24995 6.948619-.38512-2.191907 1.62736-2.480998 4.07396-2.747777 6.52208-.264708 2.42911-.505353 4.84308-2.561436 6.16904-1.649401 1.06366-3.452412.7606-5.303313.20642-2.769336-.83125-5.63912-2.21336-8.557308-.53797zm19.169834-12.35957c2.267643-1.6836 2.446419-4.22847 2.463092-6.63201.01683-2.42572-.126678-4.71304 1.51683-6.1654.713806-.6308 1.535033-.907623 2.436544-.997544 3.25896-.319321 7.676934 1.785394 10.584677-1.360892-2.907743 3.146286-.883617 7.495086-1.672976 10.940946-.219085.95129-.653006 1.82382-1.459335 2.54408-1.863516 1.66459-4.274421 1.23564-6.701085.82072-2.449315-.41878-4.912387-.82438-7.167747.8501zM83.18882 98.419094c1.917578-2.07489 1.60473-4.61299 1.158261-6.971241-.450978-2.38207-1.036825-4.599073.302274-6.34481 1.339409-1.746142 3.632551-1.771483 6.034355-1.952091 2.37992-.178963 4.875654-.515245 6.338332-2.838144-1.454278 2.309558-.848252 4.694142-.236257 7.086667.606139 2.369635 1.216713 4.73905-.288327 6.727624-1.505142 1.988666-3.957232 2.035601-6.422303 2.095751-2.491459.06079-4.980406.133958-6.886335 2.196244zm13.833222-18.106286c.451592-.717178.699263-1.442626.801107-2.164585.575762-4.077631-3.44933-7.895321-1.678691-11.250713 2.084194-3.949585 9.283892-1.742688 11.485752-6.751262-1.09864 2.499073-.12601 4.766481.8605 7.015839.97962 2.233646 1.97296 4.446958.83914 6.632212-1.92305 3.706264-7.36724 2.405992-10.726963 4.826238-.595327.428876-1.129226.975049-1.580845 1.692271zm10.608168-20.16656c1.13591-2.583863.0481-4.88668-1.09932-7.016113-1.15458-2.142655-2.37393-4.122925-1.57863-6.242006 1.59356-4.245877 9.00942-2.902922 10.66602-8.117744-1.6566 5.214822 4.98382 8.744316 3.3062 13.306685-1.67765 4.562322-9.02746 2.912841-11.29427 8.069178z" style="display:inline;fill:none;stroke:#4e4e4e;stroke-width:3.02362;stroke-linecap:butt;stroke-linejoin:miter;stroke-dasharray:none;stroke-opacity:1" transform="matrix(1.40443 .45912 -.45362 1.38759 -12.536026 -116.67447)"/>
    <path d="M115.61813 38.770337c-4.37705 13.77855-9.91523 27.248873-17.405198 39.613991l-.000002.000002c-5.832414 9.62868-12.90998 18.518775-21.152452 26.18621-7.302094 6.79266-15.473609 12.6011-23.990508 17.79004-6.976141 4.25023-14.172349 8.12231-21.352935 12.02" style="display:inline;fill:none;stroke:#1b58d4;stroke-width:3.02362;stroke-linecap:butt;stroke-linejoin:miter;stroke-dasharray:none;stroke-opacity:1" transform="matrix(1.40443 .45912 -.45362 1.38759 -12.536026 -116.67447)"/>
    <path d="M22.714809 129.07513c2.501575-1.37309 4.91828-.98296 6.950991-.33555-1.797647.97548-3.600968 1.95522-5.406275 2.94553-.03055.016-.06046.024-.09095.0408.000002 0-1.453766-2.65076-1.453765-2.65076zm7.171376 13.07665c.04586-.0251.08084-.0558.124917-.0818 1.76404-.96641 3.538137-1.92949 5.318689-2.89541-.564066 2.0625-1.541657 4.28678-3.989791 5.62816zm-.04913-10.06443c1.242245-.6747 2.483684-1.34753 3.723101-2.02057.19574.0525.413928.13203.593844.16428.842827.15115 1.422906.11009 2.071656-.24642.650525-.35792 1.017472-.8422 1.356527-1.64457.06884-.16292.120017-.38029.180982-.56467 1.242846-.68144 2.482238-1.36548 3.716931-2.05427-.0041.0199-.0088.0366-.01293.0564-.241791 1.15805-.473141 2.40391-.986601 3.6244-.04335.10305-.130101.19844-.178743.30146.11357.014.241389-.01.352197.009 1.307266.21713 2.488003.67937 3.609612 1.0779.01858.007.03398.0112.05251.0177-1.249958.69763-2.501703 1.38882-3.753991 2.07571-.188597-.0471-.399612-.12158-.574151-.15083-.862876-.14465-1.469165-.0972-2.124559.25699-.653196.3526-1.003683.81743-1.336922 1.60809-.07112.16872-.12359.39503-.18638.58808-1.242292.67466-2.483741 1.34744-3.72313 2.02042.0045-.0209.0102-.0382.01469-.0591.247962-1.15259.476228-2.38986.988743-3.60579.04136-.0981.125604-.1885.171869-.2866-.107439-.0146-.229257.007-.333958-.0122-1.297988-.23278-2.460127-.7156-3.562663-1.13374-.0207-.008-.03793-.0138-.05858-.0216-.000017 0-.000034.00001-.000051.00001zm14.6785 2.06914c1.777568-.98567 3.555421-1.98453 5.330047-3.00259.04446-.0232.08848-.0373.132795-.0627.04653-.0267.08189-.0587.126576-.0862 1.788814-1.02829 3.574173-2.07639 5.352477-3.15047-.498984 2.10057-1.453481 4.41069-3.973974 5.85821-2.47959 1.42404-4.915674 1.06306-6.967921.44379zm-5.752759-10.38393c.536791-2.05955 1.445858-4.26671 3.791406-5.61289 2.37414-1.36259 4.72852-1.03478 6.760339-.46243-1.704291 1.03132-3.427986 2.04339-5.167398 3.04251-.02946.0161-.05844.0243-.08792.0413-.02813.0161-.04929.0363-.07648.0531-1.725841.98997-3.467023 1.96739-5.219948 2.93845zm10.892299-2.75312c.6354-.37915 1.268731-.76092 1.89981-1.14563.558294-.34056 1.114905-.68363 1.669677-1.02932.196833.0418.417838.10896.598027.13094.843354.10292 1.418886.0251 2.035717-.37278.618585-.39943.946752-.90969 1.215092-1.73194.05453-.16709.08675-.387.131142-.57481 1.169282-.77012 2.328393-1.5535 3.475812-2.35118-.002.02-.0049.0372-.0069.0572-.119052 1.16996-.227962 2.43267-.63178 3.69256-.03412.10646-.112246.20905-.151836.31593.114412.004.239789-.0305.351888-.0219 1.324074.10154 2.544239.44677 3.709398.7282.01927.005.03516.008.05437.0121-1.189323.82761-2.388893 1.63882-3.597188 2.43471-.193369-.0307-.4112-.0872-.588849-.10183-.879068-.0722-1.4812.0217-2.115876.42466-.632666.40117-.953341.88808-1.244292 1.70256-.06203.17363-.102352.40368-.155288.60115-.571453.35554-1.144431.70802-1.718779 1.05752-.647536.39429-1.296518.78517-1.946764 1.17294.0038-.0212.0089-.0386.01273-.0599.182672-1.01816.339986-2.09475.675826-3.17825.04932-.15905.102442-.31816.16001-.47716.03626-.10015.115673-.19486.156644-.29528-.108059-.009-.228541.0187-.334006.005-.167562-.0212-.332993-.0468-.496403-.0762-1.110899-.19945-2.132477-.57126-3.099157-.90035-.02084-.007-.03816-.0124-.05895-.0194-.000016 0-.000033.00001-.000049.00002zm14.847871 1.04015c1.720171-1.17496 3.422406-2.38407 5.10241-3.63034.04234-.0289.08521-.0487.127142-.0798.04402-.0327.07621-.0693.118263-.10259 1.691549-1.26012 3.36029-2.55814 5.001824-3.89713-.22288 2.16332-.904916 4.63216-3.317992 6.42697-2.375768 1.76706-4.903839 1.68796-7.031647 1.28293zm-6.693487-9.81036c.31406-2.08403.94169-4.32294 3.033716-5.87297 2.118268-1.56949 4.439695-1.52339 6.510894-1.22022-1.510502 1.23098-3.054728 2.42905-4.62817 3.59735-.02675.019-.05404.0302-.08071.0499-.02545.0189-.04358.041-.06805.0604-1.562102 1.15668-3.152794 2.28417-4.767682 3.38554zm10.354759-3.86543c1.079338-.8601 2.143824-1.73661 3.19197-2.63057.199691.013.427088.0472.607542.0426.844053-.0213 1.40002-.18503 1.943329-.6708.544804-.48762.786257-1.04278.913504-1.89315.02587-.17291.02092-.3942.03302-.58581.07461-.0691.149124-.13833.223537-.20764.940578-.8744 1.865753-1.76548 2.775394-2.67245.0016.01995.0018.03735.0034.0573.09179 1.167033.205408 2.428413.01992 3.736273-.01569.11059-.07542.22475-.09656.33667.113433-.015.231162-.0702.343073-.0806 1.323396-.1231 2.583024.003 3.784527.0723.01984.001.03605.001.05582.002-.956271.95391-1.929203 1.89175-2.918667 2.81274-.07892.0733-.157941.14653-.23705.21962-.196684.002-.421625-.0175-.600008-.002-.883235.0746-1.462737.26385-2.029743.76328-.565291.4974-.808488 1.02721-.977784 1.8793-.03607.18152-.04253.41564-.06649.61949-1.098957.93694-2.212829 1.85439-3.340132 2.75338.001-.0217.0038-.0396.0049-.0613.05617-1.19208.06125-2.44784.328378-3.74316.02151-.10427.08641-.20938.112411-.31459-.108129.007-.223264.0515-.329446.0534-1.314354.0237-2.542322-.24535-3.684087-.47451-.02149-.004-.03925-.007-.06068-.0116-.000016.00001-.000031.00002-.000047.00003zm14.853795-1.29019c1.515465-1.47482 2.990873-2.98794 4.425768-4.5366.03661-.0366.0754-.0642.111188-.10293.03758-.0406.06276-.0828.09826-.12369 1.442648-1.56481 2.844093-3.165603 4.203868-4.79956.192375 2.167358-.01351 4.73621-2.082502 6.97459-2.040196 2.20722-4.576247 2.60504-6.756581 2.58819zm-8.273041-8.509995c-.06579-2.089028.125835-4.370437 1.861078-6.248386 1.761059-1.905889 4.033695-2.296434 6.124912-2.393001-1.242099 1.494017-2.520941 2.955261-3.836046 4.380838-.02252.02338-.04706.0392-.06935.06333-.02128.02303-.03479.04794-.05502.07127-1.30637 1.411423-2.648385 2.787682-4.025575 4.125956zm9.402272-5.629923c.89325-1.048331 1.768332-2.112745 2.625089-3.192288.198553-.02574.428408-.03594.604717-.07519.824736-.18355 1.339112-.451542 1.779529-1.033255.44165-.583971.572363-1.175338.535703-2.035533-.0075-.174884-.05435-.391409-.07877-.582069.821357-1.121234 1.623921-2.256733 2.407529-3.405521.0053.01935.0087.03641.01402.05576.307647 1.131812.655711 2.350321.721172 3.670411.0055.1116-.03151.235051-.03103.348986.10856-.03624.213718-.112784.321658-.144197 1.276067-.371319 2.537974-.483052 3.730265-.638356.01969-.0026.03562-.0055.05523-.0082-.820195 1.202328-1.660678 2.391145-2.521289 3.565475-.192463.03934-.416818.06293-.588891.111643-.851944.241184-1.384532.538146-1.844781 1.137063-.459091.596771-.595649 1.163708-.597692 2.03288-.00044.185172.03832.416294.05405.621056-.898663 1.131751-1.816965 2.248156-2.754747 3.34826-.0031-.02151-.0037-.03966-.0069-.06117-.171095-1.182359-.406522-2.416831-.393343-3.739934.0011-.106518.04457-.222212.04985-.330513-.104855.0275-.209309.09348-.313194.115772-1.286001.276096-2.542808.246958-3.70645.238712-.02191-.000179-.03989.000277-.06172.000151l-.000041.000032zm14.3264-4.094401c1.205827-1.725134 2.369869-3.478132 3.491669-5.256237.0292-.04248.0621-.07659.0901-.121033.0294-.04666.0463-.09256.0736-.139049.39217-.624755.77913-1.252585 1.16087-1.883371.7123-1.179105 1.40737-2.366541 2.08583-3.561698.40981 1.481448.66265 3.175631.21133 4.95316-.18946.739707-.50097 1.492281-.97279 2.242183-1.58982 2.526822-3.99834 3.378665-6.140579 3.766045zm-9.731225-6.803135c-.45392-2.046233-.684721-4.339349.690907-6.522017.411461-.652852.887863-1.180821 1.409045-1.614396 1.256617-1.04574 2.777507-1.550098 4.218315-1.882969-.6265 1.100539-1.267779 2.191557-1.92444 3.272446-.357675.5899-.72013 1.176816-1.087342 1.76062-.01797.02726-.03929.04742-.0569.07537-.01681.02668-.02562.05377-.04133.08055-1.032172 1.635638-2.101744 3.246709-3.208249 4.830391zm8.239389-7.29988c.695672-1.194781 1.373679-2.400166 2.034757-3.615414.191365-.06002.416212-.110029.58334-.179322.782028-.32418 1.243048-.675962 1.580068-1.324951.33787-.651457.36863-1.256217.19189-2.100626-.0359-.171627-.11746-.377896-.17252-.56242.62851-1.246243 1.24067-2.501648 1.83724-3.765455.008.01836.0142.03468.0225.05304.47948 1.073201 1.01474 2.221213 1.29233 3.512864.0235.10917.007.236894.0258.349147.10116-.05332.19245-.14577.2938-.194145 1.19752-.571549 2.42531-.880388 3.57523-1.216276.019-.0056.0342-.01091.0531-.01653-.61812 1.307767-1.25286 2.60816-1.90498 3.900419-.1829.06973-.3998.129299-.56105.205159-.7981.375431-1.27331.756166-1.6247 1.421302-.35064.662872-.38838 1.244101-.24032 2.097579.0316.1819.10968.402235.16071.600537-.68681 1.263211-1.39157 2.517573-2.11501 3.762342-.007-.02055-.0108-.03828-.0177-.05883-.38025-1.129684-.83125-2.302781-1.04887-3.606279-.0175-.104995.005-.226413-.008-.333916-.0984.04529-.18974.128417-.2881.168476-1.218001.496186-2.459539.690635-3.608225.892006-.02162.0038-.03926.0075-.06079.01126-.000012.000013-.000023.000027-.000035.00004zm13.406925-6.424482c.90574-1.873606 1.77669-3.761384 2.61498-5.66119.0224-.04572.0497-.08378.0706-.131245.0219-.04983.0317-.09716.0517-.146532.84195-1.916519 1.6508-3.845159 2.42875-5.783721.86182 1.981844 1.48477 4.429211.28724 7.146956-1.18109 2.680427-3.40594 3.866364-5.45327 4.575732zm-10.682479-5.160969c-.766092-1.958741-1.342157-4.220348-.284114-6.633253 1.07439-2.450185 3.13768-3.584153 5.10702-4.345144-.73683 1.841034-1.50073 3.667659-2.29392 5.477625-.0139.03001-.0322.05344-.0456.08409-.0128.02925-.0177.05769-.0294.08687-.78839 1.793784-1.60565 3.571117-2.453956 5.329803zm7.096606-8.533266c.52669-1.287506 1.03969-2.581618 1.53973-3.881593.18242-.08531.39942-.16493.5566-.256035.73577-.426405 1.14855-.835525 1.40228-1.525399.25426-.692424.20996-1.297796-.0685-2.118577-.0566-.166766-.16265-.362487-.23966-.539885.47528-1.322497.93824-2.650096 1.38963-3.982035.0103.0174.0181.03294.0284.05035.59862 1.016337 1.26334 2.09685 1.69347 3.348695.0363.10578.0351.234779.0674.344127.0942-.06514.17391-.167968.2689-.228136 1.12182-.710511 2.30768-1.15944 3.4104-1.621489.0182-.0077.0328-.01467.0509-.02236-.46185 1.364908-.9363 2.726503-1.42411 4.084024-.17304.09098-.38111.176118-.53186.270772-.74586.468286-1.17078.905266-1.435 1.608147-.26375.700522-.22636 1.282397.0323 2.10765.0551.175951.16163.383889.23842.573408-.51477 1.337028-1.04352 2.669206-1.587 3.995789-.01-.01932-.016-.03634-.0257-.05567-.53331-1.062694-1.14178-2.16449-1.53144-3.42793-.0314-.101835-.0251-.225338-.0529-.330225-.0917.05803-.17123.152701-.26351.205599-1.14296.655342-2.34741 1.018973-3.45987 1.380977-.0209.0068-.0379.01294-.0588.01975-.00001.000014-.00001.000029-.00002.000044zm12.48736-8.063562c.67296-1.950159 1.31917-3.906381 1.94077-5.866523.0171-.0474.0401-.08775.0556-.136714l2.88159.915392c-.86906 2.750957-2.92897 4.155596-4.87797 5.087838zm-11.22817-3.880786c-.98472-1.871317-1.80575-4.084659-.98982-6.637968l2.8816.915395c-.01.03076-.0117.05982-.0204.09039-.60235 1.886342-1.2254 3.764468-1.87133 5.632184z" class="UnoptimicedTransforms" style="color:#000;display:inline;fill:#4e4e4e;-inkscape-stroke:none" transform="matrix(1.40443 .45912 -.45362 1.38759 -12.536026 -116.67447)"/>
  </g>
  <g class="UnoptimicedTransforms">
    <path d="M226.97688 253.88216s2.67956.48157 5.06496 2.01956c2.38538 1.53799 3.98116 3.77032 3.98116 3.77032" style="fill:none;stroke:#bebebe;stroke-width:3.77953;stroke-linecap:round;stroke-linejoin:miter;stroke-dasharray:none;stroke-opacity:1" transform="rotate(5.606 487.33782 172.85421)"/>
    <path d="M217.93076 248.09227s2.69986.45204 5.08526 1.99003c2.38538 1.53798 3.96086 3.79986 3.96086 3.79986" style="fill:none;stroke:#ce3636;stroke-width:3.77953;stroke-linecap:round;stroke-linejoin:miter;stroke-dasharray:none;stroke-opacity:1" transform="rotate(5.606 487.33782 172.85421)"/>
    <path d="M220.1263 244.99784s2.68347.47572 5.05017 2.04108c2.36668 1.56535 3.92491 3.85218 3.92491 3.85218m0 0s2.66317.50526 5.02986 2.07062c2.36669 1.56535 3.94521 3.82264 3.94521 3.82264" style="fill:none;stroke:#4e4e4e;stroke-width:3.77953;stroke-linecap:round;stroke-linejoin:miter;stroke-dasharray:none;stroke-opacity:1" transform="rotate(5.606 487.33782 172.85421)"/>
    <path d="M231.22594 247.89961s2.64682.52899 4.99485 2.12175c2.34801 1.59275 3.90934 3.87499 3.90934 3.87499" style="fill:none;stroke:#ce3636;stroke-width:3.77954;stroke-linecap:round;stroke-linejoin:miter;stroke-dasharray:none;stroke-opacity:1" transform="rotate(5.606 487.33782 172.85421)"/>
    <path d="M222.32176 241.90286s2.6671.49945 5.01514 2.09221c2.34801 1.59275 3.88904 3.90454 3.88904 3.90454" style="fill:none;stroke:#bebebe;stroke-width:3.77954;stroke-linecap:round;stroke-linejoin:miter;stroke-dasharray:none;stroke-opacity:1" transform="rotate(5.606 487.33782 172.85421)"/>
    <path d="M224.51782 238.80834s2.65071.5231 4.97999 2.1432c2.32926 1.6201 3.85299 3.95682 3.85299 3.95682m0 0s2.63041.55264 4.95968 2.17274c2.32927 1.6201 3.8733 3.92728 3.8733 3.92728" style="fill:none;stroke:#4e4e4e;stroke-width:3.77953;stroke-linecap:round;stroke-linejoin:miter;stroke-dasharray:none;stroke-opacity:1" transform="rotate(5.606 487.33782 172.85421)"/>
    <path d="M226.71381 235.71327s2.63433.54679 4.94489 2.19427c2.31055 1.64747 3.81703 4.00914 3.81703 4.00914" style="fill:none;stroke:#ce3636;stroke-width:3.77953;stroke-linecap:round;stroke-linejoin:miter;stroke-dasharray:none;stroke-opacity:1" transform="rotate(5.606 487.33782 172.85421)"/>
    <path d="M235.47573 241.91668s2.61403.57634 4.92459 2.22381c2.31056 1.64748 3.83733 3.97961 3.83733 3.97961" style="fill:none;stroke:#bebebe;stroke-width:3.77953;stroke-linecap:round;stroke-linejoin:miter;stroke-dasharray:none;stroke-opacity:1" transform="rotate(5.606 487.33782 172.85421)"/>
    <path d="M228.90935 232.61883s2.61795.57048 4.9098 2.24533c2.29184 1.67485 3.78107 4.06146 3.78107 4.06146m0 0s2.59766.60002 4.8895 2.27487c2.29185 1.67485 3.80138 4.03192 3.80138 4.03192" style="fill:none;stroke:#4e4e4e;stroke-width:3.77953;stroke-linecap:round;stroke-linejoin:miter;stroke-dasharray:none;stroke-opacity:1" transform="rotate(5.606 487.33782 172.85421)"/>
    <path d="M231.10482 229.52384s2.60159.5942 4.87477 2.29646c2.27317 1.70225 3.74521 4.11382 3.74521 4.11382" style="fill:none;stroke:#bebebe;stroke-width:3.77954;stroke-linecap:round;stroke-linejoin:miter;stroke-dasharray:none;stroke-opacity:1" transform="rotate(5.606 487.33782 172.85421)"/>
    <path d="M239.7248 235.93412s2.58129.62375 4.85447 2.32601c2.27318 1.70225 3.76551 4.08428 3.76551 4.08428" style="fill:none;stroke:#ce3636;stroke-width:3.77954;stroke-linecap:round;stroke-linejoin:miter;stroke-dasharray:none;stroke-opacity:1" transform="rotate(5.606 487.33782 172.85421)"/>
    <path d="M233.30929 226.43223s2.65327.64732 4.90455 2.38297c2.24847 1.73349 3.64249 4.13264 3.64249 4.13264m0 0s2.6182.69413 4.86935 2.42969c2.2486 1.73359 3.67769 4.08591 3.67769 4.08591" style="fill:none;stroke:#4e4e4e;stroke-width:3.77953;stroke-linecap:round;stroke-linejoin:miter;stroke-dasharray:none;stroke-opacity:1" transform="rotate(5.606 487.33782 172.85421)"/>
    <path d="M244.20286 230.12101s2.60298.74286 4.82014 2.52176c2.21457 1.77681 3.60084 4.15764 3.60084 4.15764" style="fill:none;stroke:#bebebe;stroke-width:3.77953;stroke-linecap:round;stroke-linejoin:miter;stroke-dasharray:none;stroke-opacity:1" transform="rotate(5.606 487.33782 172.85421)"/>
    <path d="M235.78189 223.44162s2.64033.69584 4.85762 2.47483c2.21444 1.77671 3.56335 4.20456 3.56335 4.20456" style="fill:none;stroke:#ce3636;stroke-width:3.77953;stroke-linecap:round;stroke-linejoin:miter;stroke-dasharray:none;stroke-opacity:1" transform="rotate(5.606 487.33782 172.85421)"/>
    <path d="M238.31165 220.49064s2.62561.74529 4.80681 2.56779c2.17833 1.82011 3.48014 4.27604 3.48014 4.27604m0 0s2.58596.79249 4.76705 2.6149c2.17844 1.8202 3.5199 4.22892 3.5199 4.22892" style="fill:none;stroke:#4e4e4e;stroke-width:3.77953;stroke-linecap:round;stroke-linejoin:miter;stroke-dasharray:none;stroke-opacity:1" transform="rotate(5.606 487.33782 172.85421)"/>
    <path d="M249.04437 224.58992s2.56717.84309 4.71013 2.70924c2.14027 1.86382 3.43492 4.29982 3.43492 4.29982" style="fill:none;stroke:#ce3636;stroke-width:3.77954;stroke-linecap:round;stroke-linejoin:miter;stroke-dasharray:none;stroke-opacity:1" transform="rotate(5.606 487.33782 172.85421)"/>
    <path d="M240.89931 217.58086s2.6091.79569 4.75217 2.66194c2.14015 1.86371 3.39289 4.34712 3.39289 4.34712" style="fill:none;stroke:#bebebe;stroke-width:3.77954;stroke-linecap:round;stroke-linejoin:miter;stroke-dasharray:none;stroke-opacity:1" transform="rotate(5.606 487.33782 172.85421)"/>
    <path d="M243.54563 214.71609s2.5908.84694 4.69355 2.75705c2.09982 1.90745 3.30135 4.41766 3.30135 4.41766m0 0s2.54658.89452 4.64922 2.80454c2.09992 1.90754 3.34568 4.37017 3.34568 4.37017" style="fill:none;stroke:#4e4e4e;stroke-width:3.77953;stroke-linecap:round;stroke-linejoin:miter;stroke-dasharray:none;stroke-opacity:1" transform="rotate(5.606 487.33782 172.85421)"/>
    <path d="M246.25033 211.89799s2.57071.89914 4.63108 2.85335c2.05742 1.9514 3.20579 4.48781 3.20579 4.48781" style="fill:none;stroke:#ce3636;stroke-width:3.77953;stroke-linecap:round;stroke-linejoin:miter;stroke-dasharray:none;stroke-opacity:1" transform="rotate(5.606 487.33782 172.85421)"/>
    <path d="M254.0872 219.23915s2.52421.94692 4.58447 2.90103c2.05753 1.9515 3.2524 4.44014 3.2524 4.44014" style="fill:none;stroke:#bebebe;stroke-width:3.77953;stroke-linecap:round;stroke-linejoin:miter;stroke-dasharray:none;stroke-opacity:1" transform="rotate(5.606 487.33782 172.85421)"/>
    <path d="M249.01304 209.1304s2.54885.95225 4.56476 2.95074c2.01294 1.99554 3.10613 4.55751 3.10613 4.55751m0 0s2.50006 1.00022 4.51587 2.99861c2.01304 1.99563 3.15503 4.50965 3.15503 4.50965" style="fill:none;stroke:#4e4e4e;stroke-width:3.77953;stroke-linecap:round;stroke-linejoin:miter;stroke-dasharray:none;stroke-opacity:1" transform="rotate(5.606 487.33782 172.85421)"/>
    <path d="M251.8346 206.41491s2.52521 1.00632 4.4946 3.04932c1.96639 2.0399 3.00244 4.62684 3.00244 4.62684" style="fill:none;stroke:#bebebe;stroke-width:3.77954;stroke-linecap:round;stroke-linejoin:miter;stroke-dasharray:none;stroke-opacity:1" transform="rotate(5.606 487.33782 172.85421)"/>
    <path d="M259.33164 214.09107s2.47414 1.05448 4.44342 3.09738c1.96649 2.04 3.05362 4.57877 3.05362 4.57877" style="fill:none;stroke:#ce3636;stroke-width:3.77954;stroke-linecap:round;stroke-linejoin:miter;stroke-dasharray:none;stroke-opacity:1" transform="rotate(5.606 487.33782 172.85421)"/>
    <path d="M254.71569 203.75539s2.49978 1.06121 4.42046 3.14885c1.91769 2.08439 2.89448 4.6956 2.89448 4.6956m0 0s2.4464 1.10956 4.36699 3.1971c1.91778 2.08449 2.94794 4.64736 2.94794 4.64736" style="fill:none;stroke:#4e4e4e;stroke-width:3.77953;stroke-linecap:round;stroke-linejoin:miter;stroke-dasharray:none;stroke-opacity:1" transform="rotate(5.606 487.33782 172.85421)"/>
    <path d="M264.78106 209.16701s2.41691 1.1656 4.28673 3.29802c1.86701 2.12921 2.83823 4.71555 2.83823 4.71555" style="fill:none;stroke:#bebebe;stroke-width:3.77953;stroke-linecap:round;stroke-linejoin:miter;stroke-dasharray:none;stroke-opacity:1" transform="rotate(5.606 487.33782 172.85421)"/>
    <path d="M257.65611 201.15344s2.47256 1.11706 4.34247 3.24958c1.86692 2.12911 2.78248 4.76399 2.78248 4.76399" style="fill:none;stroke:#ce3636;stroke-width:3.77953;stroke-linecap:round;stroke-linejoin:miter;stroke-dasharray:none;stroke-opacity:1" transform="rotate(5.606 487.33782 172.85421)"/>
    <path d="M260.65541 198.61286s2.44357 1.17382 4.26062 3.3514c1.81407 2.17403 2.6664 4.83192 2.6664 4.83192m0 0s2.38563 1.22254 4.20259 3.40003c1.81416 2.17412 2.72443 4.78329 2.72443 4.78329" style="fill:none;stroke:#4e4e4e;stroke-width:3.77953;stroke-linecap:round;stroke-linejoin:miter;stroke-dasharray:none;stroke-opacity:1" transform="rotate(5.606 487.33782 172.85421)"/>
    <path d="M270.43571 204.48919s2.35258 1.28043 4.11462 3.50324c1.75923 2.21927 2.60658 4.85065 2.60658 4.85065" style="fill:none;stroke:#ce3636;stroke-width:3.77954;stroke-linecap:round;stroke-linejoin:miter;stroke-dasharray:none;stroke-opacity:1" transform="rotate(5.606 487.33782 172.85421)"/>
    <path d="M263.71451 196.1353s2.41281 1.23151 4.17493 3.45442c1.75915 2.21917 2.54627 4.89947 2.54627 4.89947" style="fill:none;stroke:#bebebe;stroke-width:3.77954;stroke-linecap:round;stroke-linejoin:miter;stroke-dasharray:none;stroke-opacity:1" transform="rotate(5.606 487.33782 172.85421)"/>
    <path d="M266.834 193.72465s2.38025 1.29003 4.08526 3.55837c1.70209 2.26445 2.4219 4.96647 2.4219 4.96647m0 0s2.31773 1.33913 4.02267 3.60738c1.70215 2.26454 2.48448 4.91746 2.48448 4.91746" style="fill:none;stroke:#4e4e4e;stroke-width:3.77953;stroke-linecap:round;stroke-linejoin:miter;stroke-dasharray:none;stroke-opacity:1" transform="rotate(5.606 487.33782 172.85421)"/>
    <path d="M270.01377 191.38248s2.34593 1.34951 3.99176 3.66354c1.64294 2.30997 2.29346 5.03308 2.29346 5.03308" style="fill:none;stroke:#ce3636;stroke-width:3.77953;stroke-linecap:round;stroke-linejoin:miter;stroke-dasharray:none;stroke-opacity:1" transform="rotate(5.606 487.33782 172.85421)"/>
    <path d="M276.29899 200.0791s2.28112 1.39879 3.92688 3.71274c1.643 2.31006 2.35833 4.98388 2.35833 4.98388" style="fill:none;stroke:#bebebe;stroke-width:3.77953;stroke-linecap:round;stroke-linejoin:miter;stroke-dasharray:none;stroke-opacity:1" transform="rotate(5.606 487.33782 172.85421)"/>
    <path d="M273.25329 189.11255s2.30983 1.40986 3.89438 3.76979c1.58171 2.35569 2.16095 5.09923 2.16095 5.09923m0 0s2.24274 1.45934 3.82723 3.81918c1.58177 2.35578 2.2281 5.04985 2.2281 5.04985" style="fill:none;stroke:#4e4e4e;stroke-width:3.77953;stroke-linecap:round;stroke-linejoin:miter;stroke-dasharray:none;stroke-opacity:1" transform="rotate(5.606 487.33782 172.85421)"/>
    <path d="M276.55357 186.91654s2.27197 1.47116 3.79316 3.87724c1.51839 2.40166 2.02438 5.16503 2.02438 5.16503" style="fill:none;stroke:#bebebe;stroke-width:3.77954;stroke-linecap:round;stroke-linejoin:miter;stroke-dasharray:none;stroke-opacity:1" transform="rotate(5.606 487.33782 172.85421)"/>
    <path d="M282.37111 195.95881s2.20259 1.52083 3.72372 3.92682c1.51845 2.40175 2.09382 5.11545 2.09382 5.11545" style="fill:none;stroke:#ce3636;stroke-width:3.77954;stroke-linecap:round;stroke-linejoin:miter;stroke-dasharray:none;stroke-opacity:1" transform="rotate(5.606 487.33782 172.85421)"/>
    <path d="M279.91085 184.82409s2.22956 1.53848 3.68559 3.97872c1.45353 2.43606 1.88845 5.21116 1.88845 5.21116m0 0s2.161 1.57554 3.617 4.01574c1.45356 2.43611 1.95704 5.17415 1.95704 5.17415" style="fill:none;stroke:#4e4e4e;stroke-width:3.77953;stroke-linecap:round;stroke-linejoin:miter;stroke-dasharray:none;stroke-opacity:1" transform="rotate(5.606 487.33782 172.85421)"/>
    <path d="M288.64271 192.14573s2.11885 1.62566 3.51269 4.09913c1.3916 2.46949 1.82389 5.21792 1.82389 5.21792" style="fill:none;stroke:#bebebe;stroke-width:3.77953;stroke-linecap:round;stroke-linejoin:miter;stroke-dasharray:none;stroke-opacity:1" transform="rotate(5.606 487.33782 172.85421)"/>
    <path d="M283.30613 182.82868s2.1853 1.59051 3.57918 4.06403c1.39157 2.46944 1.7574 5.25302 1.7574 5.25302" style="fill:none;stroke:#ce3636;stroke-width:3.77953;stroke-linecap:round;stroke-linejoin:miter;stroke-dasharray:none;stroke-opacity:1" transform="rotate(5.606 487.33782 172.85421)"/>
    <path d="M286.73431 180.91484s2.14213 1.64032 3.47577 4.1453c1.33152 2.50101 1.63075 5.29219 1.63075 5.29219m0 0s2.07777 1.67355 3.41138 4.17847c1.33155 2.50107 1.69514 5.25901 1.69514 5.25901" style="fill:none;stroke:#4e4e4e;stroke-width:3.77953;stroke-linecap:round;stroke-linejoin:miter;stroke-dasharray:none;stroke-opacity:1" transform="rotate(5.606 487.33782 172.85421)"/>
    <path d="M295.07788 188.63051s2.03773 1.71928 3.31305 4.2539c1.27343 2.53089 1.57081 5.29749 1.57081 5.29749" style="fill:none;stroke:#ce3636;stroke-width:3.77954;stroke-linecap:round;stroke-linejoin:miter;stroke-dasharray:none;stroke-opacity:1" transform="rotate(5.606 487.33782 172.85421)"/>
    <path d="M290.19401 179.07913s2.09999 1.68794 3.37534 4.22263c1.2734 2.53082 1.50853 5.32875 1.50853 5.32875" style="fill:none;stroke:#bebebe;stroke-width:3.77954;stroke-linecap:round;stroke-linejoin:miter;stroke-dasharray:none;stroke-opacity:1" transform="rotate(5.606 487.33782 172.85421)"/>
    <path d="M293.68304 177.32027s2.05892 1.73326 3.27784 4.29575c1.21715 2.55874 1.39055 5.36248 1.39055 5.36248m0 0s1.99875 1.76268 3.21765 4.3251c1.21718 2.55881 1.45073 5.33314 1.45073 5.33314" style="fill:none;stroke:#4e4e4e;stroke-width:3.77953;stroke-linecap:round;stroke-linejoin:miter;stroke-dasharray:none;stroke-opacity:1" transform="rotate(5.606 487.33782 172.85421)"/>
    <path d="M297.19902 175.63455s2.01888 1.77639 3.18333 4.36493c1.16283 2.58492 1.27699 5.39362 1.27699 5.39362" style="fill:none;stroke:#ce3636;stroke-width:3.77953;stroke-linecap:round;stroke-linejoin:miter;stroke-dasharray:none;stroke-opacity:1" transform="rotate(5.606 487.33782 172.85421)"/>
    <path d="M301.65934 185.3931s1.96082 1.80389 3.12523 4.39235c1.16287 2.585 1.33508 5.3662 1.33508 5.3662" style="fill:none;stroke:#bebebe;stroke-width:3.77953;stroke-linecap:round;stroke-linejoin:miter;stroke-dasharray:none;stroke-opacity:1" transform="rotate(5.606 487.33782 172.85421)"/>
    <path d="M300.73872 174.02031s1.97989 1.81729 3.09181 4.43007c1.11044 2.60928 1.16782 5.42206 1.16782 5.42206m0 0s1.92393 1.84289 3.03582 4.45558c1.11047 2.60936 1.22382 5.39655 1.22382 5.39655" style="fill:none;stroke:#4e4e4e;stroke-width:3.77953;stroke-linecap:round;stroke-linejoin:miter;stroke-dasharray:none;stroke-opacity:1" transform="rotate(5.606 487.33782 172.85421)"/>
    <path d="M304.30081 172.47418s1.94193 1.85602 3.00327 4.49128c1.05998 2.63188 1.06308 5.44791 1.06308 5.44791" style="fill:none;stroke:#bebebe;stroke-width:3.77954;stroke-linecap:round;stroke-linejoin:miter;stroke-dasharray:none;stroke-opacity:1" transform="rotate(5.606 487.33782 172.85421)"/>
    <path d="M308.36716 182.41337s1.88808 1.8797 2.94938 4.51487c1.06001 2.63198 1.11697 5.42432 1.11697 5.42432" style="fill:none;stroke:#ce3636;stroke-width:3.77954;stroke-linecap:round;stroke-linejoin:miter;stroke-dasharray:none;stroke-opacity:1" transform="rotate(5.606 487.33782 172.85421)"/>
    <path d="M307.883 170.99489s1.90504 1.89244 2.91768 4.54827c1.01141 2.65261.96259 5.47092.96259 5.47092m0 0s1.85328 1.9142 2.86588 4.56993c1.01145 2.65271 1.01439 5.44925 1.01439 5.44925" style="fill:none;stroke:#4e4e4e;stroke-width:3.77953;stroke-linecap:round;stroke-linejoin:miter;stroke-dasharray:none;stroke-opacity:1" transform="rotate(5.606 487.33782 172.85421)"/>
    <path d="M315.1846 179.67138s1.81951 1.94651 2.78537 4.62107c.96482 2.67167.91622 5.47157.91622 5.47157" style="fill:none;stroke:#bebebe;stroke-width:3.77953;stroke-linecap:round;stroke-linejoin:miter;stroke-dasharray:none;stroke-opacity:1" transform="rotate(5.606 487.33782 172.85421)"/>
    <path d="M311.48302 169.57873s1.86916 1.92667 2.83506 4.60132c.96478 2.67158.86652 5.49133.86652 5.49133" style="fill:none;stroke:#ce3636;stroke-width:3.77953;stroke-linecap:round;stroke-linejoin:miter;stroke-dasharray:none;stroke-opacity:1" transform="rotate(5.606 487.33782 172.85421)"/>
    <path d="M315.09757 168.22397s1.83433 1.95866 2.75543 4.65034c.9201 2.68873.77485 5.50904.77485 5.50904m0 0s1.78677 1.97659 2.70784 4.66817c.92014 2.68883.82245 5.49121.82245 5.49121" style="fill:none;stroke:#4e4e4e;stroke-width:3.77953;stroke-linecap:round;stroke-linejoin:miter;stroke-dasharray:none;stroke-opacity:1" transform="rotate(5.606 487.33782 172.85421)"/>
    <path d="M322.09175 177.1469s1.75506 2.00448 2.63329 4.71133c.87739 2.70425.73309 5.50825.73309 5.50825" style="fill:none;stroke:#ce3636;stroke-width:3.77954;stroke-linecap:round;stroke-linejoin:miter;stroke-dasharray:none;stroke-opacity:1" transform="rotate(5.606 487.33782 172.85421)"/>
    <path d="M318.72538 166.92731s1.80052 1.98845 2.67878 4.69541c.87735 2.70414.68759 5.52418.68759 5.52418" style="fill:none;stroke:#bebebe;stroke-width:3.77954;stroke-linecap:round;stroke-linejoin:miter;stroke-dasharray:none;stroke-opacity:1" transform="rotate(5.606 487.33782 172.85421)"/>
    <path d="M322.36408 165.68748s1.76776 2.01595 2.60509 4.73627c.8365 2.71766.6046 5.53645.6046 5.53645m0 0s1.7244 2.03006 2.56169 4.75027c.83654 2.71777.648 5.52245.648 5.52245" style="fill:none;stroke:#4e4e4e;stroke-width:3.77953;stroke-linecap:round;stroke-linejoin:miter;stroke-dasharray:none;stroke-opacity:1" transform="rotate(5.606 487.33782 172.85421)"/>
    <path d="M326.01146 164.50075s1.73602 2.04125 2.53437 4.7732c.79761 2.72943.52603 5.54613.52603 5.54613" style="fill:none;stroke:#ce3636;stroke-width:3.77953;stroke-linecap:round;stroke-linejoin:miter;stroke-dasharray:none;stroke-opacity:1" transform="rotate(5.606 487.33782 172.85421)"/>
    <path d="M329.07186 174.82008s1.69475 2.05344 2.49307 4.78528c.79764 2.72954.56733 5.53405.56733 5.53405" style="fill:none;stroke:#bebebe;stroke-width:3.77953;stroke-linecap:round;stroke-linejoin:miter;stroke-dasharray:none;stroke-opacity:1" transform="rotate(5.606 487.33782 172.85421)"/>
    <path d="M329.6642 163.36535s1.70533 2.0643 2.46664 4.80608c.76065 2.7394.45184 5.55313.45184 5.55313" style="fill:none;stroke:#4e4e4e;stroke-width:3.77953;stroke-linecap:round;stroke-linejoin:miter;stroke-dasharray:none;stroke-opacity:1" transform="rotate(5.606 487.33782 172.85421)"/>
    <path d="M332.58268 173.72456s1.66616 2.07459 2.42744 4.81625c.76068 2.73952.49104 5.54297.49104 5.54297" style="fill:none;stroke:#4e4e4e;stroke-width:3.77953;stroke-linecap:round;stroke-linejoin:miter;stroke-dasharray:none;stroke-opacity:1" transform="rotate(5.606 487.33782 172.85421)"/>
    <path d="M333.32106 162.27803s1.67564 2.08516 2.40188 4.83504c.72564 2.74761.38206 5.55754.38206 5.55754" style="fill:none;stroke:#bebebe;stroke-width:3.77954;stroke-linecap:round;stroke-linejoin:miter;stroke-dasharray:none;stroke-opacity:1" transform="rotate(5.606 487.33782 172.85421)"/>
    <path d="M336.105 172.67061s1.63858 2.09354 2.36478 4.84328c.72567 2.74775.41917 5.54929.41917 5.54929" style="fill:none;stroke:#ce3636;stroke-width:3.77954;stroke-linecap:round;stroke-linejoin:miter;stroke-dasharray:none;stroke-opacity:1" transform="rotate(5.606 487.33782 172.85421)"/>
    <path d="M336.97961 161.23752s.0972.12334.25423.34954c0 0 0 0 0 0 .48884.72471 1.55506 2.46482 2.08508 4.55421.52882 2.08463.43666 4.17623.36185 5.06191 0 0 0 0 0 0-.023.2886-.0445.4532-.0445.4532m-.00001 0s.0951.12372.24902.3505c0 0 0 0 0 0 .48633.72535 1.54734 2.46669 2.07737 4.5561.52881 2.08461.44186 4.17499.36957 5.06002 0 0 0 0 0 0-.0199.28803-.0393.45224-.0393.45224" style="fill:none;stroke:#4e4e4e;stroke-width:3.77953;stroke-linecap:round;stroke-linejoin:miter;stroke-dasharray:none;stroke-opacity:1" transform="rotate(5.606 487.33782 172.85421)"/>
    <path d="M343.21347 170.83258s1.6222 2.16141 2.31257 4.91797c.69036 2.75655.30851 5.50928.30851 5.50928" style="fill:none;stroke:#bebebe;stroke-width:3.77953;stroke-linecap:round;stroke-linejoin:miter;stroke-dasharray:none;stroke-opacity:1" transform="rotate(5.606 487.33782 172.85421)"/>
    <path d="M340.5924 160.40532s1.63125 2.15919 2.32162 4.91575c.69037 2.75655.29945 5.51151.29945 5.51151" style="fill:none;stroke:#ce3636;stroke-width:3.77953;stroke-linecap:round;stroke-linejoin:miter;stroke-dasharray:none;stroke-opacity:1" transform="rotate(5.606 487.33782 172.85421)"/>
    <path d="M344.20241 159.58146s1.62398 2.16097 2.30597 4.91958c.68199 2.75861.2834 5.51543.2834 5.51543m0 0s1.61492 2.16319 2.29691 4.9218c.68199 2.75861.29247 5.51322.29247 5.51322" style="fill:none;stroke:#4e4e4e;stroke-width:3.77953;stroke-linecap:round;stroke-linejoin:miter;stroke-dasharray:none;stroke-opacity:1" transform="rotate(5.606 487.33782 172.85421)"/>
    <path d="M350.37044 169.2001s1.60763 2.165 2.28125 4.92573c.67362 2.76071.27646 5.51722.27646 5.51722" style="fill:none;stroke:#ce3636;stroke-width:3.77954;stroke-linecap:round;stroke-linejoin:miter;stroke-dasharray:none;stroke-opacity:1" transform="rotate(5.606 487.33782 172.85421)"/>
    <path d="M347.81274 158.75714s1.61668 2.16278 2.29031 4.92352c.67361 2.7607.26739 5.51944.26739 5.51944" style="fill:none;stroke:#bebebe;stroke-width:3.77954;stroke-linecap:round;stroke-linejoin:miter;stroke-dasharray:none;stroke-opacity:1" transform="rotate(5.606 487.33782 172.85421)"/>
    <path d="M351.4232 157.93357s1.60941 2.16452 2.27464 4.92725c.66523 2.76272.25131 5.52328.25131 5.52328m0 0s1.60036 2.16674 2.26559 4.92946.26037 5.52107.26037 5.52107" style="fill:none;stroke:#4e4e4e;stroke-width:3.77953;stroke-linecap:round;stroke-linejoin:miter;stroke-dasharray:none;stroke-opacity:1" transform="rotate(5.606 487.33782 172.85421)"/>
    <path d="M355.03396 157.10954s1.60213 2.1663 2.25898 4.93108c.65685 2.76478.23526 5.52721.23526 5.52721" style="fill:none;stroke:#ce3636;stroke-width:3.77953;stroke-linecap:round;stroke-linejoin:miter;stroke-dasharray:none;stroke-opacity:1" transform="rotate(5.606 487.33782 172.85421)"/>
    <path d="M357.5282 167.56783s1.59308 2.16851 2.24993 4.93329c.65685 2.76478.24432 5.52499.24432 5.52499" style="fill:none;stroke:#bebebe;stroke-width:3.77953;stroke-linecap:round;stroke-linejoin:miter;stroke-dasharray:none;stroke-opacity:1" transform="rotate(5.606 487.33782 172.85421)"/>
    <path d="M358.64398 156.28569s1.59485 2.16807 2.24332 4.93491c.64847 2.76682.21922 5.53113.21922 5.53113m0 0s1.58579 2.17028 2.23426 4.93712c.64848 2.76683.22828 5.52892.22828 5.52892" style="fill:none;stroke:#4e4e4e;stroke-width:3.77953;stroke-linecap:round;stroke-linejoin:miter;stroke-dasharray:none;stroke-opacity:1" transform="rotate(5.606 487.33782 172.85421)"/>
    <path d="M362.2543 155.46137s1.58756 2.16988 2.22767 4.93884c.6401 2.76892.20321 5.53514.20321 5.53514" style="fill:none;stroke:#bebebe;stroke-width:3.77954;stroke-linecap:round;stroke-linejoin:miter;stroke-dasharray:none;stroke-opacity:1" transform="rotate(5.606 487.33782 172.85421)"/>
    <path d="M364.68518 165.93535s1.5785 2.17211 2.21861 4.94105c.6401 2.76894.21226 5.53293.21226 5.53293" style="fill:none;stroke:#ce3636;stroke-width:3.77954;stroke-linecap:round;stroke-linejoin:miter;stroke-dasharray:none;stroke-opacity:1" transform="rotate(5.606 487.33782 172.85421)"/>
    <path d="M365.86476 154.6378s1.58029 2.17162 2.212 4.94257c.63172 2.77094.18712 5.53898.18712 5.53898m0 0s1.57123 2.17384 2.20295 4.94479c.63171 2.77094.19618 5.53677.19618 5.53677" style="fill:none;stroke:#4e4e4e;stroke-width:3.77953;stroke-linecap:round;stroke-linejoin:miter;stroke-dasharray:none;stroke-opacity:1" transform="rotate(5.606 487.33782 172.85421)"/>
  </g>
</svg>
