<svg xmlns="http://www.w3.org/2000/svg" width="60" height="60">
  <defs>
    <clipPath id="a" clipPathUnits="userSpaceOnUse">
      <path d="M0 8v41a3.3137085 3.3137085 22.5 0 0 5.6568542 2.343146L51.343146 5.6568542A3.3137085 3.3137085 67.5 0 0 49 0H8a8 8 135 0 0-8 8Z" style="fill:#000;fill-opacity:1;stroke:none;stroke-width:1px;stroke-linecap:butt;stroke-linejoin:miter;stroke-opacity:1"/>
    </clipPath>
    <clipPath id="b" clipPathUnits="userSpaceOnUse">
      <path d="M54.343146 8.6568542 8.6568542 54.343146A3.3137085 3.3137085 67.5 0 0 11 60h41a8 8 135 0 0 8-8V11a3.3137085 3.3137085 22.5 0 0-5.656854-2.3431458Z" style="fill:#000;fill-opacity:1;stroke:none;stroke-width:1px;stroke-linecap:butt;stroke-linejoin:miter;stroke-opacity:1"/>
    </clipPath>
  </defs>
  <g clip-path="url(#a)" style="display:inline">
    <path d="M0 0h60v60H0z" style="fill:#ded7d5;fill-opacity:1;stroke:none;stroke-width:1.00157;stroke-linecap:round"/>
    <path d="M0 0h30v30H0z" style="fill:#4e6fdf;fill-opacity:1;stroke:none;stroke-width:1.09716;stroke-linecap:round"/>
    <path d="M30 0v5h30V0H30zm0 10v5h30v-5H30zm0 10v5h30v-5H30zM0 30v5h60v-5H0zm0 10v5h60v-5H0zm0 10v5h60v-5H0z" style="fill:#c65353;fill-opacity:1;stroke:none;stroke-width:1.41643;stroke-linecap:round"/>
    <path d="m15 10 1.469463 2.977458 3.28582.477457-2.377642 2.317627.561285 3.272543L15 17.5l-2.938926 1.545085.561285-3.272543-2.377642-2.317627 3.28582-.477457zm0-14.2397423 1.469463 2.977458 3.28582.47745705-2.377642 2.31762695.561285 3.272543L15 3.2602577l-2.938926 1.545085.561285-3.272543-2.377642-2.31762695 3.28582-.47745705zM2.3424519 3.6712245l1.469463 2.977458 3.28582.477457-2.377642 2.317627.561285 3.2725435-2.938926-1.545085-2.93892601 1.545085.561285-3.2725435-2.37764199-2.317627 3.28581999-.477457zm0 14.2397435 1.469463 2.977458 3.28582.477457-2.377642 2.317627.561285 3.272543-2.938926-1.545085-2.93892601 1.545085.561285-3.272543-2.37764199-2.317627 3.28581999-.477457zm0-28.479486 1.469463 2.9774581 3.28582.477457-2.377642 2.317627.561285 3.272543-2.938926-1.545085-2.93892601 1.545085.561285-3.272543-2.37764199-2.317627 3.28581999-.477457zM27.657548 3.6712259l1.469463 2.977458 3.28582.477457-2.377642 2.317627.561285 3.2725431-2.938926-1.545085-2.938926 1.545085.561285-3.2725431-2.377642-2.317627 3.28582-.477457zm0 14.2397421 1.469463 2.977458 3.28582.477457-2.377642 2.317627.561285 3.272543-2.938926-1.545085-2.938926 1.545085.561285-3.272543-2.377642-2.317627 3.28582-.477457zm0-28.479484 1.469463 2.9774583 3.28582.477457-2.377642 2.317627.561285 3.272543-2.938926-1.545085-2.938926 1.545085.561285-3.272543-2.377642-2.317627 3.28582-.477457z" style="fill:#ded7d5;stroke-width:1.00157;stroke-linecap:round" transform="matrix(.63203 0 0 .63203 5.5194908 9.6796606)"/>
  </g>
  <g clip-path="url(#b)" style="display:inline">
    <path d="M0 0h60v60H0z" style="fill:#3e6ad5;fill-opacity:1;stroke:none;stroke-width:1.00157;stroke-linecap:round"/>
    <path d="M0 60 60 0M0 0l60 60" style="display:inline;fill:none;stroke:#ded7d5;stroke-width:6.80315;stroke-linecap:butt;stroke-linejoin:miter;stroke-dasharray:none;stroke-opacity:1"/>
    <path d="m31.129902 26.988281 30-29.9999998M-1.2685353 63.151424l30.0000003-30m-2.836934-5.370174L-4.1054688-2.2187501M62.057674 60.179687l-30-30" style="fill:none;stroke:#d94e4e;stroke-width:2.64567;stroke-linecap:butt;stroke-linejoin:miter;stroke-dasharray:none;stroke-opacity:1"/>
    <path d="M25 0v25H0v10h25v25h10V35h25V25H35V0Z" style="fill:#ded7d5;fill-opacity:1;stroke:none;stroke-width:1.00157;stroke-linecap:round"/>
    <path d="M27 0v27H0v6h27v27h6V33h27v-6H33V0Z" style="fill:#d94e4e;fill-opacity:1;stroke:none;stroke-width:1.00157;stroke-linecap:round"/>
  </g>
</svg>
