<svg xmlns="http://www.w3.org/2000/svg" xmlns:xlink="http://www.w3.org/1999/xlink" width="60" height="60">
  <defs>
    <clipPath id="c">
      <path id="b" d="M4678 1746s56 561 56 1683c-8 1146-865 1726-1494 2031-629-305-1486-885-1494-2031 0-1122 56-1683 56-1683z"/>
    </clipPath>
    <clipPath id="a" clipPathUnits="userSpaceOnUse">
      <path d="M8 0h44a8 8 45 0 1 8 8v44a8 8 135 0 1-8 8H8a8 8 45 0 1-8-8V8a8 8 135 0 1 8-8Z" style="fill:#000;fill-opacity:1;stroke:none;stroke-width:1.5;stroke-linecap:round;stroke-dasharray:none;stroke-opacity:1"/>
    </clipPath>
  </defs>
  <g clip-path="url(#a)">
    <path d="M0 0h60v20H0z" style="fill:#ddd;stroke-width:2.64567;stroke-linecap:round;fill-opacity:1"/>
    <path d="M0 20h60v20H0z" style="fill:#2a6bcd;stroke-width:2.64567;stroke-linecap:round;fill-opacity:1"/>
    <path d="M0 40h60v20H0z" style="fill:#da2c2c;stroke-width:2.64567;stroke-linecap:round;fill-opacity:1"/>
    <g transform="translate(-.5323242 -1.3454302)">
      <use xlink:href="#b" style="fill:#da2c2c;fill-opacity:1" transform="translate(-2.0651862 -4.9459693) scale(.01006)"/>
      <path fill="#fff" d="M29.254602 43.346664V29.231125c-4.778957 0-6.137184.422564-7.56585.855186a23.371622 23.371622 0 0 0 0-4.336273c1.428666.432622 2.786893.855176 7.56585.855176v-3.923775c-1.509145 0-3.591765.06032-5.986279.87531a23.371622 23.371622 0 0 0 0-4.34634c2.394514.804872 4.477134.865244 5.986279.865244 0-1.136893-.352134-3.581707-.794816-5.603957a23.371622 23.371622 0 0 0 4.145117 0c-.442682 2.02225-.794816 4.467064-.794816 5.603957 1.509145 0 3.591765-.06032 5.986274-.865244a23.371622 23.371622 0 0 0 0 4.34634c-2.394509-.814938-4.477129-.87531-5.986274-.87531v3.923775c4.778959 0 6.137188-.422554 7.565845-.855176a23.371622 23.371622 0 0 0 0 4.336273c-1.428657-.432622-2.786886-.855186-7.565845-.855186v14.115539z" style="stroke-width:.0100609"/>
      <path fill="#0b4ea2" d="M2463 5903a507 867 0 1 1 319-1541 584 1084 0 0 1 916 0 507 867 0 1 1 319 1541z" clip-path="url(#c)" style="fill:#2a6bcd;fill-opacity:1" transform="translate(-2.0651862 -4.9459693) scale(.01006)"/>
      <use xlink:href="#b" fill="none" stroke="#fff" stroke-width="108" style="stroke:#ddd;stroke-width:149.091;stroke-dasharray:none;stroke-opacity:1" transform="translate(-2.0651862 -4.9459693) scale(.01006)"/>
    </g>
  </g>
</svg>
