<svg width="1590" height="1000" viewBox="0 0 1590 1000" fill="none" xmlns="http://www.w3.org/2000/svg">
<rect width="450" height="1000" transform="translate(1140)" fill="#141414"/>
<path d="M1425 450.667C1425 497.333 1365 537.333 1365 537.333C1365 537.333 1305 497.333 1305 450.667C1305 434.754 1311.32 419.492 1322.57 408.24C1333.83 396.988 1349.09 390.667 1365 390.667C1380.91 390.667 1396.17 396.988 1407.43 408.24C1418.68 419.492 1425 434.754 1425 450.667Z" stroke="#696969" stroke-width="10" stroke-linecap="round" stroke-linejoin="round"/>
<path d="M1352.7 436.113C1353.7 433.254 1355.65 430.843 1358.23 429.307C1360.81 427.771 1363.84 427.21 1366.78 427.722C1369.73 428.235 1372.4 429.788 1374.32 432.107C1376.25 434.425 1377.3 437.36 1377.3 440.391C1377.3 448.947 1364.64 453.226 1364.64 453.226" stroke="#696969" stroke-width="10" stroke-linecap="round" stroke-linejoin="round"/>
<path d="M1364.96 476.109H1365" stroke="#696969" stroke-width="10" stroke-linecap="round" stroke-linejoin="round"/>
<path d="M1231.45 604V578.8H1240.77C1242.79 578.8 1244.46 579.136 1245.78 579.808C1247.1 580.48 1248.08 581.404 1248.73 582.58C1249.38 583.756 1249.7 585.076 1249.7 586.54C1249.7 587.932 1249.39 589.216 1248.76 590.392C1248.14 591.544 1247.17 592.48 1245.85 593.2C1244.53 593.896 1242.84 594.244 1240.77 594.244H1236.06V604H1231.45ZM1236.06 590.5H1240.48C1242.09 590.5 1243.24 590.152 1243.94 589.456C1244.66 588.736 1245.02 587.764 1245.02 586.54C1245.02 585.292 1244.66 584.32 1243.94 583.624C1243.24 582.904 1242.09 582.544 1240.48 582.544H1236.06V590.5ZM1253.21 604V578.08H1257.82V604H1253.21ZM1268.68 604.432C1267.14 604.432 1265.88 604.192 1264.9 603.712C1263.92 603.208 1263.18 602.548 1262.7 601.732C1262.22 600.916 1261.98 600.016 1261.98 599.032C1261.98 597.376 1262.63 596.032 1263.93 595C1265.22 593.968 1267.17 593.452 1269.76 593.452H1274.3V593.02C1274.3 591.796 1273.95 590.896 1273.25 590.32C1272.56 589.744 1271.69 589.456 1270.66 589.456C1269.72 589.456 1268.91 589.684 1268.21 590.14C1267.52 590.572 1267.08 591.22 1266.92 592.084H1262.42C1262.54 590.788 1262.97 589.66 1263.71 588.7C1264.48 587.74 1265.46 587.008 1266.66 586.504C1267.86 585.976 1269.21 585.712 1270.7 585.712C1273.24 585.712 1275.24 586.348 1276.71 587.62C1278.17 588.892 1278.9 590.692 1278.9 593.02V604H1274.98L1274.55 601.12C1274.02 602.08 1273.28 602.872 1272.32 603.496C1271.38 604.12 1270.17 604.432 1268.68 604.432ZM1269.72 600.832C1271.04 600.832 1272.06 600.4 1272.78 599.536C1273.53 598.672 1274 597.604 1274.19 596.332H1270.26C1269.04 596.332 1268.16 596.56 1267.64 597.016C1267.11 597.448 1266.84 597.988 1266.84 598.636C1266.84 599.332 1267.11 599.872 1267.64 600.256C1268.16 600.64 1268.86 600.832 1269.72 600.832ZM1292.05 604.432C1290.22 604.432 1288.62 604.036 1287.22 603.244C1285.83 602.452 1284.73 601.348 1283.91 599.932C1283.12 598.516 1282.72 596.896 1282.72 595.072C1282.72 593.248 1283.12 591.628 1283.91 590.212C1284.73 588.796 1285.83 587.692 1287.22 586.9C1288.62 586.108 1290.22 585.712 1292.05 585.712C1294.33 585.712 1296.25 586.312 1297.81 587.512C1299.37 588.688 1300.36 590.32 1300.8 592.408H1295.94C1295.7 591.544 1295.22 590.872 1294.5 590.392C1293.8 589.888 1292.97 589.636 1292.01 589.636C1290.74 589.636 1289.66 590.116 1288.77 591.076C1287.88 592.036 1287.44 593.368 1287.44 595.072C1287.44 596.776 1287.88 598.108 1288.77 599.068C1289.66 600.028 1290.74 600.508 1292.01 600.508C1292.97 600.508 1293.8 600.268 1294.5 599.788C1295.22 599.308 1295.7 598.624 1295.94 597.736H1300.8C1300.36 599.752 1299.37 601.372 1297.81 602.596C1296.25 603.82 1294.33 604.432 1292.05 604.432ZM1313.56 604.432C1311.76 604.432 1310.17 604.048 1308.77 603.28C1307.38 602.512 1306.29 601.432 1305.5 600.04C1304.71 598.648 1304.31 597.04 1304.31 595.216C1304.31 593.368 1304.69 591.724 1305.46 590.284C1306.25 588.844 1307.33 587.728 1308.7 586.936C1310.09 586.12 1311.73 585.712 1313.6 585.712C1315.35 585.712 1316.9 586.096 1318.24 586.864C1319.59 587.632 1320.63 588.688 1321.37 590.032C1322.14 591.352 1322.53 592.828 1322.53 594.46C1322.53 594.724 1322.51 595 1322.49 595.288C1322.49 595.576 1322.48 595.876 1322.45 596.188H1308.88C1308.98 597.58 1309.46 598.672 1310.32 599.464C1311.21 600.256 1312.28 600.652 1313.53 600.652C1314.46 600.652 1315.24 600.448 1315.87 600.04C1316.51 599.608 1316.99 599.056 1317.31 598.384H1321.99C1321.65 599.512 1321.09 600.544 1320.29 601.48C1319.53 602.392 1318.57 603.112 1317.41 603.64C1316.29 604.168 1315 604.432 1313.56 604.432ZM1313.6 589.456C1312.47 589.456 1311.47 589.78 1310.61 590.428C1309.75 591.052 1309.19 592.012 1308.95 593.308H1317.85C1317.77 592.132 1317.34 591.196 1316.55 590.5C1315.76 589.804 1314.77 589.456 1313.6 589.456ZM1334.98 604V586.144H1339.05L1339.41 589.168C1339.96 588.112 1340.75 587.272 1341.78 586.648C1342.84 586.024 1344.08 585.712 1345.49 585.712C1347.7 585.712 1349.42 586.408 1350.64 587.8C1351.86 589.192 1352.48 591.232 1352.48 593.92V604H1347.87V594.352C1347.87 592.816 1347.56 591.64 1346.93 590.824C1346.31 590.008 1345.34 589.6 1344.02 589.6C1342.72 589.6 1341.65 590.056 1340.81 590.968C1340 591.88 1339.59 593.152 1339.59 594.784V604H1334.98ZM1365.45 604.432C1363.72 604.432 1362.16 604.036 1360.77 603.244C1359.4 602.452 1358.31 601.36 1357.49 599.968C1356.7 598.552 1356.31 596.92 1356.31 595.072C1356.31 593.224 1356.71 591.604 1357.53 590.212C1358.35 588.796 1359.44 587.692 1360.81 586.9C1362.2 586.108 1363.76 585.712 1365.49 585.712C1367.19 585.712 1368.73 586.108 1370.09 586.9C1371.49 587.692 1372.58 588.796 1373.37 590.212C1374.19 591.604 1374.59 593.224 1374.59 595.072C1374.59 596.92 1374.19 598.552 1373.37 599.968C1372.58 601.36 1371.49 602.452 1370.09 603.244C1368.7 604.036 1367.15 604.432 1365.45 604.432ZM1365.45 600.436C1366.65 600.436 1367.69 599.992 1368.58 599.104C1369.47 598.192 1369.91 596.848 1369.91 595.072C1369.91 593.296 1369.47 591.964 1368.58 591.076C1367.69 590.164 1366.66 589.708 1365.49 589.708C1364.26 589.708 1363.21 590.164 1362.32 591.076C1361.45 591.964 1361.02 593.296 1361.02 595.072C1361.02 596.848 1361.45 598.192 1362.32 599.104C1363.21 599.992 1364.25 600.436 1365.45 600.436ZM1385.97 604C1384.1 604 1382.6 603.544 1381.47 602.632C1380.34 601.72 1379.78 600.1 1379.78 597.772V589.996H1376.72V586.144H1379.78L1380.32 581.356H1384.38V586.144H1389.21V589.996H1384.38V597.808C1384.38 598.672 1384.56 599.272 1384.92 599.608C1385.31 599.92 1385.96 600.076 1386.87 600.076H1389.1V604H1385.97ZM1402.57 604V589.996H1400.12V586.144H1402.57V584.056C1402.57 581.896 1403.11 580.36 1404.19 579.448C1405.29 578.536 1406.78 578.08 1408.65 578.08H1410.63V582.004H1409.37C1408.58 582.004 1408.02 582.16 1407.68 582.472C1407.35 582.784 1407.18 583.312 1407.18 584.056V586.144H1411.03V589.996H1407.18V604H1402.57ZM1422.54 604.432C1420.82 604.432 1419.26 604.036 1417.86 603.244C1416.5 602.452 1415.4 601.36 1414.59 599.968C1413.8 598.552 1413.4 596.92 1413.4 595.072C1413.4 593.224 1413.81 591.604 1414.62 590.212C1415.44 588.796 1416.53 587.692 1417.9 586.9C1419.29 586.108 1420.85 585.712 1422.58 585.712C1424.28 585.712 1425.82 586.108 1427.19 586.9C1428.58 587.692 1429.67 588.796 1430.46 590.212C1431.28 591.604 1431.69 593.224 1431.69 595.072C1431.69 596.92 1431.28 598.552 1430.46 599.968C1429.67 601.36 1428.58 602.452 1427.19 603.244C1425.8 604.036 1424.25 604.432 1422.54 604.432ZM1422.54 600.436C1423.74 600.436 1424.79 599.992 1425.68 599.104C1426.56 598.192 1427.01 596.848 1427.01 595.072C1427.01 593.296 1426.56 591.964 1425.68 591.076C1424.79 590.164 1423.76 589.708 1422.58 589.708C1421.36 589.708 1420.3 590.164 1419.41 591.076C1418.55 591.964 1418.12 593.296 1418.12 595.072C1418.12 596.848 1418.55 598.192 1419.41 599.104C1420.3 599.992 1421.34 600.436 1422.54 600.436ZM1442.5 604.432C1440.27 604.432 1438.54 603.736 1437.32 602.344C1436.12 600.952 1435.52 598.912 1435.52 596.224V586.144H1440.09V595.792C1440.09 597.328 1440.4 598.504 1441.03 599.32C1441.65 600.136 1442.64 600.544 1443.98 600.544C1445.25 600.544 1446.3 600.088 1447.11 599.176C1447.95 598.264 1448.37 596.992 1448.37 595.36V586.144H1452.98V604H1448.91L1448.55 600.976C1448 602.032 1447.2 602.872 1446.14 603.496C1445.11 604.12 1443.9 604.432 1442.5 604.432ZM1457.71 604V586.144H1461.78L1462.14 589.168C1462.69 588.112 1463.48 587.272 1464.52 586.648C1465.57 586.024 1466.81 585.712 1468.22 585.712C1470.43 585.712 1472.15 586.408 1473.37 587.8C1474.6 589.192 1475.21 591.232 1475.21 593.92V604H1470.6V594.352C1470.6 592.816 1470.29 591.64 1469.66 590.824C1469.04 590.008 1468.07 589.6 1466.75 589.6C1465.45 589.6 1464.38 590.056 1463.54 590.968C1462.73 591.88 1462.32 593.152 1462.32 594.784V604H1457.71ZM1487.82 604.432C1486.14 604.432 1484.64 604.024 1483.32 603.208C1482 602.392 1480.96 601.276 1480.19 599.86C1479.42 598.444 1479.04 596.836 1479.04 595.036C1479.04 593.236 1479.42 591.64 1480.19 590.248C1480.96 588.832 1482 587.728 1483.32 586.936C1484.64 586.12 1486.14 585.712 1487.82 585.712C1489.17 585.712 1490.34 585.964 1491.35 586.468C1492.36 586.972 1493.17 587.68 1493.8 588.592V578.08H1498.41V604H1494.3L1493.8 601.444C1493.22 602.236 1492.45 602.932 1491.49 603.532C1490.56 604.132 1489.33 604.432 1487.82 604.432ZM1488.79 600.4C1490.28 600.4 1491.49 599.908 1492.43 598.924C1493.39 597.916 1493.87 596.632 1493.87 595.072C1493.87 593.512 1493.39 592.24 1492.43 591.256C1491.49 590.248 1490.28 589.744 1488.79 589.744C1487.33 589.744 1486.12 590.236 1485.16 591.22C1484.2 592.204 1483.72 593.476 1483.72 595.036C1483.72 596.596 1484.2 597.88 1485.16 598.888C1486.12 599.896 1487.33 600.4 1488.79 600.4Z" fill="#969696"/>
<rect width="1100" height="1000" fill="#141414"/>
<path d="M603 388H496.333C488.97 388 483 393.97 483 401.333V468C483 475.364 488.97 481.333 496.333 481.333H603C610.364 481.333 616.333 475.364 616.333 468V401.333C616.333 393.97 610.364 388 603 388Z" stroke="#696969" stroke-width="10" stroke-linecap="round" stroke-linejoin="round"/>
<path d="M523.333 508H576.667" stroke="#696969" stroke-width="10" stroke-linecap="round" stroke-linejoin="round"/>
<path d="M550 481.333V508" stroke="#696969" stroke-width="10" stroke-linecap="round" stroke-linejoin="round"/>
<path d="M513 412L586 458" stroke="#696969" stroke-width="10" stroke-linecap="round"/>
<path d="M586 412L513 457" stroke="#696969" stroke-width="10" stroke-linecap="round"/>
<path d="M372.964 584V575.036L364.504 558.8H369.724L375.304 570.428L380.848 558.8H385.996L377.572 575.036V584H372.964ZM394.209 584.432C392.481 584.432 390.921 584.036 389.529 583.244C388.161 582.452 387.069 581.36 386.253 579.968C385.461 578.552 385.065 576.92 385.065 575.072C385.065 573.224 385.473 571.604 386.289 570.212C387.105 568.796 388.197 567.692 389.565 566.9C390.957 566.108 392.517 565.712 394.245 565.712C395.949 565.712 397.485 566.108 398.853 566.9C400.245 567.692 401.337 568.796 402.129 570.212C402.945 571.604 403.353 573.224 403.353 575.072C403.353 576.92 402.945 578.552 402.129 579.968C401.337 581.36 400.245 582.452 398.853 583.244C397.461 584.036 395.913 584.432 394.209 584.432ZM394.209 580.436C395.409 580.436 396.453 579.992 397.341 579.104C398.229 578.192 398.673 576.848 398.673 575.072C398.673 573.296 398.229 571.964 397.341 571.076C396.453 570.164 395.421 569.708 394.245 569.708C393.021 569.708 391.965 570.164 391.077 571.076C390.213 571.964 389.781 573.296 389.781 575.072C389.781 576.848 390.213 578.192 391.077 579.104C391.965 579.992 393.009 580.436 394.209 580.436ZM414.169 584.432C411.937 584.432 410.209 583.736 408.985 582.344C407.785 580.952 407.185 578.912 407.185 576.224V566.144H411.757V575.792C411.757 577.328 412.069 578.504 412.693 579.32C413.317 580.136 414.301 580.544 415.645 580.544C416.917 580.544 417.961 580.088 418.777 579.176C419.617 578.264 420.037 576.992 420.037 575.36V566.144H424.645V584H420.577L420.217 580.976C419.665 582.032 418.861 582.872 417.805 583.496C416.773 584.12 415.561 584.432 414.169 584.432ZM429.375 584V566.144H433.479L433.911 569.492C434.559 568.34 435.435 567.428 436.539 566.756C437.667 566.06 438.987 565.712 440.499 565.712V570.572H439.203C438.195 570.572 437.295 570.728 436.503 571.04C435.711 571.352 435.087 571.892 434.631 572.66C434.199 573.428 433.983 574.496 433.983 575.864V584H429.375ZM459.607 584.432C458.023 584.432 456.631 584.18 455.431 583.676C454.231 583.148 453.271 582.428 452.551 581.516C451.831 580.604 451.399 579.548 451.255 578.348H455.899C456.043 579.044 456.427 579.644 457.051 580.148C457.699 580.628 458.527 580.868 459.535 580.868C460.543 580.868 461.275 580.664 461.731 580.256C462.211 579.848 462.451 579.38 462.451 578.852C462.451 578.084 462.115 577.568 461.443 577.304C460.771 577.016 459.835 576.74 458.635 576.476C457.867 576.308 457.087 576.104 456.295 575.864C455.503 575.624 454.771 575.324 454.099 574.964C453.451 574.58 452.923 574.1 452.515 573.524C452.107 572.924 451.903 572.192 451.903 571.328C451.903 569.744 452.527 568.412 453.775 567.332C455.047 566.252 456.823 565.712 459.103 565.712C461.215 565.712 462.895 566.204 464.143 567.188C465.415 568.172 466.171 569.528 466.411 571.256H462.055C461.791 569.936 460.795 569.276 459.067 569.276C458.203 569.276 457.531 569.444 457.051 569.78C456.595 570.116 456.367 570.536 456.367 571.04C456.367 571.568 456.715 571.988 457.411 572.3C458.107 572.612 459.031 572.9 460.183 573.164C461.431 573.452 462.571 573.776 463.603 574.136C464.659 574.472 465.499 574.988 466.123 575.684C466.747 576.356 467.059 577.328 467.059 578.6C467.083 579.704 466.795 580.7 466.195 581.588C465.595 582.476 464.731 583.172 463.603 583.676C462.475 584.18 461.143 584.432 459.607 584.432ZM479.889 584.432C478.065 584.432 476.457 584.036 475.065 583.244C473.673 582.452 472.569 581.348 471.753 579.932C470.961 578.516 470.565 576.896 470.565 575.072C470.565 573.248 470.961 571.628 471.753 570.212C472.569 568.796 473.673 567.692 475.065 566.9C476.457 566.108 478.065 565.712 479.889 565.712C482.169 565.712 484.089 566.312 485.649 567.512C487.209 568.688 488.205 570.32 488.637 572.408H483.777C483.537 571.544 483.057 570.872 482.337 570.392C481.641 569.888 480.813 569.636 479.853 569.636C478.581 569.636 477.501 570.116 476.613 571.076C475.725 572.036 475.281 573.368 475.281 575.072C475.281 576.776 475.725 578.108 476.613 579.068C477.501 580.028 478.581 580.508 479.853 580.508C480.813 580.508 481.641 580.268 482.337 579.788C483.057 579.308 483.537 578.624 483.777 577.736H488.637C488.205 579.752 487.209 581.372 485.649 582.596C484.089 583.82 482.169 584.432 479.889 584.432ZM492.727 584V566.144H496.831L497.263 569.492C497.911 568.34 498.787 567.428 499.891 566.756C501.019 566.06 502.339 565.712 503.851 565.712V570.572H502.555C501.547 570.572 500.647 570.728 499.855 571.04C499.063 571.352 498.439 571.892 497.983 572.66C497.551 573.428 497.335 574.496 497.335 575.864V584H492.727ZM515.36 584.432C513.56 584.432 511.964 584.048 510.572 583.28C509.18 582.512 508.088 581.432 507.296 580.04C506.504 578.648 506.108 577.04 506.108 575.216C506.108 573.368 506.492 571.724 507.26 570.284C508.052 568.844 509.132 567.728 510.5 566.936C511.892 566.12 513.524 565.712 515.396 565.712C517.148 565.712 518.696 566.096 520.04 566.864C521.384 567.632 522.428 568.688 523.172 570.032C523.94 571.352 524.324 572.828 524.324 574.46C524.324 574.724 524.312 575 524.288 575.288C524.288 575.576 524.276 575.876 524.252 576.188H510.68C510.776 577.58 511.256 578.672 512.12 579.464C513.008 580.256 514.076 580.652 515.324 580.652C516.26 580.652 517.04 580.448 517.664 580.04C518.312 579.608 518.792 579.056 519.104 578.384H523.784C523.448 579.512 522.884 580.544 522.092 581.48C521.324 582.392 520.364 583.112 519.212 583.64C518.084 584.168 516.8 584.432 515.36 584.432ZM515.396 569.456C514.268 569.456 513.272 569.78 512.408 570.428C511.544 571.052 510.992 572.012 510.752 573.308H519.644C519.572 572.132 519.14 571.196 518.348 570.5C517.556 569.804 516.572 569.456 515.396 569.456ZM536.875 584.432C535.075 584.432 533.479 584.048 532.087 583.28C530.695 582.512 529.603 581.432 528.811 580.04C528.019 578.648 527.623 577.04 527.623 575.216C527.623 573.368 528.007 571.724 528.775 570.284C529.567 568.844 530.647 567.728 532.015 566.936C533.407 566.12 535.039 565.712 536.911 565.712C538.663 565.712 540.211 566.096 541.555 566.864C542.899 567.632 543.943 568.688 544.687 570.032C545.455 571.352 545.839 572.828 545.839 574.46C545.839 574.724 545.827 575 545.803 575.288C545.803 575.576 545.791 575.876 545.767 576.188H532.195C532.291 577.58 532.771 578.672 533.635 579.464C534.523 580.256 535.591 580.652 536.839 580.652C537.775 580.652 538.555 580.448 539.179 580.04C539.827 579.608 540.307 579.056 540.619 578.384H545.299C544.963 579.512 544.399 580.544 543.607 581.48C542.839 582.392 541.879 583.112 540.727 583.64C539.599 584.168 538.315 584.432 536.875 584.432ZM536.911 569.456C535.783 569.456 534.787 569.78 533.923 570.428C533.059 571.052 532.507 572.012 532.267 573.308H541.159C541.087 572.132 540.655 571.196 539.863 570.5C539.071 569.804 538.087 569.456 536.911 569.456ZM549.715 584V566.144H553.783L554.143 569.168C554.695 568.112 555.487 567.272 556.519 566.648C557.575 566.024 558.811 565.712 560.227 565.712C562.435 565.712 564.151 566.408 565.375 567.8C566.599 569.192 567.211 571.232 567.211 573.92V584H562.603V574.352C562.603 572.816 562.291 571.64 561.667 570.824C561.043 570.008 560.071 569.6 558.751 569.6C557.455 569.6 556.387 570.056 555.547 570.968C554.731 571.88 554.323 573.152 554.323 574.784V584H549.715ZM582.679 563.372C581.839 563.372 581.143 563.12 580.591 562.616C580.063 562.112 579.799 561.476 579.799 560.708C579.799 559.94 580.063 559.316 580.591 558.836C581.143 558.332 581.839 558.08 582.679 558.08C583.519 558.08 584.203 558.332 584.731 558.836C585.283 559.316 585.559 559.94 585.559 560.708C585.559 561.476 585.283 562.112 584.731 562.616C584.203 563.12 583.519 563.372 582.679 563.372ZM580.375 584V566.144H584.983V584H580.375ZM597.173 584.432C595.589 584.432 594.197 584.18 592.997 583.676C591.797 583.148 590.837 582.428 590.117 581.516C589.397 580.604 588.965 579.548 588.821 578.348H593.465C593.609 579.044 593.993 579.644 594.617 580.148C595.265 580.628 596.093 580.868 597.101 580.868C598.109 580.868 598.841 580.664 599.297 580.256C599.777 579.848 600.017 579.38 600.017 578.852C600.017 578.084 599.681 577.568 599.009 577.304C598.337 577.016 597.401 576.74 596.201 576.476C595.433 576.308 594.653 576.104 593.861 575.864C593.069 575.624 592.337 575.324 591.665 574.964C591.017 574.58 590.489 574.1 590.081 573.524C589.673 572.924 589.469 572.192 589.469 571.328C589.469 569.744 590.093 568.412 591.341 567.332C592.613 566.252 594.389 565.712 596.669 565.712C598.781 565.712 600.461 566.204 601.709 567.188C602.981 568.172 603.737 569.528 603.977 571.256H599.621C599.357 569.936 598.361 569.276 596.633 569.276C595.769 569.276 595.097 569.444 594.617 569.78C594.161 570.116 593.933 570.536 593.933 571.04C593.933 571.568 594.281 571.988 594.977 572.3C595.673 572.612 596.597 572.9 597.749 573.164C598.997 573.452 600.137 573.776 601.169 574.136C602.225 574.472 603.065 574.988 603.689 575.684C604.313 576.356 604.625 577.328 604.625 578.6C604.649 579.704 604.361 580.7 603.761 581.588C603.161 582.476 602.297 583.172 601.169 583.676C600.041 584.18 598.709 584.432 597.173 584.432ZM625.241 584C623.369 584 621.869 583.544 620.741 582.632C619.613 581.72 619.049 580.1 619.049 577.772V569.996H615.989V566.144H619.049L619.589 561.356H623.657V566.144H628.481V569.996H623.657V577.808C623.657 578.672 623.837 579.272 624.197 579.608C624.581 579.92 625.229 580.076 626.141 580.076H628.373V584H625.241ZM640.549 584.432C638.821 584.432 637.261 584.036 635.869 583.244C634.501 582.452 633.409 581.36 632.593 579.968C631.801 578.552 631.405 576.92 631.405 575.072C631.405 573.224 631.813 571.604 632.629 570.212C633.445 568.796 634.537 567.692 635.905 566.9C637.297 566.108 638.857 565.712 640.585 565.712C642.289 565.712 643.825 566.108 645.193 566.9C646.585 567.692 647.677 568.796 648.469 570.212C649.285 571.604 649.693 573.224 649.693 575.072C649.693 576.92 649.285 578.552 648.469 579.968C647.677 581.36 646.585 582.452 645.193 583.244C643.801 584.036 642.253 584.432 640.549 584.432ZM640.549 580.436C641.749 580.436 642.793 579.992 643.681 579.104C644.569 578.192 645.013 576.848 645.013 575.072C645.013 573.296 644.569 571.964 643.681 571.076C642.793 570.164 641.761 569.708 640.585 569.708C639.361 569.708 638.305 570.164 637.417 571.076C636.553 571.964 636.121 573.296 636.121 575.072C636.121 576.848 636.553 578.192 637.417 579.104C638.305 579.992 639.349 580.436 640.549 580.436ZM662.381 584.432C660.653 584.432 659.093 584.036 657.701 583.244C656.333 582.452 655.241 581.36 654.425 579.968C653.633 578.552 653.237 576.92 653.237 575.072C653.237 573.224 653.645 571.604 654.461 570.212C655.277 568.796 656.369 567.692 657.737 566.9C659.129 566.108 660.689 565.712 662.417 565.712C664.121 565.712 665.657 566.108 667.025 566.9C668.417 567.692 669.509 568.796 670.301 570.212C671.117 571.604 671.525 573.224 671.525 575.072C671.525 576.92 671.117 578.552 670.301 579.968C669.509 581.36 668.417 582.452 667.025 583.244C665.633 584.036 664.085 584.432 662.381 584.432ZM662.381 580.436C663.581 580.436 664.625 579.992 665.513 579.104C666.401 578.192 666.845 576.848 666.845 575.072C666.845 573.296 666.401 571.964 665.513 571.076C664.625 570.164 663.593 569.708 662.417 569.708C661.193 569.708 660.137 570.164 659.249 571.076C658.385 571.964 657.953 573.296 657.953 575.072C657.953 576.848 658.385 578.192 659.249 579.104C660.137 579.992 661.181 580.436 662.381 580.436ZM694.807 584.432C693.463 584.432 692.287 584.18 691.279 583.676C690.271 583.172 689.455 582.464 688.831 581.552L688.327 584H684.223V558.08H688.831V568.7C689.407 567.908 690.163 567.212 691.099 566.612C692.059 566.012 693.295 565.712 694.807 565.712C696.487 565.712 697.987 566.12 699.307 566.936C700.627 567.752 701.671 568.868 702.439 570.284C703.207 571.7 703.591 573.308 703.591 575.108C703.591 576.908 703.207 578.516 702.439 579.932C701.671 581.324 700.627 582.428 699.307 583.244C697.987 584.036 696.487 584.432 694.807 584.432ZM693.835 580.4C695.299 580.4 696.511 579.908 697.471 578.924C698.431 577.94 698.911 576.668 698.911 575.108C698.911 573.548 698.431 572.264 697.471 571.256C696.511 570.248 695.299 569.744 693.835 569.744C692.347 569.744 691.123 570.248 690.163 571.256C689.227 572.24 688.759 573.512 688.759 575.072C688.759 576.632 689.227 577.916 690.163 578.924C691.123 579.908 692.347 580.4 693.835 580.4ZM710.191 563.372C709.351 563.372 708.655 563.12 708.103 562.616C707.575 562.112 707.311 561.476 707.311 560.708C707.311 559.94 707.575 559.316 708.103 558.836C708.655 558.332 709.351 558.08 710.191 558.08C711.031 558.08 711.715 558.332 712.243 558.836C712.795 559.316 713.071 559.94 713.071 560.708C713.071 561.476 712.795 562.112 712.243 562.616C711.715 563.12 711.031 563.372 710.191 563.372ZM707.887 584V566.144H712.495V584H707.887ZM724.865 578.672C724.001 578.672 723.197 578.576 722.453 578.384L721.121 579.716C721.529 579.932 722.081 580.112 722.777 580.256C723.473 580.4 724.601 580.544 726.161 580.688C728.537 580.904 730.265 581.468 731.345 582.38C732.425 583.292 732.965 584.552 732.965 586.16C732.965 587.216 732.677 588.212 732.101 589.148C731.525 590.108 730.637 590.876 729.437 591.452C728.237 592.052 726.701 592.352 724.829 592.352C722.285 592.352 720.233 591.872 718.673 590.912C717.113 589.976 716.333 588.56 716.333 586.664C716.333 585.056 717.113 583.664 718.673 582.488C718.193 582.272 717.773 582.044 717.413 581.804C717.077 581.564 716.777 581.312 716.513 581.048V580.22L719.645 576.908C718.253 575.684 717.557 574.112 717.557 572.192C717.557 570.992 717.845 569.9 718.421 568.916C719.021 567.932 719.861 567.152 720.941 566.576C722.021 566 723.329 565.712 724.865 565.712C725.873 565.712 726.809 565.856 727.673 566.144H734.441V568.952L731.381 569.168C731.861 570.08 732.101 571.088 732.101 572.192C732.101 573.392 731.813 574.484 731.237 575.468C730.661 576.452 729.821 577.232 728.717 577.808C727.637 578.384 726.353 578.672 724.865 578.672ZM724.865 575.144C725.801 575.144 726.569 574.892 727.169 574.388C727.793 573.884 728.105 573.164 728.105 572.228C728.105 571.292 727.793 570.572 727.169 570.068C726.569 569.564 725.801 569.312 724.865 569.312C723.881 569.312 723.089 569.564 722.489 570.068C721.889 570.572 721.589 571.292 721.589 572.228C721.589 573.164 721.889 573.884 722.489 574.388C723.089 574.892 723.881 575.144 724.865 575.144ZM720.545 586.196C720.545 587.084 720.953 587.744 721.769 588.176C722.609 588.632 723.629 588.86 724.829 588.86C725.981 588.86 726.917 588.62 727.637 588.14C728.357 587.684 728.717 587.06 728.717 586.268C728.717 585.62 728.477 585.08 727.997 584.648C727.541 584.216 726.617 583.952 725.225 583.856C724.241 583.784 723.329 583.676 722.489 583.532C721.793 583.916 721.289 584.336 720.977 584.792C720.689 585.248 720.545 585.716 720.545 586.196Z" fill="#969696"/>
<path d="M385.632 624V607.2H391.848C393.192 607.2 394.304 607.424 395.184 607.872C396.064 608.32 396.72 608.936 397.152 609.72C397.584 610.504 397.8 611.384 397.8 612.36C397.8 613.288 397.592 614.144 397.176 614.928C396.76 615.696 396.112 616.32 395.232 616.8C394.352 617.264 393.224 617.496 391.848 617.496H388.704V624H385.632ZM388.704 615H391.656C392.728 615 393.496 614.768 393.96 614.304C394.44 613.824 394.68 613.176 394.68 612.36C394.68 611.528 394.44 610.88 393.96 610.416C393.496 609.936 392.728 609.696 391.656 609.696H388.704V615ZM400.138 624V606.72H403.21V624H400.138ZM412.133 624.288C410.933 624.288 409.869 624.032 408.941 623.52C408.013 623.008 407.285 622.288 406.757 621.36C406.229 620.432 405.965 619.36 405.965 618.144C405.965 616.912 406.221 615.816 406.733 614.856C407.261 613.896 407.981 613.152 408.893 612.624C409.821 612.08 410.909 611.808 412.157 611.808C413.325 611.808 414.357 612.064 415.253 612.576C416.149 613.088 416.845 613.792 417.341 614.688C417.853 615.568 418.109 616.552 418.109 617.64C418.109 617.816 418.101 618 418.085 618.192C418.085 618.384 418.077 618.584 418.061 618.792H409.013C409.077 619.72 409.397 620.448 409.973 620.976C410.565 621.504 411.277 621.768 412.109 621.768C412.733 621.768 413.253 621.632 413.669 621.36C414.101 621.072 414.421 620.704 414.629 620.256H417.749C417.525 621.008 417.149 621.696 416.621 622.32C416.109 622.928 415.469 623.408 414.701 623.76C413.949 624.112 413.093 624.288 412.133 624.288ZM412.157 614.304C411.405 614.304 410.741 614.52 410.165 614.952C409.589 615.368 409.221 616.008 409.061 616.872H414.989C414.941 616.088 414.653 615.464 414.125 615C413.597 614.536 412.941 614.304 412.157 614.304ZM424.797 624.288C423.773 624.288 422.933 624.128 422.277 623.808C421.621 623.472 421.133 623.032 420.813 622.488C420.493 621.944 420.333 621.344 420.333 620.688C420.333 619.584 420.765 618.688 421.629 618C422.493 617.312 423.789 616.968 425.517 616.968H428.541V616.68C428.541 615.864 428.309 615.264 427.845 614.88C427.381 614.496 426.805 614.304 426.117 614.304C425.493 614.304 424.949 614.456 424.485 614.76C424.021 615.048 423.733 615.48 423.621 616.056H420.621C420.701 615.192 420.989 614.44 421.485 613.8C421.997 613.16 422.653 612.672 423.453 612.336C424.253 611.984 425.149 611.808 426.141 611.808C427.837 611.808 429.173 612.232 430.149 613.08C431.125 613.928 431.613 615.128 431.613 616.68V624H428.997L428.709 622.08C428.357 622.72 427.861 623.248 427.221 623.664C426.597 624.08 425.789 624.288 424.797 624.288ZM425.493 621.888C426.373 621.888 427.053 621.6 427.533 621.024C428.029 620.448 428.341 619.736 428.469 618.888H425.853C425.037 618.888 424.453 619.04 424.101 619.344C423.749 619.632 423.573 619.992 423.573 620.424C423.573 620.888 423.749 621.248 424.101 621.504C424.453 621.76 424.917 621.888 425.493 621.888ZM439.464 624.288C438.408 624.288 437.48 624.12 436.68 623.784C435.88 623.432 435.24 622.952 434.76 622.344C434.28 621.736 433.992 621.032 433.896 620.232H436.992C437.088 620.696 437.344 621.096 437.76 621.432C438.192 621.752 438.744 621.912 439.416 621.912C440.088 621.912 440.576 621.776 440.88 621.504C441.2 621.232 441.36 620.92 441.36 620.568C441.36 620.056 441.136 619.712 440.688 619.536C440.24 619.344 439.616 619.16 438.816 618.984C438.304 618.872 437.784 618.736 437.256 618.576C436.728 618.416 436.24 618.216 435.792 617.976C435.36 617.72 435.008 617.4 434.736 617.016C434.464 616.616 434.328 616.128 434.328 615.552C434.328 614.496 434.744 613.608 435.576 612.888C436.424 612.168 437.608 611.808 439.128 611.808C440.536 611.808 441.656 612.136 442.488 612.792C443.336 613.448 443.84 614.352 444 615.504H441.096C440.92 614.624 440.256 614.184 439.104 614.184C438.528 614.184 438.08 614.296 437.76 614.52C437.456 614.744 437.304 615.024 437.304 615.36C437.304 615.712 437.536 615.992 438 616.2C438.464 616.408 439.08 616.6 439.848 616.776C440.68 616.968 441.44 617.184 442.128 617.424C442.832 617.648 443.392 617.992 443.808 618.456C444.224 618.904 444.432 619.552 444.432 620.4C444.448 621.136 444.256 621.8 443.856 622.392C443.456 622.984 442.88 623.448 442.128 623.784C441.376 624.12 440.488 624.288 439.464 624.288ZM452.938 624.288C451.738 624.288 450.674 624.032 449.746 623.52C448.818 623.008 448.09 622.288 447.562 621.36C447.034 620.432 446.77 619.36 446.77 618.144C446.77 616.912 447.026 615.816 447.538 614.856C448.066 613.896 448.786 613.152 449.698 612.624C450.626 612.08 451.714 611.808 452.962 611.808C454.13 611.808 455.162 612.064 456.058 612.576C456.954 613.088 457.65 613.792 458.146 614.688C458.658 615.568 458.914 616.552 458.914 617.64C458.914 617.816 458.906 618 458.89 618.192C458.89 618.384 458.882 618.584 458.866 618.792H449.818C449.882 619.72 450.202 620.448 450.778 620.976C451.37 621.504 452.082 621.768 452.914 621.768C453.538 621.768 454.058 621.632 454.474 621.36C454.906 621.072 455.226 620.704 455.434 620.256H458.554C458.33 621.008 457.954 621.696 457.426 622.32C456.914 622.928 456.274 623.408 455.506 623.76C454.754 624.112 453.898 624.288 452.938 624.288ZM452.962 614.304C452.21 614.304 451.546 614.52 450.97 614.952C450.394 615.368 450.026 616.008 449.866 616.872H455.794C455.746 616.088 455.458 615.464 454.93 615C454.402 614.536 453.746 614.304 452.962 614.304ZM473.048 624.288C471.832 624.288 470.76 624.024 469.832 623.496C468.904 622.968 468.168 622.232 467.624 621.288C467.096 620.344 466.832 619.264 466.832 618.048C466.832 616.832 467.096 615.752 467.624 614.808C468.168 613.864 468.904 613.128 469.832 612.6C470.76 612.072 471.832 611.808 473.048 611.808C474.568 611.808 475.848 612.208 476.888 613.008C477.928 613.792 478.592 614.88 478.88 616.272H475.64C475.48 615.696 475.16 615.248 474.68 614.928C474.216 614.592 473.664 614.424 473.024 614.424C472.176 614.424 471.456 614.744 470.864 615.384C470.272 616.024 469.976 616.912 469.976 618.048C469.976 619.184 470.272 620.072 470.864 620.712C471.456 621.352 472.176 621.672 473.024 621.672C473.664 621.672 474.216 621.512 474.68 621.192C475.16 620.872 475.48 620.416 475.64 619.824H478.88C478.592 621.168 477.928 622.248 476.888 623.064C475.848 623.88 474.568 624.288 473.048 624.288ZM487.319 624.288C486.167 624.288 485.127 624.024 484.199 623.496C483.287 622.968 482.559 622.24 482.015 621.312C481.487 620.368 481.223 619.28 481.223 618.048C481.223 616.816 481.495 615.736 482.039 614.808C482.583 613.864 483.311 613.128 484.223 612.6C485.151 612.072 486.191 611.808 487.343 611.808C488.479 611.808 489.503 612.072 490.415 612.6C491.343 613.128 492.071 613.864 492.599 614.808C493.143 615.736 493.415 616.816 493.415 618.048C493.415 619.28 493.143 620.368 492.599 621.312C492.071 622.24 491.343 622.968 490.415 623.496C489.487 624.024 488.455 624.288 487.319 624.288ZM487.319 621.624C488.119 621.624 488.815 621.328 489.407 620.736C489.999 620.128 490.295 619.232 490.295 618.048C490.295 616.864 489.999 615.976 489.407 615.384C488.815 614.776 488.127 614.472 487.343 614.472C486.527 614.472 485.823 614.776 485.231 615.384C484.655 615.976 484.367 616.864 484.367 618.048C484.367 619.232 484.655 620.128 485.231 620.736C485.823 621.328 486.519 621.624 487.319 621.624ZM496.162 624V612.096H498.874L499.138 613.704C499.522 613.128 500.026 612.672 500.65 612.336C501.29 611.984 502.026 611.808 502.858 611.808C504.698 611.808 506.002 612.52 506.77 613.944C507.202 613.288 507.778 612.768 508.498 612.384C509.234 612 510.034 611.808 510.898 611.808C512.45 611.808 513.642 612.272 514.474 613.2C515.306 614.128 515.722 615.488 515.722 617.28V624H512.65V617.568C512.65 616.544 512.45 615.76 512.05 615.216C511.666 614.672 511.066 614.4 510.25 614.4C509.418 614.4 508.746 614.704 508.234 615.312C507.738 615.92 507.49 616.768 507.49 617.856V624H504.418V617.568C504.418 616.544 504.218 615.76 503.818 615.216C503.418 614.672 502.802 614.4 501.97 614.4C501.154 614.4 500.49 614.704 499.978 615.312C499.482 615.92 499.234 616.768 499.234 617.856V624H496.162ZM524.422 624.288C523.222 624.288 522.158 624.032 521.23 623.52C520.302 623.008 519.574 622.288 519.046 621.36C518.518 620.432 518.254 619.36 518.254 618.144C518.254 616.912 518.51 615.816 519.022 614.856C519.55 613.896 520.27 613.152 521.182 612.624C522.11 612.08 523.198 611.808 524.446 611.808C525.614 611.808 526.646 612.064 527.542 612.576C528.438 613.088 529.134 613.792 529.63 614.688C530.142 615.568 530.398 616.552 530.398 617.64C530.398 617.816 530.39 618 530.374 618.192C530.374 618.384 530.366 618.584 530.35 618.792H521.302C521.366 619.72 521.686 620.448 522.262 620.976C522.854 621.504 523.566 621.768 524.398 621.768C525.022 621.768 525.542 621.632 525.958 621.36C526.39 621.072 526.71 620.704 526.918 620.256H530.038C529.814 621.008 529.438 621.696 528.91 622.32C528.398 622.928 527.758 623.408 526.99 623.76C526.238 624.112 525.382 624.288 524.422 624.288ZM524.446 614.304C523.694 614.304 523.03 614.52 522.454 614.952C521.878 615.368 521.51 616.008 521.35 616.872H527.278C527.23 616.088 526.942 615.464 526.414 615C525.886 614.536 525.23 614.304 524.446 614.304ZM545.757 624.288C544.861 624.288 544.077 624.12 543.405 623.784C542.733 623.448 542.189 622.976 541.773 622.368L541.437 624H538.701V606.72H541.773V613.8C542.157 613.272 542.661 612.808 543.285 612.408C543.925 612.008 544.749 611.808 545.757 611.808C546.877 611.808 547.877 612.08 548.757 612.624C549.637 613.168 550.333 613.912 550.845 614.856C551.357 615.8 551.613 616.872 551.613 618.072C551.613 619.272 551.357 620.344 550.845 621.288C550.333 622.216 549.637 622.952 548.757 623.496C547.877 624.024 546.877 624.288 545.757 624.288ZM545.109 621.6C546.085 621.6 546.893 621.272 547.533 620.616C548.173 619.96 548.493 619.112 548.493 618.072C548.493 617.032 548.173 616.176 547.533 615.504C546.893 614.832 546.085 614.496 545.109 614.496C544.117 614.496 543.301 614.832 542.661 615.504C542.037 616.16 541.725 617.008 541.725 618.048C541.725 619.088 542.037 619.944 542.661 620.616C543.301 621.272 544.117 621.6 545.109 621.6ZM558.461 624.288C557.437 624.288 556.597 624.128 555.941 623.808C555.285 623.472 554.797 623.032 554.477 622.488C554.157 621.944 553.997 621.344 553.997 620.688C553.997 619.584 554.429 618.688 555.293 618C556.157 617.312 557.453 616.968 559.181 616.968H562.205V616.68C562.205 615.864 561.973 615.264 561.509 614.88C561.045 614.496 560.469 614.304 559.781 614.304C559.157 614.304 558.613 614.456 558.149 614.76C557.685 615.048 557.397 615.48 557.285 616.056H554.285C554.365 615.192 554.653 614.44 555.149 613.8C555.661 613.16 556.317 612.672 557.117 612.336C557.917 611.984 558.813 611.808 559.805 611.808C561.501 611.808 562.837 612.232 563.813 613.08C564.789 613.928 565.277 615.128 565.277 616.68V624H562.661L562.373 622.08C562.021 622.72 561.525 623.248 560.885 623.664C560.261 624.08 559.453 624.288 558.461 624.288ZM559.157 621.888C560.037 621.888 560.717 621.6 561.197 621.024C561.693 620.448 562.005 619.736 562.133 618.888H559.517C558.701 618.888 558.117 619.04 557.765 619.344C557.413 619.632 557.237 619.992 557.237 620.424C557.237 620.888 557.413 621.248 557.765 621.504C558.117 621.76 558.581 621.888 559.157 621.888ZM574.04 624.288C572.824 624.288 571.752 624.024 570.824 623.496C569.896 622.968 569.16 622.232 568.616 621.288C568.088 620.344 567.824 619.264 567.824 618.048C567.824 616.832 568.088 615.752 568.616 614.808C569.16 613.864 569.896 613.128 570.824 612.6C571.752 612.072 572.824 611.808 574.04 611.808C575.56 611.808 576.84 612.208 577.88 613.008C578.92 613.792 579.584 614.88 579.872 616.272H576.632C576.472 615.696 576.152 615.248 575.672 614.928C575.208 614.592 574.656 614.424 574.016 614.424C573.168 614.424 572.448 614.744 571.856 615.384C571.264 616.024 570.968 616.912 570.968 618.048C570.968 619.184 571.264 620.072 571.856 620.712C572.448 621.352 573.168 621.672 574.016 621.672C574.656 621.672 575.208 621.512 575.672 621.192C576.152 620.872 576.472 620.416 576.632 619.824H579.872C579.584 621.168 578.92 622.248 577.88 623.064C576.84 623.88 575.56 624.288 574.04 624.288ZM582.599 624V606.72H585.671V616.92L589.895 612.096H593.543L588.671 617.52L594.335 624H590.495L585.671 618.024V624H582.599ZM607.67 624.288C606.518 624.288 605.478 624.024 604.55 623.496C603.638 622.968 602.91 622.24 602.366 621.312C601.838 620.368 601.574 619.28 601.574 618.048C601.574 616.816 601.846 615.736 602.39 614.808C602.934 613.864 603.662 613.128 604.574 612.6C605.502 612.072 606.542 611.808 607.694 611.808C608.83 611.808 609.854 612.072 610.766 612.6C611.694 613.128 612.422 613.864 612.95 614.808C613.494 615.736 613.766 616.816 613.766 618.048C613.766 619.28 613.494 620.368 612.95 621.312C612.422 622.24 611.694 622.968 610.766 623.496C609.838 624.024 608.806 624.288 607.67 624.288ZM607.67 621.624C608.47 621.624 609.166 621.328 609.758 620.736C610.35 620.128 610.646 619.232 610.646 618.048C610.646 616.864 610.35 615.976 609.758 615.384C609.166 614.776 608.478 614.472 607.694 614.472C606.878 614.472 606.174 614.776 605.582 615.384C605.006 615.976 604.718 616.864 604.718 618.048C604.718 619.232 605.006 620.128 605.582 620.736C606.174 621.328 606.87 621.624 607.67 621.624ZM616.513 624V612.096H619.225L619.465 614.112C619.833 613.408 620.361 612.848 621.049 612.432C621.753 612.016 622.577 611.808 623.521 611.808C624.993 611.808 626.137 612.272 626.953 613.2C627.769 614.128 628.177 615.488 628.177 617.28V624H625.105V617.568C625.105 616.544 624.897 615.76 624.481 615.216C624.065 614.672 623.417 614.4 622.537 614.4C621.673 614.4 620.961 614.704 620.401 615.312C619.857 615.92 619.585 616.768 619.585 617.856V624H616.513ZM636.833 624V612.096H639.545L639.809 613.704C640.193 613.128 640.697 612.672 641.321 612.336C641.961 611.984 642.697 611.808 643.529 611.808C645.369 611.808 646.673 612.52 647.441 613.944C647.873 613.288 648.449 612.768 649.169 612.384C649.905 612 650.705 611.808 651.569 611.808C653.121 611.808 654.313 612.272 655.145 613.2C655.977 614.128 656.393 615.488 656.393 617.28V624H653.321V617.568C653.321 616.544 653.121 615.76 652.721 615.216C652.337 614.672 651.737 614.4 650.921 614.4C650.089 614.4 649.417 614.704 648.905 615.312C648.409 615.92 648.161 616.768 648.161 617.856V624H645.089V617.568C645.089 616.544 644.889 615.76 644.489 615.216C644.089 614.672 643.473 614.4 642.641 614.4C641.825 614.4 641.161 614.704 640.649 615.312C640.153 615.92 639.905 616.768 639.905 617.856V624H636.833ZM665.022 624.288C663.87 624.288 662.83 624.024 661.902 623.496C660.99 622.968 660.262 622.24 659.718 621.312C659.19 620.368 658.926 619.28 658.926 618.048C658.926 616.816 659.198 615.736 659.742 614.808C660.286 613.864 661.014 613.128 661.926 612.6C662.854 612.072 663.894 611.808 665.046 611.808C666.182 611.808 667.206 612.072 668.118 612.6C669.046 613.128 669.774 613.864 670.302 614.808C670.846 615.736 671.118 616.816 671.118 618.048C671.118 619.28 670.846 620.368 670.302 621.312C669.774 622.24 669.046 622.968 668.118 623.496C667.19 624.024 666.158 624.288 665.022 624.288ZM665.022 621.624C665.822 621.624 666.518 621.328 667.11 620.736C667.702 620.128 667.998 619.232 667.998 618.048C667.998 616.864 667.702 615.976 667.11 615.384C666.518 614.776 665.83 614.472 665.046 614.472C664.23 614.472 663.526 614.776 662.934 615.384C662.358 615.976 662.07 616.864 662.07 618.048C662.07 619.232 662.358 620.128 662.934 620.736C663.526 621.328 664.222 621.624 665.022 621.624ZM680.921 624.288C680.025 624.288 679.241 624.12 678.569 623.784C677.897 623.448 677.353 622.976 676.937 622.368L676.601 624H673.865V606.72H676.937V613.8C677.321 613.272 677.825 612.808 678.449 612.408C679.089 612.008 679.913 611.808 680.921 611.808C682.041 611.808 683.041 612.08 683.921 612.624C684.801 613.168 685.497 613.912 686.009 614.856C686.521 615.8 686.777 616.872 686.777 618.072C686.777 619.272 686.521 620.344 686.009 621.288C685.497 622.216 684.801 622.952 683.921 623.496C683.041 624.024 682.041 624.288 680.921 624.288ZM680.273 621.6C681.249 621.6 682.057 621.272 682.697 620.616C683.337 619.96 683.657 619.112 683.657 618.072C683.657 617.032 683.337 616.176 682.697 615.504C682.057 614.832 681.249 614.496 680.273 614.496C679.281 614.496 678.465 614.832 677.825 615.504C677.201 616.16 676.889 617.008 676.889 618.048C676.889 619.088 677.201 619.944 677.825 620.616C678.465 621.272 679.281 621.6 680.273 621.6ZM691.177 610.248C690.617 610.248 690.153 610.08 689.785 609.744C689.433 609.408 689.257 608.984 689.257 608.472C689.257 607.96 689.433 607.544 689.785 607.224C690.153 606.888 690.617 606.72 691.177 606.72C691.737 606.72 692.193 606.888 692.545 607.224C692.913 607.544 693.097 607.96 693.097 608.472C693.097 608.984 692.913 609.408 692.545 609.744C692.193 610.08 691.737 610.248 691.177 610.248ZM689.641 624V612.096H692.713V624H689.641ZM695.919 624V606.72H698.991V624H695.919ZM707.914 624.288C706.714 624.288 705.65 624.032 704.722 623.52C703.794 623.008 703.066 622.288 702.538 621.36C702.01 620.432 701.746 619.36 701.746 618.144C701.746 616.912 702.002 615.816 702.514 614.856C703.042 613.896 703.762 613.152 704.674 612.624C705.602 612.08 706.69 611.808 707.938 611.808C709.106 611.808 710.138 612.064 711.034 612.576C711.93 613.088 712.626 613.792 713.122 614.688C713.634 615.568 713.89 616.552 713.89 617.64C713.89 617.816 713.882 618 713.866 618.192C713.866 618.384 713.858 618.584 713.842 618.792H704.794C704.858 619.72 705.178 620.448 705.754 620.976C706.346 621.504 707.058 621.768 707.89 621.768C708.514 621.768 709.034 621.632 709.45 621.36C709.882 621.072 710.202 620.704 710.41 620.256H713.53C713.306 621.008 712.93 621.696 712.402 622.32C711.89 622.928 711.25 623.408 710.482 623.76C709.73 624.112 708.874 624.288 707.914 624.288ZM707.938 614.304C707.186 614.304 706.522 614.52 705.946 614.952C705.37 615.368 705.002 616.008 704.842 616.872H710.77C710.722 616.088 710.434 615.464 709.906 615C709.378 614.536 708.722 614.304 707.938 614.304Z" fill="#696969"/>
</svg>
