<svg xmlns="http://www.w3.org/2000/svg" width="26" height="26" fill="none">
  <path fill="#696969" fill-rule="evenodd" d="M13 0C5.8175 0 0 5.8175 0 13c0 5.7525 3.72125 10.6112 8.88875 12.3337.65.1138.89375-.2762.89375-.6175 0-.3087-.01625-1.3325-.01625-2.4212C6.5 22.8962 5.655 21.4987 5.395 20.7675c-.14625-.3738-.78-1.5275-1.3325-1.8363-.455-.2437-1.105-.845-.01625-.8612 1.02375-.0163 1.755.9425 1.99875 1.3325 1.17 1.9662 3.03875 1.4137 3.78625 1.0725.11375-.845.45505-1.4138.82875-1.7388-2.8925-.325-5.915-1.4462-5.915-6.4187 0-1.4138.50375-2.58375 1.3325-3.49375-.13-.325-.585-1.6575.13-3.445 0 0 1.08875-.34125 3.575 1.3325 1.04-.2925 2.145-.43875 3.25-.43875s2.21.14625 3.25.43875c2.4863-1.69 3.575-1.3325 3.575-1.3325.715 1.7875.26 3.12.13 3.445.8287.91 1.3325 2.06375 1.3325 3.49375 0 4.9887-3.0388 6.0937-5.9312 6.4187.4712.4063.8775 1.1863.8775 2.405 0 1.7388-.0163 3.1363-.0163 3.575 0 .3413.2437.7475.8938.6175C22.2788 23.6112 26 18.7362 26 13c0-7.1825-5.8175-13-13-13Z" clip-rule="evenodd"/>
</svg>
