<svg xmlns="http://www.w3.org/2000/svg" fill="none" style="z-index:1" viewBox="0 0 730 740">
  <path fill="#1C1C1C" d="M229.234 497.702c32.833 0 59.45-27.819 59.45-62.135s-26.617-62.134-59.45-62.134-59.449 27.818-59.449 62.134 26.616 62.135 59.449 62.135Z"/>
  <path fill="#1A1A1A" d="M59.5462 385.698c32.8332 0 59.4498-27.819 59.4498-62.135s-26.6166-62.134-59.4498-62.134c-32.8331 0-59.4496424 27.818-59.4496424 62.134S26.7131 385.698 59.5462 385.698Z"/>
  <path fill="#1C1C1C" d="M483.715 384.998c40.624 0 73.557-34.42 73.557-76.879 0-42.46-32.933-76.88-73.557-76.88-40.625 0-73.558 34.42-73.558 76.88 0 42.459 32.933 76.879 73.558 76.879Z"/>
  <path fill="#212121" d="M250.952 668.095c.688-4.557 2.023-10.894 4.718-17.431 1.838-4.456 4.218-8.805 7.365-13.012 2.643-3.534 5.708-6.812 9.332-10.038.342-.304.689-.608 1.04-.91 2.853-2.462 6.022-4.878 9.845-7.557 6.81-4.774 15.297-9.869 24.727-17.159 7.905-6.111 16.759-14.148 24.751-25.767 6.721-9.909 11.529-19.797 14.694-29.774 3.062-9.653 4.536-19.231 4.817-28.839.275-9.366-.587-18.622-2.117-27.878-1.504-9.092-3.638-18.092-5.922-27.112-4.529-17.883-9.51-35.363-11.244-53.31-.861-8.913-.909-17.847.274-26.908 1.192-9.117 3.631-18.372 7.752-27.869 1.658-3.75 3.883-7.365 6.568-10.874 2.739-3.58 5.943-7.029 9.474-10.368 7.171-6.781 15.691-13.102 24.138-18.959.003-.002.713-.493.716-.495 8.731-6.031 18.278-12.161 27.445-18.539 8.618-5.996 17.095-12.373 23.761-19.157 3.525-3.583 6.759-7.796 9.779-12.405 3.005-4.584 5.831-9.61 8.541-14.871 5.381-10.449 10.509-22.253 15.533-33.269 5.252-11.514 10.383-22.159 16.067-31.216 2.914-4.643 5.894-8.735 8.997-12.214 3.209-3.598 6.497-6.48 9.91-8.635 8.687-5.443 16.317-9.148 23.473-11.788 8.415-3.103 16.273-4.759 23.628-5.726 3.473-.457 6.843-.76 10.023-.966 5.824-.378 11.733-.51 17.468-.516 12.695-.016 28.332.64 34.633.97-5.519-.677-22.499-2.993-34.505-4.015-5.753-.489-11.76-.841-17.735-.848-3.263-.004-6.758.085-10.385.335-7.674.528-16.097 1.776-25.212 4.609-7.784 2.419-16.042 5.972-25.357 11.33-4.262 2.45-8.242 5.711-12.001 9.64-3.63 3.795-7.036 8.194-10.288 13.055-6.31 9.43-11.93 20.428-17.463 31.877-5.394 11.161-10.569 22.457-16.001 32.52-2.704 5.009-5.433 9.641-8.248 13.766-2.837 4.155-5.7 7.708-8.637 10.587-6.037 5.917-13.899 11.716-22.449 17.556-8.981 6.133-18.584 12.241-27.535 18.431-.245.169-.49.339-.734.509-8.605 5.977-17.661 12.748-25.406 20.233-3.833 3.704-7.422 7.653-10.543 11.868-3.065 4.139-5.696 8.555-7.67 13.283-4.449 10.497-7.045 20.761-8.247 30.852-1.192 10.011-1 19.753.049 29.272 2.082 18.897 7.618 37.277 12.316 54.641 2.412 8.915 4.618 17.582 6.213 26.264 1.619 8.817 2.576 17.483 2.486 26.169-.093 8.894-1.283 17.741-3.936 26.682-2.744 9.247-7.042 18.552-13.24 28.022-7.12 11.046-15.111 18.898-22.466 25.091-8.769 7.385-16.987 12.898-23.684 18.157-3.757 2.951-6.907 5.653-9.726 8.407-.347.339-.69.679-1.027 1.021-3.579 3.624-6.533 7.324-8.987 11.253-2.917 4.669-4.961 9.401-6.427 14.097-2.142 6.865-2.945 13.386-3.341 17.928Z"/>
  <path stroke="#393939" stroke-dasharray="32.41 16.2" stroke-linecap="round" stroke-linejoin="round" stroke-width="3.24069" d="M509.655 210.09c26.734 0 48.406-21.673 48.406-48.407 0-26.734-21.672-48.406-48.406-48.406-26.734 0-48.406 21.672-48.406 48.406 0 26.734 21.672 48.407 48.406 48.407Z" opacity=".3"/>
  <path stroke="#212121" stroke-dasharray="20.37 22.07" stroke-linecap="round" stroke-linejoin="round" stroke-width="1.69735" d="M365.851 150.222c41.013 0 74.261-33.247 74.261-74.2607 0-41.0133-33.248-74.26117-74.261-74.26117S291.59 34.948 291.59 75.9613c0 41.0137 33.248 74.2607 74.261 74.2607Z"/>
  <path fill="#1C1C1C" d="M365.851 138.363c34.496 0 62.461-27.965 62.461-62.4611 0-34.4964-27.965-62.4612-62.461-62.4612-34.496 0-62.461 27.9648-62.461 62.4612 0 34.4961 27.965 62.4611 62.461 62.4611Z"/>
  <path fill="#262626" d="M29.839 530.464c8.8427-6.717 21.602-15.047 35.9376-20.256 9.6789-3.516 19.4076-5.394 29.4479-5.285 7.8385.085 15.5815 1.367 23.7965 3.735.52.15 1.045.306 1.574.467 7.619 2.317 15.331 5.495 24.982 9.926 13.113 6.02 35.672 17.637 58.824 23.449 11.094 2.785 23.684 4.723 37.891 4.64 13.452-.079 28.352-1.965 44.929-6.647 6.071-.938 14.277-2.535 23.463-4.994 8.752-2.342 18.737-5.558 28.817-9.91 9.856-4.256 20.165-9.752 29.623-16.866 9.513-7.155 18.479-16.186 25.12-27.527 12.876-21.903 21.243-42.235 26.839-61.428.281-.962.556-1.928.827-2.898 5.682-20.37 8.853-41.225 11.166-64.553 1.814-19.531 3.34-34.964 6.105-48.768 2.847-14.213 6.923-26.135 13.623-37.73l-.111.141c16.95-23.013 33.89-38.91 49.721-50.716 18.529-13.818 37.078-23.09 52.676-29.97 7.394-3.26 14.648-6.2 21.029-8.722 12.705-5.021 22.644-8.849 33.554-13.473 26.801-11.359 40.901-20.078 52.194-27.576-12.6 5.426-27.892 10.057-55.809 16.401-9.918 2.254-23.229 5.158-35.247 8.23-6.778 1.733-14.585 3.833-22.703 6.329-16.963 5.217-38.43 13.062-60.605 26.554-19.095 11.619-39.788 28.013-60.53 52.566-.016.019-.033.04-.05.06-.016.021-.031.039-.043.054-.011.015-.019.025-.022.03-.003.005-.002.004.005-.003-12.173 12.707-21.528 27.173-28.786 44.856-6.754 16.452-11.274 34.684-15.075 54.584-4.226 22.326-8.032 39.761-12.947 57.153-.231.816-.463 1.627-.696 2.434-4.589 15.887-10.507 33.088-19.82 52.377-2.086 4.875-5.606 9.965-10.902 15.248-5.265 5.253-11.762 10.174-19.009 14.779-7.342 4.665-15.055 8.755-22.284 12.344-7.562 3.753-14.464 6.907-19.969 9.612-13.587 4.779-25.605 7.187-36.36 8.14-11.385 1.008-21.736.415-31.266-1.002-20.589-3.062-41.437-10.978-56.974-15.903-10.56-3.347-19.603-5.762-28.598-7.177-.627-.098-1.25-.191-1.868-.279-9.83-1.389-19.071-1.349-28.0874.166-11.4491 1.923-21.717 6.099-31.0937 11.492-13.7614 7.914-25.4032 18.402-33.2889 25.916Z"/>
  <path fill="#292929" d="M151.334 596.252c2.766-6.368 8.861-21.234 17.046-38.6 2.142-4.544 4.756-9.835 7.757-15.281 4.195-7.615 9.401-16.011 15.819-23.943 5.614-6.937 12.223-13.612 20.169-19.372 7.736-5.785 16.128-10.291 25.129-13.824 8.806-3.457 18.123-5.953 27.89-7.824 19.407-3.717 39.793-4.834 60.722-6.432 21.022-1.606 41.731-3.659 61.054-9.315 9.94-2.91 19.387-6.739 28.226-11.849 9.166-5.3 17.512-11.883 24.972-20 .096-.105.193-.21.289-.315 6.334-6.95 11.633-14.746 16.097-23.387 4.304-8.335 7.753-17.299 10.64-26.856 5.56-18.411 8.79-38.118 12.377-58.96 3.476-20.2 7.16-40.565 13.515-60.066 6.45-19.793 15.475-38.12 29.245-54.372 18.162-21.676 32.646-36.598 44.055-50.066 8.109-9.572 14.11-17.508 19.012-24.727.072-.106.143-.212.215-.318 8.933-13.214 14.397-25.128 17.327-31.091-3.81 5.726-11.352 15.815-21.42 28.036l-.239.29c-5.591 6.78-11.71 13.781-20.379 22.887-11.997 12.603-27.153 26.884-46.192 48.429-15.09 17.275-24.976 36.759-32.007 57.477-6.886 20.287-10.899 41.361-14.54 61.508-3.81 21.085-7.031 39.934-12.41 57.494-2.762 9.018-5.978 17.267-9.882 24.812-4.04 7.805-8.75 14.722-14.292 20.841-.084.093-.169.186-.253.279-6.598 7.219-13.958 13.1-22.089 17.893-7.858 4.632-16.381 8.217-25.568 11.033-18.02 5.524-37.63 7.828-58.653 9.817-20.59 1.949-41.676 3.537-61.678 7.851-10.149 2.189-19.949 5.063-29.269 8.998-9.538 4.028-18.451 9.117-26.643 15.584-8.246 6.696-14.86 14.255-20.281 21.855-6.193 8.682-11.017 17.695-14.788 25.677-2.705 5.723-5.019 11.246-6.896 15.947-5.469 13.694-13.354 37.792-14.077 39.89Z"/>
  <path stroke="#1f1f1f" stroke-linecap="round" stroke-width="2.59603" d="M608.342 277.615s4.94034 25.67005 18.623 47.75c13.68266 22.07995 28.833 31.179 31.159 34.226"/>
  <path fill="#262626" stroke="#262626" stroke-linecap="round" stroke-linejoin="round" stroke-width=".678043" d="M671.167 302.938s.8-9.799 3.122-13.918c2.331-4.137 10.269-9.811 10.269-9.811s-1.856 8.212-3.82 11.854c-2.419 4.485-9.571 11.875-9.571 11.875Z"/>
  <path fill="#212121" stroke="#212121" stroke-width=".678043" d="M671.167 302.938s3.714-9.019 6.836-12.632c4.127-4.777 15.168-11.317 15.168-11.317s-4.092 10.733-7.867 14.847c-3.792 4.13-14.137 9.102-14.137 9.102Z"/>
  <path fill="#262626" stroke="#262626" stroke-width=".678043" d="M671.545 302.921s7.297-8.763 12.08-11.678c4.831-2.944 16.109-5.455 16.109-5.455s-6.358 8.124-10.619 10.853c-5.228 3.348-17.57 6.28-17.57 6.28Z"/>
  <path fill="#212121" stroke="#212121" stroke-width=".678043" d="M671.212 303.05s11.106-6.018 17.186-7.558c4.964-1.258 15.355-1.273 15.355-1.273s-9.916 7.732-15.867 9.253c-5.358 1.369-16.674-.422-16.674-.422Z"/>
  <path fill="#262626" stroke="#262626" stroke-width=".678043" d="M670.953 302.54s10.11-1.577 15.234-1.394c7.217.258 21.42 3.644 21.42 3.644s-13.955 5.584-21.219 4.838c-5.59-.573-15.435-7.088-15.435-7.088Z"/>
  <path fill="#212121" stroke="#212121" stroke-width=".678043" d="M670.886 302.677s10.32 2.869 15.401 4.785c6.369 2.403 18.697 8.265 18.697 8.265s-14.915 2.261-21.573-.612c-5.425-2.341-12.525-12.438-12.525-12.438Z"/>
  <path fill="#262626" stroke="#262626" stroke-width=".678043" d="M670.94 302.919s8.216 4.951 11.458 8.799c3.166 3.757 7.164 12.872 7.164 12.872s-9.015-3.563-12.149-7.064c-3.716-4.152-6.473-14.607-6.473-14.607Z"/>
  <path fill="#212121" stroke="#212121" stroke-width=".678043" d="M670.904 302.696s7.445 7.412 8.054 12.706c.434 3.773-3.83 10.614-3.83 10.614s-5.095-7.88-5.902-12.354c-.706-3.916 1.678-10.966 1.678-10.966Z"/>
  <path fill="#262626" stroke="#262626" stroke-width=".678043" d="M670.466 303.135s2.453 6.802 1.633 10.449c-.843 3.75-6.039 9.74-6.039 9.74s-1.507-7.804-.625-11.524c.842-3.555 5.031-8.665 5.031-8.665Z"/>
  <path stroke="#1f1f1f" stroke-linecap="round" stroke-width="1.35603" d="M627.541 277.409s9.28499 11.009 20.583 17.196c11.29801 6.187 21.199 7.158 23.042 7.978"/>
  <path fill="#262626" stroke="#262626" stroke-linecap="round" stroke-linejoin="round" stroke-width=".820735" d="M582.031 329.028s11.684-2.217 17.286-.84c5.625 1.382 14.99 8.791 14.99 8.791s-10.205.479-15.127-.635c-6.061-1.372-17.149-7.316-17.149-7.316Z"/>
  <path fill="#212121" stroke="#212121" stroke-width=".820735" d="M582.031 329.028s11.789 1.423 17.08 3.892c6.996 3.265 18.446 14.004 18.446 14.004s-13.915-1.31-20.016-4.38c-6.126-3.082-15.51-13.516-15.51-13.516Z"/>
  <path fill="#262626" stroke="#262626" stroke-width=".820735" d="M582.182 329.462s12.737 5.671 17.793 10.297c5.106 4.673 11.951 16.981 11.951 16.981s-11.667-4.783-16.325-8.863c-5.714-5.004-13.419-18.415-13.419-18.415Z"/>
  <path fill="#212121" stroke="#212121" stroke-width=".820735" d="M581.916 329.117s10.867 10.982 14.773 17.558c3.19 5.368 6.821 17.448 6.821 17.448s-12.449-9.049-16.287-15.48c-3.457-5.792-5.307-19.526-5.307-19.526Z"/>
  <path fill="#262626" stroke="#262626" stroke-width=".820735" d="M582.42 328.652s5.35 11.25 6.919 17.267c2.209 8.476 3.206 26.08 3.206 26.08s-11.351-14.435-13.009-23.121c-1.277-6.685 2.884-20.226 2.884-20.226Z"/>
  <path fill="#212121" stroke="#212121" stroke-width=".820735" d="M582.237 328.617s.249 12.924-.215 19.448c-.582 8.178-3.119 24.397-3.119 24.397s-7.817-16.619-6.789-25.284c.838-7.061 10.123-18.561 10.123-18.561Z"/>
  <path fill="#262626" stroke="#262626" stroke-width=".820735" d="M581.975 328.758s-2.907 11.145-6.259 16.151c-3.272 4.888-12.491 12.466-12.491 12.466s1.012-11.629 3.998-16.397c3.54-5.656 14.752-12.22 14.752-12.22Z"/>
  <path fill="#212121" stroke="#212121" stroke-width=".820735" d="M582.222 328.644s-6.039 11.039-11.99 13.448c-4.241 1.717-13.686-1.045-13.686-1.045s7.401-8.456 12.328-10.832c4.312-2.078 13.348-1.571 13.348-1.571Z"/>
  <path fill="#262626" stroke="#262626" stroke-width=".820735" d="M581.558 328.276s-7.064 5.037-11.594 5.255c-4.658.225-13.437-3.893-13.437-3.893s8.559-4.26 13.196-4.43c4.43-.162 11.835 3.068 11.835 3.068Z"/>
  <path stroke="#1f1f1f" stroke-linecap="round" stroke-width="1.64147" d="M574.413 275.54s6.88767 7.89344 9.214 22.767c2.32633 14.87356-.87 25.063-1.445 30.785"/>
  <path fill="#2B2B2B" d="M91.7489 623.515c6.6868-12.111 25.6561-44.049 45.6831-74.515 1.049-1.597 2.131-3.228 3.244-4.888 12.051-17.985 27.617-39.265 45.434-57.624 13.72-14.137 28.251-26.019 43.57-34.217 13.536-7.244 27.073-11.294 41.022-12.193 21.053-2.063 42.048-7.65 62.1-15.286 19.8-7.54 38.399-16.971 54.815-26.617 16.874-9.915 31.488-20.086 42.835-28.769 5.998-4.591 11.178-8.837 15.452-12.554 2.694-2.343 5.057-4.501 7.086-6.45 1.351-1.298 2.596-2.546 3.727-3.736 6.261-6.539 12.781-12.353 19.866-17.551 6.813-4.998 14.211-9.476 22.594-13.577 17.283-8.456 36.97-14.444 59.859-20.245 29.725-7.059 60.508-11.084 84.976-15.61 9.474-1.753 17.443-3.374 25.003-5.022 30.43-6.632 49.038-14.607 60.346-20.186-5.197 1.623-13.317 3.932-24.022 5.948-10.916 2.055-23.173 3.565-37.674 4.369-7.411.41-15.587.541-24.891.406-24.356-.352-54.607-3.247-87.761-2.559-23.423.022-48.177.839-71.882 6.71-11.94 2.957-23.593 7.175-34.823 13.108-11.771 6.218-22.561 14.05-32.297 23.504-.744.688-1.743 1.621-2.753 2.564-1.577 1.472-3.464 3.228-5.677 5.25-3.504 3.202-7.816 7.064-12.848 11.378-9.555 8.189-21.8 18.085-35.947 28.068-13.775 9.72-29.096 19.338-45.226 27.485-16.335 8.25-32.915 14.695-49.219 18.439-20.11 4.404-37.637 13.331-53.036 24.969-17.19 12.991-31.77 29.401-44.209 46.433-16.184 22.158-29.54 46.541-39.313 66.072-.915 1.827-1.801 3.619-2.659 5.371-16.617 33.936-28.3505 68.058-33.3751 81.525Z"/>
  <path fill="#303030" d="M86.2457 553.502c2.5918-1.657 7.1237-4.32 13.8553-7.57 4.622-2.232 10.051-4.629 16.083-6.99 3.581-1.402 7.28-2.753 11.008-4.009 1.785-.601 3.631-1.19 5.516-1.754 4.959-1.482 10.211-2.789 15.132-3.595 10.419-2.219 22.175-3.781 36.242-5.552 12.47-1.57 27.019-3.335 41.001-5.851 13.486-2.427 27.478-5.717 40.46-10.742 12.633-4.89 24.722-11.574 34.683-21.128 8.137-7.736 15.474-16.23 22.415-24.891 6.946-8.669 13.491-17.492 20.003-25.9 6.669-8.613 13.14-16.588 20.036-23.851 4.872-5.13 9.833-9.773 15.041-13.904 2.068-1.641 4.213-3.232 6.443-4.755 18.63-8.103 38.219-14.73 58.351-22.625 19.182-7.522 38.715-16.318 57.966-29.909l-.035.023c8.465-5.953 15.593-13.301 21.875-20.997 6.367-7.801 12.148-16.326 17.487-24.309 5.752-8.599 10.864-16.368 16.49-23.751 5.93-7.784 11.843-14.326 18.311-19.607 7.101-5.795 15.002-10.362 22.087-14.198 9.917-5.368 15.465-7.981 22.911-12.506 1.478-.898 2.861-1.776 4.169-2.646 6.27-4.173 11.07-8.437 14.791-13.109 2.829-3.551 4.84-7.103 6.302-10.542 2.105-4.954 3.008-9.553 3.487-12.842-.832 3.259-2.308 7.601-4.985 12.084-1.847 3.093-4.196 6.144-7.245 9.094-3.997 3.867-8.887 7.276-15.156 10.654-1.312.706-2.702 1.418-4.191 2.145-6.338 3.098-14.371 6.279-23.656 10.344-7.443 3.259-16.377 7.462-24.716 13.252-7.778 5.403-14.825 12.167-21.71 19.997-6.461 7.349-12.381 15.164-18.579 23.261-5.882 7.682-11.775 15.292-18.04 22.086-6.156 6.674-12.527 12.403-19.522 16.755-.002.001-.005.003-.008.005s-.007.004-.01.006c-.006.005-.013.009-.017.012-18.067 11.542-36.368 18.893-55.156 25.547-21.145 7.489-39.567 13.072-60.796 22.271-.575.249-1.139.556-1.685.919-3.056 2.028-5.947 4.151-8.686 6.333-6.188 4.928-11.886 10.385-17.252 16.218-7.552 8.206-14.366 17.066-20.918 26.089-6.44 8.869-12.606 17.861-18.902 26.452-6.311 8.611-12.685 16.729-19.624 24.071-7.423 7.831-17.025 13.968-28.145 18.928-11.424 5.096-24.176 8.827-37.123 11.854-13.384 3.13-27.488 5.611-39.972 7.907-13.923 2.56-26.025 4.922-36.753 7.986-5.157 1.711-10.46 3.853-15.357 6.026-1.869.83-3.691 1.668-5.447 2.501-3.667 1.738-7.267 3.586-10.713 5.484-5.817 3.203-10.929 6.396-15.2283 9.363-6.2891 4.339-10.2215 7.76-12.518 9.866Z"/>
  <path stroke="#2B2B2B" stroke-dasharray="21.19 10.6" stroke-linecap="round" stroke-linejoin="round" stroke-width="2.1194" d="M167.096 470.547c17.483 0 31.657-14.174 31.657-31.658s-14.174-31.657-31.657-31.657c-17.484 0-31.658 14.173-31.658 31.657s14.174 31.658 31.658 31.658Z" opacity=".7"/>
  <path fill="#242424" d="m267.45 113.795-53.983 50.99c6.817 6.937 16.08 10.926 25.804 11.113 9.723.187 19.133-3.444 26.212-10.113 7.062-6.687 11.223-15.875 11.591-25.594.368-9.718-3.087-19.194-9.624-26.396Z"/>
  <path stroke="#242424" stroke-linecap="round" stroke-linejoin="round" stroke-width="3.02169" d="m232.089 102.422-27.712 26.175m38.434-26.938-39.849 37.638m48.103-36.07-46.998 44.389m53.845-41.493-51.372 48.521m57.15-44.615-53.596 50.622m56.889-47.428c3.352 3.55 5.973 7.725 7.712 12.288 1.739 4.562 2.563 9.423 2.423 14.303-.139 4.881-1.238 9.687-3.235 14.143-1.996 4.455-4.851 8.474-8.4 11.827-7.169 6.771-16.734 10.417-26.591 10.136-9.857-.281-19.199-4.467-25.97-11.636-3.353-3.55-5.973-7.725-7.713-12.287-1.739-4.563-2.562-9.423-2.423-14.304.14-4.881 1.239-9.686 3.235-14.142 1.997-4.456 4.851-8.475 8.401-11.828 3.55-3.352 7.725-5.973 12.287-7.712 4.563-1.739 9.423-2.563 14.304-2.423 4.881.139 9.686 1.238 14.142 3.235 4.456 1.996 8.475 4.851 11.828 8.4Z"/>
  <path fill="#242424" d="m145.647 267.666-23.379-25.919c-3.333 3.129-5.308 7.439-5.501 12.006-.192 4.568 1.412 9.029 4.47 12.427 3.066 3.391 7.338 5.446 11.901 5.724 4.564.278 9.054-1.243 12.509-4.238Z"/>
  <path stroke="#242424" stroke-linecap="round" stroke-linejoin="round" stroke-width="1.42035" d="m151.373 251.172-12.001-13.305m12.244 18.352-17.257-19.133m16.431 22.995-20.352-22.565m18.917 25.751-22.246-24.665m20.348 27.338-23.21-25.733m21.673 27.246c-1.704 1.537-3.694 2.724-5.857 3.491-2.163.768-4.456 1.103-6.748.985s-4.538-.687-6.611-1.673c-2.072-.987-3.93-2.371-5.467-4.076-3.105-3.442-4.715-7.976-4.476-12.605.239-4.629 2.306-8.974 5.748-12.078 1.705-1.537 3.695-2.724 5.858-3.492 2.163-.768 4.456-1.102 6.748-.984 2.292.118 4.538.687 6.611 1.673 2.072.986 3.93 2.371 5.467 4.075 1.537 1.705 2.724 3.695 3.491 5.858.768 2.163 1.103 4.456.985 6.748s-.687 4.538-1.673 6.611c-.987 2.072-2.371 3.93-4.076 5.467Z"/>
  <path stroke="#2E2E2E" stroke-dasharray="27.06 13.53" stroke-linecap="round" stroke-linejoin="round" stroke-width="2.70555" d="M383.74 478.17c22.319 0 40.412-18.093 40.412-40.413 0-22.319-18.093-40.413-40.412-40.413-22.32 0-40.413 18.094-40.413 40.413 0 22.32 18.093 40.413 40.413 40.413Z" opacity=".7"/>
  <path fill="#363636" d="M167.722 684.438c2.397-5.39 8.008-16 17.627-29.488 1.803-2.528 3.863-5.281 6.237-8.263 7.803-9.802 16.585-19.169 29.571-31.987 8.755-8.641 21.375-20.707 31.781-31.942 9.922-10.714 20.288-23.171 29.108-37.784 13.2-20.998 23.403-40.315 33.509-55.697 5.225-7.954 10.304-14.765 15.836-21.048 4.914-5.581 10.107-10.65 15.803-15.478.996-.845 2.026-1.697 3.094-2.556 17.715-12.375 34.712-23.61 50.7-34.632 15.095-10.406 29.656-20.915 42.781-32.413 13.065-11.447 24.762-23.905 35.061-38.826 10.477-15.179 19.025-32.212 26.213-52.148l-.093.226c7.446-19.843 13.188-41.292 18.003-60.983 5.53-22.612 10.202-44.035 14.81-62.659 6.362-25.712 11.719-43.154 17.305-58.112.312-.835.62-1.651.924-2.447 9.667-25.285 17.669-39.8417 23.021-47.1836-6.754 5.2649-21.593 16.4576-35.886 40.9916-.453.779-.912 1.578-1.376 2.398-8.182 14.467-16.287 32.468-25.482 57.797-6.713 18.493-13.463 39.617-20.806 61.21-6.472 19.031-13.509 38.523-21.691 55.91-.013.031-.03.068-.046.106-.016.037-.031.072-.042.099-.011.027-.018.044-.019.047 0 .004.005-.006.015-.027-7.679 17.003-16.094 30.571-25.428 42.013-9.135 11.198-19.305 20.581-30.962 29.608-11.943 9.249-25.413 18.098-40.645 27.942-16.58 10.714-33.437 21.467-52.571 34.888-.401.281-.781.566-1.14.854-1.698 1.361-3.328 2.728-4.896 4.097-7.691 6.72-14.476 14.087-20.506 22.189-6.74 9.057-12.185 18.554-16.999 28.538-9.323 19.335-16.035 39.709-25.214 61.227-5.831 13.234-13.259 25.36-21.117 36.808-8.103 11.805-18.685 25.637-26.09 35.743-10.978 14.985-18.482 26.344-24.733 37.81-1.91 3.504-3.533 6.718-4.926 9.646-7.429 15.626-9.614 27.9-10.731 33.526Z"/>
  <path fill="#1C1C1C" d="M48.6027 417.57c.1367 1.454.8457 2.795 1.9709 3.727 1.1252.932 2.5745 1.378 4.0291 1.241h12.4394c.7879 0 1.5682.156 2.2961.457.728.302 1.3894.744 1.9466 1.301.5571.557.9991 1.218 1.3006 1.946s.4567 1.509.4567 2.296c-.1626 1.429-.8862 2.735-2.0114 3.63s-2.5599 1.307-3.9886 1.144H33.5304c-1.5913 0-3.1174.632-4.2426 1.757-1.1253 1.125-1.7574 2.652-1.7574 4.243.1367 1.454.8457 2.795 1.9709 3.727 1.1252.932 2.5745 1.378 4.0291 1.242h16.957c.788 0 1.5682.155 2.2961.456.728.302 1.3894.744 1.9466 1.301.5571.557.9991 1.219 1.3006 1.946.3015.728.4567 1.509.4567 2.297-.1367 1.454-.8457 2.795-1.9709 3.727-1.1252.931-2.5745 1.378-4.0291 1.241h-6.4785c-.7879 0-1.5681.156-2.2961.457-.728.302-1.3894.744-1.9465 1.301-.5572.557-.9991 1.218-1.3007 1.946-.3015.728-.4567 1.508-.4567 2.296.0676.721.2764 1.421.6145 2.06.3381.64.7989 1.207 1.356 1.668.5572.462 1.1998.809 1.8912 1.022.6914.214 1.418.289 2.1383.221h80.2771c.788 0 1.568-.155 2.296-.457.728-.301 1.39-.743 1.947-1.3.557-.557.999-1.219 1.301-1.947.301-.728.456-1.508.456-2.296-.067-.72-.276-1.42-.614-2.06-.338-.64-.799-1.206-1.356-1.668-.557-.462-1.2-.809-1.891-1.022-.692-.213-1.418-.288-2.139-.221H80.8507c-.7879 0-1.5681-.155-2.2961-.456-.7279-.302-1.3894-.744-1.9465-1.301-.5572-.557-.9991-1.219-1.3007-1.947-.3015-.727-.4567-1.508-.4567-2.296.1368-1.454.8457-2.795 1.9709-3.727 1.1253-.931 2.5746-1.378 4.0291-1.241h24.9573c1.591 0 3.117-.633 4.242-1.758 1.126-1.125 1.758-2.651 1.758-4.242-.137-1.455-.846-2.796-1.971-3.727-1.125-.932-2.575-1.379-4.029-1.242-.781-.007-1.553-.168-2.271-.474-.719-.305-1.37-.749-1.917-1.306-.547-.557-.979-1.217-1.271-1.941-.292-.724-.4391-1.498-.4319-2.279.1629-1.429.8859-2.734 2.0109-3.63 1.126-.895 2.56-1.306 3.989-1.144h12.061c1.591 0 3.117-.632 4.242-1.757 1.126-1.125 1.758-2.651 1.758-4.243-.137-1.454-.846-2.795-1.971-3.727-1.126-.931-2.575-1.378-4.029-1.241H54.6027c-1.5913 0-3.1175.632-4.2427 1.757s-1.7573 2.651-1.7573 4.243Z"/>
  <path fill="#1F1F1F" d="M105.917 422.538c32.013 0 57.964-25.951 57.964-57.963 0-32.013-25.951-57.964-57.964-57.964-32.0123 0-57.9635 25.951-57.9635 57.964 0 32.012 25.9512 57.963 57.9635 57.963Z"/>
  <path fill="#212121" d="M105.917 410.946c25.61 0 46.371-20.761 46.371-46.371 0-25.61-20.761-46.371-46.371-46.371-25.6098 0-46.3707 20.761-46.3707 46.371 0 25.61 20.7609 46.371 46.3707 46.371Z"/>
  <path fill="#242424" d="M105.917 400.296c-19.2073 0-34.778-15.571-34.778-34.778 0-19.208 15.5707-34.779 34.778-34.779 19.208 0 34.778 15.571 34.778 34.779 0 19.207-15.57 34.778-34.778 34.778Z"/>
  <path fill="#1F1F1F" d="M198.93 198.879s-39.92-17.408-61.155-17.899c-22.234-.515-46.7318 2.836-64.8306 15.76-14.4931 10.349-20.3026 39.552-20.3026 39.552s24.6118-10.952 40.8749-14.709c22.8003-5.267 45.3333 1.598 67.7693-5.052 13.288-3.939 37.644-17.652 37.644-17.652Z"/>
  <path fill="#212121" d="M213.467 214.056s-24.022-16.863-35.917-25.456c-14.541-10.505-27.628-23.243-43.335-31.908-14.345-7.914-45.7606-17.938-45.7606-17.938s-5.2463 23.941-2.2087 35.35c3.3949 12.752 11.3457 24.984 21.7873 33.052 15.138 11.697 35.233 17.471 54.337 18.475 17.44.916 51.097-11.575 51.097-11.575Z"/>
  <path fill="#2A2A2A" d="M228.472 204.778s-31.822-20.268-38.365-36.715c-11.292-28.386 5.303-85.8754 5.303-85.8754s-29.299 15.6349-38.537 30.4054c-10.29 16.453-19.761 36.176-17.678 55.47 1.594 14.762 9.313 31.331 22.274 38.575 19.503 10.902 67.003-1.86 67.003-1.86Z"/>
  <path fill="#242424" d="M214.979 201.989s-25.711.611-36.6 6.527c-11.14 6.052-25.981 27.776-25.981 27.776s28.488 1.142 40.208-5.625c10.5-6.062 22.373-28.678 22.373-28.678Z"/>
  <path fill="#262626" d="M215.915 198.407s-29.801 21.907-37.658 37.885c-7.446 15.14-6.647 50.177-6.647 50.177s29.979-19.11 37.791-34.197c8.317-16.06 6.514-53.865 6.514-53.865Z"/>
  <path fill="#272727" d="M170.406 303.93c.137 1.454.845 2.795 1.971 3.727 1.125.932 2.574 1.378 4.029 1.242h9.521c.788 0 1.568.155 2.296.456.728.302 1.39.744 1.947 1.301.557.557.999 1.219 1.301 1.946.301.728.456 1.509.456 2.297-.08.707-.299 1.392-.644 2.015-.345.623-.81 1.171-1.367 1.615-.557.443-1.196.773-1.88.969-.685.197-1.401.256-2.109.176h-46.955c-1.591 0-3.117.632-4.242 1.757-1.126 1.126-1.758 2.652-1.758 4.243.137 1.455.846 2.795 1.971 3.727 1.125.932 2.575 1.378 4.029 1.242h10.815c.788 0 1.568.155 2.296.456.728.302 1.389.744 1.946 1.301.557.557.999 1.219 1.301 1.947.301.728.457 1.508.457 2.296-.137 1.454-.846 2.795-1.971 3.727-1.126.932-2.575 1.378-4.029 1.241-.708.081-1.393.3-2.016.645-.622.345-1.171.809-1.615 1.366-.443.558-.773 1.197-.969 1.881-.196.685-.256 1.401-.176 2.108.137 1.455.846 2.796 1.971 3.728 1.125.931 2.575 1.378 4.029 1.241h27.582c.788 0 1.568.155 2.296.457.728.301 1.39.743 1.947 1.301.557.557.999 1.218 1.301 1.946.301.728.456 1.508.456 2.296.137 1.455.846 2.795 1.971 3.727 1.125.932 2.575 1.379 4.029 1.242h35c1.592 0 3.118-.632 4.243-1.757 1.125-1.126 1.757-2.652 1.757-4.243.137-1.455.846-2.795 1.971-3.727 1.125-.932 2.575-1.379 4.029-1.242h11.25c.788 0 1.568-.155 2.296-.456.728-.302 1.39-.744 1.947-1.301.557-.557.999-1.219 1.301-1.947.301-.728.456-1.508.456-2.296-.136-1.454-.845-2.795-1.971-3.727-1.125-.932-2.574-1.378-4.029-1.242h-33.488c-1.591 0-3.117-.632-4.243-1.757-1.125-1.125-1.757-2.651-1.757-4.243.137-1.454.846-2.795 1.971-3.727 1.125-.931 2.574-1.378 4.029-1.241h14.861c1.592 0 3.118-.632 4.243-1.758 1.125-1.125 1.757-2.651 1.757-4.242-.136-1.455-.845-2.795-1.971-3.727-1.125-.932-2.574-1.379-4.029-1.242h-2.752c-.788 0-1.568-.155-2.296-.457-.728-.301-1.389-.743-1.946-1.3-.557-.558-.999-1.219-1.301-1.947-.301-.728-.457-1.508-.457-2.296.081-.708.3-1.392.645-2.015.345-.623.809-1.172 1.366-1.615.557-.444 1.197-.773 1.881-.97.684-.196 1.401-.256 2.108-.175h17.539c1.592 0 3.118-.633 4.243-1.758 1.125-1.125 1.757-2.651 1.757-4.242-.136-1.455-.845-2.796-1.971-3.727-1.125-.932-2.574-1.379-4.029-1.242h-68.597c-1.592 0-3.118.632-4.243 1.757-1.125 1.125-1.757 2.652-1.757 4.243Zm-67.891 10.773c.068.721.277 1.421.615 2.06.338.64.799 1.207 1.356 1.668.557.462 1.199.809 1.891 1.022.691.214 1.418.289 2.138.221h5.414c1.591 0 3.118-.632 4.243-1.757 1.125-1.126 1.757-2.652 1.757-4.243-.067-.72-.276-1.42-.614-2.06-.338-.64-.799-1.206-1.356-1.668-.557-.462-1.2-.809-1.891-1.022-.692-.213-1.418-.288-2.139-.221h-5.414c-.788 0-1.568.155-2.296.457-.728.302-1.389.743-1.946 1.301-.558.557-1 1.218-1.301 1.946-.302.728-.457 1.508-.457 2.296Zm155.473 10.971c.137 1.455.846 2.795 1.971 3.727 1.125.932 2.574 1.378 4.029 1.242h1.678c1.591 0 3.117-.632 4.242-1.758 1.125-1.125 1.758-2.651 1.758-4.242-.137-1.455-.846-2.795-1.971-3.727-1.126-.932-2.575-1.379-4.029-1.242h-1.678c-1.592 0-3.118.632-4.243 1.757-1.125 1.126-1.757 2.652-1.757 4.243Z"/>
  <path fill="#1F1F1F" d="M349.848 293.409c-6.112-7.426-14.095-19.609-13.827-32.341.116-5.492 3.591-14.069 7.195-18.221 7.335-8.452 18.63-12.801 26.716-14.953 5.332-1.419 6.105-4.47 1.418-7.392-14.714-9.173-45.492-26.555-65.184-24.986-5.451.434-13.307 5.255-17.458 8.889-13.409 11.741-23.598 29.674-24.854 47.048-.397 5.498 1.027 14.695 4.436 18.956 13.963 17.448 58.445 25.966 78.447 28.992 5.46.826 6.618-1.73 3.111-5.992Z"/>
  <path fill="#242424" d="M314.375 171.808c-16.397 3.275-34.631 7.306-46.316 19.267-14.315 14.653-24.209 36.882-22.273 57.276 1.947 20.518 32.849 52.383 32.849 52.383s8.472-46.147 17.921-67.381c9.954-22.369 40.093-61.545 40.093-61.545s-14.993-1.454-22.274 0Z"/>
  <path fill="#292929" d="M264.877 180.93c-13.52 5.259-28.104 11.951-36.405 23.848-6.129 8.785-9.288 20.792-7.247 31.307 3.094 15.945 27.948 39.916 27.948 39.916s8.776-36.699 16.687-53.688c7.76-16.66 29.769-46.408 29.769-46.408s-21.071 1.26-30.752 5.025Z"/>
  <path fill="#2B2B2B" stroke="#2B2B2B" d="m355.49 703.404 1.474 3.725c.203.513.143 1.317-.12 1.802-.711 1.312-2.004 3.85-2.509 5.836-.136.535-.231 1.427-.247 1.979-.065 2.333.252 6.204.935 8.404.164.527.568 1.329.855 1.801 2.202 3.615 7.415 9.33 9.287 11.341.376.404.897.335 1.139-.161.985-2.016 3.306-7.138 4.279-12.047.107-.542.25-1.426.312-1.975.44-3.9-.262-7.368-1.585-9.963-.251-.492-.722-1.26-1.101-1.661-2.19-2.316-7.149-3.894-9.248-4.481-.531-.149-1.18-.648-1.445-1.133l-1.915-3.518c-.008-.014-.02-.024-.035-.029-.015-.005-.031-.004-.045.003-.014.006-.025.018-.031.032-.005.015-.005.031 0 .045Z"/>
  <path fill="#2B2B2B" stroke="#2B2B2B" stroke-width="1.1136" d="m349.428 684.542 4.225 1.241c.53.155 1.085.711 1.254 1.237.49 1.523 1.542 4.516 2.766 6.348.306.458.914 1.119 1.321 1.492 1.815 1.66 5.212 4.058 7.504 4.924.516.195 1.399.362 1.948.421 4.608.498 13.413-.35 16.366-.664.549-.058.855-.535.663-1.052-.826-2.216-3.144-7.893-6.351-12.156-.332-.441-.898-1.136-1.268-1.546-2.795-3.096-6.142-4.835-9.261-5.394-.543-.097-1.439-.186-1.988-.132-3.616.353-8.925 3.956-10.927 5.401-.448.323-1.246.526-1.792.441l-4.431-.689c-.017-.003-.034.001-.048.011-.013.009-.023.023-.027.04-.003.016-.001.033.008.047.008.015.022.025.038.03Z"/>
  <path fill="#2B2B2B" stroke="#2B2B2B" d="m268.104 620.181-3.86-.36c-.55-.051-1.29-.43-1.668-.833-1.035-1.105-3.085-3.162-4.879-4.151-.483-.266-1.337-.547-1.874-.675-2.53-.605-7.459-1.268-10.021-1.087-.55.039-1.422.259-1.939.453-3.864 1.45-9.763 5.746-11.885 7.341-.441.332-.429.864.032 1.167 1.808 1.192 6.316 4.021 10.871 5.936.509.214 1.343.544 1.871.705 3.704 1.129 7.151.346 9.949-.568.525-.172 1.373-.466 1.862-.723 2.639-1.391 5.176-4.61 6.276-6.126.323-.446 1.019-.832 1.571-.848l3.691-.108c.015-.001.03-.007.041-.018.011-.011.018-.026.018-.042.001-.015-.005-.03-.015-.042-.01-.012-.025-.019-.041-.021Z"/>
  <path fill="#2B2B2B" stroke="#2B2B2B" stroke-width="1.06589" d="m335.474 631.111-3.055-2.537c-.425-.353-.916-1.062-1.11-1.579-.559-1.492-1.734-4.411-2.974-6.166-.318-.45-.943-1.096-1.361-1.456-1.749-1.509-4.906-3.596-7.024-4.309-.522-.176-1.416-.285-1.968-.289-4.23-.027-12.214 1.996-14.969 2.731-.534.142-.741.649-.453 1.12 1.139 1.863 4.037 6.423 7.241 10.292.36.435.956 1.132 1.354 1.533 2.715 2.74 5.824 3.637 8.634 3.85.564.043 1.484.062 2.04-.036 3.1-.548 7.186-3.543 8.87-4.865.434-.34 1.156-.39 1.625-.098l3.071 1.918c.015.009.032.012.049.009.017-.003.032-.013.042-.027.01-.013.014-.031.012-.048s-.011-.032-.024-.043Z"/>
  <path fill="#2B2B2B" stroke="#2B2B2B" stroke-width=".825877" d="m327.517 636.461-.055 1.475c-.02.552-.34 1.329-.701 1.747-.8.927-2.13 2.558-2.878 3.966-.259.487-.547 1.338-.677 1.874-.442 1.829-.841 4.747-.729 6.6.034.55.251 1.422.413 1.95.986 3.224 3.132 8.406 4.015 10.498.215.509.728.624 1.123.239 1.51-1.47 4.978-5.106 6.753-8.808.238-.498.57-1.33.745-1.854.978-2.931 1.045-5.723.501-7.982-.129-.537-.424-1.39-.722-1.853-1.374-2.139-4.783-4.165-6.405-5.047-.484-.263-.946-.904-1.022-1.451l-.188-1.363c-.003-.022-.014-.041-.031-.055-.016-.014-.038-.021-.06-.02-.022.001-.042.01-.058.026-.015.015-.024.036-.024.058Z"/>
  <path fill="#2B2B2B" stroke="#2B2B2B" stroke-width="1.01524" d="m471.118 558.936 2.731-1.484c.485-.264 1.309-.354 1.844-.216 1.45.373 4.235 1.014 6.242 1.006.551-.002 1.438-.147 1.972-.285 2.149-.557 5.519-1.886 7.29-3.152.448-.321 1.065-.975 1.423-1.395 2.583-3.037 6.462-8.799 7.887-10.947.305-.46.136-1.003-.385-1.187-2.335-.824-8.595-2.797-13.628-2.593-.552.023-1.443.116-1.988.203-3.702.591-6.606 2.213-8.502 4.233-.378.402-.931 1.115-1.162 1.616-1.331 2.88-.967 8.4-.748 10.653.054.549-.245 1.265-.684 1.601l-2.376 1.817c-.015.012-.026.029-.029.049-.004.019.001.039.011.055.011.016.027.028.046.033.019.005.039.002.056-.007Z"/>
  <path fill="#2B2B2B" stroke="#2B2B2B" stroke-width=".850764" d="m418.977 630.029 1.377.814c.476.281 1.005.933 1.199 1.45.441 1.175 1.266 3.198 2.182 4.568.306.458.918 1.116 1.327 1.486 1.449 1.308 3.944 3.136 5.7 3.947.501.232 1.37.459 1.91.572 3.448.721 9.335 1.376 11.668 1.62.549.058.896-.335.749-.867-.574-2.065-2.141-6.99-4.634-10.413-.325-.446-.899-1.134-1.277-1.537-2.191-2.345-4.724-3.794-7.074-4.422-.533-.143-1.423-.295-1.973-.264-2.661.15-6.283 2.227-7.899 3.236-.467.292-1.256.384-1.773.189l-1.407-.533c-.021-.008-.043-.008-.063 0-.02.008-.036.024-.045.043-.01.019-.011.042-.005.062.006.021.02.038.038.049Z"/>
  <path fill="#2B2B2B" stroke="#2B2B2B" stroke-width=".81832" d="m516.559 583.582-.041 1.572c-.015.552-.317 1.34-.661 1.772-.759.95-2.012 2.613-2.711 4.051-.241.496-.504 1.355-.622 1.894-.409 1.885-.77 4.916-.641 6.828.037.55.247 1.424.401 1.954.969 3.334 3.083 8.733 3.941 10.884.204.513.697.619 1.078.22 1.436-1.508 4.706-5.209 6.362-8.99.221-.506.527-1.349.687-1.877.916-3.021.954-5.908.408-8.245-.126-.538-.406-1.395-.689-1.868-1.318-2.21-4.583-4.328-6.15-5.258-.474-.281-.927-.937-1.002-1.484l-.199-1.462c-.003-.02-.013-.039-.029-.052-.016-.013-.036-.019-.056-.018-.02.001-.039.01-.053.024-.015.015-.023.034-.023.055Z"/>
  <path fill="#2B2B2B" stroke="#2B2B2B" stroke-width=".825877" d="m257.403 633.037-.465 1.401c-.174.524-.698 1.181-1.161 1.481-1.028.667-2.76 1.862-3.872 3.004-.384.395-.899 1.132-1.173 1.611-.936 1.632-2.134 4.322-2.544 6.133-.122.538-.156 1.437-.102 1.986.342 3.498 2.585 9.592 3.476 11.909.198.515.688.622 1.079.232 1.245-1.242 3.907-3.985 6.297-6.948.346-.429.899-1.135 1.213-1.589 1.758-2.54 2.602-5.202 2.711-7.524.026-.551-.019-1.453-.175-1.981-.722-2.437-3.429-5.335-4.74-6.635-.391-.388-.655-1.133-.575-1.679l.2-1.361c.003-.022-.002-.044-.014-.062-.012-.018-.031-.031-.052-.036-.021-.005-.044-.002-.063.009-.019.01-.033.028-.04.049Z"/>
  <path fill="#2B2B2B" stroke="#2B2B2B" stroke-width=".949821" d="m463.992 638.471 1.691.621c.518.19 1.149.74 1.422 1.22.712 1.253 2.099 3.56 3.41 4.957.377.403 1.084.957 1.547 1.257 1.775 1.154 4.813 2.668 6.809 3.142.537.127 1.437.158 1.986.098 3.828-.419 10.652-3.306 13.107-4.389.505-.222.623-.75.258-1.164-1.3-1.472-4.37-4.843-7.683-7.833-.41-.37-1.083-.961-1.517-1.303-2.801-2.203-5.753-3.235-8.318-3.333-.551-.021-1.453.036-1.978.205-2.73.878-6.038 4.413-7.412 5.988-.363.416-1.088.693-1.633.607l-1.64-.261c-.024-.003-.048.002-.069.015-.02.013-.035.034-.041.057-.006.024-.003.049.008.07.012.022.03.038.053.046Z"/>
  <path fill="#2B2B2B" stroke="#2B2B2B" stroke-width=".698335" d="m419.395 658.101.047 1.038c.025.552-.226 1.356-.542 1.809-.571.817-1.424 2.12-1.92 3.273-.218.506-.423 1.381-.498 1.928-.215 1.574-.325 3.953-.131 5.526.068.547.34 1.406.592 1.896 1.448 2.816 5.478 7.239 7.1 8.965.378.402.774.285.887-.256.304-1.461.938-4.358 1.75-7.307.146-.533.398-1.392.517-1.932.546-2.485.417-4.828-.145-6.729-.157-.529-.5-1.365-.825-1.809-1.263-1.73-3.969-3.305-5.376-4.047-.487-.258-.983-.887-1.097-1.427l-.199-.949c-.004-.02-.016-.037-.032-.049-.017-.012-.037-.017-.057-.014-.021.002-.039.012-.052.028-.013.015-.02.035-.019.056Z"/>
  <path fill="#2B2B2B" stroke="#2B2B2B" d="m344.725 675.913-4.308 3.656c-.422.357-1.2.548-1.741.438-1.916-.391-6.231-1.173-9.167-.97-.551.038-1.433.196-1.973.312-3.744.805-7.53 2.374-10.326 4.94-.407.373-1.025 1.024-1.363 1.46-2.921 3.771-5.109 11.33-5.82 14.006-.142.533.194 1.036.742 1.11 3.396.456 14.677 1.683 20.249-1.222.489-.255 1.231-.763 1.641-1.133 4.151-3.746 6.734-13.346 7.478-16.436.13-.537.52-1.31.884-1.725l3.807-4.331c.012-.014.018-.032.018-.051-.001-.018-.008-.036-.021-.049-.013-.013-.031-.021-.049-.022-.019-.001-.037.005-.051.017Z"/>
  <path fill="#2B2B2B" stroke="#2B2B2B" stroke-width=".940579" d="m417.237 640.379-3.952 3.369c-.42.359-1.198.55-1.739.44-1.812-.37-5.757-1.081-8.48-.907-.55.036-1.433.194-1.972.312-3.474.758-6.981 2.222-9.585 4.604-.407.373-1.024 1.025-1.359 1.464-2.703 3.545-4.731 10.544-5.41 13.104-.142.533.164 1.145.683 1.332 2.792 1.004 11.372 3.43 18.97-1.313.468-.292 1.203-.808 1.607-1.184 3.825-3.565 6.242-12.441 6.961-15.396.131-.536.521-1.31.885-1.726l3.493-3.995c.012-.014.019-.032.018-.051 0-.018-.008-.036-.021-.049-.013-.013-.03-.021-.049-.022-.018 0-.036.006-.05.018Z"/>
  <path fill="#2B2B2B" stroke="#2B2B2B" stroke-width=".917299" d="m283.098 604.3.651 5.145c.07.548-.185 1.314-.56 1.719-1.235 1.335-3.819 4.258-5.08 6.636-.259.487-.589 1.321-.774 1.841-1.186 3.335-1.825 7.077-1.267 10.554.087.545.29 1.419.47 1.941 1.433 4.176 5.949 9.634 7.654 11.603.361.416.948.405 1.293-.027 2.017-2.524 8.202-10.68 8.817-16.51.058-.548.045-1.445.02-1.997-.471-10.514-6.18-13.718-8.484-14.586-.516-.195-1.073-.723-1.218-1.256l-1.385-5.09c-.005-.017-.016-.032-.031-.041-.015-.01-.033-.013-.05-.009-.018.003-.033.013-.044.027-.01.015-.014.032-.012.05Z"/>
  <path fill="#2B2B2B" stroke="#2B2B2B" stroke-width=".743502" d="m478.002 667.139 1.174 3.771c.164.527.057 1.333-.226 1.806-.772 1.289-2.19 3.797-2.822 5.803-.166.526-.329 1.408-.406 1.955-.391 2.782-.325 5.785.558 8.444.174.524.525 1.35.797 1.831 1.742 3.075 5.781 6.658 7.476 8.087.421.356.982.241 1.231-.251 1.256-2.486 4.627-9.645 4.339-14.378-.034-.551-.207-1.432-.333-1.969-1.9-8.081-6.524-10.006-8.559-10.464-.538-.121-1.177-.549-1.41-1.049l-1.694-3.635c-.007-.015-.02-.027-.036-.034-.016-.006-.034-.006-.049 0-.016.006-.029.018-.037.033-.007.016-.008.033-.003.05Z"/>
  <path fill="#2B2B2B" stroke="#2B2B2B" stroke-width=".886404" d="m306.319 662.046-5.063.43c-.551.046-1.39-.13-1.881-.382-1.564-.803-4.886-2.415-7.374-2.963-.538-.119-1.431-.208-1.982-.241-3.316-.198-6.834.222-9.784 1.678-.495.245-1.266.704-1.707 1.036-3.548 2.674-8.223 9.382-9.808 11.736-.308.458-.125.967.41 1.106 2.546.665 9.708 2.138 16.124-.246.517-.193 1.337-.553 1.835-.792 5.69-2.73 10.972-7.46 12.843-9.229.4-.379 1.154-.794 1.692-.917l4.717-1.077c.017-.004.032-.015.042-.029.01-.015.014-.033.011-.051-.002-.017-.012-.033-.026-.044-.014-.011-.031-.016-.049-.015Z"/>
  <path fill="#2B2B2B" stroke="#2B2B2B" stroke-width=".871007" d="m431.048 567.288 2.127 4.292c.246.495.371 1.338.295 1.885-.23 1.656-.614 5.042-.297 7.403.074.546.309 1.412.477 1.938.957 2.994 2.571 5.965 4.974 8.111.412.367 1.126.911 1.594 1.203 3.612 2.257 10.555 4.187 13.104 4.849.534.139 1.055-.195 1.132-.742.382-2.733.999-10.535-3.392-15.61-.361-.417-1.004-1.043-1.418-1.407-4.687-4.116-11.75-6.391-14.305-7.117-.531-.151-1.221-.627-1.535-1.081l-2.631-3.798c-.011-.015-.026-.026-.044-.03s-.037-.001-.053.009c-.016.009-.028.024-.033.042-.005.017-.004.036.005.053Z"/>
  <path fill="#2B2B2B" stroke="#2B2B2B" stroke-width=".886404" d="m354.083 598.634 4.002 4.011c.39.391.668 1.154.635 1.705-.108 1.755-.25 5.444.247 7.942.108.541.384 1.395.595 1.905 1.288 3.113 3.839 6.11 6.5 8.217.433.343 1.161.864 1.625 1.163 3.647 2.347 10.304 5.277 12.736 6.32.507.217.873-.055.801-.603-.461-3.553-2.368-15.717-7.437-21.283-.372-.408-1.031-1.016-1.458-1.366-4.508-3.693-9.709-4.081-11.85-4.065-.551.004-1.352-.229-1.79-.566l-4.52-3.478c-.013-.01-.03-.015-.046-.013-.017.001-.032.009-.043.022-.011.012-.017.028-.016.045 0 .016.007.032.019.044Z"/>
  <path fill="#2B2B2B" stroke="#2B2B2B" stroke-width=".763464" d="m530.99 594.798 3.181 3.332c.381.399.654 1.169.623 1.721-.088 1.559-.189 4.614.193 6.755.097.543.362 1.401.57 1.912 1.08 2.655 3.148 5.205 5.319 7.029.422.355 1.14.892 1.6 1.197 3.028 2.008 8.346 4.468 10.469 5.422.504.227.868-.039.799-.587-.41-3.249-2.01-13.632-6.161-18.519-.357-.42-1.002-1.043-1.425-1.398-3.666-3.079-7.845-3.482-9.717-3.49-.552-.002-1.347-.241-1.778-.587l-3.584-2.884c-.013-.01-.03-.015-.046-.014-.017.001-.033.009-.044.021-.011.012-.017.028-.017.045 0 .017.006.033.018.045Z"/>
  <path fill="#2B2B2B" stroke="#2B2B2B" stroke-width=".886404" d="m467.882 647.288-2.708 5.039c-.261.486-.876 1.076-1.368 1.328-1.564.802-4.809 2.563-6.704 4.265-.411.368-1.004 1.041-1.335 1.483-2.02 2.695-3.297 6.419-3.751 9.782-.074.547-.151 1.44-.172 1.992-.158 4.333.719 11.554 1.062 14.177.072.547.493.723.928.382 2.82-2.209 12.309-10.055 14.51-17.255.161-.527.348-1.404.431-1.95.877-5.761-1.443-10.433-2.548-12.266-.285-.472-.388-1.254-.191-1.77l1.963-5.154c.006-.015.006-.032 0-.047s-.018-.028-.033-.035c-.015-.006-.032-.007-.048-.002-.015.005-.028.016-.036.031Zm31.506-75.344 5.859-.776c.548-.072 1.347.142 1.793.467 1.419 1.038 4.45 3.147 6.821 4.076.514.201 1.382.429 1.925.527 3.315.594 7.216.063 10.425-1.041.522-.18 1.354-.511 1.856-.741 3.944-1.805 10.002-5.83 12.191-7.315.457-.31.425-.765-.075-1-3.24-1.528-14.511-6.484-21.933-5.218-.544.093-1.411.32-1.936.491-5.542 1.803-8.674 5.974-9.815 7.785-.295.466-.934.979-1.468 1.12l-5.668 1.5c-.016.004-.029.014-.038.028-.008.014-.011.03-.008.046.003.016.012.03.025.04.013.009.03.013.046.011Zm-260.992 71.855-4.701 2.114c-.504.227-1.348.308-1.888.193-1.72-.363-5.349-1.044-7.893-.918-.551.027-1.435.176-1.976.289-3.252.682-6.535 2.013-8.997 4.194-.414.366-1.037 1.012-1.381 1.444-2.652 3.333-5.194 9.959-6.083 12.412-.188.519.115.934.667.912 3.485-.139 15.225-.918 21.406-5.156.455-.313 1.154-.875 1.561-1.247 4.105-3.746 4.464-8.032 4.389-9.93-.022-.551.281-1.232.748-1.527l4.214-2.656c.015-.01.026-.025.031-.042.004-.017.002-.035-.006-.051-.009-.015-.023-.027-.039-.033-.017-.006-.036-.005-.052.002Z"/>
  <path fill="#2B2B2B" stroke="#2B2B2B" stroke-width=".704845" d="m525.811 590.057 3.547-.949c.534-.142 1.348-.024 1.828.25 1.198.685 3.421 1.877 5.189 2.383.53.151 1.421.267 1.972.306 2.394.17 4.916-.119 7.08-1.164.498-.239 1.261-.712 1.693-1.056 2.553-2.03 5.617-6.331 6.852-8.14.311-.456.127-.957-.408-1.097-2.802-.737-11.085-2.631-16.401-.877-.524.173-1.343.539-1.826.807-3.53 1.954-4.724 5.02-5.116 6.58-.134.534-.594 1.158-1.102 1.376l-3.356 1.444c-.016.007-.03.02-.037.037-.008.017-.009.036-.003.053.006.018.019.032.035.041.016.008.035.01.053.006Z"/>
  <path fill="#2B2B2B" stroke="#2B2B2B" stroke-width=".886404" d="m443.066 612.618 5.144.33c.551.035 1.335.359 1.759.712 1.35 1.126 4.24 3.424 6.548 4.503.499.233 1.351.515 1.881.668 3.193.918 6.718 1.276 9.915.5.536-.131 1.389-.41 1.895-.631 3.902-1.706 9.248-6.375 11.181-8.127.408-.371.335-.88-.163-1.118-3.146-1.507-13.888-6.308-21.333-5.451-.549.063-1.429.233-1.963.372-5.38 1.391-7.701 5.012-8.522 6.725-.238.497-.825.958-1.376.999l-4.967.379c-.018.001-.034.009-.047.022-.012.013-.018.03-.018.048 0 .018.007.035.019.048.012.012.029.02.047.021Zm38.12-50.502.552 5.124c.059.55-.126 1.377-.402 1.855-.879 1.523-2.651 4.762-3.32 7.22-.145.532-.278 1.419-.338 1.968-.36 3.303-.113 6.837 1.197 9.854.22.507.641 1.302.977 1.739 2.677 3.483 10.31 7.101 12.953 8.283.503.225.947-.048.977-.599.172-3.159.53-13.152-1.293-20.317-.136-.534-.386-1.394-.579-1.911-1.954-5.244-6.211-6.816-8.139-7.268-.537-.126-1.093-.607-1.228-1.143l-1.219-4.83c-.005-.017-.015-.032-.03-.042-.015-.009-.033-.013-.051-.01-.017.003-.033.013-.043.027-.011.014-.016.032-.014.05Z"/>
  <path fill="#2B2B2B" stroke="#2B2B2B" stroke-width=".85904" d="m291.988 683.971-3.486 2.958c-.422.358-1.2.548-1.741.44-1.675-.337-5.148-.952-7.597-.814-.55.031-1.433.187-1.972.306-3.125.69-6.272 2.002-8.629 4.119-.411.369-1.028 1.021-1.353 1.467-2.495 3.422-4.501 10.805-5.165 13.454-.134.535.211 1.007.763 1.031 2.711.115 10.357.1 15.572-3.244.465-.298 1.181-.837 1.601-1.196 4.751-4.057 7.268-10.733 8.074-13.201.171-.524.587-1.292.952-1.707l3.083-3.509c.012-.014.019-.032.018-.05 0-.019-.008-.036-.021-.049-.013-.014-.03-.021-.048-.022-.019-.001-.037.005-.051.017Z"/>
  <path fill="#2B2B2B" stroke="#2B2B2B" stroke-width=".93159" d="m340.648 643.014 4.357 2.256c.49.254.972.9 1.086 1.44.394 1.869 1.346 5.98 2.579 8.507.241.496.717 1.256 1.027 1.714 2.004 2.962 4.62 5.652 7.661 7.099.498.237 1.339.555 1.877.678 4.284.98 12.139-.479 14.881-1.048.54-.112.837-.637.647-1.156-1.01-2.769-4.342-10.911-9.819-14.771-.451-.318-1.22-.779-1.71-1.033-5.869-3.038-13.267-2.451-15.903-2.111-.547.071-1.413.007-1.937-.166l-4.684-1.554c-.019-.006-.04-.005-.058.003-.018.008-.032.023-.04.041-.008.019-.008.039-.001.058.006.018.02.034.037.043Z"/>
  <path fill="#262626" d="M341.422 631.602c-.027-.137-.113-.586-.161-.826-.06-.305-.09-.506-.772-.471-.648.033-2.167.318-4.427.935-1.283.35-2.831.819-4.321 1.367-.7.258-1.397.537-2.053.833-.638.288-1.246.596-1.786.924-7.453 4.368-12.817 9.643-16.553 14.872-.026.035-.051.07-.075.105-1.199 1.697-2.112 3.557-2.877 5.539-.76 1.97-1.359 4.019-1.946 6.066-.595 2.077-1.156 4.071-1.856 6.006-.724 2.001-1.556 3.823-2.629 5.471-.446.687-.995 1.419-1.598 2.165-.635.784-1.331 1.581-2.036 2.354-1.566 1.72-3.259 3.414-4.548 4.684-.505.499-1.003.986-1.418 1.393-3.349 3.282-3.893 3.983-3.8 4.091.038.046.958-.215 4.518-3.314.452-.394.954-.841 1.493-1.334 1.361-1.244 3.082-2.893 4.712-4.637.727-.778 1.449-1.589 2.111-2.394.629-.764 1.212-1.534 1.695-2.271 1.153-1.758 2.028-3.684 2.772-5.749.716-1.988 1.287-4.033 1.874-6.096.584-2.052 1.166-4.047 1.904-5.953.739-1.911 1.61-3.662 2.736-5.233.023-.032.047-.065.071-.097 3.635-4.989 9.351-9.724 16.68-13.412.457-.216.993-.432 1.588-.645.608-.218 1.263-.428 1.935-.628 1.431-.427 2.927-.803 4.18-1.105 2.301-.555 3.568-.823 4.249-1.084.626-.239.559-.42.498-.73-.047-.239-.133-.688-.16-.826Zm18.656-51.235v1.281l-.146-2.553c-.061-.526-.043-.891-2.367-.802-2.199.085-7.57.666-15.583 1.915-4.53.706-9.968 1.644-15.187 2.737-2.449.512-4.871 1.064-7.136 1.646-2.207.566-4.279 1.166-6.089 1.792-4.847 1.737-9.613 3.646-14.181 5.881-5.318 2.602-9.526 5.233-13.153 7.926l-.008.006c-2.587 1.915-4.909 4.148-7.121 6.611-2.143 2.386-4.127 4.926-6.097 7.489-1.988 2.586-3.881 5.088-5.907 7.492-2.089 2.478-4.205 4.71-6.515 6.662-1.051.892-2.271 1.83-3.573 2.775-1.367.992-2.826 1.994-4.282 2.962-3.23 2.145-6.62 4.236-9.193 5.801-1.417.863-2.852 1.727-3.888 2.352-2.773 1.675-4.509 2.762-5.546 3.474-1.001.689-1.133.885-1.106.936.026.049.266.056 1.393-.406 1.103-.452 3.09-1.376 5.905-2.86 1.136-.6 2.492-1.333 4.009-2.178 2.673-1.489 6.084-3.461 9.429-5.568 1.495-.941 3.001-1.924 4.419-2.905 1.348-.933 2.631-1.875 3.756-2.783 2.472-2.002 4.718-4.292 6.901-6.797 2.108-2.419 4.079-4.948 6.085-7.487 2.005-2.537 3.967-4.986 6.068-7.271 2.162-2.353 4.38-4.433 6.807-6.191l.008-.005c3.467-2.505 7.735-4.826 12.987-6.958 4.549-1.847 9.303-3.342 14.163-4.723 1.694-.499 3.668-.991 5.82-1.467 2.205-.488 4.575-.956 6.989-1.399 5.14-.941 10.53-1.773 15.018-2.436 8.403-1.241 12.799-1.795 15.385-2.339 2.299-.484 2.145-.803 2.083-1.337 0-.864-.049-1.716-.146-2.552 0 .377-.001 1.065-.001 1.279Zm67.434 18.001c-.129-.046-.551-.199-.772-.279-.395-.142-.549-.258-1.223 1.601-.676 1.864-1.973 5.988-3.483 11.45-1.05 3.798-2.086 7.859-2.922 11.729-.449 2.076-.815 3.979-1.103 5.714-.337 2.038-.541 3.697-.665 5.082l-.001.011c-.107 1.23-.151 2.594-.151 4.013.001 1.472.05 3.018.131 4.559.172 3.286.49 6.634.818 9.427.201 1.71.412 3.264.614 4.584.327 2.142.672 3.887.922 4.909.253 1.04.37 1.2.41 1.194.044-.007.097-.194.04-1.26-.057-1.042-.213-2.822-.43-4.963-.134-1.329-.297-2.873-.465-4.582-.272-2.777-.571-6.122-.725-9.368-.073-1.527-.114-3.051-.106-4.497.009-1.395.065-2.718.186-3.898l.001-.011c.134-1.329.397-2.959.819-4.935.36-1.687.82-3.55 1.372-5.571 1.031-3.772 2.286-7.739 3.532-11.439 1.794-5.327 3.307-9.34 3.928-11.2.62-1.855.45-1.845.044-1.991-.22-.079-.642-.232-.771-.279Zm-26.517-16.484c.116.211.617 1.107 1.613 1.03.859-.067 2.379-.679 6.067-2.407 3.02-1.415 9.894-4.74 16.88-7.783 6.092-2.654 13.38-5.599 20.531-7.828 3.389-1.056 6.733-1.947 9.896-2.572 3.133-.619 6.04-.967 8.618-.973 3.239-.049 6.41.348 9.486 1.046 3.352.76 6.533 1.865 9.379 3.048.414.172.82.346 1.219.52 5.7 2.493 10.879 5.401 16.901 8.614 1.601.857 3.354 1.906 5.188 3.08 1.871 1.198 3.814 2.518 5.747 3.879 4.133 2.911 8.274 6.049 11.611 8.629 5.366 4.15 8.828 6.947 10.576 8.274 2.332 1.77 2.7 1.765 2.76 1.695.052-.059.027-.452-2.115-2.459-1.605-1.505-4.945-4.462-10.219-8.77-3.29-2.688-7.363-5.911-11.486-8.936-1.923-1.411-3.865-2.785-5.743-4.04-1.84-1.229-3.62-2.344-5.265-3.271-5.875-3.318-11.134-6.409-16.883-9.074-.406-.188-.819-.378-1.24-.567-2.885-1.298-6.154-2.625-9.648-3.638-3.213-.931-6.622-1.6-10.198-1.777-2.898-.108-6.083.169-9.411.718-3.368.556-6.891 1.392-10.417 2.394-7.435 2.114-14.959 4.99-21.171 7.615-7.568 3.199-13.681 6.224-17.072 8.04-3.598 1.927-5.05 2.954-5.563 3.594-.639.797-.155 1.709-.041 1.919Z"/>
  <path fill="#212121" d="M330 513.5c-.416.359-1.075 1.934 2.257 7.215 1.77 2.805 4.995 7.221 9.087 13.316 3.193 4.756 6.95 10.641 9.979 16.571 1.405 2.752 2.648 5.502 3.61 8.149.941 2.591 1.589 5.02 1.876 7.216.373 2.996.404 5.804.169 8.495-.237 2.718-.744 5.321-1.443 7.875-1.456 5.319-3.797 10.56-6.097 15.695-.017.037-.156.348-.172.385-2.212 4.935-4.885 10.933-6.911 17.689-1.999 6.668-3.448 14.28-3.563 23.346-.102 8.517.921 16.909 2.407 24.501 1.613 8.241 3.785 15.61 5.712 21.288 2.587 7.619 4.989 12.969 6.218 15.469 2.289 4.658 3.142 4.848 3.261 4.79.158-.076.304-.891-1.318-5.6-.699-2.031-3.064-8.607-5.131-15.62-1.665-5.653-3.572-12.957-4.936-21.022-1.259-7.448-2.06-15.566-1.797-23.71.272-8.597 1.79-15.75 3.803-21.996 2.051-6.367 4.715-12.042 7.026-16.941.004-.009.175-.371.18-.38 2.345-4.964 5.065-10.545 6.852-16.269.873-2.799 1.564-5.733 1.947-8.859.381-3.101.455-6.355.126-9.823-.258-2.822-.963-5.767-1.941-8.705-1.003-3.014-2.309-6.067-3.764-9.032-3.133-6.388-7.046-12.558-10.427-17.395-4.32-6.18-8.06-10.633-10.321-12.943-4.48-4.577-6.349-3.999-6.689-3.705Z"/>
  <path fill="#212121" d="M357.987 565.781c-.088.31-.374 1.326-.528 1.861-.229.798-.425 1.187 2.216 2.17 2.679.997 8.762 2.742 17.556 5.589 5.297 1.714 11.441 3.801 17.298 6.082 2.815 1.096 5.538 2.227 8.054 3.373 2.518 1.147 4.787 2.29 6.722 3.414 10.672 6.317 19.708 13.527 26.641 20.104 7.993 7.583 15.727 16.222 23.092 25.848 1.086 1.403 2.216 3.048 3.359 4.844 1.168 1.835 2.341 3.814 3.482 5.829 2.444 4.316 4.774 8.856 6.619 12.555 2.979 5.974 4.828 9.933 5.797 11.857 1.299 2.576 1.619 2.729 1.705 2.693.071-.03.224-.383-.788-3.094-.756-2.024-2.4-6.085-5.198-12.182-1.738-3.786-3.949-8.39-6.317-12.829-1.102-2.065-2.244-4.105-3.39-6.011-1.119-1.861-2.245-3.598-3.345-5.106-7.256-9.851-14.953-18.733-22.947-26.552-6.948-6.796-15.625-14.655-26.21-21.88-2.018-1.394-4.358-2.785-6.906-4.153-2.552-1.37-5.305-2.713-8.132-4.002-5.87-2.677-12.061-5.126-17.355-7.083-8.821-3.26-14.957-5.153-17.798-5.801-2.802-.639-2.874-.169-3.098.613-.154.535-.44 1.551-.529 1.861Z"/>
  <path fill="#1F1F1F" d="M611.005 458.093c-12.19 0-23.88 4.917-32.499 13.669-8.62 8.752-13.462 20.622-13.462 32.999.018.301.038.602.062.902-4.941-3.786-11.07-5.848-17.387-5.851-3.668-.001-7.3.694-10.689 2.045-3.389 1.35-6.468 3.329-9.061 5.825-2.594 2.495-4.652 5.457-6.055 8.717-1.404 3.261-2.126 6.755-2.126 10.284 0 7.126 2.943 13.96 8.181 18.999 5.238 5.039 12.343 7.87 19.75 7.87 6.035-.025 11.9-1.929 16.715-5.428.383 4.514 3.518 8.764 8.76 11.878 5.242 3.114 12.194 4.855 19.426 4.864 7.227-.009 14.175-1.747 19.416-4.857 3.017 1.901 7.39 3.482 12.674 4.584 5.284 1.101 11.29 1.684 17.408 1.687 6.61-.004 13.079-.684 18.642-1.959 5.564-1.275 9.99-3.092 12.756-5.236 3.513-1.796 6.476-4.592 8.55-8.071 2.075-3.479 3.178-7.499 3.185-11.605 0-5.813-2.198-11.389-6.11-15.499-3.912-4.111-9.217-6.421-14.75-6.421-3.568.02-7.073 1.001-10.177 2.85 1.784-4.996 2.716-10.264 2.754-15.578-.001-12.378-4.843-24.248-13.463-33-8.62-8.752-20.311-13.668-32.5-13.668Zm-36.26 75.162c.047.064.093.128.14.191-.07.039-.14.077-.21.116.024-.102.047-.205.07-.307Z"/>
  <path fill="#242424" d="M519.93 433.658c-7.769.014-15.313 2.374-21.443 6.708-6.131 4.335-10.499 10.397-12.418 17.233-.06-.001-.121-.002-.181-.003-5.274.009-10.376 1.646-14.415 4.625-4.038 2.978-6.756 7.109-7.678 11.67-3.545-1.527-7.411-2.319-11.325-2.32-7.09 0-13.89 2.592-18.903 7.207-5.014 4.615-7.83 10.874-7.83 17.4 0 6.526 2.816 12.785 7.83 17.4 5.013 4.615 11.813 7.207 18.903 7.207 5.692-.022 11.227-1.715 15.8-4.833 3.461 3.274 8.825 6.034 15.487 7.966 6.662 1.933 14.355 2.962 22.211 2.97 7.566-.005 14.99-.957 21.489-2.755 6.5-1.799 11.836-4.377 15.447-7.464 4.343 3.798 10.017 5.91 15.907 5.922 6.267 0 12.277-2.376 16.709-6.606 4.431-4.23 6.921-9.967 6.921-15.949 0-5.982-2.49-11.719-6.921-15.949-4.432-4.23-10.442-6.606-16.709-6.607-2.363.007-4.711.353-6.967 1.025 2.04-4.103 3.097-8.553 3.101-13.054 0-4.175-.906-8.309-2.665-12.167-1.76-3.857-4.339-7.362-7.59-10.314-3.252-2.952-7.112-5.294-11.36-6.892-4.248-1.597-8.801-2.42-13.4-2.42Zm16.275 59.854c-.024.066-.048.131-.072.196-.054-.026-.108-.053-.162-.079l.234-.117Z"/>
  <path fill="#2B2B2B" d="M603.525 405.59c-9.83.014-19.337 3.494-26.838 9.823-7.501 6.329-12.512 15.099-14.146 24.757-5.173-2.454-10.877-3.733-16.661-3.736-9.887 0-19.37 3.722-26.362 10.349-6.991 6.627-10.919 15.614-10.919 24.986 0 4.64.964 9.235 2.838 13.522 1.873 4.287 4.619 8.182 8.081 11.463 3.462 3.282 7.572 5.884 12.095 7.66 4.523 1.776 9.371 2.69 14.267 2.69 8.516-.024 16.766-2.811 23.379-7.896 2.25 4.45 6.759 8.342 12.87 11.109 6.11 2.767 13.501 4.264 21.096 4.273 6.285-.001 12.457-1.022 17.891-2.959 5.434-1.937 9.936-4.721 13.05-8.07 3.266 1.344 6.804 2.041 10.383 2.046 5.179-.013 10.229-1.475 14.479-4.191 4.249-2.716 7.494-6.556 9.303-11.009 1.909.54 3.882.818 5.864.826 2.91 0 5.791-.581 8.48-1.71 2.688-1.128 5.131-2.783 7.189-4.868 2.058-2.086 3.69-4.561 4.803-7.286 1.114-2.725 1.687-5.645 1.687-8.595 0-2.949-.573-5.87-1.687-8.594-1.113-2.725-2.745-5.201-4.803-7.287-2.058-2.085-4.501-3.739-7.189-4.868-2.689-1.129-5.57-1.71-8.48-1.71-3.859.019-7.646 1.058-10.986 3.016-1.17-4.681-3.558-8.783-6.81-11.7-3.253-2.916-7.198-4.491-11.251-4.491-.786.008-1.571.075-2.35.202-2.854-8.11-8.165-15.137-15.201-20.108-7.035-4.972-15.447-7.643-24.072-7.644Z"/>
  <path fill="#292929" d="M375.292 517.422c11.268 0 20.402-9.547 20.402-21.324 0-11.776-9.134-21.323-20.402-21.323-11.267 0-20.401 9.547-20.401 21.323 0 11.777 9.134 21.324 20.401 21.324Z" opacity=".636771"/>
  <path fill="#242424" d="M371.683 282.487c9.775 0 17.699-8.282 17.699-18.498 0-10.216-7.924-18.498-17.699-18.498-9.775 0-17.699 8.282-17.699 18.498 0 10.216 7.924 18.498 17.699 18.498Z" opacity=".585202"/>
  <path stroke="#292929" stroke-linecap="round" stroke-width="7" d="M517.785 43.1642H359.072"/>
  <path stroke="#292929" stroke-linecap="round" stroke-width="4.40488" d="M101.588 252.272H38.7408"/>
  <path stroke="#242424" stroke-linecap="round" stroke-width="5.15338" d="M468.133 63.5941h-168.6m232.524 19.5065h-168.6"/>
  <path stroke="#212121" stroke-linecap="round" stroke-width="4.35917" d="M456.716 102.607H336.079"/>
  <path stroke="#212121" stroke-linecap="round" stroke-width="3.23076" d="M101.051 288.085H34.7863"/>
  <path stroke="#212121" stroke-linecap="round" stroke-width="3.30696" d="M113.239 277.654H43.8115"/>
  <path stroke="#212121" stroke-linecap="round" stroke-width="2.59392" d="M94.302 267.542H51.5868"/>
  <path fill="#1F1F1F" d="M359.853 118.273h73.904c1.838 0 3.659.363 5.358 1.066 1.698.704 3.241 1.735 4.541 3.035 1.301 1.3 2.332 2.843 3.035 4.542.704 1.698 1.066 3.519 1.066 5.357-.191 3.522-1.774 6.824-4.399 9.178-2.626 2.355-6.079 3.571-9.601 3.379h-73.904c-3.713 0-7.274-1.475-9.899-4.1-2.626-2.626-4.101-6.187-4.101-9.9.192-3.521 1.774-6.823 4.4-9.178 2.625-2.354 6.078-3.57 9.6-3.379Z"/>
  <path stroke="#1C1C1C" stroke-linejoin="round" stroke-width="3.32805" d="M256 89.7903c15.891 0 28.773-12.8821 28.773-28.7729 0-15.8909-12.882-28.773-28.773-28.773s-28.773 12.8821-28.773 28.773c0 15.8908 12.882 28.7729 28.773 28.7729Z"/>
  <path stroke="#262626" stroke-linejoin="round" stroke-width="3" d="M256 86.9542c14.324 0 25.937-11.6123 25.937-25.9368 0-14.3245-11.613-25.9368-25.937-25.9368-14.325 0-25.937 11.6123-25.937 25.9368 0 14.3245 11.612 25.9368 25.937 25.9368Z"/>
  <path stroke="#212121" stroke-linejoin="round" stroke-width="2.672" d="M256 84.1184c12.758 0 23.101-10.3427 23.101-23.101 0-12.7583-10.343-23.101-23.101-23.101s-23.101 10.3427-23.101 23.101c0 12.7583 10.343 23.101 23.101 23.101Z"/>
  <path fill="#212121" stroke="#272727" stroke-width="4.45648" d="M126.233 287.883v.404c0 1.05.207 2.09.609 3.061.402.971.991 1.853 1.734 2.595.743.743 1.625 1.333 2.596 1.735.97.402 2.01.609 3.061.609h11.577c1.05 0 2.091-.207 3.061-.609.971-.402 1.853-.992 2.596-1.735.743-.742 1.332-1.624 1.734-2.595.402-.971.609-2.011.609-3.061v-.404c0-2.122-.843-4.157-2.343-5.657-1.501-1.501-3.535-2.343-5.657-2.343h-11.577c-1.051 0-2.091.206-3.061.609-.971.402-1.853.991-2.596 1.734-.743.743-1.332 1.625-1.734 2.595-.402.971-.609 2.011-.609 3.062Z"/>
  <path fill="#2B2B2B" d="M134.215 294.029c3.283 0 5.944-2.662 5.944-5.944 0-3.283-2.661-5.944-5.944-5.944s-5.944 2.661-5.944 5.944c0 3.282 2.661 5.944 5.944 5.944Z"/>
  <path fill="#262626" stroke="#262626" stroke-linecap="round" stroke-linejoin="round" stroke-width="1.29802" d="M657.801 360.197s10.297-15.998 17.938-20.947c7.674-4.97 26.111-7.545 26.111-7.545s-10.609 12.346-17.218 16.801c-8.138 5.487-26.831 11.691-26.831 11.691Z"/>
  <path fill="#212121" stroke="#212121" stroke-width="1.29802" d="M657.801 360.197s14.446-12.06 22.96-15.43c11.257-4.455 35.663-5.731 35.663-5.731s-16.644 14.646-26.708 18.285c-10.104 3.653-31.915 2.876-31.915 2.876Z"/>
  <path fill="#262626" stroke="#262626" stroke-width="1.29802" d="M658.445 360.507s20.193-8.419 30.841-9.111c10.755-.698 31.874 5.109 31.874 5.109s-18.041 8.169-27.649 9.011c-11.785 1.033-35.066-5.009-35.066-5.009Z"/>
  <path fill="#212121" stroke="#212121" stroke-width="1.29802" d="M657.773 360.429s24.038-.328 35.594 2.486c9.433 2.297 26.789 11.568 26.789 11.568s-23.621 4.317-34.942 1.585c-10.194-2.459-27.441-15.639-27.441-15.639Z"/>
  <path fill="#262626" stroke="#262626" stroke-width="1.29802" d="M657.807 359.327s18.314 6.357 26.697 11.254c11.808 6.898 32.415 25.381 32.415 25.381s-28.396-2.962-39.837-10.733c-8.804-5.979-19.275-25.902-19.275-25.902Z"/>
  <path fill="#212121" stroke="#212121" stroke-width="1.29802" d="M657.569 359.501s14.6 14.128 21.327 21.944c8.431 9.796 23.643 30.826 23.643 30.826s-26.959-9.489-35.443-20.347c-6.913-8.846-9.527-32.423-9.527-32.423Z"/>
  <path fill="#262626" stroke="#262626" stroke-width="1.29802" d="M657.439 359.962s9.183 15.798 11.074 25.262c1.847 9.241.184 28.367.184 28.367s-11.787-14.145-13.815-22.92c-2.405-10.408 2.557-30.709 2.557-30.709Z"/>
  <path fill="#212121" stroke="#212121" stroke-width="1.29802" d="M657.582 359.549s5.646 19.305 1.821 28.881c-2.726 6.824-16.099 14.677-16.099 14.677s-1.296-18 1.449-26.354c2.403-7.31 12.829-17.204 12.829-17.204Z"/>
  <path fill="#262626" stroke="#262626" stroke-width="1.29802" d="M656.45 359.906s-2.127 13.797-6.831 19.285c-4.836 5.642-18.985 11.211-18.985 11.211s4.622-14.66 9.495-20.218c4.656-5.309 16.321-10.278 16.321-10.278Z"/>
</svg>
