<svg xmlns="http://www.w3.org/2000/svg" width="50" height="80" fill="none">
  <path stroke="#696969" stroke-width="3" d="M25 1.66667c-6.6667 0-12.5 5.83333-12.5 12.50003v19.1666c0 6.6667 5.8333 12.5 12.5 12.5S37.5 40 37.5 33.3333V14.1667C37.5 7.5 31.6667 1.66667 25 1.66667Z"/>
  <path stroke="#696969" stroke-linecap="round" stroke-width="4" d="M25 13.3333v5"/>
  <path stroke="#696969" stroke-linecap="round" stroke-width="3" d="m16.6667 56.6667 6.5655 6.5656c.4689.4688 1.1047.7322 1.7678.7322.663 0 1.2989-.2634 1.7678-.7322l6.5655-6.5656M16.6667 65l6.5655 6.5656c.4689.4688 1.1047.7322 1.7678.7322.663 0 1.2989-.2634 1.7678-.7322L33.3333 65"/>
</svg>
