<svg xmlns="http://www.w3.org/2000/svg" width="1683" height="1920"><path d="M1166.23 1909.25c-246.743-9.937-545.178-56.654-795.216-286.453C80.606 1355.894 77.261 904.942 118.92 864.232c71.483-69.853 97.51-95.877 143.492-145.587 0 0 116.262-125.055 102.408-204.347-134.385 197.626-217.983 228.22-330.012 332.59-15.53 14.467-20.998 35.636-25.018 55.757-15.189 76.018-13.502 192.215 8.561 291.867 56.69 256.044 165.154 420.459 336.702 549.986C528.84 1875.713 766.558 1920.835 984.315 1920c65.266-.25 121.21-3.882 181.916-10.75zM1095 1763.356c-155.173-14.052-334.973-124.179-437.688-268.083-37.394-50.883-61.109-106.24-77.297-166.662 22.51 48.075 60.983 110.484 125.449 170.664 187.3 174.849 389.998 174.88 447.917 163.703 103.39-19.952 189.172-120.961 257.493-303.203 38.458-102.582 66.509-217.478 87.842-336.41-1.12 45.606-2.312 91.21-6.76 136.636-19.32 187.744-71.843 357.248-144.24 465.5-34.557 51.672-111.217 150.669-252.716 137.855zm432.818-220.538s5.488-22.997 9.61-41.562c44.38-199.913 67.633-389.566 61.577-502.255-4.39-81.664-19.79-137.536-50.65-183.747-37.525-56.19-96.812-95.913-202.855-135.915-20.702-7.81-73.701-25.571-117.5-39.378-123.41-38.904-203.187-96.96-230.465-167.716-10.274-26.65-10.278-44.813-10.278-44.813S971.083 458.07 966.94 468.5c-7.237 18.22-12.964 37.962-16.098 55.5-1.675 9.373-1.625 41.632.087 55.5 7.403 59.976 27.59 114.346 63.395 170.743 51.514 81.138 143.348 160.8 207.557 160.751 23.353-.018 48.453-8.036 71.007-22.682 32.115-20.855 61.882-56.896 98.456-102.91-19.118 45.009-45.409 88.466-82.844 120.585-51.275 41.968-100.991 34.105-119.005 29.205-81.855-22.264-157.84-103.268-191.98-148.222-50.04-65.89-78.084-125.395-91.673-205.47-3.967-23.374-3.792-50.638-1.856-77.748-10.972 26.058-23.041 51.633-36.982 76.248-68.29 117.766-158.496 178.56-208.504 195.998-35.183 12.269-112.58 33.927-198.633-103.498-15.082-24.085-30.798-63.815-30.798-63.815S498.954 721.835 580 746.232c75.637 22.77 178.062-78.236 185.5-85.702 56.412-56.627 96.803-125.857 115.537-198.03 8.216-31.65 11.275-55.757 11.294-89 .02-34.057-3.417-59.112-12-87.5C849.354 183.565 765.697 110.12 662 94.322c-65.804-10.025-158.072 11.524-221.194 90.178-48.223 58.101-64.758 111.04-81.748 194 0 0-4.21-113.266 3.967-158.5 9.205-50.921 33.358-126.83 96.755-174.862C514.2 3.906 587.308-9.74 663.5 7.11 732.779 22.434 802.317 64.396 849.743 119.5c48.245 56.055 75.624 119.773 83.36 194 2.43 23.31-2.415 93.087-2.415 93.087 40.987-85.058 92.298-134.88 183.427-163.028 93.965-24.633 194.139 2.07 262.413 69.95 39.2 38.974 65.544 88.846 77.947 147.559 7.408 31.388 7.087 63.712 7.622 95.747-18.468-62.198-41.64-122.93-81.211-174.943-32.46-40.924-77.057-68.603-126.958-78.798-17.21-3.516-68.369-11.86-116.912 1.029-40.004 10.62-79.596 35.41-109.601 68.625l-9.24 10.228c-4.188 33.387 1.78 65.606 22.279 92.697 38.372 47.895 116.472 82.063 302.54 132.36 35.998 9.732 56.261 15.961 77.006 23.674 88.566 32.928 152.235 76.525 195.543 133.899 31.252 41.4 52.16 91.124 61.358 145.914 11.168 66.533 4.37 135.956-.521 170.982-13.341 95.54-47.06 209.723-104.357 353.385-20.492 51.384-44.205 106.95-44.205 106.95zm-566.411-339.861c-48.767-12.477-92.728-9.068-119.907-5.825 12.841-11.085 31.73-21.633 33.08-22.374 39.164-21.494 78.65-26.653 116.245-15.186 23.408 7.14 47.264 22.297 66.21 42.066 34.955 36.475 50.6 80.18 51.597 115.283-37.556-61.3-76.986-93.39-147.225-113.964zm-401.35 1.36c-59.039-19.68-102.591-67.58-115.247-126.751-3.068-14.344-3.079-40.843-.022-54.779 13.834-63.071 64.349-109.516 149.318-137.286 58.545-19.134 201.71-50.06 265.15 77 20.728 41.514 31.342 89.036 28.62 128.138-4.89 53.801-25.844 77.186-73.447 95.28 35.437-33.828 49.751-81.697 17.16-168.275-7.533-20.009-18.114-43.597-22.828-50.892-31.545-48.806-112.962-53.955-161.007-45.45-39.356 6.968-78.384 21.204-103.627 37.8-31.835 20.968-47.603 49.786-56.752 86.399-8.841 38.236 1.043 66.898 14.35 86.733 22.933 34.18 81.121 68.16 103.704 81.296-13.605-1.343-29.769-4.012-45.372-9.213z" style="display:inline;fill:#696969;fill-opacity:1;stroke:none;stroke-width:1;stroke-linecap:round;stroke-linejoin:round;stroke-dasharray:none"/></svg>