<svg xmlns="http://www.w3.org/2000/svg" width="425.197" height="425.197"><g fill="#222221"><path d="M0 0h70.293v-22.37H35.059v-14.184h33.394v-22.303H35.059v-15.889h35.98v-23.062H0Z" style="fill:#696969;fill-opacity:1" transform="matrix(1.36554 0 0 -1.36554 225.864 146.035)"/><path d="M0 0c0 8.37 5.217 15.114 12.843 17.586L2.226-8.731C.819-6.392 0-3.557 0 0m7.451-14.092 13.156 32.683c5.754-.219 10.564-2.069 19.377-7.422v8.307c-7.142 4.15-14.143 6.156-21.276 6.156-14.537 0-26.38-11.456-26.38-25.92 0-7.837 2.593-13.044 6.51-16.841L-17.369-57.3-50.98 25.326h-7.362l39.863-98.665h2.083L4.532-21.347C17.477-28.871 36.078-30 36.078-48.117c0-11.027-8.488-19.474-19.39-19.474-7.133 0-12.92 2.577-23.151 10.453v-8.881c8.076-5.725 16.018-8.59 23.555-8.59 14.941 0 26.66 11.742 26.66 26.777 0 25.252-23.812 25.095-36.301 33.74" style="fill:#696969;fill-opacity:1" transform="matrix(1.36554 0 0 -1.36554 160.753 180.567)"/><path d="M210.486 266.851H176.55v6.914h33.936Z" style="fill:#696969;fill-opacity:1" transform="matrix(1.36554 0 0 -1.36554 -77.981 502.08)"/><path d="m0 0-1.411-3.65 1.302-.504c1.278-.493 2.976-1.15 3.695.71C4.277-1.654 2.534-.98 1.395-.54zm3.62 1.967c1.023-.395 2.255-.871 3.212-1.989 1.07-1.243 1.556-3.167.854-4.981a5.076 5.076 0 0 0-3.842-3.165c-1.496-.276-2.729.2-4.031.703l-2.348.908-2.462-6.369-3.999 1.545 6.129 15.856z" style="fill:#696969;fill-opacity:1" transform="matrix(1.36554 0 0 -1.36554 140.751 391.81)"/><path d="m0 0-.89-3.785 1.723-.404c1.079-.205 1.346-.266 1.839-.126.682.171 1.116.711 1.276 1.39.445 1.892-1.4 2.326-1.861 2.435zm2.892 2.497c1.504-.353 3.009-.709 4.15-1.847.737-.788 1.703-2.45 1.241-4.415C7.633-6.532 5.269-7 4.485-7.175c1.052-.861 1.484-2.731 1.648-3.666.238-1.055.576-2.773.791-3.822l.279-1.321-4.539 1.067c-.192.813-.854 4.427-1.04 5.161C.999-7.405.173-7.211-.992-6.937l-.606.142-1.587-6.747-4.174.982 3.892 16.552z" style="fill:#696969;fill-opacity:1" transform="matrix(1.36554 0 0 -1.36554 165.491 399.806)"/><path d="m0 0-3.026-6.353 5.216-.43zm8.848-13.685-4.546.374-1.114 3.47-7.576.625-1.544-3.248-4.471.368 8.231 16.377 4.893-.404z" style="fill:#696969;fill-opacity:1" transform="matrix(1.36554 0 0 -1.36554 196.15 406.303)"/><path d="M0 0c-2.053.782-4.234 1.256-6.424 1.104C-8.388.968-9.522.391-10.236-.135c-1.166-.829-2.159-2.373-2.01-4.512.222-3.207 3.033-4.837 5.943-4.635 1.045.072 2.049.367 2.992.807l-.136 1.99-2.438-.169-.219 3.158 6.74.467.484-6.989c-1.64-1.587-4.343-2.599-7.103-2.791-5.447-.378-10.296 2.535-10.676 8.006-.367 5.297 3.649 8.999 9.642 9.415 3.358.233 5.713-.579 6.762-.93z" style="fill:#696969;fill-opacity:1" transform="matrix(1.36554 0 0 -1.36554 236.441 406.836)"/><path d="M0 0c.305-1.311.761-3.379-.246-5.431-1.225-2.435-3.797-3.699-6.346-4.293-1.286-.3-4.744-1.054-7.65 1.316-.86.721-1.737 1.744-2.36 4.415l-2.125 9.128 4.176.971 1.91-8.205c.159-.679.385-1.65.891-2.505.963-1.721 2.83-2.156 4.457-1.777 2.403.559 3.152 2.397 3.295 3.325.122.797-.025 1.429-.365 2.885l-1.91 8.205 4.175.973z" style="fill:#696969;fill-opacity:1" transform="matrix(1.36554 0 0 -1.36554 269.678 406.09)"/><path d="m0 0-11.668-4.604-6.242 15.818 11.505 4.541 1.162-2.946-7.515-2.965 1.264-3.201 7.166 2.828 1.172-2.969-7.166-2.829 1.5-3.804 7.677 3.03z" style="fill:#696969;fill-opacity:1" transform="matrix(1.36554 0 0 -1.36554 298.944 406.45)"/><path d="M0 0c.907.995 2.354 2.544 4.561 2.925 2.635.429 5.031-.879 6.869-2.555.926-.845 3.377-3.148 2.987-6.808-.133-1.094-.502-2.376-2.351-4.403l-6.318-6.924-3.009 2.745 5.68 6.224c.471.517 1.143 1.254 1.571 2.145.893 1.751.256 3.476-.915 4.547-1.732 1.58-3.629 1.117-4.462.695-.715-.36-1.151-.839-2.16-1.944l-5.68-6.224-3.007 2.746z" style="fill:#696969;fill-opacity:1" transform="matrix(1.36554 0 0 -1.36554 69.784 352.656)"/><path d="m0 0 2.063-2.657-2.837-13.505 8.311 6.449 2.454-3.163L-3.44-23.297l-2.251 2.901 2.617 12.973-7.918-6.143-2.44 3.144z" style="fill:#696969;fill-opacity:1" transform="matrix(1.36554 0 0 -1.36554 56.387 319.818)"/><path d="m0 0 2.063-3.511-14.654-8.608-2.062 3.511z" style="fill:#696969;fill-opacity:1" transform="matrix(1.36554 0 0 -1.36554 48.281 306.254)"/><path d="m0 0 .705-1.605-12.626-14.077-1.762 4.012 7.162 7.799-10.505-.189-1.745 3.968z" style="fill:#696969;fill-opacity:1" transform="matrix(1.36554 0 0 -1.36554 39.293 287.456)"/><path d="m0 0 3.201-11.473-16.379-4.569-3.156 11.313 3.05.852 2.062-7.391 3.314.924-1.967 7.049 3.075.857 1.966-7.048 3.938 1.099-2.106 7.55z" style="fill:#696969;fill-opacity:1" transform="matrix(1.36554 0 0 -1.36554 28.178 255.134)"/><path d="m0 0 3.855.513-.22 1.666c-.187 1.027-.221 1.284-.524 1.675-.399.544-1.053.744-1.746.652C-.563 4.252-.326 2.467-.268 2.02Zm-3.345 1.707c-.192 1.457-.384 2.912.284 4.316.482.922 1.701 2.351 3.703 2.618 2.818.373 4.08-1.563 4.515-2.199.442 1.23 2.041 2.254 2.86 2.721.905.573 2.396 1.464 3.303 2.016l1.14.7.582-4.392c-.695-.45-3.848-2.277-4.473-2.694-1.982-1.362-1.876-2.161-1.726-3.288L6.92.919l6.87.91.535-4.039L-2.53-4.444Z" style="fill:#696969;fill-opacity:1" transform="matrix(1.36554 0 0 -1.36554 6.694 242.745)"/><path d="M0 0c-.58-1.109-1.666-3.114-1.681-5.175-.016-2.366 1.204-2.446 1.378-2.448 1.023-.006 1.631 1.576 2.521 3.89C3.004-1.702 4.316.703 7.606.681c3.938-.027 5.007-3.94 4.99-6.356-.019-2.722-1.382-5.295-1.685-5.694l-3.663.025c.932 1.39 2.141 3.229 2.158 5.596.003.521-.009 2.416-1.529 2.426-1.121.008-1.477-.913-2.264-3.039-.863-2.315-2.08-5.243-5.669-5.217-2.591.017-4.82 2.094-4.792 6.141.009 1.28.17 2.888 1.36 5.46z" style="fill:#696969;fill-opacity:1" transform="matrix(1.36554 0 0 -1.36554 6.62 203.766)"/><path d="m0 0-.468-4.046-16.881 1.951.467 4.047z" style="fill:#696969;fill-opacity:1" transform="matrix(1.36554 0 0 -1.36554 25.075 188.334)"/><path d="m0 0-1.346-5.667 13.434-3.185-.947-3.985-13.434 3.184-1.351-5.691-3.104.736L-3.104.736z" style="fill:#696969;fill-opacity:1" transform="matrix(1.36554 0 0 -1.36554 12.744 154.428)"/><path d="m0 0 7.375-2.966-1.512-3.76-7.375 2.968-10.77-2.534 1.812 4.504 6.274 1.307-3.621 5.287 1.803 4.482z" style="fill:#696969;fill-opacity:1" transform="matrix(1.36554 0 0 -1.36554 28.166 135.551)"/><path d="M0 0c-1.695-2.339-1.48-5.185 1.244-7.16 3.289-2.384 6.06-.474 7.186 1.079 1.513 2.09 1.534 5.175-1.191 7.149C4.677 2.926 1.848 2.548 0 0m11.173-8.158c-3.279-4.523-8.857-4.954-12.448-2.35-3.209 2.325-5.25 7.664-1.637 12.648C.437 6.76 6.012 7.105 9.604 4.5c3.189-2.311 5.251-7.578 1.569-12.658" style="fill:#696969;fill-opacity:1" transform="matrix(1.36554 0 0 -1.36554 44.589 90.68)"/><path d="m0 0-4.965-5.015 2.551-2.525 4.965 5.016 2.285-2.262-4.965-5.016 4.96-4.908-2.864-2.894-12.081 11.955 7.829 7.911z" style="fill:#696969;fill-opacity:1" transform="matrix(1.36554 0 0 -1.36554 70.494 60.73)"/><path d="m0 0-10.022-6.434-9.185 14.31 9.884 6.345 1.71-2.664-6.455-4.145 1.857-2.896 6.157 3.953 1.724-2.685-6.156-3.953 2.208-3.442 6.594 4.235z" style="fill:#696969;fill-opacity:1" transform="matrix(1.36554 0 0 -1.36554 117.496 49.053)"/><path d="M0 0c-1.617-2.177-3.214-3.306-5.093-4.152-5.723-2.575-10.345.073-12.134 4.051-1.758 3.911-.684 9.314 5.299 12.007 2.678 1.208 4.935 1.157 5.906 1.02l1.605-3.57c-.819.206-3.241.564-5.79-.584-3.066-1.38-4.495-4.265-3.217-7.106 1.369-3.047 4.599-3.643 7.363-2.398 1.383.622 2.496 1.615 3.43 2.828l1.026 1.473z" style="fill:#696969;fill-opacity:1" transform="matrix(1.36554 0 0 -1.36554 143.449 34.296)"/><path d="M0 0c-2.793-.741-4.426-3.083-3.564-6.334 1.041-3.928 4.396-4.198 6.251-3.706C5.182-9.378 7.148-7 6.286-3.748 5.475-.689 3.045.807 0 0m3.498-13.383c-5.402-1.433-9.997 1.758-11.134 6.047-1.015 3.83.781 9.257 6.733 10.836C4.614 4.961 9.152 1.705 10.29-2.583c1.009-3.808-.725-9.191-6.792-10.8" style="fill:#696969;fill-opacity:1" transform="matrix(1.36554 0 0 -1.36554 159.574 11.95)"/><path d="m0 0-3.351-.289-9.797 9.713.903-10.48-3.988-.344-1.458 16.936 3.657.316 9.472-9.241-.861 9.983 3.965.342z" style="fill:#696969;fill-opacity:1" transform="matrix(1.36554 0 0 -1.36554 207.625 23.334)"/><path d="M0 0c-2.877.254-5.209-1.392-5.507-4.744-.359-4.048 2.701-5.444 4.612-5.614 2.57-.227 5.229 1.34 5.526 4.691C4.911-2.512 3.137-.277 0 0m-1.27-13.779c-5.565.493-8.796 5.059-8.404 9.479.35 3.948 3.886 8.441 10.018 7.898 5.683-.502 8.839-5.113 8.446-9.532-.349-3.924-3.811-8.398-10.06-7.845" style="fill:#696969;fill-opacity:1" transform="matrix(1.36554 0 0 -1.36554 230.82 5.818)"/><path d="m0 0-3.93 1.069 2.734 10.033-5.623-4.156-.572.156-2.737 6.43-2.733-10.033-3.93 1.069 4.471 16.41 3.449-.939 3.236-7.575 6.701 4.869 3.405-.924z" style="fill:#696969;fill-opacity:1" transform="matrix(1.36554 0 0 -1.36554 273.583 33.351)"/><path d="m0 0-3.758 1.576 6.576 15.671 3.757-1.576Z" style="fill:#696969;fill-opacity:1" transform="matrix(1.36554 0 0 -1.36554 288.225 39.417)"/><path d="M0 0c-2.711.023-4.562.647-6.353 1.666-5.453 3.104-6.038 8.397-3.88 12.188 2.119 3.726 7.116 6.043 12.816 2.799 2.552-1.452 3.841-3.305 4.302-4.17l-1.935-3.4c-.317.782-1.455 2.949-3.883 4.332-2.922 1.663-6.093 1.117-7.633-1.591-1.652-2.903-.231-5.862 2.403-7.363C-2.846 3.712-1.389 3.4.142 3.36l1.793.04Z" style="fill:#696969;fill-opacity:1" transform="matrix(1.36554 0 0 -1.36554 316.121 51.792)"/><path d="M0 0c-.526 1.135-1.456 3.218-3.082 4.483-1.868 1.455-2.675.535-2.781.397-.628-.805.257-2.253 1.552-4.367 1.132-1.861 2.243-4.368.222-6.965-2.418-3.107-6.174-1.574-8.08-.089-2.148 1.673-3.358 4.321-3.493 4.805l2.25 2.891c.536-1.585 1.259-3.665 3.127-5.119.411-.321 1.922-1.465 2.855-.265.689.886.174 1.728-1.033 3.646-1.31 2.095-2.892 4.843-.689 7.677 1.591 2.045 4.594 2.55 7.79.062C-.354 6.371.825 5.264 2.143 2.754z" style="fill:#696969;fill-opacity:1" transform="matrix(1.36554 0 0 -1.36554 345.132 54.795)"/><path d="m0 0-6.609-2.283 3.118-3.874zm-4.131-15.457-2.717 3.375 1.789 3.144-4.528 5.624-3.378-1.171-2.673 3.32L1.684 4.427 4.609.794z" style="fill:#696969;fill-opacity:1" transform="matrix(1.36554 0 0 -1.36554 373.376 82.753)"/><path d="m0 0-1.643 2.935 4.821 12.927-9.181-5.134-1.955 3.494L6.88 22.519l1.792-3.204L4.148 6.878l8.746 4.892 1.943-3.474Z" style="fill:#696969;fill-opacity:1" transform="matrix(1.36554 0 0 -1.36554 382.953 129.932)"/><path d="m0 0-9.882-3.598.559-1.535c.769-2.116 1.176-2.649 1.683-3.169 1.26-1.28 3.17-1.719 5.442-.892 1.732.631 3.41 1.923 3.542 4.188.065 1.133-.275 2.068-.648 3.092zm3.903-1.251c.356-.979.866-2.382.866-4.347-.009-1.365-.624-5.723-5.566-7.522-1.593-.581-5.056-1.412-8.158 1.214-1.346 1.147-2.255 2.481-3.218 5.13l-2.145 5.898 15.97 5.815z" style="fill:#696969;fill-opacity:1" transform="matrix(1.36554 0 0 -1.36554 406.628 138.157)"/><path d="m0 0-3.693-.38.155-1.507c.095-.919.278-2.709 2.138-2.518C.435-4.217.253-2.451.162-1.578zm-6.743-.692-4.066-.417.205-1.98c.143-1.389.346-3.369 2.354-3.162 2.058.211 1.861 2.12 1.692 3.768zM3.235-1.74c.119-1.153.211-2.05 0-3.166-.427-2.163-2.089-3.308-3.576-3.461-1.215-.124-2.674.416-3.619 1.818-.186-.875-.768-3.506-4.014-3.84-1.488-.152-3.152.2-4.376 1.861-.755 1.017-1.004 1.967-1.19 3.781l-.762 7.397L2.604 4.385Z" style="fill:#696969;fill-opacity:1" transform="matrix(1.36554 0 0 -1.36554 419.331 188.336)"/><path d="M0 0c-1.344.072-3.458.211-5.151 1.678-2.001 1.767-2.505 4.451-2.372 6.932.068 1.252.299 4.607 3.378 6.622.931.589 2.157 1.116 4.895.968l9.359-.505-.219-4.066-8.413.454c-.698.038-1.693.092-2.654-.142-1.92-.417-2.854-2.002-2.94-3.586-.126-2.341 1.433-3.515 2.287-3.893.731-.323 1.378-.36 2.872-.44l8.412-.455-.22-4.065Z" style="fill:#696969;fill-opacity:1" transform="matrix(1.36554 0 0 -1.36554 411.393 234.402)"/><path d="M0 0c.788.975 2.245 2.727 2.663 4.743.482 2.318-.699 2.636-.87 2.671C.792 7.622-.116 6.19-1.44 4.096-2.61 2.26-4.37.158-7.592.827c-3.854.801-4.135 4.849-3.643 7.212.551 2.666 2.393 4.92 2.768 5.252l3.587-.743c-1.186-1.181-2.733-2.745-3.214-5.064-.106-.509-.466-2.37 1.023-2.679 1.097-.227 1.627.605 2.816 2.535 1.301 2.099 3.068 4.73 6.582 4.002 2.537-.528 4.316-3 3.492-6.964-.258-1.252-.732-2.798-2.403-5.087Z" style="fill:#696969;fill-opacity:1" transform="matrix(1.36554 0 0 -1.36554 412.84 261.684)"/><path d="m0 0 1.248 3.877 16.18-5.21-1.248-3.878z" style="fill:#696969;fill-opacity:1" transform="matrix(1.36554 0 0 -1.36554 391.727 273.201)"/><path d="m0 0 1.429 3.043 13.315 3.609-9.521 4.469 1.701 3.621L22.312 7.52l-1.56-3.321L8.008.634l9.071-4.257-1.69-3.601z" style="fill:#696969;fill-opacity:1" transform="matrix(1.36554 0 0 -1.36554 379.004 303.063)"/><path d="m0 0 6.647 9.881L20.751.386l-6.555-9.743-2.627 1.768 4.283 6.364L12.997.696 8.915-5.373 6.267-3.592l4.084 6.071-3.392 2.283L2.585-1.74Z" style="fill:#696969;fill-opacity:1" transform="matrix(1.36554 0 0 -1.36554 364.624 325.403)"/><path d="M0 0c1.168.452 3.306 1.245 4.675 2.784 1.572 1.772.706 2.635.576 2.751-.764.679-2.265-.11-4.458-1.266-1.931-1.009-4.503-1.954-6.963.23-2.944 2.616-1.17 6.266.435 8.07 1.808 2.035 4.528 3.073 5.019 3.175l2.739-2.433c-1.617-.433-3.738-1.019-5.31-2.789-.346-.39-1.586-1.824-.449-2.832.839-.745 1.713-.287 3.706.793 2.175 1.173 5.018 2.574 7.702.191C9.609 6.952 9.918 3.922 7.229.896c-.849-.956-2.03-2.06-4.62-3.213Z" style="fill:#696969;fill-opacity:1" transform="matrix(1.36554 0 0 -1.36554 361.583 355.184)"/><path d="M0 0c1.217.294 3.44.799 4.999 2.146 1.791 1.549 1.046 2.521.932 2.653-.668.772-2.26.187-4.585-.671-2.046-.747-4.72-1.346-6.872 1.143-2.576 2.98-.337 6.366 1.49 7.945 2.06 1.781 4.892 2.451 5.392 2.488l2.396-2.771c-1.66-.217-3.839-.52-5.63-2.069-.394-.342-1.81-1.598-.817-2.75.734-.847 1.661-.508 3.778.301 2.31.879 5.313 1.893 7.66-.822 1.695-1.963 1.604-5.007-1.459-7.656-.968-.836-2.283-1.776-5.002-2.578Z" style="fill:#696969;fill-opacity:1" transform="matrix(1.36554 0 0 -1.36554 341.666 373.47)"/></g></svg>