<?xml version="1.0" encoding="UTF-8" standalone="no"?>
<svg
   width="106"
   height="116"
   viewBox="0 0 106 116"
   fill="none"
   version="1.1"
   id="svg13"
   sodipodi:docname="d-footer.svg"
   xml:space="preserve"
   inkscape:version="1.2 (dc2aedaf03, 2022-05-15)"
   xmlns:inkscape="http://www.inkscape.org/namespaces/inkscape"
   xmlns:sodipodi="http://sodipodi.sourceforge.net/DTD/sodipodi-0.dtd"
   xmlns:xlink="http://www.w3.org/1999/xlink"
   xmlns="http://www.w3.org/2000/svg"
   xmlns:svg="http://www.w3.org/2000/svg"><sodipodi:namedview
     id="namedview15"
     pagecolor="#505050"
     bordercolor="#eeeeee"
     borderopacity="1"
     inkscape:showpageshadow="0"
     inkscape:pageopacity="0"
     inkscape:pagecheckerboard="0"
     inkscape:deskcolor="#505050"
     showgrid="false"
     inkscape:zoom="5.6568542"
     inkscape:cx="32.438524"
     inkscape:cy="56.391766"
     inkscape:window-width="1920"
     inkscape:window-height="1009"
     inkscape:window-x="-8"
     inkscape:window-y="114"
     inkscape:window-maximized="1"
     inkscape:current-layer="svg13" /><path
     d="M 31.2535,40.6568 C 24.1598,34.0113 17.0634,27.6037 10.5992,21.3075 5.0021,15.856 9.14195,7 16.9252,7 c 4.6798,0 9.3593,0 14.0391,0 4.6798,0 9.3593,0 14.0391,0 7.1602,0 14.1742,1.33256 20.6636,3.8506 6.4894,2.5181 12.4546,6.222 17.5177,10.9654 5.063,4.7434 9.017,10.3314 11.7049,16.4108 C 97.5778,44.3062 99,50.877 99,57.5847 c 0,6.7081 -1.4222,13.2786 -4.1104,19.358 -2.6879,6.0793 -6.6419,11.6676 -11.7049,16.411 -5.0631,4.7434 -11.0283,8.4473 -17.5177,10.9653 -6.4894,2.518 -13.5034,3.85 -20.6636,3.85 -4.6798,0 -9.3593,0 -14.0391,0 -4.6798,0 -9.3593,0 -14.0391,0 -8.0806,0 -11.81051,-9.1241 -6.3412,-14.321 4.5897,-4.3612 9.2358,-8.6701 13.8538,-13.0047 4.6183,-4.3349 9.2363,-8.6696 13.8544,-13.0042 4.618,-4.3346 9.2363,-8.6695 13.8543,-13.0042 4.618,-4.3346 9.2357,-8.6695 13.8538,-13.0044"
     stroke="#383838"
     stroke-width="15"
     stroke-linecap="round"
     id="path2"
     style="display:none" /><path
     d="M 31.2535,40.6568 C 24.1598,34.0113 17.0634,27.6037 10.5992,21.3075 5.0021,15.856 9.14195,7 16.9252,7 c 4.6798,0 9.3593,0 14.0391,0 4.6798,0 9.3593,0 14.0391,0 7.1602,0 14.1742,1.33256 20.6636,3.8506 6.4894,2.5181 12.4546,6.222 17.5177,10.9654 5.063,4.7434 9.017,10.3314 11.7049,16.4108 C 97.5778,44.3062 99,50.877 99,57.5847 c 0,6.7081 -1.4222,13.2786 -4.1104,19.358 -2.6879,6.0793 -6.6419,11.6676 -11.7049,16.411 -5.0631,4.7434 -11.0283,8.4473 -17.5177,10.9653 -6.4894,2.518 -13.5034,3.85 -20.6636,3.85 -4.6798,0 -9.3593,0 -14.0391,0 -4.6798,0 -9.3593,0 -14.0391,0 -8.0806,0 -11.81051,-9.1241 -6.3412,-14.321 4.5897,-4.3612 9.2358,-8.6701 13.8538,-13.0047 4.6183,-4.3349 9.2363,-8.6696 13.8544,-13.0042 4.618,-4.3346 9.2363,-8.6695 13.8543,-13.0042 4.618,-4.3346 9.2357,-8.6695 13.8538,-13.0044"
     stroke="url(#paint0_linear_284_6)"
     stroke-width="11"
     stroke-linecap="round"
     id="path4"
     style="display:none" /><defs
     id="defs11"><linearGradient
       inkscape:collect="always"
       id="linearGradient1093"><stop
         style="stop-color:#035ae1;stop-opacity:1;"
         offset="0"
         id="stop1089" /><stop
         style="stop-color:#383838;stop-opacity:1;"
         offset="1"
         id="stop1091" /></linearGradient><linearGradient
       inkscape:collect="always"
       id="linearGradient990"><stop
         style="stop-color:#035ae1;stop-opacity:1;"
         offset="0"
         id="stop986" /><stop
         style="stop-color:#0cc5f7;stop-opacity:1;"
         offset="1"
         id="stop988" /></linearGradient><linearGradient
       id="paint0_linear_284_6"
       x1="53.4957"
       y1="1.82021"
       x2="38.0544"
       y2="113.903"
       gradientUnits="userSpaceOnUse"><stop
         stop-color="#035AE1"
         id="stop6" /><stop
         offset="1"
         stop-color="#0CC5F7"
         id="stop8" /></linearGradient><inkscape:path-effect
       effect="fillet_chamfer"
       id="path-effect1267"
       is_visible="true"
       lpeversion="1"
       nodesatellites_param="F,0,0,1,0,0,0,1 @ F,0,0,1,0,10.431881,0,1 @ F,0,0,1,0,0,0,1 @ F,0,0,1,0,25,0,1 @ F,0,0,1,0,25,0,1 @ F,0,0,1,0,0,0,1 @ F,0,0,1,0,10.431881,0,1 @ F,0,0,1,0,0,0,1"
       unit="px"
       method="auto"
       mode="F"
       radius="10"
       chamfer_steps="1"
       flexible="false"
       use_knot_distance="true"
       apply_no_radius="true"
       apply_with_radius="true"
       only_selected="false"
       hide_knots="false" /><inkscape:path-effect
       effect="fillet_chamfer"
       id="path-effect1256"
       is_visible="true"
       lpeversion="1"
       nodesatellites_param="F,0,0,1,0,0,0,1 @ F,0,0,1,0,10,0,1 @ F,0,0,1,0,0,0,1 @ F,0,0,1,0,0,0,1 @ F,0,1,1,0,0,0,1 @ F,0,0,1,0,10,0,1 @ F,0,0,1,0,0,0,1"
       unit="px"
       method="auto"
       mode="F"
       radius="10"
       chamfer_steps="1"
       flexible="false"
       use_knot_distance="true"
       apply_no_radius="true"
       apply_with_radius="true"
       only_selected="false"
       hide_knots="false" /><linearGradient
       inkscape:collect="always"
       xlink:href="#linearGradient1093"
       id="linearGradient992-8"
       x1="39.344006"
       y1="4.7821789"
       x2="18.515167"
       y2="60.218174"
       gradientUnits="userSpaceOnUse" /><inkscape:path-effect
       effect="fillet_chamfer"
       id="path-effect1256-5"
       is_visible="true"
       lpeversion="1"
       nodesatellites_param="F,0,0,1,0,0,0,1 @ F,0,0,1,0,10,0,1 @ F,0,0,1,0,0,0,1 @ F,0,0,1,0,0,0,1 @ F,0,1,1,0,0,0,1 @ F,0,0,1,0,10,0,1 @ F,0,0,1,0,0,0,1"
       unit="px"
       method="auto"
       mode="F"
       radius="10"
       chamfer_steps="1"
       flexible="false"
       use_knot_distance="true"
       apply_no_radius="true"
       apply_with_radius="true"
       only_selected="false"
       hide_knots="false" /><inkscape:path-effect
       effect="fillet_chamfer"
       id="path-effect1267-7"
       is_visible="true"
       lpeversion="1"
       nodesatellites_param="F,0,0,1,0,0,0,1 @ F,0,0,1,0,10.431881,0,1 @ F,0,0,1,0,0,0,1 @ F,0,0,1,0,25,0,1 @ F,0,0,1,0,25,0,1 @ F,0,0,1,0,0,0,1 @ F,0,0,1,0,10.431881,0,1 @ F,0,0,1,0,0,0,1"
       unit="px"
       method="auto"
       mode="F"
       radius="10"
       chamfer_steps="1"
       flexible="false"
       use_knot_distance="true"
       apply_no_radius="true"
       apply_with_radius="true"
       only_selected="false"
       hide_knots="false" /><linearGradient
       inkscape:collect="always"
       xlink:href="#linearGradient990"
       id="linearGradient1084"
       gradientUnits="userSpaceOnUse"
       x1="39.344006"
       y1="4.7821789"
       x2="18.515167"
       y2="60.218174"
       gradientTransform="translate(0.7677543)" /></defs><g
     inkscape:label="Layer 1"
     id="layer1-1"
     transform="matrix(1.9656675,0,0,1.9656675,-11.141469,-5.8841938)"
     style="display:inline;stroke:url(#linearGradient992-8);stroke-width:7.12226;stroke-dasharray:none"><path
       style="display:inline;fill:none;stroke:#383838;stroke-width:8.13973;stroke-linecap:round;stroke-linejoin:miter;stroke-dasharray:none;stroke-opacity:1"
       d="m 21.787448,24.482534 -9.606081,-9.60608 A 4.3210265,4.3210265 112.5 0 1 15.236795,7.5 h 12.568119 1.526411 a 25,25 45 0 1 25,25 v 0 a 25,25 135 0 1 -25,25 H 27.804914 15.236795 A 4.3270666,4.3270666 67.47169 0 1 12.174074,50.11626 L 39.236795,23"
       id="path1265"
       inkscape:path-effect="#path-effect1267"
       inkscape:original-d="M 21.787448,24.482534 4.8049136,7.5 H 27.804914 54.331325 v 50 H 27.804914 4.8049136 L 39.236795,23"
       sodipodi:nodetypes="cccccccc" /><path
       style="display:inline;fill:none;stroke:url(#linearGradient1084);stroke-width:5.59606;stroke-linecap:round;stroke-linejoin:miter;stroke-dasharray:none;stroke-opacity:1"
       d="m 21.791996,24.482534 -9.60608,-9.60608 A 4.3210267,4.3210267 112.5 0 1 15.241343,7.5 h 12.568119 1.526411 a 25,25 45 0 1 25,25 v 0 a 25,25 135 0 1 -25,25 H 27.809462 15.241343 a 4.3270667,4.3270667 67.47169 0 1 -3.06272,-7.38374 L 39.241343,23"
       id="path1265-5"
       inkscape:path-effect="#path-effect1267-7"
       inkscape:original-d="M 21.791996,24.482534 4.8094624,7.5 H 27.809462 54.335873 v 50 H 27.809462 4.8094624 L 39.241343,23"
       sodipodi:nodetypes="cccccccc" /></g></svg>
