<svg width="106" height="116" viewBox="0 0 106 116" fill="none" xmlns="http://www.w3.org/2000/svg">
<path d="M31.6854 42.2404L12.803 23.358C11.6152 22.1701 10.8062 20.6567 10.4785 19.0091C10.1508 17.3615 10.319 15.6537 10.9618 14.1016C11.6047 12.5496 12.6934 11.2231 14.0902 10.2898C15.4869 9.35648 17.1291 8.85834 18.809 8.85834H43.5138H46.5142C59.5474 8.85834 72.0467 14.0358 81.2626 23.2516C90.4784 32.4675 95.6559 44.9668 95.6559 58C95.6559 71.0332 90.4784 83.5326 81.2626 92.7484C72.0467 101.964 59.5474 107.142 46.5142 107.142H43.5138H18.809C17.1275 107.142 15.4837 106.643 14.0853 105.709C12.6869 104.776 11.5967 103.448 10.9525 101.895C10.3082 100.342 10.1388 98.6324 10.4656 96.983C10.7925 95.3335 11.6009 93.8179 12.7887 92.6277L65.985 39.3262" stroke="#383838" stroke-width="16" stroke-linecap="round"/>
<path d="M31.6944 42.2404L12.812 23.358C11.6241 22.1701 10.8152 20.6567 10.4875 19.0091C10.1597 17.3615 10.3279 15.6537 10.9708 14.1016C11.6137 12.5496 12.7023 11.2231 14.0991 10.2898C15.4959 9.35649 17.1381 8.85834 18.8179 8.85834H43.5227H46.5231C59.5563 8.85834 72.0557 14.0358 81.2715 23.2516C90.4874 32.4675 95.6648 44.9668 95.6648 58C95.6648 71.0332 90.4874 83.5326 81.2715 92.7484C72.0557 101.964 59.5563 107.142 46.5231 107.142H43.5227H18.8179C17.1364 107.142 15.4926 106.643 14.0943 105.709C12.6959 104.776 11.6057 103.448 10.9614 101.895C10.3172 100.342 10.1478 98.6324 10.4746 96.983C10.8014 95.3335 11.6098 93.8179 12.7977 92.6277L65.994 39.3262" stroke="url(#paint0_linear_188_184)" stroke-width="11" stroke-linecap="round"/>
<defs>
<linearGradient id="paint0_linear_188_184" x1="67.7049" y1="3.516" x2="26.7623" y2="112.485" gradientUnits="userSpaceOnUse">
<stop stop-color="#035AE1"/>
<stop offset="1" stop-color="#0CC5F7"/>
</linearGradient>
</defs>
</svg>
