<?xml version="1.0" encoding="UTF-8" standalone="no"?>
<svg
   width="65.0px"
   height="65.0px"
   viewBox="0 0 65.0 65.0"
   id="SVGRoot"
   version="1.1"
   sodipodi:docname="d.svg"
   inkscape:version="1.2 (dc2aedaf03, 2022-05-15)"
   xmlns:inkscape="http://www.inkscape.org/namespaces/inkscape"
   xmlns:sodipodi="http://sodipodi.sourceforge.net/DTD/sodipodi-0.dtd"
   xmlns="http://www.w3.org/2000/svg"
   xmlns:svg="http://www.w3.org/2000/svg">
  <defs
     id="defs8" />
  <sodipodi:namedview
     id="namedview6"
     pagecolor="#505050"
     bordercolor="#eeeeee"
     borderopacity="1"
     inkscape:showpageshadow="0"
     inkscape:pageopacity="0"
     inkscape:pagecheckerboard="0"
     inkscape:deskcolor="#505050"
     showgrid="false"
     inkscape:zoom="12.723077"
     inkscape:cx="28.530834"
     inkscape:cy="32.539299"
     inkscape:window-width="1920"
     inkscape:window-height="1009"
     inkscape:window-x="-8"
     inkscape:window-y="-8"
     inkscape:window-maximized="1"
     inkscape:current-layer="SVGRoot" />
  <g
     id="layer1"
     style="fill:none;fill-opacity:1;stroke:#262626;stroke-opacity:1;stroke-width:6;stroke-dasharray:none">
    <path
       style="display:none;fill:none;stroke:#262626;stroke-width:6;stroke-linecap:round;stroke-linejoin:miter;stroke-dasharray:none;stroke-opacity:1;fill-opacity:1"
       d="M 35,30 12.071068,52.928932 A 4.1421356,4.1421356 67.5 0 0 15,60 H 25 C 25,60 50,60 50,35 50,10 25,10 25,10 H 15 a 4.1421356,4.1421356 112.5 0 0 -2.928932,7.071068 L 20,25"
       id="path495" />
    <path
       style="fill:none;stroke:#262626;stroke-width:6;stroke-linecap:round;stroke-linejoin:miter;stroke-dasharray:none;stroke-opacity:1;fill-opacity:1"
       d="M 23.568119,25.5 12.639187,14.571068 A 4.1421356,4.1421356 112.5 0 1 15.568119,7.5 h 13 a 25,25 45 0 1 25,25 25,25 135 0 1 -25,25 h -13 A 4.1479256,4.1479256 67.47169 0 1 12.632196,50.421948 L 40,23"
       id="path1265" />
  </g>
</svg>
