<svg width="500" height="500" viewBox="0 0 500 500" fill="none" xmlns="http://www.w3.org/2000/svg">
<path d="M170.785 185.645C146.265 161.125 121.745 136.605 97.2249 112.085C92.7688 107.629 89.7343 101.952 88.5048 95.771C87.2754 89.5904 87.9064 83.1838 90.318 77.3617C92.7295 71.5395 96.8135 66.5634 102.053 63.0622C107.293 59.5612 113.453 57.6924 119.755 57.6924H219.755C270.758 57.6924 319.672 77.9534 355.737 114.018C391.802 150.083 412.063 198.997 412.063 250C412.063 301.004 391.802 349.917 355.737 385.983C319.672 422.047 270.758 442.308 219.755 442.308H119.755C113.447 442.308 107.281 440.438 102.035 436.935C96.7893 433.431 92.6997 428.452 90.2829 422.626C87.866 416.799 87.2305 410.387 88.4565 404.199C89.6826 398.012 92.7151 392.326 97.1712 387.862C162.957 321.941 228.749 256.027 294.535 190.107" stroke="#373737" stroke-width="40" stroke-linecap="round"/>
</svg>
