<?xml version="1.0" encoding="UTF-8" standalone="no"?>
<svg
   viewBox="0 0 730 740"
   fill="none"
   style="z-index: 1;"
   version="1.1"
   id="svg228"
   sodipodi:docname="home-artwork.svg"
   inkscape:version="1.2 (dc2aedaf03, 2022-05-15)"
   xmlns:inkscape="http://www.inkscape.org/namespaces/inkscape"
   xmlns:sodipodi="http://sodipodi.sourceforge.net/DTD/sodipodi-0.dtd"
   xmlns="http://www.w3.org/2000/svg"
   xmlns:svg="http://www.w3.org/2000/svg">
  <defs
     id="defs232" />
  <sodipodi:namedview
     id="namedview230"
     pagecolor="#505050"
     bordercolor="#eeeeee"
     borderopacity="1"
     inkscape:showpageshadow="0"
     inkscape:pageopacity="0"
     inkscape:pagecheckerboard="0"
     inkscape:deskcolor="#505050"
     showgrid="false"
     inkscape:zoom="13.041342"
     inkscape:cx="577.70127"
     inkscape:cy="294.98497"
     inkscape:window-width="1920"
     inkscape:window-height="1009"
     inkscape:window-x="-8"
     inkscape:window-y="114"
     inkscape:window-maximized="1"
     inkscape:current-layer="svg228" />
  <path
     d="M229.234 497.702C262.067 497.702 288.684 469.883 288.684 435.567C288.684 401.251 262.067 373.433 229.234 373.433C196.401 373.433 169.785 401.251 169.785 435.567C169.785 469.883 196.401 497.702 229.234 497.702Z"
     fill="#1C1C1C"
     id="path2" />
  <path
     d="M59.5462 385.698C92.3794 385.698 118.996 357.879 118.996 323.563C118.996 289.247 92.3794 261.429 59.5462 261.429C26.7131 261.429 0.0965576 289.247 0.0965576 323.563C0.0965576 357.879 26.7131 385.698 59.5462 385.698Z"
     fill="#1A1A1A"
     id="path4" />
  <path
     d="M483.715 384.998C524.339 384.998 557.272 350.578 557.272 308.119C557.272 265.659 524.339 231.239 483.715 231.239C443.09 231.239 410.157 265.659 410.157 308.119C410.157 350.578 443.09 384.998 483.715 384.998Z"
     fill="#1C1C1C"
     id="path6" />
  <path
     d="M250.952 668.095C251.64 663.538 252.975 657.201 255.67 650.664C257.508 646.208 259.888 641.859 263.035 637.652C265.678 634.118 268.743 630.84 272.367 627.614C272.709 627.31 273.056 627.006 273.407 626.704C276.26 624.242 279.429 621.826 283.252 619.147C290.062 614.373 298.549 609.278 307.979 601.988C315.884 595.877 324.738 587.84 332.73 576.221C339.451 566.312 344.259 556.424 347.424 546.447C350.486 536.794 351.96 527.216 352.241 517.608C352.516 508.242 351.654 498.986 350.124 489.73C348.62 480.638 346.486 471.638 344.202 462.618C339.673 444.735 334.692 427.255 332.958 409.308C332.097 400.395 332.049 391.461 333.232 382.4C334.424 373.283 336.863 364.028 340.984 354.531C342.642 350.781 344.867 347.166 347.552 343.657C350.291 340.077 353.495 336.628 357.026 333.289C364.197 326.508 372.717 320.187 381.164 314.33C381.167 314.328 381.877 313.837 381.88 313.835C390.611 307.804 400.158 301.674 409.325 295.296C417.943 289.3 426.42 282.923 433.086 276.139C436.611 272.556 439.845 268.343 442.865 263.734C445.87 259.15 448.696 254.124 451.406 248.863C456.787 238.414 461.915 226.61 466.939 215.594C472.191 204.08 477.322 193.435 483.006 184.378C485.92 179.735 488.9 175.643 492.003 172.164C495.212 168.566 498.5 165.684 501.913 163.529C510.6 158.086 518.23 154.381 525.386 151.741C533.801 148.638 541.659 146.982 549.014 146.015C552.487 145.558 555.857 145.255 559.037 145.049C564.861 144.671 570.77 144.539 576.505 144.533C589.2 144.517 604.837 145.173 611.138 145.503C605.619 144.826 588.639 142.51 576.633 141.488C570.88 140.999 564.873 140.647 558.898 140.64C555.635 140.636 552.14 140.725 548.513 140.975C540.839 141.503 532.416 142.751 523.301 145.584C515.517 148.003 507.259 151.556 497.944 156.914C493.682 159.364 489.702 162.625 485.943 166.554C482.313 170.349 478.907 174.748 475.655 179.609C469.345 189.039 463.725 200.037 458.192 211.486C452.798 222.647 447.623 233.943 442.191 244.006C439.487 249.015 436.758 253.647 433.943 257.772C431.106 261.927 428.243 265.48 425.306 268.359C419.269 274.276 411.407 280.075 402.857 285.915C393.876 292.048 384.273 298.156 375.322 304.346C375.077 304.515 374.832 304.685 374.588 304.855C365.983 310.832 356.927 317.603 349.182 325.088C345.349 328.792 341.76 332.741 338.639 336.956C335.574 341.095 332.943 345.511 330.969 350.239C326.52 360.736 323.924 371 322.722 381.091C321.53 391.102 321.722 400.844 322.771 410.363C324.853 429.26 330.389 447.64 335.087 465.004C337.499 473.919 339.705 482.586 341.3 491.268C342.919 500.085 343.876 508.751 343.786 517.437C343.693 526.331 342.503 535.178 339.85 544.119C337.106 553.366 332.808 562.671 326.61 572.141C319.49 583.187 311.499 591.039 304.144 597.232C295.375 604.617 287.157 610.13 280.46 615.389C276.703 618.34 273.553 621.042 270.734 623.796C270.387 624.135 270.044 624.475 269.707 624.817C266.128 628.441 263.174 632.141 260.72 636.07C257.803 640.739 255.759 645.471 254.293 650.167C252.151 657.032 251.348 663.553 250.952 668.095Z"
     fill="#212121"
     id="path8" />
  <path
     opacity="0.3"
     d="M509.655 210.09C536.389 210.09 558.061 188.417 558.061 161.683C558.061 134.949 536.389 113.277 509.655 113.277C482.921 113.277 461.249 134.949 461.249 161.683C461.249 188.417 482.921 210.09 509.655 210.09Z"
     stroke="#393939"
     stroke-width="3.24069"
     stroke-linecap="round"
     stroke-linejoin="round"
     stroke-dasharray="32.41 16.2"
     id="path10" />
  <path
     d="M365.851 150.222C406.864 150.222 440.112 116.975 440.112 75.9613C440.112 34.948 406.864 1.70013 365.851 1.70013C324.838 1.70013 291.59 34.948 291.59 75.9613C291.59 116.975 324.838 150.222 365.851 150.222Z"
     stroke="#212121"
     stroke-width="1.69735"
     stroke-linecap="round"
     stroke-linejoin="round"
     stroke-dasharray="20.37 22.07"
     id="path12" />
  <path
     d="M365.851 138.363C400.347 138.363 428.312 110.398 428.312 75.9019C428.312 41.4055 400.347 13.4407 365.851 13.4407C331.355 13.4407 303.39 41.4055 303.39 75.9019C303.39 110.398 331.355 138.363 365.851 138.363Z"
     fill="#1C1C1C"
     id="path14" />
  <path
     d="M29.839 530.464C38.6817 523.747 51.441 515.417 65.7766 510.208C75.4555 506.692 85.1842 504.814 95.2245 504.923C103.063 505.008 110.806 506.29 119.021 508.658C119.541 508.808 120.066 508.964 120.595 509.125C128.214 511.442 135.926 514.62 145.577 519.051C158.69 525.071 181.249 536.688 204.401 542.5C215.495 545.285 228.085 547.223 242.292 547.14C255.744 547.061 270.644 545.175 287.221 540.493C293.292 539.555 301.498 537.958 310.684 535.499C319.436 533.157 329.421 529.941 339.501 525.589C349.357 521.333 359.666 515.837 369.124 508.723C378.637 501.568 387.603 492.537 394.244 481.196C407.12 459.293 415.487 438.961 421.083 419.768C421.364 418.806 421.639 417.84 421.91 416.87C427.592 396.5 430.763 375.645 433.076 352.317C434.89 332.786 436.416 317.353 439.181 303.549C442.028 289.336 446.104 277.414 452.804 265.819L452.693 265.96C469.643 242.947 486.583 227.05 502.414 215.244C520.943 201.426 539.492 192.154 555.09 185.274C562.484 182.014 569.738 179.074 576.119 176.552C588.824 171.531 598.763 167.703 609.673 163.079C636.474 151.72 650.574 143.001 661.867 135.503C649.267 140.929 633.975 145.56 606.058 151.904C596.14 154.158 582.829 157.062 570.811 160.134C564.033 161.867 556.226 163.967 548.108 166.463C531.145 171.68 509.678 179.525 487.503 193.017C468.408 204.636 447.715 221.03 426.973 245.583C426.957 245.602 426.94 245.623 426.923 245.643C426.907 245.664 426.892 245.682 426.88 245.697C426.869 245.712 426.861 245.722 426.858 245.727C426.855 245.732 426.856 245.731 426.863 245.724C414.69 258.431 405.335 272.897 398.077 290.58C391.323 307.032 386.803 325.264 383.002 345.164C378.776 367.49 374.97 384.925 370.055 402.317C369.824 403.133 369.592 403.944 369.359 404.751C364.77 420.638 358.852 437.839 349.539 457.128C347.453 462.003 343.933 467.093 338.637 472.376C333.372 477.629 326.875 482.55 319.628 487.155C312.286 491.82 304.573 495.91 297.344 499.499C289.782 503.252 282.88 506.406 277.375 509.111C263.788 513.89 251.77 516.298 241.015 517.251C229.63 518.259 219.279 517.666 209.749 516.249C189.16 513.187 168.312 505.271 152.775 500.346C142.215 496.999 133.172 494.584 124.177 493.169C123.55 493.071 122.927 492.978 122.309 492.89C112.479 491.501 103.238 491.541 94.2216 493.056C82.7725 494.979 72.5046 499.155 63.1279 504.548C49.3665 512.462 37.7247 522.95 29.839 530.464Z"
     fill="#262626"
     id="path16" />
  <path
     d="M151.334 596.252C154.1 589.884 160.195 575.018 168.38 557.652C170.522 553.108 173.136 547.817 176.137 542.371C180.332 534.756 185.538 526.36 191.956 518.428C197.57 511.491 204.179 504.816 212.125 499.056C219.861 493.271 228.253 488.765 237.254 485.232C246.06 481.775 255.377 479.279 265.144 477.408C284.551 473.691 304.937 472.574 325.866 470.976C346.888 469.37 367.597 467.317 386.92 461.661C396.86 458.751 406.307 454.922 415.146 449.812C424.312 444.512 432.658 437.929 440.118 429.812C440.214 429.707 440.311 429.602 440.407 429.497C446.741 422.547 452.04 414.751 456.504 406.11C460.808 397.775 464.257 388.811 467.144 379.254C472.704 360.843 475.934 341.136 479.521 320.294C482.997 300.094 486.681 279.729 493.036 260.228C499.486 240.435 508.511 222.108 522.281 205.856C540.443 184.18 554.927 169.258 566.336 155.79C574.445 146.218 580.446 138.282 585.348 131.063C585.42 130.957 585.491 130.851 585.563 130.745C594.496 117.531 599.96 105.617 602.89 99.654C599.08 105.38 591.538 115.469 581.47 127.69C581.47 127.69 581.231 127.98 581.231 127.98C575.64 134.76 569.521 141.761 560.852 150.867C548.855 163.47 533.699 177.751 514.66 199.296C499.57 216.571 489.684 236.055 482.653 256.773C475.767 277.06 471.754 298.134 468.113 318.281C464.303 339.366 461.082 358.215 455.703 375.775C452.941 384.793 449.725 393.042 445.821 400.587C441.781 408.392 437.071 415.309 431.529 421.428C431.445 421.521 431.36 421.614 431.276 421.707C424.678 428.926 417.318 434.807 409.187 439.6C401.329 444.232 392.806 447.817 383.619 450.633C365.599 456.157 345.989 458.461 324.966 460.45C304.376 462.399 283.29 463.987 263.288 468.301C253.139 470.49 243.339 473.364 234.019 477.299C224.481 481.327 215.568 486.416 207.376 492.883C199.13 499.579 192.516 507.138 187.095 514.738C180.902 523.42 176.078 532.433 172.307 540.415C169.602 546.138 167.288 551.661 165.411 556.362C159.942 570.056 152.057 594.154 151.334 596.252Z"
     fill="#292929"
     id="path18" />
  <path
     d="m 608.342,277.615 c 0,0 4.94034,25.67005 18.623,47.75 13.68266,22.07995 28.833,31.179 31.159,34.226"
     stroke="#1f1f1f"
     stroke-width="2.59603"
     stroke-linecap="round"
     id="path20"
     sodipodi:nodetypes="czc" />
  <path
     d="M671.167 302.938C671.167 302.938 671.967 293.139 674.289 289.02C676.62 284.883 684.558 279.209 684.558 279.209C684.558 279.209 682.702 287.421 680.738 291.063C678.319 295.548 671.167 302.938 671.167 302.938Z"
     fill="#262626"
     stroke="#262626"
     stroke-width="0.678043"
     stroke-linecap="round"
     stroke-linejoin="round"
     id="path22" />
  <path
     d="M671.167 302.938C671.167 302.938 674.881 293.919 678.003 290.306C682.13 285.529 693.171 278.989 693.171 278.989C693.171 278.989 689.079 289.722 685.304 293.836C681.512 297.966 671.167 302.938 671.167 302.938Z"
     fill="#212121"
     stroke="#212121"
     stroke-width="0.678043"
     id="path24" />
  <path
     d="M671.545 302.921C671.545 302.921 678.842 294.158 683.625 291.243C688.456 288.299 699.734 285.788 699.734 285.788C699.734 285.788 693.376 293.912 689.115 296.641C683.887 299.989 671.545 302.921 671.545 302.921Z"
     fill="#262626"
     stroke="#262626"
     stroke-width="0.678043"
     id="path26" />
  <path
     d="M671.212 303.05C671.212 303.05 682.318 297.032 688.398 295.492C693.362 294.234 703.753 294.219 703.753 294.219C703.753 294.219 693.837 301.951 687.886 303.472C682.528 304.841 671.212 303.05 671.212 303.05Z"
     fill="#212121"
     stroke="#212121"
     stroke-width="0.678043"
     id="path28" />
  <path
     d="M670.953 302.54C670.953 302.54 681.063 300.963 686.187 301.146C693.404 301.404 707.607 304.79 707.607 304.79C707.607 304.79 693.652 310.374 686.388 309.628C680.798 309.055 670.953 302.54 670.953 302.54Z"
     fill="#262626"
     stroke="#262626"
     stroke-width="0.678043"
     id="path30" />
  <path
     d="M670.886 302.677C670.886 302.677 681.206 305.546 686.287 307.462C692.656 309.865 704.984 315.727 704.984 315.727C704.984 315.727 690.069 317.988 683.411 315.115C677.986 312.774 670.886 302.677 670.886 302.677Z"
     fill="#212121"
     stroke="#212121"
     stroke-width="0.678043"
     id="path32" />
  <path
     d="M670.94 302.919C670.94 302.919 679.156 307.87 682.398 311.718C685.564 315.475 689.562 324.59 689.562 324.59C689.562 324.59 680.547 321.027 677.413 317.526C673.697 313.374 670.94 302.919 670.94 302.919Z"
     fill="#262626"
     stroke="#262626"
     stroke-width="0.678043"
     id="path34" />
  <path
     d="M670.904 302.696C670.904 302.696 678.349 310.108 678.958 315.402C679.392 319.175 675.128 326.016 675.128 326.016C675.128 326.016 670.033 318.136 669.226 313.662C668.52 309.746 670.904 302.696 670.904 302.696Z"
     fill="#212121"
     stroke="#212121"
     stroke-width="0.678043"
     id="path36" />
  <path
     d="M670.466 303.135C670.466 303.135 672.919 309.937 672.099 313.584C671.256 317.334 666.06 323.324 666.06 323.324C666.06 323.324 664.553 315.52 665.435 311.8C666.277 308.245 670.466 303.135 670.466 303.135Z"
     fill="#262626"
     stroke="#262626"
     stroke-width="0.678043"
     id="path38" />
  <path
     d="m 627.541,277.409 c 0,0 9.28499,11.009 20.583,17.196 11.29801,6.187 21.199,7.158 23.042,7.978"
     stroke="#1f1f1f"
     stroke-width="1.35603"
     stroke-linecap="round"
     id="path40"
     sodipodi:nodetypes="czc" />
  <path
     d="M582.031 329.028C582.031 329.028 593.715 326.811 599.317 328.188C604.942 329.57 614.307 336.979 614.307 336.979C614.307 336.979 604.102 337.458 599.18 336.344C593.119 334.972 582.031 329.028 582.031 329.028Z"
     fill="#262626"
     stroke="#262626"
     stroke-width="0.820735"
     stroke-linecap="round"
     stroke-linejoin="round"
     id="path42" />
  <path
     d="M582.031 329.028C582.031 329.028 593.82 330.451 599.111 332.92C606.107 336.185 617.557 346.924 617.557 346.924C617.557 346.924 603.642 345.614 597.541 342.544C591.415 339.462 582.031 329.028 582.031 329.028Z"
     fill="#212121"
     stroke="#212121"
     stroke-width="0.820735"
     id="path44" />
  <path
     d="M582.182 329.462C582.182 329.462 594.919 335.133 599.975 339.759C605.081 344.432 611.926 356.74 611.926 356.74C611.926 356.74 600.259 351.957 595.601 347.877C589.887 342.873 582.182 329.462 582.182 329.462Z"
     fill="#262626"
     stroke="#262626"
     stroke-width="0.820735"
     id="path46" />
  <path
     d="M581.916 329.117C581.916 329.117 592.783 340.099 596.689 346.675C599.879 352.043 603.51 364.123 603.51 364.123C603.51 364.123 591.061 355.074 587.223 348.643C583.766 342.851 581.916 329.117 581.916 329.117Z"
     fill="#212121"
     stroke="#212121"
     stroke-width="0.820735"
     id="path48" />
  <path
     d="M582.42 328.652C582.42 328.652 587.77 339.902 589.339 345.919C591.548 354.395 592.545 371.999 592.545 371.999C592.545 371.999 581.194 357.564 579.536 348.878C578.259 342.193 582.42 328.652 582.42 328.652Z"
     fill="#262626"
     stroke="#262626"
     stroke-width="0.820735"
     id="path50" />
  <path
     d="M582.237 328.617C582.237 328.617 582.486 341.541 582.022 348.065C581.44 356.243 578.903 372.462 578.903 372.462C578.903 372.462 571.086 355.843 572.114 347.178C572.952 340.117 582.237 328.617 582.237 328.617Z"
     fill="#212121"
     stroke="#212121"
     stroke-width="0.820735"
     id="path52" />
  <path
     d="M581.975 328.758C581.975 328.758 579.068 339.903 575.716 344.909C572.444 349.797 563.225 357.375 563.225 357.375C563.225 357.375 564.237 345.746 567.223 340.978C570.763 335.322 581.975 328.758 581.975 328.758Z"
     fill="#262626"
     stroke="#262626"
     stroke-width="0.820735"
     id="path54" />
  <path
     d="M582.222 328.644C582.222 328.644 576.183 339.683 570.232 342.092C565.991 343.809 556.546 341.047 556.546 341.047C556.546 341.047 563.947 332.591 568.874 330.215C573.186 328.137 582.222 328.644 582.222 328.644Z"
     fill="#212121"
     stroke="#212121"
     stroke-width="0.820735"
     id="path56" />
  <path
     d="M581.558 328.276C581.558 328.276 574.494 333.313 569.964 333.531C565.306 333.756 556.527 329.638 556.527 329.638C556.527 329.638 565.086 325.378 569.723 325.208C574.153 325.046 581.558 328.276 581.558 328.276Z"
     fill="#262626"
     stroke="#262626"
     stroke-width="0.820735"
     id="path58" />
  <path
     d="m 574.413,275.54 c 0,0 6.88767,7.89344 9.214,22.767 2.32633,14.87356 -0.87,25.063 -1.445,30.785"
     stroke="#1f1f1f"
     stroke-width="1.64147"
     stroke-linecap="round"
     id="path60"
     sodipodi:nodetypes="czc" />
  <path
     d="M91.7489 623.515C98.4357 611.404 117.405 579.466 137.432 549C138.481 547.403 139.563 545.772 140.676 544.112C152.727 526.127 168.293 504.847 186.11 486.488C199.83 472.351 214.361 460.469 229.68 452.271C243.216 445.027 256.753 440.977 270.702 440.078C291.755 438.015 312.75 432.428 332.802 424.792C352.602 417.252 371.201 407.821 387.617 398.175C404.491 388.26 419.105 378.089 430.452 369.406C436.45 364.815 441.63 360.569 445.904 356.852C448.598 354.509 450.961 352.351 452.99 350.402C454.341 349.104 455.586 347.856 456.717 346.666C462.978 340.127 469.498 334.313 476.583 329.115C483.396 324.117 490.794 319.639 499.177 315.538C516.46 307.082 536.147 301.094 559.036 295.293C588.761 288.234 619.544 284.209 644.012 279.683C653.486 277.93 661.455 276.309 669.015 274.661C699.445 268.029 718.053 260.054 729.361 254.475C724.164 256.098 716.044 258.407 705.339 260.423C694.423 262.478 682.166 263.988 667.665 264.792C660.254 265.202 652.078 265.333 642.774 265.198C618.418 264.846 588.167 261.951 555.013 262.639C531.59 262.661 506.836 263.478 483.131 269.349C471.191 272.306 459.538 276.524 448.308 282.457C436.537 288.675 425.747 296.507 416.011 305.961C415.267 306.649 414.268 307.582 413.258 308.525C411.681 309.997 409.794 311.753 407.581 313.775C404.077 316.977 399.765 320.839 394.733 325.153C385.178 333.342 372.933 343.238 358.786 353.221C345.011 362.941 329.69 372.559 313.56 380.706C297.225 388.956 280.645 395.401 264.341 399.145C244.231 403.549 226.704 412.476 211.305 424.114C194.115 437.105 179.535 453.515 167.096 470.547C150.912 492.705 137.556 517.088 127.783 536.619C126.868 538.446 125.982 540.238 125.124 541.99C108.507 575.926 96.7735 610.048 91.7489 623.515Z"
     fill="#2B2B2B"
     id="path62" />
  <path
     d="M86.2457 553.502C88.8375 551.845 93.3694 549.182 100.101 545.932C104.723 543.7 110.152 541.303 116.184 538.942C119.765 537.54 123.464 536.189 127.192 534.933C128.977 534.332 130.823 533.743 132.708 533.179C137.667 531.697 142.919 530.39 147.84 529.584C158.259 527.365 170.015 525.803 184.082 524.032C196.552 522.462 211.101 520.697 225.083 518.181C238.569 515.754 252.561 512.464 265.543 507.439C278.176 502.549 290.265 495.865 300.226 486.311C308.363 478.575 315.7 470.081 322.641 461.42C329.587 452.751 336.132 443.928 342.644 435.52C349.313 426.907 355.784 418.932 362.68 411.669C367.552 406.539 372.513 401.896 377.721 397.765C379.789 396.124 381.934 394.533 384.164 393.01C402.794 384.907 422.383 378.28 442.515 370.385C461.697 362.863 481.23 354.067 500.481 340.476L500.446 340.499C508.911 334.546 516.039 327.198 522.321 319.502C528.688 311.701 534.469 303.176 539.808 295.193C545.56 286.594 550.672 278.825 556.298 271.442C562.228 263.658 568.141 257.116 574.609 251.835C581.71 246.04 589.611 241.473 596.696 237.637C606.613 232.269 612.161 229.656 619.607 225.131C621.085 224.233 622.468 223.355 623.776 222.485C630.046 218.312 634.846 214.048 638.567 209.376C641.396 205.825 643.407 202.273 644.869 198.834C646.974 193.88 647.877 189.281 648.356 185.992C647.524 189.251 646.048 193.593 643.371 198.076C641.524 201.169 639.175 204.22 636.126 207.17C632.129 211.037 627.239 214.446 620.97 217.824C619.658 218.53 618.268 219.242 616.779 219.969C610.441 223.067 602.408 226.248 593.123 230.313C585.68 233.572 576.746 237.775 568.407 243.565C560.629 248.968 553.582 255.732 546.697 263.562C540.236 270.911 534.316 278.726 528.118 286.823C522.236 294.505 516.343 302.115 510.078 308.909C503.922 315.583 497.551 321.312 490.556 325.664C490.554 325.665 490.551 325.667 490.548 325.669C490.545 325.671 490.541 325.673 490.538 325.675C490.532 325.68 490.525 325.684 490.521 325.687C472.454 337.229 454.153 344.58 435.365 351.234C414.22 358.723 395.798 364.306 374.569 373.505C373.994 373.754 373.43 374.061 372.884 374.424C369.828 376.452 366.937 378.575 364.198 380.757C358.01 385.685 352.312 391.142 346.946 396.975C339.394 405.181 332.58 414.041 326.028 423.064C319.588 431.933 313.422 440.925 307.126 449.516C300.815 458.127 294.441 466.245 287.502 473.587C280.079 481.418 270.477 487.555 259.357 492.515C247.933 497.611 235.181 501.342 222.234 504.369C208.85 507.499 194.746 509.98 182.262 512.276C168.339 514.836 156.237 517.198 145.509 520.262C140.352 521.973 135.049 524.115 130.152 526.288C128.283 527.118 126.461 527.956 124.705 528.789C121.038 530.527 117.438 532.375 113.992 534.273C108.175 537.476 103.063 540.669 98.7637 543.636C92.4746 547.975 88.5422 551.396 86.2457 553.502Z"
     fill="#303030"
     id="path64" />
  <path
     opacity="0.7"
     d="M167.096 470.547C184.579 470.547 198.753 456.373 198.753 438.889C198.753 421.405 184.579 407.232 167.096 407.232C149.612 407.232 135.438 421.405 135.438 438.889C135.438 456.373 149.612 470.547 167.096 470.547Z"
     stroke="#2B2B2B"
     stroke-width="2.1194"
     stroke-linecap="round"
     stroke-linejoin="round"
     stroke-dasharray="21.19 10.6"
     id="path66" />
  <path
     d="M267.45 113.795L213.467 164.785C220.284 171.722 229.547 175.711 239.271 175.898C248.994 176.085 258.404 172.454 265.483 165.785C272.545 159.098 276.706 149.91 277.074 140.191C277.442 130.473 273.987 120.997 267.45 113.795Z"
     fill="#242424"
     id="path68" />
  <path
     d="M232.089 102.422L204.377 128.597M242.811 101.659L202.962 139.297M251.065 103.227L204.067 147.616M257.912 106.123L206.54 154.644M263.69 110.029L210.094 160.651M266.983 113.223C270.335 116.773 272.956 120.948 274.695 125.511C276.434 130.073 277.258 134.934 277.118 139.814C276.979 144.695 275.88 149.501 273.883 153.957C271.887 158.412 269.032 162.431 265.483 165.784C258.314 172.555 248.749 176.201 238.892 175.92C229.035 175.639 219.693 171.453 212.922 164.284C209.569 160.734 206.949 156.559 205.209 151.997C203.47 147.434 202.647 142.574 202.786 137.693C202.926 132.812 204.025 128.007 206.021 123.551C208.018 119.095 210.872 115.076 214.422 111.723C217.972 108.371 222.147 105.75 226.709 104.011C231.272 102.272 236.132 101.448 241.013 101.588C245.894 101.727 250.699 102.826 255.155 104.823C259.611 106.819 263.63 109.674 266.983 113.223Z"
     stroke="#242424"
     stroke-width="3.02169"
     stroke-linecap="round"
     stroke-linejoin="round"
     id="path70" />
  <path
     d="M145.647 267.666L122.268 241.747C118.935 244.876 116.96 249.186 116.767 253.753C116.575 258.321 118.179 262.782 121.237 266.18C124.303 269.571 128.575 271.626 133.138 271.904C137.702 272.182 142.192 270.661 145.647 267.666Z"
     fill="#242424"
     id="path72" />
  <path
     d="M151.373 251.172L139.372 237.867M151.616 256.219L134.359 237.086M150.79 260.081L130.438 237.516M149.355 263.267L127.109 238.602M147.457 265.94L124.247 240.207M145.92 267.453C144.216 268.99 142.226 270.177 140.063 270.944C137.9 271.712 135.607 272.047 133.315 271.929C131.023 271.811 128.777 271.242 126.704 270.256C124.632 269.269 122.774 267.885 121.237 266.18C118.132 262.738 116.522 258.204 116.761 253.575C117 248.946 119.067 244.601 122.509 241.497C124.214 239.96 126.204 238.773 128.367 238.005C130.53 237.237 132.823 236.903 135.115 237.021C137.407 237.139 139.653 237.708 141.726 238.694C143.798 239.68 145.656 241.065 147.193 242.769C148.73 244.474 149.917 246.464 150.684 248.627C151.452 250.79 151.787 253.083 151.669 255.375C151.551 257.667 150.982 259.913 149.996 261.986C149.009 264.058 147.625 265.916 145.92 267.453Z"
     stroke="#242424"
     stroke-width="1.42035"
     stroke-linecap="round"
     stroke-linejoin="round"
     id="path74" />
  <path
     opacity="0.7"
     d="M383.74 478.17C406.059 478.17 424.152 460.077 424.152 437.757C424.152 415.438 406.059 397.344 383.74 397.344C361.42 397.344 343.327 415.438 343.327 437.757C343.327 460.077 361.42 478.17 383.74 478.17Z"
     stroke="#2E2E2E"
     stroke-width="2.70555"
     stroke-linecap="round"
     stroke-linejoin="round"
     stroke-dasharray="27.06 13.53"
     id="path76" />
  <path
     d="M167.722 684.438C170.119 679.048 175.73 668.438 185.349 654.95C187.152 652.422 189.212 649.669 191.586 646.687C199.389 636.885 208.171 627.518 221.157 614.7C229.912 606.059 242.532 593.993 252.938 582.758C262.86 572.044 273.226 559.587 282.046 544.974C295.246 523.976 305.449 504.659 315.555 489.277C320.78 481.323 325.859 474.512 331.391 468.229C336.305 462.648 341.498 457.579 347.194 452.751C348.19 451.906 349.22 451.054 350.288 450.195C368.003 437.82 385 426.585 400.988 415.563C416.083 405.157 430.644 394.648 443.769 383.15C456.834 371.703 468.531 359.245 478.83 344.324C489.307 329.145 497.855 312.112 505.043 292.176L504.95 292.402C512.396 272.559 518.138 251.11 522.953 231.419C528.483 208.807 533.155 187.384 537.763 168.76C544.125 143.048 549.482 125.606 555.068 110.648C555.38 109.813 555.688 108.997 555.992 108.201C565.659 82.916 573.661 68.3593 579.013 61.0174C572.259 66.2823 557.42 77.475 543.127 102.009C542.674 102.788 542.215 103.587 541.751 104.407C533.569 118.874 525.464 136.875 516.269 162.204C509.556 180.697 502.806 201.821 495.463 223.414C488.991 242.445 481.954 261.937 473.772 279.324C473.759 279.355 473.742 279.392 473.726 279.43C473.71 279.467 473.695 279.502 473.684 279.529C473.673 279.556 473.666 279.573 473.665 279.576C473.665 279.58 473.67 279.57 473.68 279.549C466.001 296.552 457.586 310.12 448.252 321.562C439.117 332.76 428.947 342.143 417.29 351.17C405.347 360.419 391.877 369.268 376.645 379.112C360.065 389.826 343.208 400.579 324.074 414C323.673 414.281 323.293 414.566 322.934 414.854C321.236 416.215 319.606 417.582 318.038 418.951C310.347 425.671 303.562 433.038 297.532 441.14C290.792 450.197 285.347 459.694 280.533 469.678C271.21 489.013 264.498 509.387 255.319 530.905C249.488 544.139 242.06 556.265 234.202 567.713C226.099 579.518 215.517 593.35 208.112 603.456C197.134 618.441 189.63 629.8 183.379 641.266C181.469 644.77 179.846 647.984 178.453 650.912C171.024 666.538 168.839 678.812 167.722 684.438Z"
     fill="#363636"
     id="path78" />
  <path
     d="M48.6027 417.57C48.7394 419.024 49.4484 420.365 50.5736 421.297C51.6988 422.229 53.1481 422.675 54.6027 422.538H67.0421C67.83 422.538 68.6103 422.694 69.3382 422.995C70.0662 423.297 70.7276 423.739 71.2848 424.296C71.8419 424.853 72.2839 425.514 72.5854 426.242C72.8869 426.97 73.0421 427.751 73.0421 428.538C72.8795 429.967 72.1559 431.273 71.0307 432.168C69.9055 433.063 68.4708 433.475 67.0421 433.312H33.5304C31.9391 433.312 30.413 433.944 29.2878 435.069C28.1625 436.194 27.5304 437.721 27.5304 439.312C27.6671 440.766 28.3761 442.107 29.5013 443.039C30.6265 443.971 32.0758 444.417 33.5304 444.281H50.4874C51.2754 444.281 52.0556 444.436 52.7835 444.737C53.5115 445.039 54.1729 445.481 54.7301 446.038C55.2872 446.595 55.7292 447.257 56.0307 447.984C56.3322 448.712 56.4874 449.493 56.4874 450.281C56.3507 451.735 55.6417 453.076 54.5165 454.008C53.3913 454.939 51.942 455.386 50.4874 455.249H44.0089C43.221 455.249 42.4408 455.405 41.7128 455.706C40.9848 456.008 40.3234 456.45 39.7663 457.007C39.2091 457.564 38.7672 458.225 38.4656 458.953C38.1641 459.681 38.0089 460.461 38.0089 461.249C38.0765 461.97 38.2853 462.67 38.6234 463.309C38.9615 463.949 39.4223 464.516 39.9794 464.977C40.5366 465.439 41.1792 465.786 41.8706 465.999C42.562 466.213 43.2886 466.288 44.0089 466.22H124.286C125.074 466.22 125.854 466.065 126.582 465.763C127.31 465.462 127.972 465.02 128.529 464.463C129.086 463.906 129.528 463.244 129.83 462.516C130.131 461.788 130.286 461.008 130.286 460.22C130.219 459.5 130.01 458.8 129.672 458.16C129.334 457.52 128.873 456.954 128.316 456.492C127.759 456.03 127.116 455.683 126.425 455.47C125.733 455.257 125.007 455.182 124.286 455.249H80.8507C80.0628 455.249 79.2826 455.094 78.5546 454.793C77.8267 454.491 77.1652 454.049 76.6081 453.492C76.0509 452.935 75.609 452.273 75.3074 451.545C75.0059 450.818 74.8507 450.037 74.8507 449.249C74.9875 447.795 75.6964 446.454 76.8216 445.522C77.9469 444.591 79.3962 444.144 80.8507 444.281H105.808C107.399 444.281 108.925 443.648 110.05 442.523C111.176 441.398 111.808 439.872 111.808 438.281C111.671 436.826 110.962 435.485 109.837 434.554C108.712 433.622 107.262 433.175 105.808 433.312C105.027 433.305 104.255 433.144 103.537 432.838C102.818 432.533 102.167 432.089 101.62 431.532C101.073 430.975 100.641 430.315 100.349 429.591C100.057 428.867 99.9099 428.093 99.9171 427.312C100.08 425.883 100.803 424.578 101.928 423.682C103.054 422.787 104.488 422.376 105.917 422.538H117.978C119.569 422.538 121.095 421.906 122.22 420.781C123.346 419.656 123.978 418.13 123.978 416.538C123.841 415.084 123.132 413.743 122.007 412.811C120.881 411.88 119.432 411.433 117.978 411.57H54.6027C53.0114 411.57 51.4852 412.202 50.36 413.327C49.2348 414.452 48.6027 415.978 48.6027 417.57Z"
     fill="#1C1C1C"
     id="path80" />
  <path
     d="M105.917 422.538C137.93 422.538 163.881 396.587 163.881 364.575C163.881 332.562 137.93 306.611 105.917 306.611C73.9047 306.611 47.9535 332.562 47.9535 364.575C47.9535 396.587 73.9047 422.538 105.917 422.538Z"
     fill="#1F1F1F"
     id="path82" />
  <path
     d="M105.917 410.946C131.527 410.946 152.288 390.185 152.288 364.575C152.288 338.965 131.527 318.204 105.917 318.204C80.3072 318.204 59.5463 338.965 59.5463 364.575C59.5463 390.185 80.3072 410.946 105.917 410.946Z"
     fill="#212121"
     id="path84" />
  <path
     d="M105.917 400.296C86.7097 400.296 71.139 384.725 71.139 365.518C71.139 346.31 86.7097 330.739 105.917 330.739C125.125 330.739 140.695 346.31 140.695 365.518C140.695 384.725 125.125 400.296 105.917 400.296Z"
     fill="#242424"
     id="path86" />
  <path
     d="M198.93 198.879C198.93 198.879 159.01 181.471 137.775 180.98C115.541 180.465 91.0432 183.816 72.9444 196.74C58.4513 207.089 52.6418 236.292 52.6418 236.292C52.6418 236.292 77.2536 225.34 93.5167 221.583C116.317 216.316 138.85 223.181 161.286 216.531C174.574 212.592 198.93 198.879 198.93 198.879Z"
     fill="#1F1F1F"
     id="path88" />
  <path
     d="M213.467 214.056C213.467 214.056 189.445 197.193 177.55 188.6C163.009 178.095 149.922 165.357 134.215 156.692C119.87 148.778 88.4544 138.754 88.4544 138.754C88.4544 138.754 83.2081 162.695 86.2457 174.104C89.6406 186.856 97.5914 199.088 108.033 207.156C123.171 218.853 143.266 224.627 162.37 225.631C179.81 226.547 213.467 214.056 213.467 214.056Z"
     fill="#212121"
     id="path90" />
  <path
     d="M228.472 204.778C228.472 204.778 196.65 184.51 190.107 168.063C178.815 139.677 195.41 82.1876 195.41 82.1876C195.41 82.1876 166.111 97.8225 156.873 112.593C146.583 129.046 137.112 148.769 139.195 168.063C140.789 182.825 148.508 199.394 161.469 206.638C180.972 217.54 228.472 204.778 228.472 204.778Z"
     fill="#2A2A2A"
     id="path92" />
  <path
     d="M214.979 201.989C214.979 201.989 189.268 202.6 178.379 208.516C167.239 214.568 152.398 236.292 152.398 236.292C152.398 236.292 180.886 237.434 192.606 230.667C203.106 224.605 214.979 201.989 214.979 201.989Z"
     fill="#242424"
     id="path94" />
  <path
     d="M215.915 198.407C215.915 198.407 186.114 220.314 178.257 236.292C170.811 251.432 171.61 286.469 171.61 286.469C171.61 286.469 201.589 267.359 209.401 252.272C217.718 236.212 215.915 198.407 215.915 198.407Z"
     fill="#262626"
     id="path96" />
  <path
     d="M170.406 303.93C170.543 305.384 171.251 306.725 172.377 307.657C173.502 308.589 174.951 309.035 176.406 308.899H185.927C186.715 308.899 187.495 309.054 188.223 309.355C188.951 309.657 189.613 310.099 190.17 310.656C190.727 311.213 191.169 311.875 191.471 312.602C191.772 313.33 191.927 314.111 191.927 314.899C191.847 315.606 191.628 316.291 191.283 316.914C190.938 317.537 190.473 318.085 189.916 318.529C189.359 318.972 188.72 319.302 188.036 319.498C187.351 319.695 186.635 319.754 185.927 319.674H138.972C137.381 319.674 135.855 320.306 134.73 321.431C133.604 322.557 132.972 324.083 132.972 325.674C133.109 327.129 133.818 328.469 134.943 329.401C136.068 330.333 137.518 330.779 138.972 330.643H149.787C150.575 330.643 151.355 330.798 152.083 331.099C152.811 331.401 153.472 331.843 154.029 332.4C154.586 332.957 155.028 333.619 155.33 334.347C155.631 335.075 155.787 335.855 155.787 336.643C155.65 338.097 154.941 339.438 153.816 340.37C152.69 341.302 151.241 341.748 149.787 341.611C149.079 341.692 148.394 341.911 147.771 342.256C147.149 342.601 146.6 343.065 146.156 343.622C145.713 344.18 145.383 344.819 145.187 345.503C144.991 346.188 144.931 346.904 145.011 347.611C145.148 349.066 145.857 350.407 146.982 351.339C148.107 352.27 149.557 352.717 151.011 352.58H178.593C179.381 352.58 180.161 352.735 180.889 353.037C181.617 353.338 182.279 353.78 182.836 354.338C183.393 354.895 183.835 355.556 184.137 356.284C184.438 357.012 184.593 357.792 184.593 358.58C184.73 360.035 185.439 361.375 186.564 362.307C187.689 363.239 189.139 363.686 190.593 363.549H225.593C227.185 363.549 228.711 362.917 229.836 361.792C230.961 360.666 231.593 359.14 231.593 357.549C231.73 356.094 232.439 354.754 233.564 353.822C234.689 352.89 236.139 352.443 237.593 352.58H248.843C249.631 352.58 250.411 352.425 251.139 352.124C251.867 351.822 252.529 351.38 253.086 350.823C253.643 350.266 254.085 349.604 254.387 348.876C254.688 348.148 254.843 347.368 254.843 346.58C254.707 345.126 253.998 343.785 252.872 342.853C251.747 341.921 250.298 341.475 248.843 341.611H215.355C213.764 341.611 212.238 340.979 211.112 339.854C209.987 338.729 209.355 337.203 209.355 335.611C209.492 334.157 210.201 332.816 211.326 331.884C212.451 330.953 213.9 330.506 215.355 330.643H230.216C231.808 330.643 233.334 330.011 234.459 328.885C235.584 327.76 236.216 326.234 236.216 324.643C236.08 323.188 235.371 321.848 234.245 320.916C233.12 319.984 231.671 319.537 230.216 319.674H227.464C226.676 319.674 225.896 319.519 225.168 319.217C224.44 318.916 223.779 318.474 223.222 317.917C222.665 317.359 222.223 316.698 221.921 315.97C221.62 315.242 221.464 314.462 221.464 313.674C221.545 312.966 221.764 312.282 222.109 311.659C222.454 311.036 222.918 310.487 223.475 310.044C224.032 309.6 224.672 309.271 225.356 309.074C226.04 308.878 226.757 308.818 227.464 308.899H245.003C246.595 308.899 248.121 308.266 249.246 307.141C250.371 306.016 251.003 304.49 251.003 302.899C250.867 301.444 250.158 300.103 249.032 299.172C247.907 298.24 246.458 297.793 245.003 297.93H176.406C174.814 297.93 173.288 298.562 172.163 299.687C171.038 300.812 170.406 302.339 170.406 303.93ZM102.515 314.703C102.583 315.424 102.792 316.124 103.13 316.763C103.468 317.403 103.929 317.97 104.486 318.431C105.043 318.893 105.685 319.24 106.377 319.453C107.068 319.667 107.795 319.742 108.515 319.674H113.929C115.52 319.674 117.047 319.042 118.172 317.917C119.297 316.791 119.929 315.265 119.929 313.674C119.862 312.954 119.653 312.254 119.315 311.614C118.977 310.974 118.516 310.408 117.959 309.946C117.402 309.484 116.759 309.137 116.068 308.924C115.376 308.711 114.65 308.636 113.929 308.703H108.515C107.727 308.703 106.947 308.858 106.219 309.16C105.491 309.462 104.83 309.903 104.273 310.461C103.715 311.018 103.273 311.679 102.972 312.407C102.67 313.135 102.515 313.915 102.515 314.703ZM257.988 325.674C258.125 327.129 258.834 328.469 259.959 329.401C261.084 330.333 262.533 330.779 263.988 330.643H265.666C267.257 330.643 268.783 330.011 269.908 328.885C271.033 327.76 271.666 326.234 271.666 324.643C271.529 323.188 270.82 321.848 269.695 320.916C268.569 319.984 267.12 319.537 265.666 319.674H263.988C262.396 319.674 260.87 320.306 259.745 321.431C258.62 322.557 257.988 324.083 257.988 325.674Z"
     fill="#272727"
     id="path98" />
  <path
     d="M349.848 293.409C343.736 285.983 335.753 273.8 336.021 261.068C336.137 255.576 339.612 246.999 343.216 242.847C350.551 234.395 361.846 230.046 369.932 227.894C375.264 226.475 376.037 223.424 371.35 220.502C356.636 211.329 325.858 193.947 306.166 195.516C300.715 195.95 292.859 200.771 288.708 204.405C275.299 216.146 265.11 234.079 263.854 251.453C263.457 256.951 264.881 266.148 268.29 270.409C282.253 287.857 326.735 296.375 346.737 299.401C352.197 300.227 353.355 297.671 349.848 293.409Z"
     fill="#1F1F1F"
     id="path100" />
  <path
     d="M314.375 171.808C297.978 175.083 279.744 179.114 268.059 191.075C253.744 205.728 243.85 227.957 245.786 248.351C247.733 268.869 278.635 300.734 278.635 300.734C278.635 300.734 287.107 254.587 296.556 233.353C306.51 210.984 336.649 171.808 336.649 171.808C336.649 171.808 321.656 170.354 314.375 171.808Z"
     fill="#242424"
     id="path102" />
  <path
     d="M264.877 180.93C251.357 186.189 236.773 192.881 228.472 204.778C222.343 213.563 219.184 225.57 221.225 236.085C224.319 252.03 249.173 276.001 249.173 276.001C249.173 276.001 257.949 239.302 265.86 222.313C273.62 205.653 295.629 175.905 295.629 175.905C295.629 175.905 274.558 177.165 264.877 180.93Z"
     fill="#292929"
     id="path104" />
  <path
     d="M355.49 703.404L356.964 707.129C357.167 707.642 357.107 708.446 356.844 708.931C356.133 710.243 354.84 712.781 354.335 714.767C354.199 715.302 354.104 716.194 354.088 716.746C354.023 719.079 354.34 722.95 355.023 725.15C355.187 725.677 355.591 726.479 355.878 726.951C358.08 730.566 363.293 736.281 365.165 738.292C365.541 738.696 366.062 738.627 366.304 738.131C367.289 736.115 369.61 730.993 370.583 726.084C370.69 725.542 370.833 724.658 370.895 724.109C371.335 720.209 370.633 716.741 369.31 714.146C369.059 713.654 368.588 712.886 368.209 712.485C366.019 710.169 361.06 708.591 358.961 708.004C358.43 707.855 357.781 707.356 357.516 706.871L355.601 703.353C355.593 703.339 355.581 703.329 355.566 703.324C355.551 703.319 355.535 703.32 355.521 703.327C355.507 703.333 355.496 703.345 355.49 703.359C355.485 703.374 355.485 703.39 355.49 703.404Z"
     fill="#2B2B2B"
     stroke="#2B2B2B"
     id="path106" />
  <path
     d="M349.428 684.542L353.653 685.783C354.183 685.938 354.738 686.494 354.907 687.02C355.397 688.543 356.449 691.536 357.673 693.368C357.979 693.826 358.587 694.487 358.994 694.86C360.809 696.52 364.206 698.918 366.498 699.784C367.014 699.979 367.897 700.146 368.446 700.205C373.054 700.703 381.859 699.855 384.812 699.541C385.361 699.483 385.667 699.006 385.475 698.489C384.649 696.273 382.331 690.596 379.124 686.333C378.792 685.892 378.226 685.197 377.856 684.787C375.061 681.691 371.714 679.952 368.595 679.393C368.052 679.296 367.156 679.207 366.607 679.261C362.991 679.614 357.682 683.217 355.68 684.662C355.232 684.985 354.434 685.188 353.888 685.103L349.457 684.414C349.44 684.411 349.423 684.415 349.409 684.425C349.396 684.434 349.386 684.448 349.382 684.465C349.379 684.481 349.381 684.498 349.39 684.512C349.398 684.527 349.412 684.537 349.428 684.542Z"
     fill="#2B2B2B"
     stroke="#2B2B2B"
     stroke-width="1.1136"
     id="path108" />
  <path
     d="M268.104 620.181L264.244 619.821C263.694 619.77 262.954 619.391 262.576 618.988C261.541 617.883 259.491 615.826 257.697 614.837C257.214 614.571 256.36 614.29 255.823 614.162C253.293 613.557 248.364 612.894 245.802 613.075C245.252 613.114 244.38 613.334 243.863 613.528C239.999 614.978 234.1 619.274 231.978 620.869C231.537 621.201 231.549 621.733 232.01 622.036C233.818 623.228 238.326 626.057 242.881 627.972C243.39 628.186 244.224 628.516 244.752 628.677C248.456 629.806 251.903 629.023 254.701 628.109C255.226 627.937 256.074 627.643 256.563 627.386C259.202 625.995 261.739 622.776 262.839 621.26C263.162 620.814 263.858 620.428 264.41 620.412L268.101 620.304C268.116 620.303 268.131 620.297 268.142 620.286C268.153 620.275 268.16 620.26 268.16 620.244C268.161 620.229 268.155 620.214 268.145 620.202C268.135 620.19 268.12 620.183 268.104 620.181Z"
     fill="#2B2B2B"
     stroke="#2B2B2B"
     id="path110" />
  <path
     d="M335.474 631.111L332.419 628.574C331.994 628.221 331.503 627.512 331.309 626.995C330.75 625.503 329.575 622.584 328.335 620.829C328.017 620.379 327.392 619.733 326.974 619.373C325.225 617.864 322.068 615.777 319.95 615.064C319.428 614.888 318.534 614.779 317.982 614.775C313.752 614.748 305.768 616.771 303.013 617.506C302.479 617.648 302.272 618.155 302.56 618.626C303.699 620.489 306.597 625.049 309.801 628.918C310.161 629.353 310.757 630.05 311.155 630.451C313.87 633.191 316.979 634.088 319.789 634.301C320.353 634.344 321.273 634.363 321.829 634.265C324.929 633.717 329.015 630.722 330.699 629.4C331.133 629.06 331.855 629.01 332.324 629.302L335.395 631.22C335.41 631.229 335.427 631.232 335.444 631.229C335.461 631.226 335.476 631.216 335.486 631.202C335.496 631.189 335.5 631.171 335.498 631.154C335.496 631.137 335.487 631.122 335.474 631.111Z"
     fill="#2B2B2B"
     stroke="#2B2B2B"
     stroke-width="1.06589"
     id="path112" />
  <path
     d="M327.517 636.461L327.462 637.936C327.442 638.488 327.122 639.265 326.761 639.683C325.961 640.61 324.631 642.241 323.883 643.649C323.624 644.136 323.336 644.987 323.206 645.523C322.764 647.352 322.365 650.27 322.477 652.123C322.511 652.673 322.728 653.545 322.89 654.073C323.876 657.297 326.022 662.479 326.905 664.571C327.12 665.08 327.633 665.195 328.028 664.81C329.538 663.34 333.006 659.704 334.781 656.002C335.019 655.504 335.351 654.672 335.526 654.148C336.504 651.217 336.571 648.425 336.027 646.166C335.898 645.629 335.603 644.776 335.305 644.313C333.931 642.174 330.522 640.148 328.9 639.266C328.416 639.003 327.954 638.362 327.878 637.815L327.69 636.452C327.687 636.43 327.676 636.411 327.659 636.397C327.643 636.383 327.621 636.376 327.599 636.377C327.577 636.378 327.557 636.387 327.541 636.403C327.526 636.418 327.517 636.439 327.517 636.461Z"
     fill="#2B2B2B"
     stroke="#2B2B2B"
     stroke-width="0.825877"
     id="path114" />
  <path
     d="M471.118 558.936L473.849 557.452C474.334 557.188 475.158 557.098 475.693 557.236C477.143 557.609 479.928 558.25 481.935 558.242C482.486 558.24 483.373 558.095 483.907 557.957C486.056 557.4 489.426 556.071 491.197 554.805C491.645 554.484 492.262 553.83 492.62 553.41C495.203 550.373 499.082 544.611 500.507 542.463C500.812 542.003 500.643 541.46 500.122 541.276C497.787 540.452 491.527 538.479 486.494 538.683C485.942 538.706 485.051 538.799 484.506 538.886C480.804 539.477 477.9 541.099 476.004 543.119C475.626 543.521 475.073 544.234 474.842 544.735C473.511 547.615 473.875 553.135 474.094 555.388C474.148 555.937 473.849 556.653 473.41 556.989L471.034 558.806C471.019 558.818 471.008 558.835 471.005 558.855C471.001 558.874 471.006 558.894 471.016 558.91C471.027 558.926 471.043 558.938 471.062 558.943C471.081 558.948 471.101 558.945 471.118 558.936Z"
     fill="#2B2B2B"
     stroke="#2B2B2B"
     stroke-width="1.01524"
     id="path116" />
  <path
     d="M418.977 630.029L420.354 630.843C420.83 631.124 421.359 631.776 421.553 632.293C421.994 633.468 422.819 635.491 423.735 636.861C424.041 637.319 424.653 637.977 425.062 638.347C426.511 639.655 429.006 641.483 430.762 642.294C431.263 642.526 432.132 642.753 432.672 642.866C436.12 643.587 442.007 644.242 444.34 644.486C444.889 644.544 445.236 644.151 445.089 643.619C444.515 641.554 442.948 636.629 440.455 633.206C440.13 632.76 439.556 632.072 439.178 631.669C436.987 629.324 434.454 627.875 432.104 627.247C431.571 627.104 430.681 626.952 430.131 626.983C427.47 627.133 423.848 629.21 422.232 630.219C421.765 630.511 420.976 630.603 420.459 630.408L419.052 629.875C419.031 629.867 419.009 629.867 418.989 629.875C418.969 629.883 418.953 629.899 418.944 629.918C418.934 629.937 418.933 629.96 418.939 629.98C418.945 630.001 418.959 630.018 418.977 630.029Z"
     fill="#2B2B2B"
     stroke="#2B2B2B"
     stroke-width="0.850764"
     id="path118" />
  <path
     d="M516.559 583.582L516.518 585.154C516.503 585.706 516.201 586.494 515.857 586.926C515.098 587.876 513.845 589.539 513.146 590.977C512.905 591.473 512.642 592.332 512.524 592.871C512.115 594.756 511.754 597.787 511.883 599.699C511.92 600.249 512.13 601.123 512.284 601.653C513.253 604.987 515.367 610.386 516.225 612.537C516.429 613.05 516.922 613.156 517.303 612.757C518.739 611.249 522.009 607.548 523.665 603.767C523.886 603.261 524.192 602.418 524.352 601.89C525.268 598.869 525.306 595.982 524.76 593.645C524.634 593.107 524.354 592.25 524.071 591.777C522.753 589.567 519.488 587.449 517.921 586.519C517.447 586.238 516.994 585.582 516.919 585.035L516.72 583.573C516.717 583.553 516.707 583.534 516.691 583.521C516.675 583.508 516.655 583.502 516.635 583.503C516.615 583.504 516.596 583.513 516.582 583.527C516.567 583.542 516.559 583.561 516.559 583.582Z"
     fill="#2B2B2B"
     stroke="#2B2B2B"
     stroke-width="0.81832"
     id="path120" />
  <path
     d="M257.403 633.037L256.938 634.438C256.764 634.962 256.24 635.619 255.777 635.919C254.749 636.586 253.017 637.781 251.905 638.923C251.521 639.318 251.006 640.055 250.732 640.534C249.796 642.166 248.598 644.856 248.188 646.667C248.066 647.205 248.032 648.104 248.086 648.653C248.428 652.151 250.671 658.245 251.562 660.562C251.76 661.077 252.25 661.184 252.641 660.794C253.886 659.552 256.548 656.809 258.938 653.846C259.284 653.417 259.837 652.711 260.151 652.257C261.909 649.717 262.753 647.055 262.862 644.733C262.888 644.182 262.843 643.28 262.687 642.752C261.965 640.315 259.258 637.417 257.947 636.117C257.556 635.729 257.292 634.984 257.372 634.438L257.572 633.077C257.575 633.055 257.57 633.033 257.558 633.015C257.546 632.997 257.527 632.984 257.506 632.979C257.485 632.974 257.462 632.977 257.443 632.988C257.424 632.998 257.41 633.016 257.403 633.037Z"
     fill="#2B2B2B"
     stroke="#2B2B2B"
     stroke-width="0.825877"
     id="path122" />
  <path
     d="M463.992 638.471L465.683 639.092C466.201 639.282 466.832 639.832 467.105 640.312C467.817 641.565 469.204 643.872 470.515 645.269C470.892 645.672 471.599 646.226 472.062 646.526C473.837 647.68 476.875 649.194 478.871 649.668C479.408 649.795 480.308 649.826 480.857 649.766C484.685 649.347 491.509 646.46 493.964 645.377C494.469 645.155 494.587 644.627 494.222 644.213C492.922 642.741 489.852 639.37 486.539 636.38C486.129 636.01 485.456 635.419 485.022 635.077C482.221 632.874 479.269 631.842 476.704 631.744C476.153 631.723 475.251 631.78 474.726 631.949C471.996 632.827 468.688 636.362 467.314 637.937C466.951 638.353 466.226 638.63 465.681 638.544L464.041 638.283C464.017 638.28 463.993 638.285 463.972 638.298C463.952 638.311 463.937 638.332 463.931 638.355C463.925 638.379 463.928 638.404 463.939 638.425C463.951 638.447 463.969 638.463 463.992 638.471Z"
     fill="#2B2B2B"
     stroke="#2B2B2B"
     stroke-width="0.949821"
     id="path124" />
  <path
     d="M419.395 658.101L419.442 659.139C419.467 659.691 419.216 660.495 418.9 660.948C418.329 661.765 417.476 663.068 416.98 664.221C416.762 664.727 416.557 665.602 416.482 666.149C416.267 667.723 416.157 670.102 416.351 671.675C416.419 672.222 416.691 673.081 416.943 673.571C418.391 676.387 422.421 680.81 424.043 682.536C424.421 682.938 424.817 682.821 424.93 682.28C425.234 680.819 425.868 677.922 426.68 674.973C426.826 674.44 427.078 673.581 427.197 673.041C427.743 670.556 427.614 668.213 427.052 666.312C426.895 665.783 426.552 664.947 426.227 664.503C424.964 662.773 422.258 661.198 420.851 660.456C420.364 660.198 419.868 659.569 419.754 659.029L419.555 658.08C419.551 658.06 419.539 658.043 419.523 658.031C419.506 658.019 419.486 658.014 419.466 658.017C419.445 658.019 419.427 658.029 419.414 658.045C419.401 658.06 419.394 658.08 419.395 658.101Z"
     fill="#2B2B2B"
     stroke="#2B2B2B"
     stroke-width="0.698335"
     id="path126" />
  <path
     d="M344.725 675.913L340.417 679.569C339.995 679.926 339.217 680.117 338.676 680.007C336.76 679.616 332.445 678.834 329.509 679.037C328.958 679.075 328.076 679.233 327.536 679.349C323.792 680.154 320.006 681.723 317.21 684.289C316.803 684.662 316.185 685.313 315.847 685.749C312.926 689.52 310.738 697.079 310.027 699.755C309.885 700.288 310.221 700.791 310.769 700.865C314.165 701.321 325.446 702.548 331.018 699.643C331.507 699.388 332.249 698.88 332.659 698.51C336.81 694.764 339.393 685.164 340.137 682.074C340.267 681.537 340.657 680.764 341.021 680.349L344.828 676.018C344.84 676.004 344.846 675.986 344.846 675.967C344.845 675.949 344.838 675.931 344.825 675.918C344.812 675.905 344.794 675.897 344.776 675.896C344.757 675.895 344.739 675.901 344.725 675.913Z"
     fill="#2B2B2B"
     stroke="#2B2B2B"
     id="path128" />
  <path
     d="M417.237 640.379L413.285 643.748C412.865 644.107 412.087 644.298 411.546 644.188C409.734 643.818 405.789 643.107 403.066 643.281C402.516 643.317 401.633 643.475 401.094 643.593C397.62 644.351 394.113 645.815 391.509 648.197C391.102 648.57 390.485 649.222 390.15 649.661C387.447 653.206 385.419 660.205 384.74 662.765C384.598 663.298 384.904 663.91 385.423 664.097C388.215 665.101 396.795 667.527 404.393 662.784C404.861 662.492 405.596 661.976 406 661.6C409.825 658.035 412.242 649.159 412.961 646.204C413.092 645.668 413.482 644.894 413.846 644.478L417.339 640.483C417.351 640.469 417.358 640.451 417.357 640.432C417.357 640.414 417.349 640.396 417.336 640.383C417.323 640.37 417.306 640.362 417.287 640.361C417.269 640.361 417.251 640.367 417.237 640.379Z"
     fill="#2B2B2B"
     stroke="#2B2B2B"
     stroke-width="0.940579"
     id="path130" />
  <path
     d="M283.098 604.3L283.749 609.445C283.819 609.993 283.564 610.759 283.189 611.164C281.954 612.499 279.37 615.422 278.109 617.8C277.85 618.287 277.52 619.121 277.335 619.641C276.149 622.976 275.51 626.718 276.068 630.195C276.155 630.74 276.358 631.614 276.538 632.136C277.971 636.312 282.487 641.77 284.192 643.739C284.553 644.155 285.14 644.144 285.485 643.712C287.502 641.188 293.687 633.032 294.302 627.202C294.36 626.654 294.347 625.757 294.322 625.205C293.851 614.691 288.142 611.487 285.838 610.619C285.322 610.424 284.765 609.896 284.62 609.363L283.235 604.273C283.23 604.256 283.219 604.241 283.204 604.232C283.189 604.222 283.171 604.219 283.154 604.223C283.136 604.226 283.121 604.236 283.11 604.25C283.1 604.265 283.096 604.282 283.098 604.3Z"
     fill="#2B2B2B"
     stroke="#2B2B2B"
     stroke-width="0.917299"
     id="path132" />
  <path
     d="M478.002 667.139L479.176 670.91C479.34 671.437 479.233 672.243 478.95 672.716C478.178 674.005 476.76 676.513 476.128 678.519C475.962 679.045 475.799 679.927 475.722 680.474C475.331 683.256 475.397 686.259 476.28 688.918C476.454 689.442 476.805 690.268 477.077 690.749C478.819 693.824 482.858 697.407 484.553 698.836C484.974 699.192 485.535 699.077 485.784 698.585C487.04 696.099 490.411 688.94 490.123 684.207C490.089 683.656 489.916 682.775 489.79 682.238C487.89 674.157 483.266 672.232 481.231 671.774C480.693 671.653 480.054 671.225 479.821 670.725L478.127 667.09C478.12 667.075 478.107 667.063 478.091 667.056C478.075 667.05 478.057 667.05 478.042 667.056C478.026 667.062 478.013 667.074 478.005 667.089C477.998 667.105 477.997 667.122 478.002 667.139Z"
     fill="#2B2B2B"
     stroke="#2B2B2B"
     stroke-width="0.743502"
     id="path134" />
  <path
     d="M306.319 662.046L301.256 662.476C300.705 662.522 299.866 662.346 299.375 662.094C297.811 661.291 294.489 659.679 292.001 659.131C291.463 659.012 290.57 658.923 290.019 658.89C286.703 658.692 283.185 659.112 280.235 660.568C279.74 660.813 278.969 661.272 278.528 661.604C274.98 664.278 270.305 670.986 268.72 673.34C268.412 673.798 268.595 674.307 269.13 674.446C271.676 675.111 278.838 676.584 285.254 674.2C285.771 674.007 286.591 673.647 287.089 673.408C292.779 670.678 298.061 665.948 299.932 664.179C300.332 663.8 301.086 663.385 301.624 663.262L306.341 662.185C306.358 662.181 306.373 662.17 306.383 662.156C306.393 662.141 306.397 662.123 306.394 662.105C306.392 662.088 306.382 662.072 306.368 662.061C306.354 662.05 306.337 662.045 306.319 662.046Z"
     fill="#2B2B2B"
     stroke="#2B2B2B"
     stroke-width="0.886404"
     id="path136" />
  <path
     d="M431.048 567.288L433.175 571.58C433.421 572.075 433.546 572.918 433.47 573.465C433.24 575.121 432.856 578.507 433.173 580.868C433.247 581.414 433.482 582.28 433.65 582.806C434.607 585.8 436.221 588.771 438.624 590.917C439.036 591.284 439.75 591.828 440.218 592.12C443.83 594.377 450.773 596.307 453.322 596.969C453.856 597.108 454.377 596.774 454.454 596.227C454.836 593.494 455.453 585.692 451.062 580.617C450.701 580.2 450.058 579.574 449.644 579.21C444.957 575.094 437.894 572.819 435.339 572.093C434.808 571.942 434.118 571.466 433.804 571.012L431.173 567.214C431.162 567.199 431.147 567.188 431.129 567.184C431.111 567.18 431.092 567.183 431.076 567.193C431.06 567.202 431.048 567.217 431.043 567.235C431.038 567.252 431.039 567.271 431.048 567.288Z"
     fill="#2B2B2B"
     stroke="#2B2B2B"
     stroke-width="0.871007"
     id="path138" />
  <path
     d="M354.083 598.634L358.085 602.645C358.475 603.036 358.753 603.799 358.72 604.35C358.612 606.105 358.47 609.794 358.967 612.292C359.075 612.833 359.351 613.687 359.562 614.197C360.85 617.31 363.401 620.307 366.062 622.414C366.495 622.757 367.223 623.278 367.687 623.577C371.334 625.924 377.991 628.854 380.423 629.897C380.93 630.114 381.296 629.842 381.224 629.294C380.763 625.741 378.856 613.577 373.787 608.011C373.415 607.603 372.756 606.995 372.329 606.645C367.821 602.952 362.62 602.564 360.479 602.58C359.928 602.584 359.127 602.351 358.689 602.014L354.169 598.536C354.156 598.526 354.139 598.521 354.123 598.523C354.106 598.524 354.091 598.532 354.08 598.545C354.069 598.557 354.063 598.573 354.064 598.59C354.064 598.606 354.071 598.622 354.083 598.634Z"
     fill="#2B2B2B"
     stroke="#2B2B2B"
     stroke-width="0.886404"
     id="path140" />
  <path
     d="M530.99 594.798L534.171 598.13C534.552 598.529 534.825 599.299 534.794 599.851C534.706 601.41 534.605 604.465 534.987 606.606C535.084 607.149 535.349 608.007 535.557 608.518C536.637 611.173 538.705 613.723 540.876 615.547C541.298 615.902 542.016 616.439 542.476 616.744C545.504 618.752 550.822 621.212 552.945 622.166C553.449 622.393 553.813 622.127 553.744 621.579C553.334 618.33 551.734 607.947 547.583 603.06C547.226 602.64 546.581 602.017 546.158 601.662C542.492 598.583 538.313 598.18 536.441 598.172C535.889 598.17 535.094 597.931 534.663 597.585L531.079 594.701C531.066 594.691 531.049 594.686 531.033 594.687C531.016 594.688 531 594.696 530.989 594.708C530.978 594.72 530.972 594.736 530.972 594.753C530.972 594.77 530.978 594.786 530.99 594.798Z"
     fill="#2B2B2B"
     stroke="#2B2B2B"
     stroke-width="0.763464"
     id="path142" />
  <path
     d="M467.882 647.288L465.174 652.327C464.913 652.813 464.298 653.403 463.806 653.655C462.242 654.457 458.997 656.218 457.102 657.92C456.691 658.288 456.098 658.961 455.767 659.403C453.747 662.098 452.47 665.822 452.016 669.185C451.942 669.732 451.865 670.625 451.844 671.177C451.686 675.51 452.563 682.731 452.906 685.354C452.978 685.901 453.399 686.077 453.834 685.736C456.654 683.527 466.143 675.681 468.344 668.481C468.505 667.954 468.692 667.077 468.775 666.531C469.652 660.77 467.332 656.098 466.227 654.265C465.942 653.793 465.839 653.011 466.036 652.495L467.999 647.341C468.005 647.326 468.005 647.309 467.999 647.294C467.993 647.279 467.981 647.266 467.966 647.259C467.951 647.253 467.934 647.252 467.918 647.257C467.903 647.262 467.89 647.273 467.882 647.288Z"
     fill="#2B2B2B"
     stroke="#2B2B2B"
     stroke-width="0.886404"
     id="path144" />
  <path
     d="M499.388 571.944L505.247 571.168C505.795 571.096 506.594 571.31 507.04 571.635C508.459 572.673 511.49 574.782 513.861 575.711C514.375 575.912 515.243 576.14 515.786 576.238C519.101 576.832 523.002 576.301 526.211 575.197C526.733 575.017 527.565 574.686 528.067 574.456C532.011 572.651 538.069 568.626 540.258 567.141C540.715 566.831 540.683 566.376 540.183 566.141C536.943 564.613 525.672 559.657 518.25 560.923C517.706 561.016 516.839 561.243 516.314 561.414C510.772 563.217 507.64 567.388 506.499 569.199C506.204 569.665 505.565 570.178 505.031 570.319L499.363 571.819C499.347 571.823 499.334 571.833 499.325 571.847C499.317 571.861 499.314 571.877 499.317 571.893C499.32 571.909 499.329 571.923 499.342 571.933C499.355 571.942 499.372 571.946 499.388 571.944Z"
     fill="#2B2B2B"
     stroke="#2B2B2B"
     stroke-width="0.886404"
     id="path146" />
  <path
     d="M238.396 643.799L233.695 645.913C233.191 646.14 232.347 646.221 231.807 646.106C230.087 645.743 226.458 645.062 223.914 645.188C223.363 645.215 222.479 645.364 221.938 645.477C218.686 646.159 215.403 647.49 212.941 649.671C212.527 650.037 211.904 650.683 211.56 651.115C208.908 654.448 206.366 661.074 205.477 663.527C205.289 664.046 205.592 664.461 206.144 664.439C209.629 664.3 221.369 663.521 227.55 659.283C228.005 658.97 228.704 658.408 229.111 658.036C233.216 654.29 233.575 650.004 233.5 648.106C233.478 647.555 233.781 646.874 234.248 646.579L238.462 643.923C238.477 643.913 238.488 643.898 238.493 643.881C238.497 643.864 238.495 643.846 238.487 643.83C238.478 643.815 238.464 643.803 238.448 643.797C238.431 643.791 238.412 643.792 238.396 643.799Z"
     fill="#2B2B2B"
     stroke="#2B2B2B"
     stroke-width="0.886404"
     id="path148" />
  <path
     d="M525.811 590.057L529.358 589.108C529.892 588.966 530.706 589.084 531.186 589.358C532.384 590.043 534.607 591.235 536.375 591.741C536.905 591.892 537.796 592.008 538.347 592.047C540.741 592.217 543.263 591.928 545.427 590.883C545.925 590.644 546.688 590.171 547.12 589.827C549.673 587.797 552.737 583.496 553.972 581.687C554.283 581.231 554.099 580.73 553.564 580.59C550.762 579.853 542.479 577.959 537.163 579.713C536.639 579.886 535.82 580.252 535.337 580.52C531.807 582.474 530.613 585.54 530.221 587.1C530.087 587.634 529.627 588.258 529.119 588.476L525.763 589.92C525.747 589.927 525.733 589.94 525.726 589.957C525.718 589.974 525.717 589.993 525.723 590.01C525.729 590.028 525.742 590.042 525.758 590.051C525.774 590.059 525.793 590.061 525.811 590.057Z"
     fill="#2B2B2B"
     stroke="#2B2B2B"
     stroke-width="0.704845"
     id="path150" />
  <path
     d="M443.066 612.618L448.21 612.948C448.761 612.983 449.545 613.307 449.969 613.66C451.319 614.786 454.209 617.084 456.517 618.163C457.016 618.396 457.868 618.678 458.398 618.831C461.591 619.749 465.116 620.107 468.313 619.331C468.849 619.2 469.702 618.921 470.208 618.7C474.11 616.994 479.456 612.325 481.389 610.573C481.797 610.202 481.724 609.693 481.226 609.455C478.08 607.948 467.338 603.147 459.893 604.004C459.344 604.067 458.464 604.237 457.93 604.376C452.55 605.767 450.229 609.388 449.408 611.101C449.17 611.598 448.583 612.059 448.032 612.1L443.065 612.479C443.047 612.48 443.031 612.488 443.018 612.501C443.006 612.514 443 612.531 443 612.549C443 612.567 443.007 612.584 443.019 612.597C443.031 612.609 443.048 612.617 443.066 612.618Z"
     fill="#2B2B2B"
     stroke="#2B2B2B"
     stroke-width="0.886404"
     id="path152" />
  <path
     d="M481.186 562.116L481.738 567.24C481.797 567.79 481.612 568.617 481.336 569.095C480.457 570.618 478.685 573.857 478.016 576.315C477.871 576.847 477.738 577.734 477.678 578.283C477.318 581.586 477.565 585.12 478.875 588.137C479.095 588.644 479.516 589.439 479.852 589.876C482.529 593.359 490.162 596.977 492.805 598.159C493.308 598.384 493.752 598.111 493.782 597.56C493.954 594.401 494.312 584.408 492.489 577.243C492.353 576.709 492.103 575.849 491.91 575.332C489.956 570.088 485.699 568.516 483.771 568.064C483.234 567.938 482.678 567.457 482.543 566.921L481.324 562.091C481.319 562.074 481.309 562.059 481.294 562.049C481.279 562.04 481.261 562.036 481.243 562.039C481.226 562.042 481.21 562.052 481.2 562.066C481.189 562.08 481.184 562.098 481.186 562.116Z"
     fill="#2B2B2B"
     stroke="#2B2B2B"
     stroke-width="0.886404"
     id="path154" />
  <path
     d="M291.988 683.971L288.502 686.929C288.08 687.287 287.302 687.477 286.761 687.369C285.086 687.032 281.613 686.417 279.164 686.555C278.614 686.586 277.731 686.742 277.192 686.861C274.067 687.551 270.92 688.863 268.563 690.98C268.152 691.349 267.535 692.001 267.21 692.447C264.715 695.869 262.709 703.252 262.045 705.901C261.911 706.436 262.256 706.908 262.808 706.932C265.519 707.047 273.165 707.032 278.38 703.688C278.845 703.39 279.561 702.851 279.981 702.492C284.732 698.435 287.249 691.759 288.055 689.291C288.226 688.767 288.642 687.999 289.007 687.584L292.09 684.075C292.102 684.061 292.109 684.043 292.108 684.025C292.108 684.006 292.1 683.989 292.087 683.976C292.074 683.962 292.057 683.955 292.039 683.954C292.02 683.953 292.002 683.959 291.988 683.971Z"
     fill="#2B2B2B"
     stroke="#2B2B2B"
     stroke-width="0.85904"
     id="path156" />
  <path
     d="M340.648 643.014L345.005 645.27C345.495 645.524 345.977 646.17 346.091 646.71C346.485 648.579 347.437 652.69 348.67 655.217C348.911 655.713 349.387 656.473 349.697 656.931C351.701 659.893 354.317 662.583 357.358 664.03C357.856 664.267 358.697 664.585 359.235 664.708C363.519 665.688 371.374 664.229 374.116 663.66C374.656 663.548 374.953 663.023 374.763 662.504C373.753 659.735 370.421 651.593 364.944 647.733C364.493 647.415 363.724 646.954 363.234 646.7C357.365 643.662 349.967 644.249 347.331 644.589C346.784 644.66 345.918 644.596 345.394 644.423L340.71 642.869C340.691 642.863 340.67 642.864 340.652 642.872C340.634 642.88 340.62 642.895 340.612 642.913C340.604 642.932 340.604 642.952 340.611 642.971C340.617 642.989 340.631 643.005 340.648 643.014Z"
     fill="#2B2B2B"
     stroke="#2B2B2B"
     stroke-width="0.93159"
     id="path158" />
  <path
     d="M341.422 631.602C341.395 631.465 341.309 631.016 341.261 630.776C341.201 630.471 341.171 630.27 340.489 630.305C339.841 630.338 338.322 630.623 336.062 631.24C334.779 631.59 333.231 632.059 331.741 632.607C331.041 632.865 330.344 633.144 329.688 633.44C329.05 633.728 328.442 634.036 327.902 634.364C320.449 638.732 315.085 644.007 311.349 649.236C311.323 649.271 311.298 649.306 311.274 649.341C310.075 651.038 309.162 652.898 308.397 654.88C307.637 656.85 307.038 658.899 306.451 660.946C305.856 663.023 305.295 665.017 304.595 666.952C303.871 668.953 303.039 670.775 301.966 672.423C301.52 673.11 300.971 673.842 300.368 674.588C299.733 675.372 299.037 676.169 298.332 676.942C296.766 678.662 295.073 680.356 293.784 681.626C293.279 682.125 292.781 682.612 292.366 683.019C289.017 686.301 288.473 687.002 288.566 687.11C288.604 687.156 289.524 686.895 293.084 683.796C293.536 683.402 294.038 682.955 294.577 682.462C295.938 681.218 297.659 679.569 299.289 677.825C300.016 677.047 300.738 676.236 301.4 675.431C302.029 674.667 302.612 673.897 303.095 673.16C304.248 671.402 305.123 669.476 305.867 667.411C306.583 665.423 307.154 663.378 307.741 661.315C308.325 659.263 308.907 657.268 309.645 655.362C310.384 653.451 311.255 651.7 312.381 650.129C312.404 650.097 312.428 650.064 312.452 650.032C316.087 645.043 321.803 640.308 329.132 636.62C329.589 636.404 330.125 636.188 330.72 635.975C331.328 635.757 331.983 635.547 332.655 635.347C334.086 634.92 335.582 634.544 336.835 634.242C339.136 633.687 340.403 633.419 341.084 633.158C341.71 632.919 341.643 632.738 341.582 632.428C341.535 632.189 341.449 631.74 341.422 631.602Z"
     fill="#262626"
     id="path160" />
  <path
     d="M360.078 580.367C360.078 580.582 360.078 581.271 360.078 581.648L359.932 579.095C359.871 578.569 359.889 578.204 357.565 578.293C355.366 578.378 349.995 578.959 341.982 580.208C337.452 580.914 332.014 581.852 326.795 582.945C324.346 583.457 321.924 584.009 319.659 584.591C317.452 585.157 315.38 585.757 313.57 586.383C308.723 588.12 303.957 590.029 299.389 592.264C294.071 594.866 289.863 597.497 286.236 600.19C286.236 600.19 286.228 600.196 286.228 600.196C283.641 602.111 281.319 604.344 279.107 606.807C276.964 609.193 274.98 611.733 273.01 614.296C271.022 616.882 269.129 619.384 267.103 621.788C265.014 624.266 262.898 626.498 260.588 628.45C259.537 629.342 258.317 630.28 257.015 631.225C255.648 632.217 254.189 633.219 252.733 634.187C249.503 636.332 246.113 638.423 243.54 639.988C242.123 640.851 240.688 641.715 239.652 642.34C236.879 644.015 235.143 645.102 234.106 645.814C233.105 646.503 232.973 646.699 233 646.75C233.026 646.799 233.266 646.806 234.393 646.344C235.496 645.892 237.483 644.968 240.298 643.484C241.434 642.884 242.79 642.151 244.307 641.306C246.98 639.817 250.391 637.845 253.736 635.738C255.231 634.797 256.737 633.814 258.155 632.833C259.503 631.9 260.786 630.958 261.911 630.05C264.383 628.048 266.629 625.758 268.812 623.253C270.92 620.834 272.891 618.305 274.897 615.766C276.902 613.229 278.864 610.78 280.965 608.495C283.127 606.142 285.345 604.062 287.772 602.304L287.78 602.299C291.247 599.794 295.515 597.473 300.767 595.341C305.316 593.494 310.07 591.999 314.93 590.618C316.624 590.119 318.598 589.627 320.75 589.151C322.955 588.663 325.325 588.195 327.739 587.752C332.879 586.811 338.269 585.979 342.757 585.316C351.16 584.075 355.556 583.521 358.142 582.977C360.441 582.493 360.287 582.174 360.225 581.64C360.225 580.776 360.176 579.924 360.079 579.088C360.079 579.465 360.078 580.153 360.078 580.367Z"
     fill="#262626"
     id="path162" />
  <path
     d="M427.512 598.368C427.383 598.322 426.961 598.169 426.74 598.089C426.345 597.947 426.191 597.831 425.517 599.69C424.841 601.554 423.544 605.678 422.034 611.14C420.984 614.938 419.948 618.999 419.112 622.869C418.663 624.945 418.297 626.848 418.009 628.583C417.672 630.621 417.468 632.28 417.344 633.665C417.344 633.665 417.343 633.676 417.343 633.676C417.236 634.906 417.192 636.27 417.192 637.689C417.193 639.161 417.242 640.707 417.323 642.248C417.495 645.534 417.813 648.882 418.141 651.675C418.342 653.385 418.553 654.939 418.755 656.259C419.082 658.401 419.427 660.146 419.677 661.168C419.93 662.208 420.047 662.368 420.087 662.362C420.131 662.355 420.184 662.168 420.127 661.102C420.07 660.06 419.914 658.28 419.697 656.139C419.563 654.81 419.4 653.266 419.232 651.557C418.96 648.78 418.661 645.435 418.507 642.189C418.434 640.662 418.393 639.138 418.401 637.692C418.41 636.297 418.466 634.974 418.587 633.794L418.588 633.783C418.722 632.454 418.985 630.824 419.407 628.848C419.767 627.161 420.227 625.298 420.779 623.277C421.81 619.505 423.065 615.538 424.311 611.838C426.105 606.511 427.618 602.498 428.239 600.638C428.859 598.783 428.689 598.793 428.283 598.647C428.063 598.568 427.641 598.415 427.512 598.368Z"
     fill="#262626"
     id="path164" />
  <path
     d="M400.995 581.884C401.111 582.095 401.612 582.991 402.608 582.914C403.467 582.847 404.987 582.235 408.675 580.507C411.695 579.092 418.569 575.767 425.555 572.724C431.647 570.07 438.935 567.125 446.086 564.896C449.475 563.84 452.819 562.949 455.982 562.324C459.115 561.705 462.022 561.357 464.6 561.351C467.839 561.302 471.01 561.699 474.086 562.397C477.438 563.157 480.619 564.262 483.465 565.445C483.879 565.617 484.285 565.791 484.684 565.965C490.384 568.458 495.563 571.366 501.585 574.579C503.186 575.436 504.939 576.485 506.773 577.659C508.644 578.857 510.587 580.177 512.52 581.538C516.653 584.449 520.794 587.587 524.131 590.167C529.497 594.317 532.959 597.114 534.707 598.441C537.039 600.211 537.407 600.206 537.467 600.136C537.519 600.077 537.494 599.684 535.352 597.677C533.747 596.172 530.407 593.215 525.133 588.907C521.843 586.219 517.77 582.996 513.647 579.971C511.724 578.56 509.782 577.186 507.904 575.931C506.064 574.702 504.284 573.587 502.639 572.66C496.764 569.342 491.505 566.251 485.756 563.586C485.35 563.398 484.937 563.208 484.516 563.019C481.631 561.721 478.362 560.394 474.868 559.381C471.655 558.45 468.246 557.781 464.67 557.604C461.772 557.496 458.587 557.773 455.259 558.322C451.891 558.878 448.368 559.714 444.842 560.716C437.407 562.83 429.883 565.706 423.671 568.331C416.103 571.53 409.99 574.555 406.599 576.371C403.001 578.298 401.549 579.325 401.036 579.965C400.397 580.762 400.881 581.674 400.995 581.884Z"
     fill="#262626"
     id="path166" />
  <path
     d="M330 513.5C329.584 513.859 328.925 515.434 332.257 520.715C334.027 523.52 337.252 527.936 341.344 534.031C344.537 538.787 348.294 544.672 351.323 550.602C352.728 553.354 353.971 556.104 354.933 558.751C355.874 561.342 356.522 563.771 356.809 565.967C357.182 568.963 357.213 571.771 356.978 574.462C356.741 577.18 356.234 579.783 355.535 582.337C354.079 587.656 351.738 592.897 349.438 598.032C349.421 598.069 349.282 598.38 349.266 598.417C347.054 603.352 344.381 609.35 342.355 616.106C340.356 622.774 338.907 630.386 338.792 639.452C338.69 647.969 339.713 656.361 341.199 663.953C342.812 672.194 344.984 679.563 346.911 685.241C349.498 692.86 351.9 698.21 353.129 700.71C355.418 705.368 356.271 705.558 356.39 705.5C356.548 705.424 356.694 704.609 355.072 699.9C354.373 697.869 352.008 691.293 349.941 684.28C348.276 678.627 346.369 671.323 345.005 663.258C343.746 655.81 342.945 647.692 343.208 639.548C343.48 630.951 344.998 623.798 347.011 617.552C349.062 611.185 351.726 605.51 354.037 600.611C354.041 600.602 354.212 600.24 354.217 600.231C356.562 595.267 359.282 589.686 361.069 583.962C361.942 581.163 362.633 578.229 363.016 575.103C363.397 572.002 363.471 568.748 363.142 565.28C362.884 562.458 362.179 559.513 361.201 556.575C360.198 553.561 358.892 550.508 357.437 547.543C354.304 541.155 350.391 534.985 347.01 530.148C342.69 523.968 338.95 519.515 336.689 517.205C332.209 512.628 330.34 513.206 330 513.5Z"
     fill="#212121"
     id="path168" />
  <path
     d="M357.987 565.781C357.899 566.091 357.613 567.107 357.459 567.642C357.23 568.44 357.034 568.829 359.675 569.812C362.354 570.809 368.437 572.554 377.231 575.401C382.528 577.115 388.672 579.202 394.529 581.483C397.344 582.579 400.067 583.71 402.583 584.856C405.101 586.003 407.37 587.146 409.305 588.27C419.977 594.587 429.013 601.797 435.946 608.374C443.939 615.957 451.673 624.596 459.038 634.222C460.124 635.625 461.254 637.27 462.397 639.066C463.565 640.901 464.738 642.88 465.879 644.895C468.323 649.211 470.653 653.751 472.498 657.45C475.477 663.424 477.326 667.383 478.295 669.307C479.594 671.883 479.914 672.036 480 672C480.071 671.97 480.224 671.617 479.212 668.906C478.456 666.882 476.812 662.821 474.014 656.724C472.276 652.938 470.065 648.334 467.697 643.895C466.595 641.83 465.453 639.79 464.307 637.884C463.188 636.023 462.062 634.286 460.962 632.778C453.706 622.927 446.009 614.045 438.015 606.226C431.067 599.43 422.39 591.571 411.805 584.346C409.787 582.952 407.447 581.561 404.899 580.193C402.347 578.823 399.594 577.48 396.767 576.191C390.897 573.514 384.706 571.065 379.412 569.108C370.591 565.848 364.455 563.955 361.614 563.307C358.812 562.668 358.74 563.138 358.516 563.92C358.362 564.455 358.076 565.471 357.987 565.781Z"
     fill="#212121"
     id="path170" />
  <path
     d="M611.005 458.093C598.815 458.093 587.125 463.01 578.506 471.762C569.886 480.514 565.044 492.384 565.044 504.761C565.062 505.062 565.082 505.363 565.106 505.663C560.165 501.877 554.036 499.815 547.719 499.812C544.051 499.811 540.419 500.506 537.03 501.857C533.641 503.207 530.562 505.186 527.969 507.682C525.375 510.177 523.317 513.139 521.914 516.399C520.51 519.66 519.788 523.154 519.788 526.683C519.788 533.809 522.731 540.643 527.969 545.682C533.207 550.721 540.312 553.552 547.719 553.552C553.754 553.527 559.619 551.623 564.434 548.124C564.817 552.638 567.952 556.888 573.194 560.002C578.436 563.116 585.388 564.857 592.62 564.866C599.847 564.857 606.795 563.119 612.036 560.009C615.053 561.91 619.426 563.491 624.71 564.593C629.994 565.694 636 566.277 642.118 566.28C648.728 566.276 655.197 565.596 660.76 564.321C666.324 563.046 670.75 561.229 673.516 559.085C677.029 557.289 679.992 554.493 682.066 551.014C684.141 547.535 685.244 543.515 685.251 539.409C685.251 533.596 683.053 528.02 679.141 523.91C675.229 519.799 669.924 517.489 664.391 517.489C660.823 517.509 657.318 518.49 654.214 520.339C655.998 515.343 656.93 510.075 656.968 504.761C656.967 492.383 652.125 480.513 643.505 471.761C634.885 463.009 623.194 458.093 611.005 458.093ZM574.745 533.255C574.792 533.319 574.838 533.383 574.885 533.446C574.815 533.485 574.745 533.523 574.675 533.562C574.699 533.46 574.722 533.357 574.745 533.255Z"
     fill="#1F1F1F"
     id="path172" />
  <path
     d="M519.93 433.658C512.161 433.672 504.617 436.032 498.487 440.366C492.356 444.701 487.988 450.763 486.069 457.599C486.009 457.598 485.948 457.597 485.888 457.596C480.614 457.605 475.512 459.242 471.473 462.221C467.435 465.199 464.717 469.33 463.795 473.891C460.25 472.364 456.384 471.572 452.47 471.571C445.38 471.571 438.58 474.163 433.567 478.778C428.553 483.393 425.737 489.652 425.737 496.178C425.737 502.704 428.553 508.963 433.567 513.578C438.58 518.193 445.38 520.785 452.47 520.785C458.162 520.763 463.697 519.07 468.27 515.952C471.731 519.226 477.095 521.986 483.757 523.918C490.419 525.851 498.112 526.88 505.968 526.888C513.534 526.883 520.958 525.931 527.457 524.133C533.957 522.334 539.293 519.756 542.904 516.669C547.247 520.467 552.921 522.579 558.811 522.591C565.078 522.591 571.088 520.215 575.52 515.985C579.951 511.755 582.441 506.018 582.441 500.036C582.441 494.054 579.951 488.317 575.52 484.087C571.088 479.857 565.078 477.481 558.811 477.48C556.448 477.487 554.1 477.833 551.844 478.505C553.884 474.402 554.941 469.952 554.945 465.451C554.945 461.276 554.039 457.142 552.28 453.284C550.52 449.427 547.941 445.922 544.69 442.97C541.438 440.018 537.578 437.676 533.33 436.078C529.082 434.481 524.529 433.658 519.93 433.658ZM536.205 493.512C536.181 493.578 536.157 493.643 536.133 493.708C536.079 493.682 536.025 493.655 535.971 493.629C536.049 493.59 536.127 493.551 536.205 493.512Z"
     fill="#242424"
     id="path174" />
  <path
     d="M603.525 405.59C593.695 405.604 584.188 409.084 576.687 415.413C569.186 421.742 564.175 430.512 562.541 440.17C557.368 437.716 551.664 436.437 545.88 436.434C535.993 436.434 526.51 440.156 519.518 446.783C512.527 453.41 508.599 462.397 508.599 471.769C508.599 476.409 509.563 481.004 511.437 485.291C513.31 489.578 516.056 493.473 519.518 496.754C522.98 500.036 527.09 502.638 531.613 504.414C536.136 506.19 540.984 507.104 545.88 507.104C554.396 507.08 562.646 504.293 569.259 499.208C571.509 503.658 576.018 507.55 582.129 510.317C588.239 513.084 595.63 514.581 603.225 514.59C609.51 514.589 615.682 513.568 621.116 511.631C626.55 509.694 631.052 506.91 634.166 503.561C637.432 504.905 640.97 505.602 644.549 505.607C649.728 505.594 654.778 504.132 659.028 501.416C663.277 498.7 666.522 494.86 668.331 490.407C670.24 490.947 672.213 491.225 674.195 491.233C677.105 491.233 679.986 490.652 682.675 489.523C685.363 488.395 687.806 486.74 689.864 484.655C691.922 482.569 693.554 480.094 694.667 477.369C695.781 474.644 696.354 471.724 696.354 468.774C696.354 465.825 695.781 462.904 694.667 460.18C693.554 457.455 691.922 454.979 689.864 452.893C687.806 450.808 685.363 449.154 682.675 448.025C679.986 446.896 677.105 446.315 674.195 446.315C670.336 446.334 666.549 447.373 663.209 449.331C662.039 444.65 659.651 440.548 656.399 437.631C653.146 434.715 649.201 433.14 645.148 433.14C644.362 433.148 643.577 433.215 642.798 433.342C639.944 425.232 634.633 418.205 627.597 413.234C620.562 408.262 612.15 405.591 603.525 405.59Z"
     fill="#2B2B2B"
     id="path176" />
  <path
     opacity="0.636771"
     d="M375.292 517.422C386.56 517.422 395.694 507.875 395.694 496.098C395.694 484.322 386.56 474.775 375.292 474.775C364.025 474.775 354.891 484.322 354.891 496.098C354.891 507.875 364.025 517.422 375.292 517.422Z"
     fill="#292929"
     id="path178" />
  <path
     opacity="0.585202"
     d="M371.683 282.487C381.458 282.487 389.382 274.205 389.382 263.989C389.382 253.773 381.458 245.491 371.683 245.491C361.908 245.491 353.984 253.773 353.984 263.989C353.984 274.205 361.908 282.487 371.683 282.487Z"
     fill="#242424"
     id="path180" />
  <path
     d="M517.785 43.1642H359.072"
     stroke="#292929"
     stroke-width="7"
     stroke-linecap="round"
     id="path182" />
  <path
     d="M101.588 252.272H38.7408"
     stroke="#292929"
     stroke-width="4.40488"
     stroke-linecap="round"
     id="path184" />
  <path
     d="M468.133 63.5941H299.533"
     stroke="#242424"
     stroke-width="5.15338"
     stroke-linecap="round"
     id="path186" />
  <path
     d="M532.057 83.1006H363.457"
     stroke="#242424"
     stroke-width="5.15338"
     stroke-linecap="round"
     id="path188" />
  <path
     d="M456.716 102.607H336.079"
     stroke="#212121"
     stroke-width="4.35917"
     stroke-linecap="round"
     id="path190" />
  <path
     d="M101.051 288.085H34.7863"
     stroke="#212121"
     stroke-width="3.23076"
     stroke-linecap="round"
     id="path192" />
  <path
     d="M113.239 277.654H43.8115"
     stroke="#212121"
     stroke-width="3.30696"
     stroke-linecap="round"
     id="path194" />
  <path
     d="M94.302 267.542H51.5868"
     stroke="#212121"
     stroke-width="2.59392"
     stroke-linecap="round"
     id="path196" />
  <path
     d="M359.853 118.273H433.757C435.595 118.273 437.416 118.636 439.115 119.339C440.813 120.043 442.356 121.074 443.656 122.374C444.957 123.674 445.988 125.217 446.691 126.916C447.395 128.614 447.757 130.435 447.757 132.273C447.566 135.795 445.983 139.097 443.358 141.451C440.732 143.806 437.279 145.022 433.757 144.83H359.853C356.14 144.83 352.579 143.355 349.954 140.73C347.328 138.104 345.853 134.543 345.853 130.83C346.045 127.309 347.627 124.007 350.253 121.652C352.878 119.298 356.331 118.082 359.853 118.273Z"
     fill="#1F1F1F"
     id="path198" />
  <path
     d="M256 89.7903C271.891 89.7903 284.773 76.9082 284.773 61.0174C284.773 45.1265 271.891 32.2444 256 32.2444C240.109 32.2444 227.227 45.1265 227.227 61.0174C227.227 76.9082 240.109 89.7903 256 89.7903Z"
     stroke="#1C1C1C"
     stroke-width="3.32805"
     stroke-linejoin="round"
     id="path200" />
  <path
     d="M256 86.9542C270.324 86.9542 281.937 75.3419 281.937 61.0174C281.937 46.6929 270.324 35.0806 256 35.0806C241.675 35.0806 230.063 46.6929 230.063 61.0174C230.063 75.3419 241.675 86.9542 256 86.9542Z"
     stroke="#262626"
     stroke-width="3"
     stroke-linejoin="round"
     id="path202" />
  <path
     d="M256 84.1184C268.758 84.1184 279.101 73.7757 279.101 61.0174C279.101 48.2591 268.758 37.9164 256 37.9164C243.242 37.9164 232.899 48.2591 232.899 61.0174C232.899 73.7757 243.242 84.1184 256 84.1184Z"
     stroke="#212121"
     stroke-width="2.672"
     stroke-linejoin="round"
     id="path204" />
  <path
     d="M126.233 287.883V288.287C126.233 289.337 126.44 290.377 126.842 291.348C127.244 292.319 127.833 293.201 128.576 293.943C129.319 294.686 130.201 295.276 131.172 295.678C132.142 296.08 133.182 296.287 134.233 296.287H145.81C146.86 296.287 147.901 296.08 148.871 295.678C149.842 295.276 150.724 294.686 151.467 293.943C152.21 293.201 152.799 292.319 153.201 291.348C153.603 290.377 153.81 289.337 153.81 288.287V287.883C153.81 285.761 152.967 283.726 151.467 282.226C149.966 280.725 147.932 279.883 145.81 279.883H134.233C133.182 279.883 132.142 280.089 131.172 280.492C130.201 280.894 129.319 281.483 128.576 282.226C127.833 282.969 127.244 283.851 126.842 284.821C126.44 285.792 126.233 286.832 126.233 287.883Z"
     fill="#212121"
     stroke="#272727"
     stroke-width="4.45648"
     id="path206" />
  <path
     d="M134.215 294.029C137.498 294.029 140.159 291.367 140.159 288.085C140.159 284.802 137.498 282.141 134.215 282.141C130.932 282.141 128.271 284.802 128.271 288.085C128.271 291.367 130.932 294.029 134.215 294.029Z"
     fill="#2B2B2B"
     id="path208" />
  <path
     d="M657.801 360.197C657.801 360.197 668.098 344.199 675.739 339.25C683.413 334.28 701.85 331.705 701.85 331.705C701.85 331.705 691.241 344.051 684.632 348.506C676.494 353.993 657.801 360.197 657.801 360.197Z"
     fill="#262626"
     stroke="#262626"
     stroke-width="1.29802"
     stroke-linecap="round"
     stroke-linejoin="round"
     id="path210" />
  <path
     d="M657.801 360.197C657.801 360.197 672.247 348.137 680.761 344.767C692.018 340.312 716.424 339.036 716.424 339.036C716.424 339.036 699.78 353.682 689.716 357.321C679.612 360.974 657.801 360.197 657.801 360.197Z"
     fill="#212121"
     stroke="#212121"
     stroke-width="1.29802"
     id="path212" />
  <path
     d="M658.445 360.507C658.445 360.507 678.638 352.088 689.286 351.396C700.041 350.698 721.16 356.505 721.16 356.505C721.16 356.505 703.119 364.674 693.511 365.516C681.726 366.549 658.445 360.507 658.445 360.507Z"
     fill="#262626"
     stroke="#262626"
     stroke-width="1.29802"
     id="path214" />
  <path
     d="M657.773 360.429C657.773 360.429 681.811 360.101 693.367 362.915C702.8 365.212 720.156 374.483 720.156 374.483C720.156 374.483 696.535 378.8 685.214 376.068C675.02 373.609 657.773 360.429 657.773 360.429Z"
     fill="#212121"
     stroke="#212121"
     stroke-width="1.29802"
     id="path216" />
  <path
     d="M657.807 359.327C657.807 359.327 676.121 365.684 684.504 370.581C696.312 377.479 716.919 395.962 716.919 395.962C716.919 395.962 688.523 393 677.082 385.229C668.278 379.25 657.807 359.327 657.807 359.327Z"
     fill="#262626"
     stroke="#262626"
     stroke-width="1.29802"
     id="path218" />
  <path
     d="M657.569 359.501C657.569 359.501 672.169 373.629 678.896 381.445C687.327 391.241 702.539 412.271 702.539 412.271C702.539 412.271 675.58 402.782 667.096 391.924C660.183 383.078 657.569 359.501 657.569 359.501Z"
     fill="#212121"
     stroke="#212121"
     stroke-width="1.29802"
     id="path220" />
  <path
     d="M657.439 359.962C657.439 359.962 666.622 375.76 668.513 385.224C670.36 394.465 668.697 413.591 668.697 413.591C668.697 413.591 656.91 399.446 654.882 390.671C652.477 380.263 657.439 359.962 657.439 359.962Z"
     fill="#262626"
     stroke="#262626"
     stroke-width="1.29802"
     id="path222" />
  <path
     d="M657.582 359.549C657.582 359.549 663.228 378.854 659.403 388.43C656.677 395.254 643.304 403.107 643.304 403.107C643.304 403.107 642.008 385.107 644.753 376.753C647.156 369.443 657.582 359.549 657.582 359.549Z"
     fill="#212121"
     stroke="#212121"
     stroke-width="1.29802"
     id="path224" />
  <path
     d="M656.45 359.906C656.45 359.906 654.323 373.703 649.619 379.191C644.783 384.833 630.634 390.402 630.634 390.402C630.634 390.402 635.256 375.742 640.129 370.184C644.785 364.875 656.45 359.906 656.45 359.906Z"
     fill="#262626"
     stroke="#262626"
     stroke-width="1.29802"
     id="path226" />
</svg>
