<svg xmlns="http://www.w3.org/2000/svg" width="26" height="26" fill="none">
  <path fill="#696969" d="M6.05214 8.36446H.832593c-.231651 0-.419354.18778-.419354.41935V25.552c0 .2316.187703.4193.419354.4193H6.05214c.23165 0 .41935-.1877.41935-.4193V8.78381c0-.23157-.1877-.41935-.41935-.41935ZM3.44426.0286026C1.54509.0286026.00001526 1.572.00001526 3.46907c0 1.89792 1.54507474 3.4419 3.44424474 3.4419 1.89766 0 3.44148-1.54406 3.44148-3.4419C6.88582 1.572 5.34192.0286026 3.44426.0286026ZM19.3284 7.9477c-2.0963 0-3.646.90119-4.586 1.92517V8.78381c0-.23157-.1877-.41935-.4193-.41935H9.32445c-.23166 0-.41936.18778-.41936.41935V25.552c0 .2316.1877.4193.41936.4193h5.20815c.2316 0 .4193-.1877.4193-.4193v-8.2964c0-2.7957.7594-3.8848 2.7082-3.8848 2.1225 0 2.2911 1.746 2.2911 4.0287v8.1525c0 .2317.1877.4194.4194.4194h5.2101c.2316 0 .4193-.1877.4193-.4194v-9.1976c0-4.157-.7927-8.4067-6.6716-8.4067Z"/>
</svg>
