<svg xmlns="http://www.w3.org/2000/svg" width="1590" height="1000" fill="none" viewBox="0 0 1590 1000">
  <path fill="#141414" d="M1140 0h450v1000h-450z"/>
  <path stroke="#696969" stroke-linecap="round" stroke-linejoin="round" stroke-width="10" d="M1425 450.667c0 46.666-60 86.666-60 86.666s-60-40-60-86.666c0-15.913 6.32-31.175 17.57-42.427 11.26-11.252 26.52-17.573 42.43-17.573s31.17 6.321 42.43 17.573c11.25 11.252 17.57 26.514 17.57 42.427Z"/>
  <path stroke="#696969" stroke-linecap="round" stroke-linejoin="round" stroke-width="10" d="M1352.7 436.113c1-2.859 2.95-5.27 5.53-6.806 2.58-1.536 5.61-2.097 8.55-1.585 2.95.513 5.62 2.066 7.54 4.385 1.93 2.318 2.98 5.253 2.98 8.284 0 8.556-12.66 12.835-12.66 12.835m.32 22.883h.04"/>
  <path fill="#969696" d="M1231.45 604v-25.2h9.32c2.02 0 3.69.336 5.01 1.008 1.32.672 2.3 1.596 2.95 2.772.65 1.176.97 2.496.97 3.96 0 1.392-.31 2.676-.94 3.852-.62 1.152-1.59 2.088-2.91 2.808-1.32.696-3.01 1.044-5.08 1.044h-4.71V604h-4.61Zm4.61-13.5h4.42c1.61 0 2.76-.348 3.46-1.044.72-.72 1.08-1.692 1.08-2.916 0-1.248-.36-2.22-1.08-2.916-.7-.72-1.85-1.08-3.46-1.08h-4.42v7.956Zm17.15 13.5v-25.92h4.61V604h-4.61Zm15.47.432c-1.54 0-2.8-.24-3.78-.72-.98-.504-1.72-1.164-2.2-1.98-.48-.816-.72-1.716-.72-2.7 0-1.656.65-3 1.95-4.032 1.29-1.032 3.24-1.548 5.83-1.548h4.54v-.432c0-1.224-.35-2.124-1.05-2.7-.69-.576-1.56-.864-2.59-.864-.94 0-1.75.228-2.45.684-.69.432-1.13 1.08-1.29 1.944h-4.5c.12-1.296.55-2.424 1.29-3.384.77-.96 1.75-1.692 2.95-2.196 1.2-.528 2.55-.792 4.04-.792 2.54 0 4.54.636 6.01 1.908 1.46 1.272 2.19 3.072 2.19 5.4V604h-3.92l-.43-2.88c-.53.96-1.27 1.752-2.23 2.376-.94.624-2.15.936-3.64.936Zm1.04-3.6c1.32 0 2.34-.432 3.06-1.296.75-.864 1.22-1.932 1.41-3.204h-3.93c-1.22 0-2.1.228-2.62.684-.53.432-.8.972-.8 1.62 0 .696.27 1.236.8 1.62.52.384 1.22.576 2.08.576Zm22.33 3.6c-1.83 0-3.43-.396-4.83-1.188-1.39-.792-2.49-1.896-3.31-3.312-.79-1.416-1.19-3.036-1.19-4.86 0-1.824.4-3.444 1.19-4.86.82-1.416 1.92-2.52 3.31-3.312 1.4-.792 3-1.188 4.83-1.188 2.28 0 4.2.6 5.76 1.8 1.56 1.176 2.55 2.808 2.99 4.896h-4.86c-.24-.864-.72-1.536-1.44-2.016-.7-.504-1.53-.756-2.49-.756-1.27 0-2.35.48-3.24 1.44-.89.96-1.33 2.292-1.33 3.996 0 1.704.44 3.036 1.33 3.996.89.96 1.97 1.44 3.24 1.44.96 0 1.79-.24 2.49-.72.72-.48 1.2-1.164 1.44-2.052h4.86c-.44 2.016-1.43 3.636-2.99 4.86-1.56 1.224-3.48 1.836-5.76 1.836Zm21.51 0c-1.8 0-3.39-.384-4.79-1.152-1.39-.768-2.48-1.848-3.27-3.24-.79-1.392-1.19-3-1.19-4.824 0-1.848.38-3.492 1.15-4.932.79-1.44 1.87-2.556 3.24-3.348 1.39-.816 3.03-1.224 4.9-1.224 1.75 0 3.3.384 4.64 1.152 1.35.768 2.39 1.824 3.13 3.168.77 1.32 1.16 2.796 1.16 4.428 0 .264-.02.54-.04.828 0 .288-.01.588-.04.9h-13.57c.1 1.392.58 2.484 1.44 3.276.89.792 1.96 1.188 3.21 1.188.93 0 1.71-.204 2.34-.612.64-.432 1.12-.984 1.44-1.656h4.68c-.34 1.128-.9 2.16-1.7 3.096-.76.912-1.72 1.632-2.88 2.16-1.12.528-2.41.792-3.85.792Zm.04-14.976c-1.13 0-2.13.324-2.99.972-.86.624-1.42 1.584-1.66 2.88h8.9c-.08-1.176-.51-2.112-1.3-2.808-.79-.696-1.78-1.044-2.95-1.044ZM1334.98 604v-17.856h4.07l.36 3.024c.55-1.056 1.34-1.896 2.37-2.52 1.06-.624 2.3-.936 3.71-.936 2.21 0 3.93.696 5.15 2.088 1.22 1.392 1.84 3.432 1.84 6.12V604h-4.61v-9.648c0-1.536-.31-2.712-.94-3.528-.62-.816-1.59-1.224-2.91-1.224-1.3 0-2.37.456-3.21 1.368-.81.912-1.22 2.184-1.22 3.816V604h-4.61Zm30.47.432c-1.73 0-3.29-.396-4.68-1.188-1.37-.792-2.46-1.884-3.28-3.276-.79-1.416-1.18-3.048-1.18-4.896 0-1.848.4-3.468 1.22-4.86.82-1.416 1.91-2.52 3.28-3.312 1.39-.792 2.95-1.188 4.68-1.188 1.7 0 3.24.396 4.6 1.188 1.4.792 2.49 1.896 3.28 3.312.82 1.392 1.22 3.012 1.22 4.86 0 1.848-.4 3.48-1.22 4.896-.79 1.392-1.88 2.484-3.28 3.276-1.39.792-2.94 1.188-4.64 1.188Zm0-3.996c1.2 0 2.24-.444 3.13-1.332.89-.912 1.33-2.256 1.33-4.032 0-1.776-.44-3.108-1.33-3.996-.89-.912-1.92-1.368-3.09-1.368-1.23 0-2.28.456-3.17 1.368-.87.888-1.3 2.22-1.3 3.996 0 1.776.43 3.12 1.3 4.032.89.888 1.93 1.332 3.13 1.332Zm20.52 3.564c-1.87 0-3.37-.456-4.5-1.368-1.13-.912-1.69-2.532-1.69-4.86v-7.776h-3.06v-3.852h3.06l.54-4.788h4.06v4.788h4.83v3.852h-4.83v7.812c0 .864.18 1.464.54 1.8.39.312 1.04.468 1.95.468h2.23V604h-3.13Zm16.6 0v-14.004h-2.45v-3.852h2.45v-2.088c0-2.16.54-3.696 1.62-4.608 1.1-.912 2.59-1.368 4.46-1.368h1.98v3.924h-1.26c-.79 0-1.35.156-1.69.468-.33.312-.5.84-.5 1.584v2.088h3.85v3.852h-3.85V604h-4.61Zm19.97.432c-1.72 0-3.28-.396-4.68-1.188-1.36-.792-2.46-1.884-3.27-3.276-.79-1.416-1.19-3.048-1.19-4.896 0-1.848.41-3.468 1.22-4.86.82-1.416 1.91-2.52 3.28-3.312 1.39-.792 2.95-1.188 4.68-1.188 1.7 0 3.24.396 4.61 1.188 1.39.792 2.48 1.896 3.27 3.312.82 1.392 1.23 3.012 1.23 4.86 0 1.848-.41 3.48-1.23 4.896-.79 1.392-1.88 2.484-3.27 3.276-1.39.792-2.94 1.188-4.65 1.188Zm0-3.996c1.2 0 2.25-.444 3.14-1.332.88-.912 1.33-2.256 1.33-4.032 0-1.776-.45-3.108-1.33-3.996-.89-.912-1.92-1.368-3.1-1.368-1.22 0-2.28.456-3.17 1.368-.86.888-1.29 2.22-1.29 3.996 0 1.776.43 3.12 1.29 4.032.89.888 1.93 1.332 3.13 1.332Zm19.96 3.996c-2.23 0-3.96-.696-5.18-2.088-1.2-1.392-1.8-3.432-1.8-6.12v-10.08h4.57v9.648c0 1.536.31 2.712.94 3.528.62.816 1.61 1.224 2.95 1.224 1.27 0 2.32-.456 3.13-1.368.84-.912 1.26-2.184 1.26-3.816v-9.216h4.61V604h-4.07l-.36-3.024c-.55 1.056-1.35 1.896-2.41 2.52-1.03.624-2.24.936-3.64.936Zm15.21-.432v-17.856h4.07l.36 3.024c.55-1.056 1.34-1.896 2.38-2.52 1.05-.624 2.29-.936 3.7-.936 2.21 0 3.93.696 5.15 2.088 1.23 1.392 1.84 3.432 1.84 6.12V604h-4.61v-9.648c0-1.536-.31-2.712-.94-3.528-.62-.816-1.59-1.224-2.91-1.224-1.3 0-2.37.456-3.21 1.368-.81.912-1.22 2.184-1.22 3.816V604h-4.61Zm30.11.432c-1.68 0-3.18-.408-4.5-1.224-1.32-.816-2.36-1.932-3.13-3.348s-1.15-3.024-1.15-4.824c0-1.8.38-3.396 1.15-4.788.77-1.416 1.81-2.52 3.13-3.312 1.32-.816 2.82-1.224 4.5-1.224 1.35 0 2.52.252 3.53.756 1.01.504 1.82 1.212 2.45 2.124V578.08h4.61V604h-4.11l-.5-2.556c-.58.792-1.35 1.488-2.31 2.088-.93.6-2.16.9-3.67.9Zm.97-4.032c1.49 0 2.7-.492 3.64-1.476.96-1.008 1.44-2.292 1.44-3.852s-.48-2.832-1.44-3.816c-.94-1.008-2.15-1.512-3.64-1.512-1.46 0-2.67.492-3.63 1.476s-1.44 2.256-1.44 3.816.48 2.844 1.44 3.852 2.17 1.512 3.63 1.512Z"/>
  <path fill="#141414" d="M0 0h1100v1000H0z"/>
  <path stroke="#696969" stroke-linecap="round" stroke-linejoin="round" stroke-width="10" d="M603 388H496.333C488.97 388 483 393.97 483 401.333V468c0 7.364 5.97 13.333 13.333 13.333H603c7.364 0 13.333-5.969 13.333-13.333v-66.667c0-7.363-5.969-13.333-13.333-13.333Zm-79.667 120h53.334M550 481.333V508"/>
  <path stroke="#696969" stroke-linecap="round" stroke-width="10" d="m513 412 73 46m0-46-73 45"/>
  <path fill="#969696" d="M372.964 584v-8.964l-8.46-16.236h5.22l5.58 11.628 5.544-11.628h5.148l-8.424 16.236V584h-4.608Zm21.245.432c-1.728 0-3.288-.396-4.68-1.188-1.368-.792-2.46-1.884-3.276-3.276-.792-1.416-1.188-3.048-1.188-4.896 0-1.848.408-3.468 1.224-4.86.816-1.416 1.908-2.52 3.276-3.312 1.392-.792 2.952-1.188 4.68-1.188 1.704 0 3.24.396 4.608 1.188 1.392.792 2.484 1.896 3.276 3.312.816 1.392 1.224 3.012 1.224 4.86 0 1.848-.408 3.48-1.224 4.896-.792 1.392-1.884 2.484-3.276 3.276-1.392.792-2.94 1.188-4.644 1.188Zm0-3.996c1.2 0 2.244-.444 3.132-1.332.888-.912 1.332-2.256 1.332-4.032 0-1.776-.444-3.108-1.332-3.996-.888-.912-1.92-1.368-3.096-1.368-1.224 0-2.28.456-3.168 1.368-.864.888-1.296 2.22-1.296 3.996 0 1.776.432 3.12 1.296 4.032.888.888 1.932 1.332 3.132 1.332Zm19.96 3.996c-2.232 0-3.96-.696-5.184-2.088-1.2-1.392-1.8-3.432-1.8-6.12v-10.08h4.572v9.648c0 1.536.312 2.712.936 3.528.624.816 1.608 1.224 2.952 1.224 1.272 0 2.316-.456 3.132-1.368.84-.912 1.26-2.184 1.26-3.816v-9.216h4.608V584h-4.068l-.36-3.024c-.552 1.056-1.356 1.896-2.412 2.52-1.032.624-2.244.936-3.636.936Zm15.206-.432v-17.856h4.104l.432 3.348c.648-1.152 1.524-2.064 2.628-2.736 1.128-.696 2.448-1.044 3.96-1.044v4.86h-1.296c-1.008 0-1.908.156-2.7.468-.792.312-1.416.852-1.872 1.62-.432.768-.648 1.836-.648 3.204V584h-4.608Zm30.232.432c-1.584 0-2.976-.252-4.176-.756-1.2-.528-2.16-1.248-2.88-2.16-.72-.912-1.152-1.968-1.296-3.168h4.644c.144.696.528 1.296 1.152 1.8.648.48 1.476.72 2.484.72s1.74-.204 2.196-.612c.48-.408.72-.876.72-1.404 0-.768-.336-1.284-1.008-1.548-.672-.288-1.608-.564-2.808-.828-.768-.168-1.548-.372-2.34-.612-.792-.24-1.524-.54-2.196-.9-.648-.384-1.176-.864-1.584-1.44-.408-.6-.612-1.332-.612-2.196 0-1.584.624-2.916 1.872-3.996 1.272-1.08 3.048-1.62 5.328-1.62 2.112 0 3.792.492 5.04 1.476 1.272.984 2.028 2.34 2.268 4.068h-4.356c-.264-1.32-1.26-1.98-2.988-1.98-.864 0-1.536.168-2.016.504-.456.336-.684.756-.684 1.26 0 .528.348.948 1.044 1.26.696.312 1.62.6 2.772.864 1.248.288 2.388.612 3.42.972 1.056.336 1.896.852 2.52 1.548.624.672.936 1.644.936 2.916.024 1.104-.264 2.1-.864 2.988-.6.888-1.464 1.584-2.592 2.088-1.128.504-2.46.756-3.996.756Zm20.282 0c-1.824 0-3.432-.396-4.824-1.188-1.392-.792-2.496-1.896-3.312-3.312-.792-1.416-1.188-3.036-1.188-4.86 0-1.824.396-3.444 1.188-4.86.816-1.416 1.92-2.52 3.312-3.312 1.392-.792 3-1.188 4.824-1.188 2.28 0 4.2.6 5.76 1.8 1.56 1.176 2.556 2.808 2.988 4.896h-4.86c-.24-.864-.72-1.536-1.44-2.016-.696-.504-1.524-.756-2.484-.756-1.272 0-2.352.48-3.24 1.44-.888.96-1.332 2.292-1.332 3.996 0 1.704.444 3.036 1.332 3.996.888.96 1.968 1.44 3.24 1.44.96 0 1.788-.24 2.484-.72.72-.48 1.2-1.164 1.44-2.052h4.86c-.432 2.016-1.428 3.636-2.988 4.86-1.56 1.224-3.48 1.836-5.76 1.836Zm12.838-.432v-17.856h4.104l.432 3.348c.648-1.152 1.524-2.064 2.628-2.736 1.128-.696 2.448-1.044 3.96-1.044v4.86h-1.296c-1.008 0-1.908.156-2.7.468-.792.312-1.416.852-1.872 1.62-.432.768-.648 1.836-.648 3.204V584h-4.608Zm22.633.432c-1.8 0-3.396-.384-4.788-1.152-1.392-.768-2.484-1.848-3.276-3.24-.792-1.392-1.188-3-1.188-4.824 0-1.848.384-3.492 1.152-4.932.792-1.44 1.872-2.556 3.24-3.348 1.392-.816 3.024-1.224 4.896-1.224 1.752 0 3.3.384 4.644 1.152 1.344.768 2.388 1.824 3.132 3.168.768 1.32 1.152 2.796 1.152 4.428 0 .264-.012.54-.036.828 0 .288-.012.588-.036.9H510.68c.096 1.392.576 2.484 1.44 3.276.888.792 1.956 1.188 3.204 1.188.936 0 1.716-.204 2.34-.612.648-.432 1.128-.984 1.44-1.656h4.68c-.336 1.128-.9 2.16-1.692 3.096-.768.912-1.728 1.632-2.88 2.16-1.128.528-2.412.792-3.852.792Zm.036-14.976c-1.128 0-2.124.324-2.988.972-.864.624-1.416 1.584-1.656 2.88h8.892c-.072-1.176-.504-2.112-1.296-2.808-.792-.696-1.776-1.044-2.952-1.044Zm21.479 14.976c-1.8 0-3.396-.384-4.788-1.152-1.392-.768-2.484-1.848-3.276-3.24-.792-1.392-1.188-3-1.188-4.824 0-1.848.384-3.492 1.152-4.932.792-1.44 1.872-2.556 3.24-3.348 1.392-.816 3.024-1.224 4.896-1.224 1.752 0 3.3.384 4.644 1.152 1.344.768 2.388 1.824 3.132 3.168.768 1.32 1.152 2.796 1.152 4.428 0 .264-.012.54-.036.828 0 .288-.012.588-.036.9h-13.572c.096 1.392.576 2.484 1.44 3.276.888.792 1.956 1.188 3.204 1.188.936 0 1.716-.204 2.34-.612.648-.432 1.128-.984 1.44-1.656h4.68c-.336 1.128-.9 2.16-1.692 3.096-.768.912-1.728 1.632-2.88 2.16-1.128.528-2.412.792-3.852.792Zm.036-14.976c-1.128 0-2.124.324-2.988.972-.864.624-1.416 1.584-1.656 2.88h8.892c-.072-1.176-.504-2.112-1.296-2.808-.792-.696-1.776-1.044-2.952-1.044ZM549.715 584v-17.856h4.068l.36 3.024c.552-1.056 1.344-1.896 2.376-2.52 1.056-.624 2.292-.936 3.708-.936 2.208 0 3.924.696 5.148 2.088 1.224 1.392 1.836 3.432 1.836 6.12V584h-4.608v-9.648c0-1.536-.312-2.712-.936-3.528-.624-.816-1.596-1.224-2.916-1.224-1.296 0-2.364.456-3.204 1.368-.816.912-1.224 2.184-1.224 3.816V584h-4.608Zm32.964-20.628c-.84 0-1.536-.252-2.088-.756-.528-.504-.792-1.14-.792-1.908s.264-1.392.792-1.872c.552-.504 1.248-.756 2.088-.756.84 0 1.524.252 2.052.756.552.48.828 1.104.828 1.872s-.276 1.404-.828 1.908c-.528.504-1.212.756-2.052.756ZM580.375 584v-17.856h4.608V584h-4.608Zm16.798.432c-1.584 0-2.976-.252-4.176-.756-1.2-.528-2.16-1.248-2.88-2.16-.72-.912-1.152-1.968-1.296-3.168h4.644c.144.696.528 1.296 1.152 1.8.648.48 1.476.72 2.484.72s1.74-.204 2.196-.612c.48-.408.72-.876.72-1.404 0-.768-.336-1.284-1.008-1.548-.672-.288-1.608-.564-2.808-.828-.768-.168-1.548-.372-2.34-.612-.792-.24-1.524-.54-2.196-.9-.648-.384-1.176-.864-1.584-1.44-.408-.6-.612-1.332-.612-2.196 0-1.584.624-2.916 1.872-3.996 1.272-1.08 3.048-1.62 5.328-1.62 2.112 0 3.792.492 5.04 1.476 1.272.984 2.028 2.34 2.268 4.068h-4.356c-.264-1.32-1.26-1.98-2.988-1.98-.864 0-1.536.168-2.016.504-.456.336-.684.756-.684 1.26 0 .528.348.948 1.044 1.26.696.312 1.62.6 2.772.864 1.248.288 2.388.612 3.42.972 1.056.336 1.896.852 2.52 1.548.624.672.936 1.644.936 2.916.024 1.104-.264 2.1-.864 2.988-.6.888-1.464 1.584-2.592 2.088-1.128.504-2.46.756-3.996.756Zm28.068-.432c-1.872 0-3.372-.456-4.5-1.368-1.128-.912-1.692-2.532-1.692-4.86v-7.776h-3.06v-3.852h3.06l.54-4.788h4.068v4.788h4.824v3.852h-4.824v7.812c0 .864.18 1.464.54 1.8.384.312 1.032.468 1.944.468h2.232V584h-3.132Zm15.308.432c-1.728 0-3.288-.396-4.68-1.188-1.368-.792-2.46-1.884-3.276-3.276-.792-1.416-1.188-3.048-1.188-4.896 0-1.848.408-3.468 1.224-4.86.816-1.416 1.908-2.52 3.276-3.312 1.392-.792 2.952-1.188 4.68-1.188 1.704 0 3.24.396 4.608 1.188 1.392.792 2.484 1.896 3.276 3.312.816 1.392 1.224 3.012 1.224 4.86 0 1.848-.408 3.48-1.224 4.896-.792 1.392-1.884 2.484-3.276 3.276-1.392.792-2.94 1.188-4.644 1.188Zm0-3.996c1.2 0 2.244-.444 3.132-1.332.888-.912 1.332-2.256 1.332-4.032 0-1.776-.444-3.108-1.332-3.996-.888-.912-1.92-1.368-3.096-1.368-1.224 0-2.28.456-3.168 1.368-.864.888-1.296 2.22-1.296 3.996 0 1.776.432 3.12 1.296 4.032.888.888 1.932 1.332 3.132 1.332Zm21.832 3.996c-1.728 0-3.288-.396-4.68-1.188-1.368-.792-2.46-1.884-3.276-3.276-.792-1.416-1.188-3.048-1.188-4.896 0-1.848.408-3.468 1.224-4.86.816-1.416 1.908-2.52 3.276-3.312 1.392-.792 2.952-1.188 4.68-1.188 1.704 0 3.24.396 4.608 1.188 1.392.792 2.484 1.896 3.276 3.312.816 1.392 1.224 3.012 1.224 4.86 0 1.848-.408 3.48-1.224 4.896-.792 1.392-1.884 2.484-3.276 3.276-1.392.792-2.94 1.188-4.644 1.188Zm0-3.996c1.2 0 2.244-.444 3.132-1.332.888-.912 1.332-2.256 1.332-4.032 0-1.776-.444-3.108-1.332-3.996-.888-.912-1.92-1.368-3.096-1.368-1.224 0-2.28.456-3.168 1.368-.864.888-1.296 2.22-1.296 3.996 0 1.776.432 3.12 1.296 4.032.888.888 1.932 1.332 3.132 1.332Zm32.426 3.996c-1.344 0-2.52-.252-3.528-.756s-1.824-1.212-2.448-2.124l-.504 2.448h-4.104v-25.92h4.608v10.62c.576-.792 1.332-1.488 2.268-2.088.96-.6 2.196-.9 3.708-.9 1.68 0 3.18.408 4.5 1.224 1.32.816 2.364 1.932 3.132 3.348.768 1.416 1.152 3.024 1.152 4.824 0 1.8-.384 3.408-1.152 4.824-.768 1.392-1.812 2.496-3.132 3.312-1.32.792-2.82 1.188-4.5 1.188Zm-.972-4.032c1.464 0 2.676-.492 3.636-1.476s1.44-2.256 1.44-3.816-.48-2.844-1.44-3.852-2.172-1.512-3.636-1.512c-1.488 0-2.712.504-3.672 1.512-.936.984-1.404 2.256-1.404 3.816s.468 2.844 1.404 3.852c.96.984 2.184 1.476 3.672 1.476Zm16.356-17.028c-.84 0-1.536-.252-2.088-.756-.528-.504-.792-1.14-.792-1.908s.264-1.392.792-1.872c.552-.504 1.248-.756 2.088-.756.84 0 1.524.252 2.052.756.552.48.828 1.104.828 1.872s-.276 1.404-.828 1.908c-.528.504-1.212.756-2.052.756ZM707.887 584v-17.856h4.608V584h-4.608Zm16.978-5.328c-.864 0-1.668-.096-2.412-.288l-1.332 1.332c.408.216.96.396 1.656.54.696.144 1.824.288 3.384.432 2.376.216 4.104.78 5.184 1.692 1.08.912 1.62 2.172 1.62 3.78 0 1.056-.288 2.052-.864 2.988-.576.96-1.464 1.728-2.664 2.304-1.2.6-2.736.9-4.608.9-2.544 0-4.596-.48-6.156-1.44-1.56-.936-2.34-2.352-2.34-4.248 0-1.608.78-3 2.34-4.176-.48-.216-.9-.444-1.26-.684-.336-.24-.636-.492-.9-.756v-.828l3.132-3.312c-1.392-1.224-2.088-2.796-2.088-4.716 0-1.2.288-2.292.864-3.276.6-.984 1.44-1.764 2.52-2.34 1.08-.576 2.388-.864 3.924-.864 1.008 0 1.944.144 2.808.432h6.768v2.808l-3.06.216c.48.912.72 1.92.72 3.024 0 1.2-.288 2.292-.864 3.276-.576.984-1.416 1.764-2.52 2.34-1.08.576-2.364.864-3.852.864Zm0-3.528c.936 0 1.704-.252 2.304-.756.624-.504.936-1.224.936-2.16 0-.936-.312-1.656-.936-2.16-.6-.504-1.368-.756-2.304-.756-.984 0-1.776.252-2.376.756-.6.504-.9 1.224-.9 2.16 0 .936.3 1.656.9 2.16.6.504 1.392.756 2.376.756Zm-4.32 11.052c0 .888.408 1.548 1.224 1.98.84.456 1.86.684 3.06.684 1.152 0 2.088-.24 2.808-.72.72-.456 1.08-1.08 1.08-1.872 0-.648-.24-1.188-.72-1.62-.456-.432-1.38-.696-2.772-.792-.984-.072-1.896-.18-2.736-.324-.696.384-1.2.804-1.512 1.26-.288.456-.432.924-.432 1.404Z"/>
  <path fill="#696969" d="M385.632 624v-16.8h6.216c1.344 0 2.456.224 3.336.672.88.448 1.536 1.064 1.968 1.848.432.784.648 1.664.648 2.64 0 .928-.208 1.784-.624 2.568-.416.768-1.064 1.392-1.944 1.872-.88.464-2.008.696-3.384.696h-3.144V624h-3.072Zm3.072-9h2.952c1.072 0 1.84-.232 2.304-.696.48-.48.72-1.128.72-1.944 0-.832-.24-1.48-.72-1.944-.464-.48-1.232-.72-2.304-.72h-2.952V615Zm11.434 9v-17.28h3.072V624h-3.072Zm11.995.288c-1.2 0-2.264-.256-3.192-.768-.928-.512-1.656-1.232-2.184-2.16-.528-.928-.792-2-.792-3.216 0-1.232.256-2.328.768-3.288.528-.96 1.248-1.704 2.16-2.232.928-.544 2.016-.816 3.264-.816 1.168 0 2.2.256 3.096.768.896.512 1.592 1.216 2.088 2.112.512.88.768 1.864.768 2.952 0 .176-.008.36-.024.552 0 .192-.008.392-.024.6h-9.048c.064.928.384 1.656.96 2.184.592.528 1.304.792 2.136.792.624 0 1.144-.136 1.56-.408.432-.288.752-.656.96-1.104h3.12c-.224.752-.6 1.44-1.128 2.064-.512.608-1.152 1.088-1.92 1.44-.752.352-1.608.528-2.568.528Zm.024-9.984c-.752 0-1.416.216-1.992.648-.576.416-.944 1.056-1.104 1.92h5.928c-.048-.784-.336-1.408-.864-1.872-.528-.464-1.184-.696-1.968-.696Zm12.64 9.984c-1.024 0-1.864-.16-2.52-.48-.656-.336-1.144-.776-1.464-1.32-.32-.544-.48-1.144-.48-1.8 0-1.104.432-2 1.296-2.688.864-.688 2.16-1.032 3.888-1.032h3.024v-.288c0-.816-.232-1.416-.696-1.8-.464-.384-1.04-.576-1.728-.576-.624 0-1.168.152-1.632.456-.464.288-.752.72-.864 1.296h-3c.08-.864.368-1.616.864-2.256.512-.64 1.168-1.128 1.968-1.464.8-.352 1.696-.528 2.688-.528 1.696 0 3.032.424 4.008 1.272.976.848 1.464 2.048 1.464 3.6V624h-2.616l-.288-1.92c-.352.64-.848 1.168-1.488 1.584-.624.416-1.432.624-2.424.624Zm.696-2.4c.88 0 1.56-.288 2.04-.864.496-.576.808-1.288.936-2.136h-2.616c-.816 0-1.4.152-1.752.456-.352.288-.528.648-.528 1.08 0 .464.176.824.528 1.08.352.256.816.384 1.392.384Zm13.971 2.4c-1.056 0-1.984-.168-2.784-.504-.8-.352-1.44-.832-1.92-1.44s-.768-1.312-.864-2.112h3.096c.096.464.352.864.768 1.2.432.32.984.48 1.656.48.672 0 1.16-.136 1.464-.408.32-.272.48-.584.48-.936 0-.512-.224-.856-.672-1.032-.448-.192-1.072-.376-1.872-.552-.512-.112-1.032-.248-1.56-.408-.528-.16-1.016-.36-1.464-.6-.432-.256-.784-.576-1.056-.96-.272-.4-.408-.888-.408-1.464 0-1.056.416-1.944 1.248-2.664.848-.72 2.032-1.08 3.552-1.08 1.408 0 2.528.328 3.36.984.848.656 1.352 1.56 1.512 2.712h-2.904c-.176-.88-.84-1.32-1.992-1.32-.576 0-1.024.112-1.344.336-.304.224-.456.504-.456.84 0 .352.232.632.696.84.464.208 1.08.4 1.848.576.832.192 1.592.408 2.28.648.704.224 1.264.568 1.68 1.032.416.448.624 1.096.624 1.944.016.736-.176 1.4-.576 1.992-.4.592-.976 1.056-1.728 1.392-.752.336-1.64.504-2.664.504Zm13.474 0c-1.2 0-2.264-.256-3.192-.768-.928-.512-1.656-1.232-2.184-2.16-.528-.928-.792-2-.792-3.216 0-1.232.256-2.328.768-3.288.528-.96 1.248-1.704 2.16-2.232.928-.544 2.016-.816 3.264-.816 1.168 0 2.2.256 3.096.768.896.512 1.592 1.216 2.088 2.112.512.88.768 1.864.768 2.952 0 .176-.008.36-.024.552 0 .192-.008.392-.024.6h-9.048c.064.928.384 1.656.96 2.184.592.528 1.304.792 2.136.792.624 0 1.144-.136 1.56-.408.432-.288.752-.656.96-1.104h3.12c-.224.752-.6 1.44-1.128 2.064-.512.608-1.152 1.088-1.92 1.44-.752.352-1.608.528-2.568.528Zm.024-9.984c-.752 0-1.416.216-1.992.648-.576.416-.944 1.056-1.104 1.92h5.928c-.048-.784-.336-1.408-.864-1.872-.528-.464-1.184-.696-1.968-.696Zm20.086 9.984c-1.216 0-2.288-.264-3.216-.792-.928-.528-1.664-1.264-2.208-2.208-.528-.944-.792-2.024-.792-3.24 0-1.216.264-2.296.792-3.24.544-.944 1.28-1.68 2.208-2.208.928-.528 2-.792 3.216-.792 1.52 0 2.8.4 3.84 1.2 1.04.784 1.704 1.872 1.992 3.264h-3.24c-.16-.576-.48-1.024-.96-1.344-.464-.336-1.016-.504-1.656-.504-.848 0-1.568.32-2.16.96-.592.64-.888 1.528-.888 2.664 0 1.136.296 2.024.888 2.664.592.64 1.312.96 2.16.96.64 0 1.192-.16 1.656-.48.48-.32.8-.776.96-1.368h3.24c-.288 1.344-.952 2.424-1.992 3.24-1.04.816-2.32 1.224-3.84 1.224Zm14.271 0c-1.152 0-2.192-.264-3.12-.792-.912-.528-1.64-1.256-2.184-2.184-.528-.944-.792-2.032-.792-3.264 0-1.232.272-2.312.816-3.24.544-.944 1.272-1.68 2.184-2.208.928-.528 1.968-.792 3.12-.792 1.136 0 2.16.264 3.072.792.928.528 1.656 1.264 2.184 2.208.544.928.816 2.008.816 3.24 0 1.232-.272 2.32-.816 3.264-.528.928-1.256 1.656-2.184 2.184-.928.528-1.96.792-3.096.792Zm0-2.664c.8 0 1.496-.296 2.088-.888.592-.608.888-1.504.888-2.688 0-1.184-.296-2.072-.888-2.664-.592-.608-1.28-.912-2.064-.912-.816 0-1.52.304-2.112.912-.576.592-.864 1.48-.864 2.664 0 1.184.288 2.08.864 2.688.592.592 1.288.888 2.088.888Zm8.843 2.376v-11.904h2.712l.264 1.608c.384-.576.888-1.032 1.512-1.368.64-.352 1.376-.528 2.208-.528 1.84 0 3.144.712 3.912 2.136.432-.656 1.008-1.176 1.728-1.56.736-.384 1.536-.576 2.4-.576 1.552 0 2.744.464 3.576 1.392.832.928 1.248 2.288 1.248 4.08V624h-3.072v-6.432c0-1.024-.2-1.808-.6-2.352-.384-.544-.984-.816-1.8-.816-.832 0-1.504.304-2.016.912-.496.608-.744 1.456-.744 2.544V624h-3.072v-6.432c0-1.024-.2-1.808-.6-2.352-.4-.544-1.016-.816-1.848-.816-.816 0-1.48.304-1.992.912-.496.608-.744 1.456-.744 2.544V624h-3.072Zm28.26.288c-1.2 0-2.264-.256-3.192-.768-.928-.512-1.656-1.232-2.184-2.16-.528-.928-.792-2-.792-3.216 0-1.232.256-2.328.768-3.288.528-.96 1.248-1.704 2.16-2.232.928-.544 2.016-.816 3.264-.816 1.168 0 2.2.256 3.096.768.896.512 1.592 1.216 2.088 2.112.512.88.768 1.864.768 2.952 0 .176-.008.36-.024.552 0 .192-.008.392-.024.6h-9.048c.064.928.384 1.656.96 2.184.592.528 1.304.792 2.136.792.624 0 1.144-.136 1.56-.408.432-.288.752-.656.96-1.104h3.12c-.224.752-.6 1.44-1.128 2.064-.512.608-1.152 1.088-1.92 1.44-.752.352-1.608.528-2.568.528Zm.024-9.984c-.752 0-1.416.216-1.992.648-.576.416-.944 1.056-1.104 1.92h5.928c-.048-.784-.336-1.408-.864-1.872-.528-.464-1.184-.696-1.968-.696Zm21.311 9.984c-.896 0-1.68-.168-2.352-.504-.672-.336-1.216-.808-1.632-1.416l-.336 1.632h-2.736v-17.28h3.072v7.08c.384-.528.888-.992 1.512-1.392.64-.4 1.464-.6 2.472-.6 1.12 0 2.12.272 3 .816.88.544 1.576 1.288 2.088 2.232.512.944.768 2.016.768 3.216 0 1.2-.256 2.272-.768 3.216-.512.928-1.208 1.664-2.088 2.208-.88.528-1.88.792-3 .792Zm-.648-2.688c.976 0 1.784-.328 2.424-.984.64-.656.96-1.504.96-2.544s-.32-1.896-.96-2.568c-.64-.672-1.448-1.008-2.424-1.008-.992 0-1.808.336-2.448 1.008-.624.656-.936 1.504-.936 2.544s.312 1.896.936 2.568c.64.656 1.456.984 2.448.984Zm13.352 2.688c-1.024 0-1.864-.16-2.52-.48-.656-.336-1.144-.776-1.464-1.32-.32-.544-.48-1.144-.48-1.8 0-1.104.432-2 1.296-2.688.864-.688 2.16-1.032 3.888-1.032h3.024v-.288c0-.816-.232-1.416-.696-1.8-.464-.384-1.04-.576-1.728-.576-.624 0-1.168.152-1.632.456-.464.288-.752.72-.864 1.296h-3c.08-.864.368-1.616.864-2.256.512-.64 1.168-1.128 1.968-1.464.8-.352 1.696-.528 2.688-.528 1.696 0 3.032.424 4.008 1.272.976.848 1.464 2.048 1.464 3.6V624h-2.616l-.288-1.92c-.352.64-.848 1.168-1.488 1.584-.624.416-1.432.624-2.424.624Zm.696-2.4c.88 0 1.56-.288 2.04-.864.496-.576.808-1.288.936-2.136h-2.616c-.816 0-1.4.152-1.752.456-.352.288-.528.648-.528 1.08 0 .464.176.824.528 1.08.352.256.816.384 1.392.384Zm14.883 2.4c-1.216 0-2.288-.264-3.216-.792-.928-.528-1.664-1.264-2.208-2.208-.528-.944-.792-2.024-.792-3.24 0-1.216.264-2.296.792-3.24.544-.944 1.28-1.68 2.208-2.208.928-.528 2-.792 3.216-.792 1.52 0 2.8.4 3.84 1.2 1.04.784 1.704 1.872 1.992 3.264h-3.24c-.16-.576-.48-1.024-.96-1.344-.464-.336-1.016-.504-1.656-.504-.848 0-1.568.32-2.16.96-.592.64-.888 1.528-.888 2.664 0 1.136.296 2.024.888 2.664.592.64 1.312.96 2.16.96.64 0 1.192-.16 1.656-.48.48-.32.8-.776.96-1.368h3.24c-.288 1.344-.952 2.424-1.992 3.24-1.04.816-2.32 1.224-3.84 1.224Zm8.559-.288v-17.28h3.072v10.2l4.224-4.824h3.648l-4.872 5.424 5.664 6.48h-3.84l-4.824-5.976V624h-3.072Zm25.071.288c-1.152 0-2.192-.264-3.12-.792-.912-.528-1.64-1.256-2.184-2.184-.528-.944-.792-2.032-.792-3.264 0-1.232.272-2.312.816-3.24.544-.944 1.272-1.68 2.184-2.208.928-.528 1.968-.792 3.12-.792 1.136 0 2.16.264 3.072.792.928.528 1.656 1.264 2.184 2.208.544.928.816 2.008.816 3.24 0 1.232-.272 2.32-.816 3.264-.528.928-1.256 1.656-2.184 2.184-.928.528-1.96.792-3.096.792Zm0-2.664c.8 0 1.496-.296 2.088-.888.592-.608.888-1.504.888-2.688 0-1.184-.296-2.072-.888-2.664-.592-.608-1.28-.912-2.064-.912-.816 0-1.52.304-2.112.912-.576.592-.864 1.48-.864 2.664 0 1.184.288 2.08.864 2.688.592.592 1.288.888 2.088.888Zm8.843 2.376v-11.904h2.712l.24 2.016c.368-.704.896-1.264 1.584-1.68.704-.416 1.528-.624 2.472-.624 1.472 0 2.616.464 3.432 1.392.816.928 1.224 2.288 1.224 4.08V624h-3.072v-6.432c0-1.024-.208-1.808-.624-2.352-.416-.544-1.064-.816-1.944-.816-.864 0-1.576.304-2.136.912-.544.608-.816 1.456-.816 2.544V624h-3.072Zm20.32 0v-11.904h2.712l.264 1.608c.384-.576.888-1.032 1.512-1.368.64-.352 1.376-.528 2.208-.528 1.84 0 3.144.712 3.912 2.136.432-.656 1.008-1.176 1.728-1.56.736-.384 1.536-.576 2.4-.576 1.552 0 2.744.464 3.576 1.392.832.928 1.248 2.288 1.248 4.08V624h-3.072v-6.432c0-1.024-.2-1.808-.6-2.352-.384-.544-.984-.816-1.8-.816-.832 0-1.504.304-2.016.912-.496.608-.744 1.456-.744 2.544V624h-3.072v-6.432c0-1.024-.2-1.808-.6-2.352-.4-.544-1.016-.816-1.848-.816-.816 0-1.48.304-1.992.912-.496.608-.744 1.456-.744 2.544V624h-3.072Zm28.189.288c-1.152 0-2.192-.264-3.12-.792-.912-.528-1.64-1.256-2.184-2.184-.528-.944-.792-2.032-.792-3.264 0-1.232.272-2.312.816-3.24.544-.944 1.272-1.68 2.184-2.208.928-.528 1.968-.792 3.12-.792 1.136 0 2.16.264 3.072.792.928.528 1.656 1.264 2.184 2.208.544.928.816 2.008.816 3.24 0 1.232-.272 2.32-.816 3.264-.528.928-1.256 1.656-2.184 2.184-.928.528-1.96.792-3.096.792Zm0-2.664c.8 0 1.496-.296 2.088-.888.592-.608.888-1.504.888-2.688 0-1.184-.296-2.072-.888-2.664-.592-.608-1.28-.912-2.064-.912-.816 0-1.52.304-2.112.912-.576.592-.864 1.48-.864 2.664 0 1.184.288 2.08.864 2.688.592.592 1.288.888 2.088.888Zm15.899 2.664c-.896 0-1.68-.168-2.352-.504-.672-.336-1.216-.808-1.632-1.416l-.336 1.632h-2.736v-17.28h3.072v7.08c.384-.528.888-.992 1.512-1.392.64-.4 1.464-.6 2.472-.6 1.12 0 2.12.272 3 .816.88.544 1.576 1.288 2.088 2.232.512.944.768 2.016.768 3.216 0 1.2-.256 2.272-.768 3.216-.512.928-1.208 1.664-2.088 2.208-.88.528-1.88.792-3 .792Zm-.648-2.688c.976 0 1.784-.328 2.424-.984.64-.656.96-1.504.96-2.544s-.32-1.896-.96-2.568c-.64-.672-1.448-1.008-2.424-1.008-.992 0-1.808.336-2.448 1.008-.624.656-.936 1.504-.936 2.544s.312 1.896.936 2.568c.64.656 1.456.984 2.448.984Zm10.904-11.352c-.56 0-1.024-.168-1.392-.504-.352-.336-.528-.76-.528-1.272s.176-.928.528-1.248c.368-.336.832-.504 1.392-.504.56 0 1.016.168 1.368.504.368.32.552.736.552 1.248s-.184.936-.552 1.272c-.352.336-.808.504-1.368.504ZM689.641 624v-11.904h3.072V624h-3.072Zm6.278 0v-17.28h3.072V624h-3.072Zm11.995.288c-1.2 0-2.264-.256-3.192-.768-.928-.512-1.656-1.232-2.184-2.16-.528-.928-.792-2-.792-3.216 0-1.232.256-2.328.768-3.288.528-.96 1.248-1.704 2.16-2.232.928-.544 2.016-.816 3.264-.816 1.168 0 2.2.256 3.096.768.896.512 1.592 1.216 2.088 2.112.512.88.768 1.864.768 2.952 0 .176-.008.36-.024.552 0 .192-.008.392-.024.6h-9.048c.064.928.384 1.656.96 2.184.592.528 1.304.792 2.136.792.624 0 1.144-.136 1.56-.408.432-.288.752-.656.96-1.104h3.12c-.224.752-.6 1.44-1.128 2.064-.512.608-1.152 1.088-1.92 1.44-.752.352-1.608.528-2.568.528Zm.024-9.984c-.752 0-1.416.216-1.992.648-.576.416-.944 1.056-1.104 1.92h5.928c-.048-.784-.336-1.408-.864-1.872-.528-.464-1.184-.696-1.968-.696Z"/>
</svg>
