<?xml version="1.0" encoding="UTF-8" standalone="no"?>
<svg
   width="512"
   height="512"
   fill="none"
   viewBox="0 0 512 512"
   version="1.1"
   id="svg32"
   sodipodi:docname="3dsmax.svg"
   xml:space="preserve"
   inkscape:version="1.2 (dc2aedaf03, 2022-05-15)"
   xmlns:inkscape="http://www.inkscape.org/namespaces/inkscape"
   xmlns:sodipodi="http://sodipodi.sourceforge.net/DTD/sodipodi-0.dtd"
   xmlns="http://www.w3.org/2000/svg"
   xmlns:svg="http://www.w3.org/2000/svg"><defs
     id="defs36"><inkscape:path-effect
       effect="fillet_chamfer"
       id="path-effect2369"
       is_visible="true"
       lpeversion="1"
       nodesatellites_param="F,0,0,1,0,0,0,1 @ F,0,0,1,0,0,0,1 @ F,0,1,1,0,0,0,1 @ F,0,0,1,0,17.3125,0,1"
       unit="px"
       method="auto"
       mode="F"
       radius="14"
       chamfer_steps="1"
       flexible="false"
       use_knot_distance="true"
       apply_no_radius="true"
       apply_with_radius="true"
       only_selected="false"
       hide_knots="false" /><inkscape:path-effect
       effect="fillet_chamfer"
       id="path-effect2366"
       is_visible="true"
       lpeversion="1"
       nodesatellites_param="F,0,0,1,0,0,0,1 @ F,0,0,1,0,16.875,0,1 @ F,0,0,1,0,0,0,1 @ F,0,0,1,0,0,0,1"
       unit="px"
       method="auto"
       mode="F"
       radius="15"
       chamfer_steps="1"
       flexible="false"
       use_knot_distance="true"
       apply_no_radius="true"
       apply_with_radius="true"
       only_selected="false"
       hide_knots="false" /></defs><sodipodi:namedview
     id="namedview34"
     pagecolor="#505050"
     bordercolor="#eeeeee"
     borderopacity="1"
     inkscape:showpageshadow="0"
     inkscape:pageopacity="0"
     inkscape:pagecheckerboard="0"
     inkscape:deskcolor="#505050"
     showgrid="false"
     inkscape:zoom="1.4142136"
     inkscape:cx="142.83557"
     inkscape:cy="258.80108"
     inkscape:window-width="1920"
     inkscape:window-height="1009"
     inkscape:window-x="-8"
     inkscape:window-y="114"
     inkscape:window-maximized="1"
     inkscape:current-layer="svg32" /><path
     id="rect514"
     style="fill:#36687f;stroke-width:194.938;stroke-linecap:round;stroke-linejoin:round;stroke-opacity:0.85"
     d="M 57.336241,80.059459 H 497.3498 V 511.89823 H 74.648741 a 17.3125,17.3125 45 0 1 -17.3125,-17.3125 z"
     inkscape:path-effect="#path-effect2369"
     inkscape:original-d="M 57.336241,80.059459 H 497.3498 V 511.89823 H 57.336241 Z" /><path
     id="rect383"
     style="fill:#39a5cc;stroke-width:162.257;stroke-linecap:round;stroke-linejoin:round;stroke-opacity:0.85"
     d="M 92.559229,0 H 444.80519 a 16.875,16.875 45 0 1 16.875,16.875 V 359.7655 H 92.559229 Z"
     inkscape:path-effect="#path-effect2366"
     inkscape:original-d="M 92.559229,0 H 461.68019 V 359.7655 H 92.559229 Z" /><path
     id="rect462"
     style="display:inline;fill:#7fc5de;fill-opacity:1;stroke-width:162.257;stroke-linecap:round;stroke-linejoin:round;stroke-opacity:0.85"
     d="M 14.950237,47.063842 92.559229,0 v 359.7655 l -77.608992,47.06385 z"
     sodipodi:nodetypes="ccccc" /><path
     style="display:inline;fill:#ffffff;fill-opacity:1;stroke:none;stroke-width:0.153417;stroke-linecap:butt;stroke-linejoin:miter;stroke-dasharray:none;stroke-opacity:1"
     d="m 199.12809,133.6036 h 46.52876 c 1.28015,-14.6321 11.07663,-23.03264 26.08026,-23.03264 15.92556,0 23.10267,8.30182 23.10267,19.06693 l 0.0397,8.98712 c 0,12.2319 -11.38754,19.86171 -25.84811,19.86171 h -18.23859 v 33.01933 h 17.42497 c 14.35428,0 33.71308,6.18828 33.71308,24.35476 v 9.0515 c 0,14.10976 -10.35304,24.56689 -28.40349,24.56689 -17.5356,0 -27.82759,-8.55637 -30.39612,-23.12321 h -46.44399 c 2.26268,25.86269 20.40554,58.1972 78.75735,58.1972 51.37542,0 75.82997,-30.92392 75.82997,-52.89174 v -17.81712 c 0,-22.1186 -20.64402,-37.29182 -43.08561,-41.24888 16.3961,-2.89107 35.51651,-17.92072 35.51651,-34.87873 v -13.84417 c 0,-21.48026 -20.75736,-47.722805 -70.5335,-47.722805 -49.77614,0 -74.04389,31.115195 -74.04389,57.453855 z"
     id="path1608"
     sodipodi:nodetypes="cccccccccccsccsccccczc" /><path
     style="fill:#ffffff;fill-opacity:1;stroke:none;stroke-width:1.53417px;stroke-linecap:butt;stroke-linejoin:miter;stroke-opacity:1"
     d="m 165.37918,471.10003 15.84933,-7.6e-4 v -51.91595 l 13.87102,51.91633 h 17.52105 l 12.93246,-48.41358 v 48.41358 h 17.5421 v -75.49352 h -22.44009 l -16.33388,60.9581 -15.69408,-60.9581 h -23.24791 z"
     id="path1618"
     sodipodi:nodetypes="cccccccccccccc" /><path
     style="fill:#ffffff;fill-opacity:1;stroke:none;stroke-width:1.53417px;stroke-linecap:butt;stroke-linejoin:miter;stroke-opacity:1"
     d="m 253.21108,471.09965 h 18.31418 l 15.64303,-64.12058 16.30623,64.12058 h 19.18181 L 299.6917,395.60613 h -25.23619 z"
     id="path1620"
     sodipodi:nodetypes="cccccccc" /><path
     style="fill:#ffffff;fill-opacity:1;stroke:none;stroke-width:1.53417px;stroke-linecap:butt;stroke-linejoin:miter;stroke-opacity:1"
     d="m 273.13958,454.60413 h 29.58075 l -4.03543,-13.99691 h -22.58109 z"
     id="path1622"
     sodipodi:nodetypes="ccccc" /><path
     style="fill:#ffffff;fill-opacity:1;stroke:none;stroke-width:0.306834;stroke-linecap:butt;stroke-linejoin:miter;stroke-dasharray:none;stroke-opacity:1"
     d="m 348.49754,471.09965 14.86229,-28.71854 14.79801,28.71854 h 21.01531 l -24.02208,-41.62176 21.48111,-33.87176 h -19.60863 l -13.27096,24.43941 -12.95379,-24.43941 h -20.08806 l 21.36048,35.5611 -23.78136,39.93242 z"
     id="path1624"
     sodipodi:nodetypes="ccccccccccccc" /></svg>
