<svg xmlns="http://www.w3.org/2000/svg" xml:space="preserve" width="512" height="512" style="clip-rule:evenodd;fill-rule:evenodd;stroke-linejoin:round;stroke-miterlimit:2" viewBox="0 0 512 512">
  <path d="M35 0h170a35 35 45 0 1 35 35v170a35 35 135 0 1-35 35H35a35 35 45 0 1-35-35V35A35 35 135 0 1 35 0Z" style="fill:#a7f175" transform="scale(2.13333)"/>
  <path d="M240.87 354.089c-22.214 0-36.345-13.477-36.345-30.569 0-73.146 192.35-87.789 192.35-165.468 0-47.387-54.893-67.812-124.965-67.812-42.624 0-90.818 7.89-135.577 22.005v92.668c65.96-48.043 139.247-68.608 186.453-68.608 29.683 0 49.824 8.282 49.824 23.121 0 61.137-265.286 51.45-265.286 183.556 0 50.637 34.818 79.648 83.803 79.648 74.095 0 130.14-72.006 172.069-159.78l8.495 3.05c-22.082 53.64-67.778 112.453-76.679 150.26h95.392V220.565h-22.03c-31.98 69.492-78.842 133.526-127.504 133.526" style="fill:#000;fill-rule:nonzero;stroke-width:2.13333"/>
</svg>
