<svg xmlns="http://www.w3.org/2000/svg" width="512" height="512" fill="none" viewBox="0 0 512 512">
  <g clip-path="url(#a)">
    <path fill="#1E3101" d="M421.333 0H90.6668C40.5929 0 0 41.6336 0 92.9912V419.009C0 470.366 40.5929 512 90.6668 512H421.333C471.407 512 512 470.366 512 419.009V92.9912C512 41.6336 471.407 0 421.333 0Z"/>
    <path fill="#99E83F" d="M94.0636 358.347v-224.05c-.033-.336-.0011-.675.0941-.999.0953-.323.2518-.624.4607-.884.2089-.261.466-.477.7566-.636.2906-.159.6089-.257.9366-.289h.1598c3.4269-.236 8.4726-.41 15.1066-.533 6.633-.123 14.426-.225 23.358-.348 8.932-.123 18.433-.174 28.504-.174 27.481 0 50.267 4.812 68.357 14.438 17.145 8.714 31.329 22.526 40.703 39.635 9.045 16.791 13.564 36.107 13.557 57.946.279 15.278-2.089 30.485-6.993 44.913-4.325 12.35-10.873 23.758-19.302 33.631-7.961 9.252-17.294 17.161-27.655 23.434-10.273 6.213-21.382 10.84-32.97 13.731-11.347 2.898-22.994 4.377-34.688 4.406h-25.576c-9.039 0-17.451-.058-25.237-.174-7.787-.116-13.628-.293-17.5242-.533-1.3588 0-2.0482-1.168-2.0482-3.514ZM141.46 173.748v145.845c2.518 0 4.809.058 6.874.174l6.354.348c2.168.123 4.636.185 7.383.185 10.389.133 20.726-1.537 30.572-4.939 8.816-3.07 16.852-8.122 23.519-14.787 6.714-6.872 11.874-15.173 15.116-24.316 3.697-10.509 5.501-21.619 5.325-32.79.21-10.517-1.54-20.979-5.155-30.823-3.22-8.494-8.335-16.095-14.937-22.195-6.749-6.097-14.724-10.596-23.358-13.177-9.647-2.902-19.66-4.325-29.713-4.222-4.576 0-8.412.051-11.499.174-3.088.123-6.584.297-10.481.523Zm279.584 58.858c-6.447-3.405-13.313-5.9-20.412-7.419-7.839-1.848-15.854-2.797-23.898-2.828-4.348-.114-8.69.421-12.888 1.588-2.668.615-5.038 2.175-6.694 4.407-1.12 1.784-1.717 3.861-1.718 5.984.066 2.059.789 4.039 2.058 5.636 2.009 2.406 4.46 4.383 7.213 5.82 4.9 2.688 9.947 5.083 15.116 7.173 11.529 3.975 22.543 9.374 32.8 16.077 6.991 4.521 12.776 10.754 16.835 18.138 3.415 6.99 5.129 14.725 4.995 22.543.209 10.326-2.667 20.47-8.242 29.07-5.967 8.727-14.251 15.513-23.868 19.552-10.464 4.693-23.356 7.039-38.675 7.039-9.727.1-19.438-.844-28.973-2.818-7.2-1.394-14.188-3.761-20.781-7.039-.75-.4-1.373-1.01-1.798-1.759-.425-.75-.633-1.607-.6-2.473V313.25c-.043-.373.014-.75.165-1.092.152-.341.392-.634.694-.845.295-.169.634-.243.971-.212.337.031.657.165.918.386 7.853 4.969 16.44 8.599 25.426 10.749 8.172 2.102 16.554 3.223 24.977 3.341 7.993 0 13.891-1.056 17.694-3.166 1.706-.802 3.15-2.095 4.155-3.72 1.005-1.626 1.53-3.516 1.51-5.441 0-3.04-1.715-5.974-5.145-8.802-3.431-2.829-10.424-6.244-20.981-10.247-10.783-3.851-21.007-9.183-30.392-15.852-6.711-4.794-12.239-11.127-16.145-18.496-3.385-6.94-5.098-14.611-4.996-22.369.026-9.326 2.567-18.462 7.343-26.396 5.396-8.76 13.148-15.731 22.32-20.074 10.071-5.165 22.666-7.747 37.785-7.747 8.852-.078 17.695.57 26.446 1.937 6.164.817 12.18 2.543 17.864 5.123.465.137.894.384 1.251.72.357.336.633.753.807 1.217.232.861.346 1.75.339 2.644v35.577c.028.412-.05.824-.225 1.196s-.442.691-.774.925c-.368.248-.798.38-1.239.38-.44 0-.87-.132-1.238-.38Z"/>
  </g>
  <defs>
    <clipPath id="a">
      <path fill="#fff" d="M0 0h512v512H0z"/>
    </clipPath>
  </defs>
</svg>
