<svg xmlns="http://www.w3.org/2000/svg" width="512.041" height="502.439" viewBox="0 0 135.478 132.937">
  <path fill="#51a2da" d="M67.771 6.657c-33.661 0-60.916 26.754-60.975 59.785h-.012v46.28h.012c.015 7.49 6.21 13.558 13.85 13.558h47.13c33.668-.022 60.917-26.772 60.917-59.785 0-33.03-27.284-59.784-60.976-59.784Z" style="stroke-width:.899848;fill:#429bd6;fill-opacity:1"/>
  <path fill="#fff" d="M80.163 31.257c-9.51 0-17.91 7.02-19.072 16.232a19.66 19.66 0 0 0-.105 2.026l.01 37.663c0 7.225-5.514 12.142-12.403 12.142-6.9 0-12.457-5.407-12.457-12.154.113-7.405 6.157-12.103 13.207-12.308h.038l7.158-.065V64.85l-7.158.053c-12.832-.113-23.018 9.742-23.39 22.27 0 12.184 10.206 22.116 22.598 22.116 11.69 0 21.417-8.956 22.478-20.163.154-3.814.08-8.848.08-8.848.021-2.073-.033-1.329-.011-5.444l8.878-.065c6.87.047 6.793-10.101-.079-9.962l-8.8.064c0-5.11.08-10.186 0-15.304.005-4.425 4.279-8.336 9.02-8.336 4.743 0 9.76 2.322 9.76 8.336 0 .86-.018 1.36-.066 1.678-.529 2.79 1.413 5.455 4.276 5.858 2.862.397 5.491-1.63 5.774-4.451.164-1.116.158-2.1.158-3.084 0-10.605-9.664-18.292-19.9-18.292z" style="stroke-width:.899848"/>
</svg>
