<svg xmlns="http://www.w3.org/2000/svg" width="512" height="512" fill="none" viewBox="0 0 512 512">
  <path fill="#0acf83" d="M172.27167268 507.18449154c46.19832265 0 83.72881796-37.48928536 83.72881796-83.72783678V339.7278368h-83.72881796c-46.19734146 0-83.72783678 37.49026655-83.72783678 83.72881796 0 46.23855142 37.53049531 83.72783678 83.72783678 83.72783678Z"/>
  <path fill="#a259ff" d="M88.5438359 256.00000002c0-46.19734146 37.53049531-83.72783678 83.72783678-83.72783678h83.72881796V339.7278368h-83.72881796c-46.19734146 0-83.72783678-37.48928536-83.72783678-83.72783678Z"/>
  <path fill="#f24e1e" d="M88.5438359 88.54363963c0-46.19763582 37.53049531-83.72813113 83.72783678-83.72813113h83.72881796v167.45665474h-83.72881796c-46.19734146 0-83.72783678-37.49026655-83.72783678-83.7285236Z"/>
  <path fill="#ff7262" d="M256.00049064 4.8155085h83.72783678c46.19734146 0 83.72783678 37.53049531 83.72783678 83.72813113 0 46.23825706-37.48928536 83.72852361-83.72783678 83.72852361h-83.72783678z"/>
  <path fill="#1abcfe" d="M423.4561642 256.00000002c0 46.23855142-37.48928536 83.72783678-83.72783678 83.72783678-46.23855142 0-83.72783678-37.48928536-83.72783678-83.72783678 0-46.19734146 37.48928536-83.72783678 83.72783678-83.72783678 46.23855142 0 83.72783678 37.53049532 83.72783678 83.72783678z"/>
  <path fill="#0acf83" d="M172.27167268 507.18449154c46.19832265 0 83.72881796-37.48928536 83.72881796-83.72783678V339.7278368h-83.72881796c-46.19734146 0-83.72783678 37.49026655-83.72783678 83.72881796 0 46.23855142 37.53049531 83.72783678 83.72783678 83.72783678Z"/>
  <path fill="#a259ff" d="M88.5438359 256.00000002c0-46.19734146 37.53049531-83.72783678 83.72783678-83.72783678h83.72881796V339.7278368h-83.72881796c-46.19734146 0-83.72783678-37.48928536-83.72783678-83.72783678Z"/>
  <path fill="#f24e1e" d="M88.5438359 88.54363963c0-46.19763582 37.53049531-83.72813113 83.72783678-83.72813113h83.72881796v167.45665474h-83.72881796c-46.19734146 0-83.72783678-37.49026655-83.72783678-83.7285236Z"/>
  <path fill="#ff7262" d="M256.00049064 4.8155085h83.72783678c46.19734146 0 83.72783678 37.53049531 83.72783678 83.72813113 0 46.23825706-37.48928536 83.72852361-83.72783678 83.72852361h-83.72783678z"/>
  <path fill="#1abcfe" d="M423.4561642 256.00000002c0 46.23855142-37.48928536 83.72783678-83.72783678 83.72783678-46.23855142 0-83.72783678-37.48928536-83.72783678-83.72783678 0-46.19734146 37.48928536-83.72783678 83.72783678-83.72783678 46.23855142 0 83.72783678 37.53049532 83.72783678 83.72783678z"/>
  <path fill="#0acf83" d="M172.27167268 507.18449154c46.19832265 0 83.72881796-37.48928536 83.72881796-83.72783678V339.7278368h-83.72881796c-46.19734146 0-83.72783678 37.49026655-83.72783678 83.72881796 0 46.23855142 37.53049531 83.72783678 83.72783678 83.72783678Z"/>
  <path fill="#a259ff" d="M88.5438359 256.00000002c0-46.19734146 37.53049531-83.72783678 83.72783678-83.72783678h83.72881796V339.7278368h-83.72881796c-46.19734146 0-83.72783678-37.48928536-83.72783678-83.72783678Z"/>
  <path fill="#f24e1e" d="M88.5438359 88.54363963c0-46.19763582 37.53049531-83.72813113 83.72783678-83.72813113h83.72881796v167.45665474h-83.72881796c-46.19734146 0-83.72783678-37.49026655-83.72783678-83.7285236Z"/>
  <path fill="#ff7262" d="M256.00049064 4.8155085h83.72783678c46.19734146 0 83.72783678 37.53049531 83.72783678 83.72813113 0 46.23825706-37.48928536 83.72852361-83.72783678 83.72852361h-83.72783678z"/>
  <path fill="#1abcfe" d="M423.4561642 256.00000002c0 46.23855142-37.48928536 83.72783678-83.72783678 83.72783678-46.23855142 0-83.72783678-37.48928536-83.72783678-83.72783678 0-46.19734146 37.48928536-83.72783678 83.72783678-83.72783678 46.23855142 0 83.72783678 37.53049532 83.72783678 83.72783678z"/>
</svg>
