<svg width="512" height="512" fill="none" xml:space="preserve" xmlns="http://www.w3.org/2000/svg"><path d="M62 0h388a62 62 45 0 1 62 62v388a62 62 135 0 1-62 62H62a62 62 45 0 1-62-62V62A62 62 135 0 1 62 0Z" style="fill:#333;fill-opacity:1;stroke:none;stroke-width:29.8908;stroke-linecap:round;stroke-linejoin:round"/><path style="fill:#fdcc08;fill-opacity:1;stroke:none;stroke-width:1px;stroke-linecap:butt;stroke-linejoin:miter;stroke-opacity:1" d="M256 214.75c-72.316 0-157.106 16.734-206.188 74.625-2.236 2.638-2.492 6.092-.124 7.75 2.367 1.658 5.243.336 7.595-2.098 51.175-52.966 128.255-65.09 198.717-65.09 70.462 0 147.542 12.124 198.717 65.09 2.352 2.434 5.228 3.756 7.596 2.098 2.367-1.658 2.111-5.112-.125-7.75C413.106 231.485 328.316 214.75 256 214.75Z"/></svg>