<svg xmlns="http://www.w3.org/2000/svg" width="652" height="512" fill="none" viewBox="0 0 652 512">
  <g clip-path="url(#a)" transform="translate(-11.147493 -105.38554) scale(1.33419)">
    <path fill="url(#b)" fill-rule="evenodd" stroke="#2e3436" stroke-miterlimit="10" stroke-width="6.58333" d="M110.66 132.991s30.661 63.228 102.392 61.444c150.32-3.771 176.679-82.186 180.451-93.5 3.771-11.3134 9.541-9.5997 10.875.856C453.405 546.797 64.1445 355.863 50.3201 280.069c77.3099-22.627 58.4539-65.997 58.4539-65.997Z" clip-rule="evenodd" style="fill:url(#b)"/>
    <path fill="url(#c)" fill-rule="evenodd" d="M167.87 320.705c71.881 14.376 108.487 1.046 129.911-15.497-5.657-7.307-15.321-15.32-15.321-15.32s25.102 6.975 33.941 18.384c8.814 11.377 3.273 18.387.966 32.943-5.135-12.785-14.719-17.58-16.017-22.66-19.267 26.634-67.269 25.528-133.48 2.15z" clip-rule="evenodd" style="fill:url(#c)"/>
    <path stroke="url(#d)" stroke-miterlimit="10" stroke-width="6.58333" d="M394.333 126.333c-5.994 9.887-15.002 21.687-28.666 33-28.074 23.243-75.206 44.399-152.334 46.334-45.06 1.12-74.162-20.631-92-40L120 213.333c1.452 4.468 4.432 14.832-.667 29-5.486 15.246-22.9812 30.842-52.9997 42.667 2.6702 5.568 5.2852 11.132 13.3333 19C90.6315 314.719 105.875 326.273 124 336.667c36.25 20.788 83.217 37.261 127 38 43.783.739 83.809-13.169 111.333-53.334 25.374-37.026 39.28-99.711 32-195z" clip-rule="evenodd" opacity=".185393" style="stroke:url(#d)"/>
    <path fill="url(#e)" fill-rule="evenodd" stroke="#888a85" stroke-miterlimit="10" stroke-width="6.58333" d="M188.913 228.215c.002 5.696-1.119 11.337-3.298 16.6-2.179 5.263-5.373 10.045-9.4 14.073-4.028 4.029-8.809 7.224-14.072 9.404-5.262 2.181-10.903 3.303-16.599 3.303s-11.336-1.122-16.599-3.303c-5.262-2.18-10.044-5.375-14.071-9.404-4.028-4.028-7.222-8.81-9.401-14.073-2.179-5.263-3.299-10.904-3.298-16.6-.001-5.697 1.119-11.337 3.298-16.6 2.179-5.264 5.373-10.046 9.401-14.074 4.027-4.028 8.809-7.224 14.071-9.404 5.263-2.18 10.903-3.303 16.599-3.303s11.337 1.123 16.599 3.303c5.263 2.18 10.044 5.376 14.072 9.404 4.027 4.028 7.221 8.81 9.4 14.074 2.179 5.263 3.3 10.903 3.298 16.6z" clip-rule="evenodd" style="fill:url(#e)"/>
    <path fill="url(#f)" fill-rule="evenodd" stroke="#000" stroke-miterlimit="10" stroke-width="6.58333" d="M102.519 244.555c10.095 13.992 15.829 30.259 15.94 45.222.112 14.963-5.408 27.396-15.344 34.564-9.9366 7.169-23.4761 8.485-37.64 3.66-14.164-4.825-27.7922-15.396-37.8866-29.388-10.0944-13.993-15.8281-30.259-15.9398-45.222-.1117-14.963 5.4079-27.396 15.3444-34.565 9.9364-7.168 23.4759-8.485 37.6399-3.66 14.164 4.825 27.7922 15.397 37.8861 29.389z" clip-rule="evenodd" style="fill:url(#f)"/>
    <path fill="#2e3436" fill-rule="evenodd" stroke="#000" stroke-miterlimit="10" stroke-width="6.58333" d="M176.567 234.64c.001 2.742-.539 5.458-1.588 7.992-1.049 2.535-2.587 4.837-4.526 6.777-1.939 1.94-4.241 3.478-6.775 4.528-2.534 1.05-5.25 1.59-7.993 1.59-2.742 0-5.458-.54-7.992-1.59s-4.836-2.588-6.775-4.528c-1.939-1.94-3.477-4.242-4.526-6.777-1.049-2.534-1.589-5.25-1.588-7.992-.001-2.743.539-5.459 1.588-7.993 1.049-2.534 2.587-4.837 4.526-6.777 1.939-1.94 4.241-3.478 6.775-4.528 2.534-1.05 5.25-1.59 7.992-1.59 2.743 0 5.459.54 7.993 1.59 2.534 1.05 4.836 2.588 6.775 4.528 1.939 1.94 3.477 4.243 4.526 6.777s1.589 5.25 1.588 7.993z" clip-rule="evenodd"/>
    <path stroke="url(#g)" stroke-miterlimit="10" stroke-width="6.58333" d="M30.7757 228.356c-6.8151 5.104-10.4068 13.741-10.0832 25.46.3236 11.72 4.9487 26.069 14.4415 38.743 9.4929 12.674 21.9619 21.148 33.1173 24.755 11.1555 3.606 20.4533 2.588 27.2683-2.516 6.8154-5.104 10.4194-14.153 10.1504-25.927-.27-11.773-4.77-25.829-14.2419-38.476-9.4722-12.646-21.6948-20.918-32.9175-24.488-11.2226-3.57-20.9199-2.655-27.7349 2.449z" clip-rule="evenodd" opacity=".280899" style="stroke:url(#g)"/>
    <path fill="#fff" fill-rule="evenodd" d="M62.2254 248.014c.0006 2.971-.4867 5.914-1.4341 8.66-.9473 2.746-2.3362 5.241-4.0872 7.343-1.751 2.102-3.8299 3.769-6.1179 4.906-2.288 1.138-4.7404 1.723-7.217 1.723-2.4766 0-4.9289-.585-7.217-1.723-2.288-1.137-4.3669-2.804-6.1179-4.906-1.751-2.102-3.1399-4.597-4.0872-7.343-.9474-2.746-1.4347-5.689-1.4341-8.66-.0006-2.972.4867-5.915 1.4341-8.661.9473-2.746 2.3362-5.241 4.0872-7.343 1.751-2.102 3.8299-3.769 6.1179-4.906 2.2881-1.138 4.7404-1.723 7.217-1.723 2.4766 0 4.929.585 7.217 1.723 2.288 1.137 4.3669 2.804 6.1179 4.906 1.751 2.102 3.1399 4.597 4.0872 7.343.9474 2.746 1.4347 5.689 1.4341 8.661zm99.8846-23.012c0 3.834-1.523 7.511-4.234 10.222-2.711 2.711-6.388 4.234-10.222 4.234-3.834 0-7.511-1.523-10.222-4.234-2.711-2.711-4.234-6.388-4.234-10.222 0-3.834 1.523-7.511 4.234-10.222 2.711-2.711 6.388-4.235 10.222-4.235 3.834 0 7.511 1.524 10.222 4.235 2.711 2.711 4.234 6.388 4.234 10.222z" clip-rule="evenodd"/>
    <path fill="url(#h)" fill-rule="evenodd" stroke="#888a85" stroke-miterlimit="10" stroke-width="6.58333" d="M286.023 232.929c.001 6.687-1.314 13.308-3.872 19.487-2.558 6.178-6.308 11.792-11.035 16.521-4.728 4.729-10.341 8.48-16.519 11.039-6.178 2.56-12.799 3.877-19.486 3.877-6.687 0-13.308-1.317-19.486-3.877-6.178-2.559-11.791-6.31-16.519-11.039-4.727-4.729-8.477-10.343-11.035-16.521-2.558-6.179-3.873-12.8-3.872-19.487-.001-6.687 1.314-13.309 3.872-19.487 2.558-6.179 6.308-11.793 11.035-16.522 4.728-4.729 10.341-8.48 16.519-11.039 6.178-2.56 12.799-3.877 19.486-3.877 6.687 0 13.308 1.317 19.486 3.877 6.178 2.559 11.791 6.31 16.519 11.039 4.727 4.729 8.477 10.343 11.035 16.522 2.558 6.178 3.873 12.8 3.872 19.487z" clip-rule="evenodd" style="fill:url(#h)"/>
    <path fill="#2e3436" fill-rule="evenodd" stroke="#000" stroke-miterlimit="10" stroke-width="6.58333" d="M271.529 240.471c.001 3.22-.632 6.408-1.864 9.383-1.231 2.975-3.037 5.678-5.313 7.955s-4.979 4.083-7.954 5.316c-2.974 1.232-6.162 1.866-9.382 1.866-3.22 0-6.408-.634-9.382-1.866-2.975-1.233-5.678-3.039-7.954-5.316-2.276-2.277-4.082-4.98-5.313-7.955-1.232-2.975-1.865-6.163-1.864-9.383-.001-3.22.632-6.408 1.864-9.383 1.231-2.975 3.037-5.678 5.313-7.955s4.979-4.083 7.954-5.316c2.974-1.232 6.162-1.866 9.382-1.866 3.22 0 6.408.634 9.382 1.866 2.975 1.233 5.678 3.039 7.954 5.316 2.276 2.277 4.082 4.98 5.313 7.955 1.232 2.975 1.865 6.163 1.864 9.383z" clip-rule="evenodd"/>
    <path fill="#fff" fill-rule="evenodd" d="M254.558 229.157c0 4.501-1.787 8.818-4.97 12-3.183 3.183-7.499 4.971-12 4.971s-8.817-1.788-12-4.971c-3.183-3.182-4.971-7.499-4.971-12s1.788-8.817 4.971-12c3.183-3.182 7.499-4.97 12-4.97s8.817 1.788 12 4.97c3.183 3.183 4.97 7.499 4.97 12z" clip-rule="evenodd"/>
    <path fill="url(#i)" stroke="#673907" stroke-linecap="round" stroke-width="6.58334" d="m390.542 383.507 9.279-19.642c-36.965-25.747-104.372-43.585-104.372-43.585-11.736-5.145-15.139 5.353-6.938 11.947 0 0 58.254 39.748 102.031 51.28z" style="fill:url(#i)"/>
    <path fill="url(#j)" stroke="#888a85" stroke-linecap="round" stroke-width="6.58334" d="m437.55 402.317 4.937-11.682-41.156-25.074-3.237-.204-1.507-4.443c-5.794 3.818-14.009 17.705-11.551 25.357l4.335-1.753 2.427 2.24z" style="fill:url(#j)"/>
    <path stroke="#fff" stroke-linecap="round" stroke-linejoin="round" stroke-width="6.58334" d="m410.792 381.286 27.249 10.932"/>
    <path fill="url(#k)" d="M497.043 451.85c-13.535-42.909-18.771-77.094-51.48-73.361-26.359 3.008-27.327 41.422.213 51.444 26.529 9.654 51.267 21.917 51.267 21.917z" style="fill:url(#k)"/>
    <path fill="#fff" d="M448.049 381.712c1.384-.443 2.843-.608 4.292-.486 1.449.122 2.861.529 4.155 1.197s2.444 1.585 3.385 2.698c.942 1.112 1.655 2.399 2.1 3.786.446 1.388.614 2.848.495 4.299-.118 1.451-.521 2.864-1.186 4.158-.664 1.293-1.576 2.443-2.685 3.382-1.109.939-2.392 1.65-3.777 2.092-1.384.442-2.843.607-4.292.485-1.449-.122-2.861-.529-4.155-1.197s-2.444-1.585-3.386-2.697c-.941-1.113-1.654-2.4-2.1-3.787-.445-1.387-.613-2.848-.494-4.299.118-1.451.521-2.864 1.185-4.158.665-1.293 1.577-2.442 2.686-3.382 1.109-.939 2.392-1.65 3.777-2.091z" opacity=".527778"/>
    <path fill="#fff" d="M399.211 365.686c.934-.299 1.918-.41 2.896-.328.978.082 1.931.357 2.804.808.873.451 1.649 1.069 2.284 1.82.635.75 1.117 1.619 1.417 2.555.301.936.414 1.922.334 2.901-.08.979-.352 1.932-.8 2.805-.448.873-1.064 1.648-1.812 2.282-.748.634-1.614 1.113-2.548 1.411-.935.299-1.919.41-2.897.328-.978-.083-1.93-.357-2.803-.808-.873-.451-1.649-1.069-2.285-1.82-.635-.751-1.116-1.619-1.417-2.555-.3-.936-.413-1.922-.333-2.901.08-.979.352-1.932.8-2.805.448-.873 1.064-1.648 1.812-2.282.748-.634 1.614-1.113 2.548-1.411z"/>
    <path fill="url(#l)" d="M480.997 426.766s-4.303-15.544-13.377-23.538c-3.21-2.828.708-7.115 3.754-3.441 6.578 7.936 9.623 26.979 9.623 26.979z" opacity=".427778" style="fill:url(#l)"/>
    <path fill="url(#m)" fill-rule="evenodd" d="M245.366 338.523c15.972 1.526 30.396-2.903 36.394-5.056 1.047-5.924 5.723-17.294 21.825-18.043l-5.657-9.899s-20.978 14.378-43.37 18.62z" clip-rule="evenodd" style="fill:url(#m)"/>
  </g>
  <defs>
    <linearGradient id="c" x1="304.14499" x2="185.351" y1="303.246" y2="326.81601" gradientUnits="userSpaceOnUse">
      <stop/>
      <stop offset="1" stop-opacity="0"/>
    </linearGradient>
    <linearGradient id="d" x1="159.66701" x2="421.595" y1="203.847" y2="501.181" gradientUnits="userSpaceOnUse">
      <stop stop-color="#fff"/>
      <stop offset="1" stop-color="#fff" stop-opacity="0"/>
    </linearGradient>
    <linearGradient id="g" x1="40.2934" x2="90.039902" y1="237.302" y2="309.423" gradientUnits="userSpaceOnUse">
      <stop stop-color="#fff"/>
      <stop offset="1" stop-color="#fff" stop-opacity="0"/>
    </linearGradient>
    <linearGradient id="i" x1="366.021" x2="345.25201" y1="341.51599" y2="389.746" gradientUnits="userSpaceOnUse">
      <stop stop-color="#6E3D09"/>
      <stop offset=".242424" stop-color="#EA8113"/>
      <stop offset=".621212" stop-color="#5C3307"/>
      <stop offset="1" stop-color="#E07C12"/>
    </linearGradient>
    <linearGradient id="j" x1="414.23499" x2="423.41501" y1="394.293" y2="374.68301" gradientUnits="userSpaceOnUse">
      <stop stop-color="#BDBDBD"/>
      <stop offset=".333333" stop-color="#E2E2E2"/>
      <stop offset=".666667" stop-color="#A3A3A3"/>
      <stop offset="1" stop-color="#DDD"/>
    </linearGradient>
    <linearGradient id="l" x1="468.733" x2="481.76099" y1="395.634" y2="418.30801" gradientUnits="userSpaceOnUse">
      <stop stop-color="#fff"/>
      <stop offset="1" stop-color="#fff" stop-opacity="0"/>
    </linearGradient>
    <linearGradient id="m" x1="279.07101" x2="259.508" y1="325.79501" y2="330.509" gradientUnits="userSpaceOnUse">
      <stop/>
      <stop offset="1" stop-opacity="0"/>
    </linearGradient>
    <radialGradient id="b" cx="0" cy="0" r="1" gradientTransform="matrix(363.611 0 0 265.964 176.615 237.867)" gradientUnits="userSpaceOnUse">
      <stop stop-color="#857C63"/>
      <stop offset="1" stop-color="#221F19"/>
    </radialGradient>
    <radialGradient id="e" cx="0" cy="0" r="1" gradientTransform="translate(145.544 197.695) scale(63.172)" gradientUnits="userSpaceOnUse">
      <stop stop-color="#fff"/>
      <stop offset="1" stop-color="#B9B9B0"/>
    </radialGradient>
    <radialGradient id="f" cx="0" cy="0" r="1" gradientTransform="matrix(41.09654 -23.7271 27.69345 47.96646 47.7204 248.917)" gradientUnits="userSpaceOnUse">
      <stop stop-color="#5B676B"/>
      <stop offset="1" stop-color="#141718"/>
    </radialGradient>
    <radialGradient id="h" cx="0" cy="0" r="1" gradientTransform="matrix(74.1585 0 0 74.1584 235.111 197.102)" gradientUnits="userSpaceOnUse">
      <stop stop-color="#fff"/>
      <stop offset="1" stop-color="#B9B9B0"/>
    </radialGradient>
    <radialGradient id="k" cx="0" cy="0" r="1" gradientTransform="matrix(-15.4475 -48.97234 47.1159 -14.86192 438.376 406.383)" gradientUnits="userSpaceOnUse">
      <stop stop-color="#696969"/>
      <stop offset="1"/>
    </radialGradient>
    <clipPath id="a">
      <path fill="#fff" d="M0 0h512v512H0z"/>
    </clipPath>
  </defs>
</svg>
