<svg xmlns="http://www.w3.org/2000/svg" width="512" height="512" fill="none" viewBox="0 0 512 512">
  <path fill="#000" d="M209.19026 17.584455 21.848067 213.63603c-63.298042 80.16387 43.077171 70.83673 88.678873 93.92645 16.35749 17.09867-62.698728 29.72062-46.340811 46.8345 16.357916 17.09867 98.914441 32.94373 115.300611 50.0424 16.35749 17.09975-33.48298 35.2402-17.12549 52.33996 16.35855 17.09976 54.19143.89839 61.27553 40.37415 5.04884 28.20955 68.17905 12.12224 99.05423-10.9816 16.35749-17.11388-31.2937-15.50178-14.93515-32.60154 40.67863-42.54136 78.55399-15.45941 92.47151-58.08659 6.87484-21.06374-59.88187-32.47335-43.4957-49.57311 47.0659-28.10852 209.7379-46.40649 132.55102-125.34282L295.09285 17.584455c-23.74858-23.3174157-63.38089-23.574113-85.90259 0zm215.1904 377.899305c0 9.72582 70.07516 16.10143 70.07516-2.29648-9.98509-29.54898-61.79178-27.55233-70.07516 2.29648zm-315.66697 51.68382c16.59437 14.6751 42.22631-3.65112 49.91059-24.13041-16.07919-21.84915-76.26741.78432-49.91059 24.13041zm306.88116-31.70315c-21.39147 19.62328 2.39854 39.53226 23.48408 26.85382 4.69937-4.87757-.12534-21.97733-23.48408-26.85382z" style="stroke-width:1.07421"/>
  <path fill="#fff" d="M206.83702 318.17256c5.00635 3.18075 80.73052 18.91066 99.23587 22.04795 6.41489 1.38397 1.86849 8.14305-6.97257 12.70668-19.94256 5.41965-116.66729-34.75463-92.2633-34.75463zm81.11991-286.840079 74.12019 76.982689c7.0278 7.34461 6.93007 21.57757 2.99765 25.67082l-36.80144-30.10518-7.23812 44.58039-30.74877-16.60005-49.24138 31.81721-16.30225-67.071541-26.45412 46.806251h-40.44174c-16.48284 0-18.42143-21.3918-3.44486-36.70891 26.162-28.879481 56.18632-58.315049 72.50239-75.371679 16.39998-17.142232 44.97327-16.657299 61.05245 0z" style="stroke-width:1.07421"/>
</svg>
