<svg xmlns="http://www.w3.org/2000/svg" xml:space="preserve" width="512" height="512" viewBox="0 0 512 512">
  <g style="display:inline">
    <path fill="#001e36" d="M90.658 0h330.684C471.463 0 512 41.574 512 92.98v326.04c0 51.406-40.537 92.98-90.658 92.98H90.658C40.537 512 0 470.426 0 419.02V92.98C0 41.573 40.537 0 90.658 0Z"/>
    <g fill="#31a8ff" style="display:inline">
      <path d="M268.78 361.882H133.591c-2.396 0-3.394-1.23-3.394-3.892V134.35a2.735 2.735 0 0 1 2.396-3.072h42.533c.999-.205 2.397.614 2.397 1.843v184.32h98.645c2.197 0 2.796 1.024 2.397 3.072l-6.19 38.093c0 1.024-.6 2.048-1.199 2.662-.798.41-1.597.615-2.396.615zM302.927 186.778h37.341c2.197 0 3.794 1.433 4.393 3.481.8 1.434 1.398 3.277 1.798 5.12.399 2.253.798 4.506.998 6.759.2 2.457.4 5.12.4 7.782 6.39-7.578 14.177-13.926 22.764-18.842 9.785-5.53 20.767-8.192 31.75-7.782 1.398-.205 2.796.82 2.996 2.458v43.622c0 1.843-.999 2.458-3.395 2.458-13.779-.82-27.757 1.843-40.337 7.372-4.193 2.048-8.387 4.506-11.582 8.192v111.616c0 2.253-.799 3.072-2.796 3.072h-41.535c-1.797.205-3.195-.819-3.394-2.662V237.364c0-5.326 0-10.65-.2-16.385-.2-5.734-.2-11.469-.4-16.998-.2-4.915-.599-9.626-1.198-14.541-.2-1.024.4-2.253 1.398-2.458.4-.41.6-.41.999-.204z"/>
    </g>
  </g>
</svg>
