<svg xmlns="http://www.w3.org/2000/svg" xml:space="preserve" width="512" height="512" viewBox="0 0 512 512">
  <g style="display:inline">
    <path fill="#001e36" d="M90.658 0h330.684C471.463 0 512 41.574 512 92.98v326.04c0 51.406-40.537 92.98-90.658 92.98H90.658C40.537 512 0 470.426 0 419.02V92.98C0 41.573 40.537 0 90.658 0Z"/>
    <g fill="#31a8ff" style="display:inline">
      <path d="M180.2 361.357H58.39c-2.197 0-2.996-1.229-2.996-3.891V133.824c0-2.253.799-3.072 2.796-3.072h37.74c1.399 0 2.197.82 2.197 2.458v183.705h88.662c1.997 0 2.596 1.024 2.196 3.072l-5.59 38.093c-.2 1.229-.6 2.253-1.2 2.662-.598.41-1.397.615-1.996.615zM210.552 186.253h33.747c1.997 0 3.195 1.024 3.994 3.481.599 1.434 1.198 3.277 1.397 5.12.4 2.253.6 4.506.8 6.759.199 2.457.199 5.12.199 7.782 5.591-7.373 12.58-13.926 20.568-18.841 8.586-5.325 18.57-8.192 28.555-7.783 1.997 0 2.796 1.024 2.796 3.072v42.599c0 1.843-.999 2.457-2.996 2.457-6.789-.41-13.578 0-20.168 1.434-5.591 1.229-10.783 3.277-15.975 5.939-3.794 2.048-7.389 4.915-10.384 8.192V358.08c0 2.253-.799 3.072-2.596 3.072h-37.142c-2.196 0-2.995-1.024-2.995-3.482V236.43c0-5.325 0-10.65-.2-16.384 0-5.735-.2-11.469-.4-16.999-.199-4.915-.598-9.625-1.197-14.54 0-.615 0-1.23.4-2.048.598-.205.998-.41 1.597-.205zM453.971 153.894c-4.393-2.048-9.385-3.072-14.377-3.686a193.848 193.848 0 0 0-21.766-1.229c-20.967 0-39.339 4.506-54.315 13.517-14.977 9.011-27.358 22.323-35.345 38.298-8.387 16.179-12.38 35.43-12.38 56.934-.2 12.902 1.397 25.805 4.792 38.502 2.995 10.65 7.388 20.685 13.578 29.901 5.791 8.602 12.78 15.77 20.968 21.709 8.187 5.94 17.373 10.445 27.157 13.107 9.985 2.867 20.768 4.301 31.152 4.301 7.388 0 14.777-.41 21.965-1.434 5.99-.614 11.782-2.252 17.373-4.3 2.197-1.024 3.395-3.277 3.195-5.94v-32.563c.2-1.024-.2-2.457-.998-3.277-.6-.41-1.797-1.024-3.395.205a61.775 61.775 0 0 1-14.977 3.687c-6.19.614-12.38.819-18.57.819-5.592 0-11.383-.82-16.575-2.458-5.79-1.433-11.182-3.891-16.174-6.963-5.392-3.277-9.785-7.578-13.38-12.698a71.902 71.902 0 0 1-9.385-18.841c-2.396-8.397-3.594-16.794-3.395-25.6-.2-12.083 2.197-24.167 6.99-35.021 4.393-9.42 11.382-17.408 19.968-22.938 9.386-5.734 20.169-8.601 31.152-8.396 6.59 0 13.379.41 19.968 1.843 5.392.819 10.384 2.662 15.376 5.325.8.41 1.997.41 2.796 0 .799-.82 1.398-2.048 1.198-3.277v-34.202c0-2.253-.799-4.096-2.596-5.325z"/>
    </g>
  </g>
</svg>
