<svg width="512" height="512" xml:space="preserve" xmlns="http://www.w3.org/2000/svg"><path d="M491.17 286.35c6.936-41.488 15.124-92.795-.46-133.003-56.628-122.602-213.96-164.67-337.832-138.1C31.492 40.07-18.39 196.247 18.181 303.55c.528 11.926 13.753 22.788 10.264 33.71 5.234.814 2.149 5.337-1.478 6.543 2.41.528 5.38 4.214 7.886 4.246 1.755 7.052-11.348 10.508-15.62 13.606 7.941.349 27.621 3.857 24.861 15.762 2.95 6.957 17.197-5.421 20.454 4.327 4.24 5.995 11.167 10.98 14.075 17.577 10.668.624 16.475 14.924 25.705 20.485 15.648 14.601 31.068 29.382 49.845 38.834 11.61 2.907 13.496 18.262 21.257 24.14 2.498-4.144 2.228-1.919 10.176-13.546 10.636 8.183 19.412 22.192 27.027 34.758 3.333-9.275 8.55-18.828 9.185-28.48 8.31 4.969 15.902 13.33 23.26 19.757 6.481-6.967 6.915-15.124 13.48-22.07.635 8.48 8.247 15.259 10.838 23.062 11.65-9.146 18.156-23.742 24.648-36.873 1.585 6.671 6.045 11.358 8.392 17.776 8.902-7.602 14.574-16.975 24.45-23.128 3.16 3.044 2.828 7.27 3.039 11.3 8.458-6.482 15.056-20.147 25.142-26.005 11.556-4.948 25.827 1.921 30.68-12.944.529 3.013-.534 8.603 1.665 10.824 16.073-21.628 41.497-26.045 56.151-49.21 3.669-11.45 18.11-13.862 26.632-10.109-.825-5.995 4.352-15.033 11.404-17.93 5.509-3.975 13.845-9.02 17.714-13.174-7.062-.106-16.87-5.47-23.826-5.818 1.036-3.553 3.868-5.74 8.552-4.598-.56-2.97-6.124-3.219-5.754-6.454 2.315-1.702 4.976-1.134 7.588-2.36" style="fill:#1f1f1f;fill-opacity:1;stroke-width:1.05729"/><path d="M275.533 409.887c4.624-17.876-4.35-33.341 8.532-43.274 11.321-8.73 26.935.39 40.759-12.106 11.137-10.068 15.32-24.626 15.045-38.444-.842-42.318-45.539-33.234-61.593-30.027-12.6 2.517-23.146 30.75-30.332 30.792-7.185.042-13.4-21.297-24.672-27.397-13.268-7.18-30.918-6.187-45.706-3.944-31.932 4.845-25.206 50.407-8.744 68.967 12.274 13.838 35.168 9.432 40.177 12.687 7.476 4.86 1.609 31.276 5.793 46.013 4.041 14.232 24.085 15.648 30.418 2.358 5.71 14.844 26.477 9.245 30.323-5.625zm22.867-63.41c-5.958 3.22-19.741.968-22.853-8.425l-6.498-.02c5.381-5.106 7.11-14.547 15.903-16.4 10.053-2.118 18.986 1.142 30.432.882-6.803 4.336-5.186 17.533-16.984 23.964zm-70.106-4.975-5.623-.04c-5.155 9.288-18.088 11.24-23.85 7.376-13.73-9.206-9.115-19.333-15.99-23.195 7.029 1.012 24.185-5.096 32.472-.435 8.287 4.66 6.851 9.218 12.99 16.294z" style="display:inline;fill:#ed1731;fill-opacity:1;stroke:none;stroke-width:1.05729"/><path d="M229.412 2.572c-32.417-.782-64.496 3.427-94.896 12.492C6.123 53.35-29.818 232.594 24.928 335.129c-37.267 8.41-17.588 52.863 16.337 57.129 16.246 2.042 12.52-14.204 28.35 1.698 9.478 9.52 37.975 33.524 56.286 49.885 14.646 13.086 38.802 17.408 49.132 48.918 4.356-9.14 6.283-15.893 10.64-22.797 14.493 11.474 21.095 29.2 25.923 44.36 2.337-9.452 9.561-25.292 11.94-34.713 7.943 5.01 19.105 16.148 20.485 26.3 6.516-11.25 8.585-18.983 14.157-25.909 3.183 8.702 9.132 19.618 9.954 28.862 13.336-23.274 22.593-35.98 25.713-46.632 3.941 8.017 4.6 19.158 3.503 28.877 11.32-13.91 14.97-25.763 27.753-31.916-.835 5.55-1.061 11.665-.713 17.502 9.63-14.93 25.447-31.508 31.56-33.57 6.112-2.061 14.608-.397 26.841-4.417l-1.223 11.867c15.742-22.574 24.536-29.858 40.805-38.894 18.775-10.426 26.64-23.265 32.652-31.586 5.137 3.587 5.98 6.044 11.997 6.323 52.891 2.45 56.902-59.694 22.741-61.058-3.567-9.075 7.998-42.398 11.609-81.944 3.554-38.917 8.922-78.32-26.564-127.015C417.756 38.115 328.749 4.966 229.413 2.572Zm-4.591 9.385c105.99-.753 217.543 43.778 261.778 144.193 17.384 39.463 8.299 87.594 2.521 129.258-1.886 13.602-12.059 25.898-7.079 40.235-2.71.797-6.506 2.66-8.821 4.361 1.975 3.896 5.173 1.882 7.781 5.084-2.341-.57-3.4-.153-6.018-.007-1.495 1.765-3.36 5.438-3.878 7.214 8.6.015 15.246 5.564 23.525 5.948-14.527 3.13-30.063-2.29-25.276 24.978-3.99.125-8.894-2.745-15.78-5.111-20.355 33.818-49.497 42.185-65.102 64.187-1.406-2.75-.86-8.948-1.388-11.96-5.513 18.83-20.044 11.067-31.29 16.682-10.436 5.21-16.552 17.938-24.746 25.807-.211-4.029 1.094-10.27-1.982-11.895-3.235-1.708-17.596 14.667-26.366 22.996-2.347-6.418-5.881-13.35-8.59-19.56-6.492 18.682-14.752 23.948-24.752 38.578-3.15-7.896-8.19-16.866-9.478-25.626-6.037 8.334-9.411 16.987-15.165 25.606-7.359-6.428-15.045-14.246-23.635-20.15-.635 9.653-6.5 20.663-8.71 29.872-4.634-11.055-15.738-30.577-28.01-35.21-3.671 5.565-7.037 9.992-9.134 13.13-4.163-5.178-6.731-18-17.022-22.322-19.382-8.14-36.982-25.325-53.067-39.545-8.983-7.941-17.488-16.59-20.849-21.335-1.787-.102-2.69 1.115-4.146.966-6.674-9.24-11.771-15.717-16.011-21.711-9.19-2.786-12.958-.506-18.155-.393 2.48-17.091-7.138-16.962-18.396-16.003 9.667-5.516 16.955-12.384 3.546-17.074 6.99-2.14 6.43-7.13 1.197-7.944.787-1.373 1.925-2.988 3.088-4.47-10.039-14.328-12.578-22.666-14.323-28.374C-13.902 187.95 31.53 44.752 152.878 19.74c23.265-4.795 47.483-7.61 71.943-7.783z" style="display:inline;fill:#c4c4c4;fill-opacity:1;stroke:none;stroke-width:1.05729;stroke-opacity:.85098"/></svg>