<svg width="512" height="448" xml:space="preserve" xmlns="http://www.w3.org/2000/svg"><path style="display:inline;fill:#0071bc;fill-opacity:1;stroke:none;stroke-width:1px;stroke-linecap:butt;stroke-linejoin:miter;stroke-opacity:1" d="M372.522 19.266 258.094 224.084 373.472 431.14 492.804 224Z"/><path style="display:inline;fill:#fff;fill-opacity:1;stroke:none;stroke-width:1px;stroke-linecap:butt;stroke-linejoin:miter;stroke-opacity:1" d="m390.402 191.957-35.213 64.137 55.663 99.008 37.775-65.067zm9.6 83.219a6.519 9.645 0 0 1 6.518 9.644 6.519 9.645 0 0 1-6.518 9.645 6.519 9.645 0 0 1-6.52-9.645 6.519 9.645 0 0 1 6.52-9.644z"/><path style="display:inline;fill:#3dbff6;fill-opacity:1;stroke:none;stroke-width:1px;stroke-linecap:butt;stroke-linejoin:miter;stroke-opacity:1" d="m19.196 224.075 118.395 204.73 233.693.084-113.19-204.805zM147.179 35.84l99.27 171.51 11.645 10.326 114.428-198.41-234.907-.07Z"/><path style="display:inline;fill:#208fcc;fill-opacity:1;stroke:none;stroke-width:1px;stroke-linecap:butt;stroke-linejoin:miter;stroke-opacity:1" d="M246.45 207.35 244.562 221H21.743L133.116 26.946l14.064 8.893z"/><circle style="fill:#fff;fill-rule:evenodd;stroke-width:1.98405;fill-opacity:1" cx="19.196" cy="224.075" r="19.196"/><circle style="fill:#fff;fill-rule:evenodd;stroke-width:1.98405;fill-opacity:1" cx="256" cy="224" r="19.196"/><circle style="fill:#fff;fill-rule:evenodd;stroke-width:1.98405;fill-opacity:1" cx="137.591" cy="428.804" r="19.196"/><circle style="fill:#fff;fill-rule:evenodd;stroke-width:1.98405;fill-opacity:1" cx="374.406" cy="428.804" r="19.196"/><circle style="fill:#fff;fill-rule:evenodd;stroke-width:1.98405;fill-opacity:1" cx="137.615" cy="19.196" r="19.196"/><circle style="fill:#fff;fill-rule:evenodd;stroke-width:1.98405;fill-opacity:1" cx="374.43" cy="19.196" r="19.196"/><circle style="fill:#fff;fill-rule:evenodd;stroke-width:1.98405;fill-opacity:1" cx="492.804" cy="224" r="19.196"/><path style="fill:#fff;fill-opacity:1;stroke:none;stroke-width:1px;stroke-linecap:butt;stroke-linejoin:miter;stroke-opacity:1" d="M23.234 206.624 123.987 30.98l10.756 5.38L34.281 213.688ZM23.05 239.862l100.597 176.704 10.6-5.66L32.66 233.175ZM257.835 208.918 361.792 30.755l9.519 4.453L267.8 215.522zM256.257 239.924l104.377 180.24 10.977-6.596-104.22-179.964ZM489.631 240.763 385.624 421.44l-10.343-6.3 102.376-181.182ZM489.454 207.32 384.25 27.201l-10.25 5.83L477.48 214.127z"/><path style="fill:#fff;stroke-width:98.7991;stroke-linecap:round;stroke-linejoin:round;stroke-opacity:.85098;fill-opacity:1" d="M36 217.676h222.094v12.816H36ZM150.428 12.858h222.094v12.816H150.428ZM149.19 422.48h222.094v12.817H149.19Z"/></svg>