<svg xmlns="http://www.w3.org/2000/svg" width="512" height="512" fill="none" viewBox="0 0 512 512">
  <g clip-path="url(#a)">
    <path fill="#1E3101" d="M90.6668 0H421.363c24.047 0 47.108 9.79726 64.111 27.2365 17.004 17.4392 26.556 41.0919 26.556 65.7547V419.009c0 24.663-9.552 48.315-26.556 65.754C468.471 502.203 445.41 512 421.363 512H90.6668c-24.0463 0-47.1078-9.797-64.1111-27.237C9.55236 467.324 0 443.672 0 419.009V92.9912c0-24.6628 9.55236-48.3155 26.5557-65.7547C43.559 9.79726 66.6205 0 90.6668 0Z"/>
    <path fill="#99E83F" d="M110.748 359.044V133.938c0-1.639.68-2.459 2.058-2.459 3.657 0 8.006-.058 13.048-.174 5.043-.116 10.481-.236 16.316-.359l18.552-.348c6.528-.123 12.995-.185 19.403-.185 17.404 0 32.057 2.234 43.959 6.702 10.747 3.72 20.547 9.858 28.684 17.963 6.898 7.023 12.229 15.497 15.626 24.838 3.215 9.088 4.846 18.686 4.815 28.354 0 18.793-4.236 34.293-12.708 46.5-8.528 12.27-20.515 21.568-34.349 26.642-15.416 5.689-31.703 8.493-48.085 8.28-5.042 0-8.593-.061-10.651-.184-2.058-.113-5.155-.175-9.271-.175v69.403c.1.735-.088 1.48-.522 2.074-.435.593-1.08.986-1.796 1.092-.255.041-.514.041-.769 0h-41.912c-1.598-.041-2.398-.973-2.398-2.858Zm47.397-185.296v72.927c2.97.239 5.718.355 8.242.349h11.33c8.313.122 16.596-1.066 24.557-3.525 6.806-2.073 12.888-6.106 17.524-11.62 4.463-5.397 6.694-12.912 6.694-22.544.173-6.812-1.561-13.533-4.995-19.366-3.625-5.65-8.857-10.019-14.987-12.512-7.982-3.177-16.508-4.672-25.067-4.396-5.494 0-10.36.058-14.596.174-4.236.116-7.157.291-8.762.523l.06-.01Zm242.487 153.243v28.886c0 2.582-.916 4.109-2.747 4.581-4.509 1.445-9.096 2.622-13.738 3.525-5.44.993-10.959 1.463-16.484 1.403-14.887 0-26.563-3.993-35.028-11.978-8.466-7.986-12.702-20.785-12.709-38.396v-87.365h-20.281c-1.828 0-2.748-1.025-2.748-3.167v-34.911c0-1.875 1-2.818 3.098-2.818h20.261c.226-3.99.513-8.628.859-13.915.35-5.278.8-10.565 1.379-15.852.579-5.288 1.079-9.571 1.539-12.85.219-.701.557-1.357.999-1.937.445-.573 1.041-1.004 1.718-1.24l40.913-5.246c.621-.189 1.287-.157 1.888.092.459.236.519.851.519 2.049-.459 5.404-.792 12.744-.999 22.021-.206 9.277-.436 18.257-.689 26.939h31.971c1.378 0 2.068.943 2.068 2.818v35.588c.081.559-.053 1.128-.374 1.587-.32.459-.803.772-1.345.872h-32.7v75.387c0 7.993 1.332 13.69 3.997 17.092 2.664 3.402 7.529 5.11 14.596 5.124 2.058 0 3.996-.052 5.845-.174 1.848-.123 3.656-.298 5.495-.533.307-.117.636-.162.963-.132.327.03.643.135.925.306.307.275.542.624.683 1.016.142.392.185.814.126 1.228Z"/>
  </g>
  <defs>
    <clipPath id="a">
      <path fill="#fff" d="M0 0h512v512H0z"/>
    </clipPath>
  </defs>
</svg>
