<svg xmlns="http://www.w3.org/2000/svg" width="512" height="512" fill="none" viewBox="0 0 512 512">
  <g clip-path="url(#a)">
    <path fill="#001E36" d="M90.6667 0H421.333C471.467 0 512 41.5727 512 92.9915V419.009C512 470.427 471.467 512 421.333 512H90.6667C40.5333 512 0 470.427 0 419.009V92.9915C0 41.5727 40.5333 0 90.6667 0Z"/>
    <path fill="#31A8FF" d="M115.2 359.056V133.908c0-1.532.64-2.407 2.133-2.407 3.627 0 7.04 0 11.947-.219 5.12-.219 10.453-.219 16.213-.438 5.76-.218 11.947-.218 18.56-.437 6.614-.219 13.014-.219 19.414-.219 17.493 0 32 2.188 43.946 6.783 10.667 3.72 20.48 9.846 28.587 17.942 6.827 7.002 12.16 15.535 15.573 24.943 3.2 9.19 4.907 18.599 4.907 28.445 0 18.817-4.267 34.352-12.8 46.605-8.533 12.253-20.48 21.443-34.347 26.694-14.506 5.47-30.506 7.439-48 7.439-5.12 0-8.533 0-10.666-.218-2.134-.219-5.12-.219-9.174-.219v70.236c.214 1.531-.853 2.844-2.346 3.063H117.76c-1.707 0-2.56-.875-2.56-2.845Zm46.507-185.326v73.518c2.986.219 5.76.437 8.32.437h11.306c8.32 0 16.64-1.312 24.534-3.938 6.826-1.969 12.8-6.126 17.493-11.597 4.48-5.47 6.613-12.909 6.613-22.536.214-6.783-1.493-13.566-4.906-19.474-3.627-5.689-8.747-10.065-14.934-12.472-7.893-3.282-16.426-4.594-25.173-4.376-5.547 0-10.453 0-14.507.219-4.266-.219-7.253 0-8.746.219ZM409.6 233.901c-6.4-3.501-13.227-5.908-20.48-7.439-7.893-1.751-15.787-2.845-23.893-2.845-4.267-.219-8.747.438-12.8 1.532-2.774.656-5.12 2.188-6.614 4.376-1.066 1.75-1.706 3.938-1.706 5.907 0 1.97.853 3.939 2.133 5.689 1.92 2.407 4.48 4.376 7.253 5.908 4.907 2.626 10.027 5.033 15.147 7.221 11.52 3.938 22.613 9.408 32.853 15.972 7.04 4.595 12.8 10.722 16.854 18.161 3.413 7.002 5.12 14.66 4.906 22.537.214 10.283-2.773 20.567-8.32 29.1-5.973 8.753-14.293 15.536-23.893 19.474-10.453 4.595-23.253 7.002-38.613 7.002-9.814 0-19.414-.875-29.014-2.845-7.466-1.313-14.933-3.719-21.76-7.001-1.493-.876-2.56-2.407-2.346-4.158v-38.071c0-.657.213-1.532.853-1.97.64-.437 1.28-.219 1.92.219 8.32 5.033 17.067 8.533 26.453 10.721 8.107 2.188 16.64 3.283 25.174 3.283 8.106 0 13.866-1.095 17.706-3.064 3.414-1.531 5.76-5.251 5.76-9.189 0-3.064-1.706-5.908-5.12-8.753-3.413-2.844-10.453-6.126-20.906-10.283-10.88-3.939-20.907-9.19-30.294-15.754-6.613-4.814-12.16-11.159-16.213-18.599-3.413-7.001-5.12-14.659-4.907-22.317 0-9.409 2.56-18.38 7.254-26.476 5.333-8.752 13.226-15.754 22.4-20.13 10.026-5.251 22.613-7.658 37.76-7.658 8.746 0 17.706.657 26.453 1.97 6.4.875 12.587 2.625 18.347 5.032.853.219 1.706 1.094 2.133 1.969.213.875.427 1.751.427 2.626v35.665c0 .875-.427 1.75-1.067 2.188-1.92.437-2.987.437-3.84 0Z"/>
  </g>
  <defs>
    <clipPath id="a">
      <path fill="#fff" d="M0 0h512v512H0z"/>
    </clipPath>
  </defs>
</svg>
