<svg width="512" height="512" fill="none" xml:space="preserve" xmlns="http://www.w3.org/2000/svg"><path style="fill:#fff;fill-rule:evenodd;fill-opacity:1" d="M256 0a256 256 0 0 0-42.229 3.867c-43.158 47.66-60.477 97.541-65.316 140.584-3.132 27.856-.786 52.978 3.201 72.127l45.33-62.432-.123.172c13.772-19.668 44.815-49.1 91.983-69.693 29.48-12.87 65.229-21.95 106.203-22.045 9.856-.023 20.096.64 30.543 1.729A256 256 0 0 0 256 0zm-81.855 14a256 256 0 0 0-157.25 152.385c19.678 61.379 54.277 101.403 89.19 127.158 22.458 16.566 45.283 27.076 63.815 33.209l-31.427-70.533c-10.148-21.761-20.116-63.362-14.366-114.506 4.43-39.39 18.677-84.142 50.038-127.713zm220.894 73.004c-37.409.062-69.654 8.402-96.39 20.074-25.678 11.21-46.256 25.795-60.844 38.818l76.761 8.045-.209-.02c23.92 2.094 64.93 14.26 106.348 44.811 31.955 23.572 63.641 58.37 85.7 107.45A256 256 0 0 0 512 256a256 256 0 0 0-58.188-162.496c-20.803-4.54-40.416-6.53-58.773-6.5zm-178.086 81.342-.02.025-.06.086-56.2 77.4.005.008.045.096 39.064 87.672c.07.006.167.025.236.031l.106.01 95.164 9.974.02-.025.06-.088 56.2-77.4-.005-.008-.045-.094-39.064-87.672c-.07-.006-.169-.027-.238-.033l-.104-.01-95.164-9.972zm125.393 16.894 31.513 70.725-.088-.192c10.148 21.761 20.118 63.362 14.368 114.506-4.425 39.356-18.652 84.063-49.955 127.598a256 256 0 0 0 157.052-152.611c-19.698-61.182-54.228-101.11-89.076-126.817-22.457-16.566-45.28-27.076-63.814-33.209zm-117.35.42 65.92 7.03-39.287 54.148-65.588-7.399 38.955-53.779zm80.602 16.807 27.431 61.96-39.716 54.255-27.65-61.666 39.935-54.55zM5.678 205.44A256 256 0 0 0 0 256a256 256 0 0 0 58.709 162.543c63.072 13.702 115.091 3.746 154.889-13.629 25.679-11.21 46.257-25.795 60.845-38.818l-76.763-8.045.209.02c-23.92-2.093-64.93-14.26-106.348-44.811-32.034-23.63-63.798-58.545-85.863-107.819zM183 256.541l67.746 7.22 27.316 62.284-67.888-7.553L183 256.541zm177.59 38.873-45.33 62.432.12-.172c-13.771 19.668-44.812 49.103-91.98 69.695-36.58 15.97-82.852 26.031-136.746 20.402A256 256 0 0 0 256 512a256 256 0 0 0 42.523-3.93c43.121-47.642 60.43-97.503 65.268-140.529 3.132-27.856.786-52.978-3.201-72.127z"/></svg>