<svg width="512" height="512" fill="none" xml:space="preserve" xmlns="http://www.w3.org/2000/svg"><path style="fill:#92b277;stroke-width:29;stroke-linecap:round;stroke-linejoin:round;fill-opacity:1" d="M62 0A62 62 0 0 0 0 62v75.535c23.131-17.816 24.936-8.642 44.375-16.66 8.182-3.375 10.517-.602 14.813.813 6.99 2.302 14.2 1.403 15.457-1.1 1.694-3.374-6.183-15.507 3.105-24.588 7.065-6.908 17.577-13.319 25.75-23.5.04-.034 4.94 4.183 15 2-2.356-11.152 3.312-12.879 11.322-18.441 2.953-2.051 6.09-7.967 7.428-11.559 2.382-6.395 18.288-5.658 26-10.25 11.078-6.595 5.32-10.099 9.75-17.625 2.166-3.68 19.886-2.732 34.313-16.625H62zm218.82 0c5.562 12.002 13.492 29.914 21.18 35.5 9.39 6.823 19.605.75 28 20 7.509-3.693 18.213-9.762 25-6.75 4.701 2.35 2.113 7.13-.75 15.75 17.267 1.25 28.407-7.547 37.5-3 4.714 2.357 5.379 9.284 10.045 11.617 5.24 2.62 19.017.258 22.205 6.633 3.496 6.993-2.219 14.421-2.219 21.375 2.137.829 9.887 3.383 10.781 8.875 1.266 7.768.012 12.685-4.064 18.908 14.99 11.765 9.29 13.506 12.818 26.905 2.206 8.375 17.387 8.189 23.204 13.91 22.43 22.061 33.13-1.275 41.724 31.045 1.189 4.469 3.406 7.584 5.756 9.87V62a62 62 0 0 0-62-62H280.82zM0 208.521V450a62 62 0 0 0 62 62h166.834c14.447-8.509 22.495-24.377 22.367-58.809-.121-32.711-9.857-30.56-14.613-60.777-2.63-16.702 4.25-26.076-2.756-36.676-16.391 1.328-43.925-17.266-45.943-29.672-1.697-10.43-9.182-12.66-19.903-20.877-16.55 17.309-15.972 4.576-24.32 5.543-6.925.803-15.253 17.645-19.908-3.974-8.179 4.963-18.916 6.63-23.596-4.701-2.978-7.21-.067-12.598-1.226-17.036-2.949-.454-5.93-2.78-4.999-9.943-2.245-.686-4.583-1.37-6.142-3.334 2.486-8.683 6.135-9.4.902-17.435-11.21 6.44-15.204.027-27.44-1.903-9.598-1.514-19.731 5.569-29.712-9.357-3.891-5.832-9.942-18.247-11.691-29.455-6.085 5.015-12.644.655-19.854-5.073zm252.484 38.12-10.615 7.658 7.727 9.406 7.793-9.943-4.905-7.121zm54.952 28.29c-7.095.172-6.741 9.614-.157 17.954l9.78-14.65c-4.065-2.388-7.259-3.36-9.623-3.303zm-82.43 22.065-7.694.504c.975 8.643 6.594 13.04 15.99 8.398l-8.296-8.902zm136.008 1.606c-.318.006-.651.08-1 .222-5.494 2.252-12.03 18.847-11.6 36.319 7.015-2.582 14.16-6.888 18.61-13.555.029-8.524-1.247-23.087-6.01-22.986zM512 301.848c-6.81 2.67-6.419 7.272-12.59 14.537-5.899 6.944-17.394 2.026-21.73 5.793-4.858 4.219-14.677 16.87-21.352 12.006-9.132-6.656-8.634 6.805-17.994.117-5.115-3.655-10.844-.912-13.94 4.217-5.65-1.264-7.507-13.195-15.298-6.149-7.907 7.15-11.067 4.01-16.492 8.49-5.773 4.768-1.356 9.253-12.99 14.63-7.915 3.657-8.756 10.292-11.401 15.74-24.83-1.724-24.43 4.222-34.635 9.447-14.097 7.216-9.607 4.508-18.744 8.365 0 7.699-1.742 14.126-6.674 27.77-4.658 12.884-.739 62.471 1.03 74.453 2.002 13.57 7.638 18.648 15.212 20.736H450a62 62 0 0 0 62-62V301.848z"/></svg>