<svg xmlns="http://www.w3.org/2000/svg" id="Layer_1" width="512" height="512" version="1.1" viewBox="16.51 8.48 511.99999 511.99998">
  <defs id="defs6">
    <style id="style4">
      .cls-1{fill-rule:evenodd}
    </style>
  </defs>
  <g id="g1763" transform="translate(-254.86372 -3.2430072) scale(1.5606)">
    <path id="path34" d="M337.92 8.48c-65.95559.00404-125.41479 39.738641-150.64973 100.67411-25.23489 60.93535-11.27555 131.07042 35.36476 177.70501 46.6403 46.63458 116.77708 60.58532 177.70933 35.34296C461.27674 296.95966 501.00404 237.49559 501 171.54 501 81.476638 427.98336 8.4689533 337.92 8.48Z" class="cls-1" style="fill:#4d4d4d;fill-opacity:1;stroke:none;stroke-opacity:1"/>
    <path id="path32" d="M434.82 195c-2.81 13.56-15.32 48.34-55.19 67.18l-16-18-27 27.16a99.72 99.72 0 0 1-78.86-40.45 38.88 38.88 0 0 0 8.84 1.66c4.42.08 9.21-1.54 9.21-9V150.3a12.06 12.06 0 0 0-15.18-12.07c-12.5 2.86-22.5 34.07-22.5 34.07a99.25 99.25 0 0 1 34.36-76.06c18.62-15.78 36.81-21.24 50.63-23.38-13.65 7.78-21.33 20.48-21.33 31.14 0 17.09 10.32 15.07 13.38 12.55v98.92a16 16 0 0 0 2 3.49 14.59 14.59 0 0 0 11.97 6.04c10.34 0 23.75-11.8 23.75-11.8v-80.1c0-8.15-6.14-18-12.29-21.36 0 0 11.38-2 20.18 4.71a74.2 74.2 0 0 1 5.26-5.79c20.46-20.1 39.77-25.8 55.85-28.66 0 0-29.27 23-29.27 53.8 0 22.93.59 78.84.59 78.84 10.89 10.46 27.02-4.64 41.6-19.64z" class="cls-1" style="fill:#fff;fill-opacity:1"/>
  </g>
</svg>
