<?xml version="1.0" encoding="UTF-8" standalone="no"?>
<svg
   width="560"
   height="280"
   fill="none"
   viewBox="0 0 560 280"
   version="1.1"
   id="svg10"
   sodipodi:docname="unageo_art-1.svg"
   xml:space="preserve"
   inkscape:export-filename="unageo_art-2.svg"
   inkscape:export-xdpi="72"
   inkscape:export-ydpi="72"
   inkscape:version="1.4.4 (dcaf3e7d9e, 2026-05-05)"
   xmlns:inkscape="http://www.inkscape.org/namespaces/inkscape"
   xmlns:sodipodi="http://sodipodi.sourceforge.net/DTD/sodipodi-0.dtd"
   xmlns="http://www.w3.org/2000/svg"
   xmlns:svg="http://www.w3.org/2000/svg"><sodipodi:namedview
     id="namedview10"
     pagecolor="#505050"
     bordercolor="#eeeeee"
     borderopacity="1"
     inkscape:showpageshadow="0"
     inkscape:pageopacity="0"
     inkscape:pagecheckerboard="0"
     inkscape:deskcolor="#505050"
     inkscape:zoom="0.37417677"
     inkscape:cx="310.0139"
     inkscape:cy="-30.734136"
     inkscape:window-width="1536"
     inkscape:window-height="907"
     inkscape:window-x="0"
     inkscape:window-y="0"
     inkscape:window-maximized="1"
     inkscape:current-layer="svg10" /><g
     clip-path="url(#a)"
     id="g9"
     inkscape:export-filename="g9.svg"
     inkscape:export-xdpi="72"
     inkscape:export-ydpi="72"><path
       fill="#080808"
       d="M560 0H0v280h560V0Z"
       style="fill:#141414;fill-opacity:1"
       id="path1" /><path
       fill="#0D0D0D"
       d="M0 0v280.855h442.559c4.221-22.015 7.821-45.186 7.574-66.783-.518-45.256-17.581-83.357-27.215-116.794-9.316-32.33-11.641-60.485-12.387-97.278H0Z"
       style="fill:#171717;fill-opacity:1"
       id="path2" /><path
       fill="#121212"
       d="M0 0v280.855h299.102c6.033-31.258 15.87-62.531 18.638-88.235 4.051-37.608-7.606-63.351-17.652-96.135-8.682-28.333-16.099-61.93-11.264-96.485H0Z"
       style="fill:#1a1a1a;fill-opacity:1"
       id="path3" /><path
       fill="#171717"
       d="M0 0v280.855h209.795c2.388-23.865.338-44.568-7.529-66.783-11.216-31.67-34.046-66.561-23.537-111.232 7.756-32.972 33.59-71.226 46.664-102.84H0Z"
       style="fill:#1c1c1c;fill-opacity:1"
       id="path4" /><path
       fill="#1C1C1C"
       d="M0 0v280.855h102.768c-15.527-28.994-32.51-60.488-35.836-86.647-5.321-41.854 24.834-69.181 27.213-102.491C96.22 62.642 77.148 29.015 71.428 0H0Z"
       style="fill:#1f1f1f;fill-opacity:1"
       id="path5" /><g
       id="g10"
       transform="matrix(1.0046136,0,0,1.0046136,-18.61588,-0.64836711)"><path
         fill="#0095ff"
         d="m 98.163,80.278 v 66.118 c 0,15.79 4.745,28.768 14.236,38.933 9.491,10.166 21.119,15.249 34.884,15.249 13.765,0 25.393,-5.083 34.883,-15.249 9.491,-10.165 14.236,-23.143 14.236,-38.933 v -26.953 h -55.636 v 26.11 h 29.526 v 0.843 c 0,8.647 -2.179,15.488 -6.538,20.521 -4.358,5.034 -9.849,7.551 -16.471,7.551 -6.623,0 -12.113,-2.517 -16.472,-7.551 -4.359,-5.033 -6.538,-11.874 -6.538,-20.521 V 80.278 Z"
         id="path6" /><path
         fill="#007eff"
         d="m 98.163,80.278 v 66.118 c 0,15.79 4.745,28.768 14.236,38.933 9.491,10.166 21.119,15.249 34.884,15.249 22.551,-2.359 18.14,-26.851 0,-26.11 -6.623,0 -12.113,-2.517 -16.472,-7.551 -4.359,-5.033 -6.538,-11.874 -6.538,-20.521 V 80.278 Z"
         id="path7" /><path
         fill="#0068ff"
         d="m 98.163,80.278 v 49.246 c 0,21.846 26.11,21.687 26.11,0 V 80.278 Z"
         id="path8" /><path
         fill="#00acff"
         d="m 181.639,109.804 c 8.154,0 14.763,-6.609 14.763,-14.763 0,-8.153 -6.609,-14.763 -14.763,-14.763 -8.154,0 -14.763,6.61 -14.763,14.763 0,8.154 6.609,14.763 14.763,14.763 z"
         id="path9" /></g><path
       d="m 222.51194,117.25956 v 12.64 q 0,4.48 2.656,7.328 2.656,2.816 6.528,2.816 3.872,0 6.496,-2.816 2.656,-2.848 2.656,-7.328 v -12.64 h -4.096 v 12.64 q 0,2.752 -1.44,4.384 -1.504,1.664 -3.616,1.664 -2.144,0 -3.616,-1.664 -1.472,-1.632 -1.472,-4.384 v -12.64 z m 37.27999,22.4 v -8.352 q 0,-3.584 -1.824,-5.824 -1.856,-2.208 -4.864,-2.208 -2.368,0 -3.84,1.44 -0.128,0.128 -0.256,0.256 -0.128,0.096 -0.224,0.256 v -1.568 h -3.872 v 16 h 4.096 v -8.512 q 0,-1.696 0.96,-2.72 0.96,-1.056 2.4,-1.056 1.44,0 2.4,1.056 0.928,0.992 0.928,2.72 v 8.512 z m 15.39198,-16 v 1.792 q -0.096,-0.128 -0.192,-0.224 -0.096,-0.128 -0.192,-0.224 -1.728,-1.728 -4.416,-1.728 -3.424,0 -5.696,2.432 -2.24,2.432 -2.24,5.952 0,3.52 2.24,5.952 2.272,2.432 5.696,2.432 2.688,0 4.384,-1.632 0.128,-0.096 0.224,-0.192 0.096,-0.128 0.192,-0.256 v 1.696 h 3.648 v -16 z m -4.48,3.68 q 1.76,0 2.912,1.216 0.544,0.64 0.832,1.408 0.288,0.768 0.288,1.696 0,0.896 -0.288,1.696 -0.288,0.768 -0.832,1.376 -1.152,1.248 -2.912,1.248 -1.792,0 -2.944,-1.248 -1.184,-1.248 -1.184,-3.072 0,-1.824 1.184,-3.104 1.152,-1.216 2.944,-1.216 z m 19.008,-4.032 q -3.424,0 -5.696,2.432 -2.24,2.432 -2.24,5.952 0,3.488 2.24,5.952 2.272,2.432 5.696,2.432 2.4,0 3.968,-1.376 0.096,-0.064 0.16,-0.16 0.064,-0.096 0.16,-0.192 -0.032,0.192 -0.032,0.32 0,0.096 0,0.256 -0.096,1.44 -0.928,2.496 -0.992,1.28 -3.008,1.28 -1.472,0 -2.592,-0.32 -1.12,-0.288 -2.272,-1.056 l -1.92,3.296 q 0.704,0.512 1.6,0.928 0.896,0.448 2.176,0.704 1.312,0.256 3.2,0.256 3.616,0 5.792,-2.304 2.176,-2.304 2.144,-6.272 v -14.24 h -3.648 v 1.792 q -0.128,-0.16 -0.256,-0.288 -0.128,-0.16 -0.288,-0.288 -1.696,-1.6 -4.256,-1.6 z m 0.32,4.032 q 1.76,0 2.88,1.28 0.576,0.608 0.864,1.376 0.288,0.768 0.288,1.696 0,0.896 -0.288,1.664 -0.288,0.768 -0.864,1.408 -1.12,1.248 -2.88,1.248 -1.792,0 -2.944,-1.248 -1.184,-1.28 -1.184,-3.072 0,-1.824 1.184,-3.072 1.152,-1.28 2.944,-1.28 z m 26.976,6.08 v -1.632 q 0,-3.648 -2.208,-6.08 -2.176,-2.432 -5.504,-2.432 -3.488,0 -5.824,2.432 -2.368,2.464 -2.368,5.952 0,3.456 2.464,5.92 2.464,2.464 5.984,2.464 1.824,0 3.264,-0.448 1.472,-0.48 2.816,-1.568 l -2.208,-2.592 q -0.832,0.576 -1.696,0.896 -0.864,0.288 -2.176,0.288 -1.472,0 -2.528,-0.928 -1.024,-0.96 -1.344,-2.272 z m -7.648,-6.336 q 1.408,0 2.304,0.832 0.896,0.864 1.216,2.4 h -7.264 q 0.288,-1.504 1.312,-2.368 1.024,-0.864 2.432,-0.864 z m 17.792,0.288 q 1.76,0 2.912,1.248 1.152,1.248 1.152,3.04 0,1.792 -1.152,3.04 -1.152,1.248 -2.912,1.248 -1.76,0 -2.912,-1.248 -1.184,-1.248 -1.184,-3.04 0,-1.792 1.184,-3.04 1.152,-1.248 2.912,-1.248 z m 0,-4.096 q -3.456,0 -5.792,2.464 -2.368,2.4 -2.368,5.92 0,3.488 2.368,5.92 2.336,2.464 5.792,2.464 3.456,0 5.792,-2.464 2.368,-2.432 2.368,-5.92 0,-3.488 -2.368,-5.92 -2.336,-2.464 -5.792,-2.464 z"
       id="text10"
       style="font-size:32px;line-height:0.93;font-family:Unageo;-inkscape-font-specification:'Unageo, @wght=670';font-variation-settings:'wght' 670;white-space:pre;inline-size:463.602;display:inline;fill:#cccccc;stroke-width:3.77953"
       transform="matrix(2.1816718,0,0,2.1816718,-251.54049,-175.82182)"
       aria-label="Unageo" /><path
       d="m 229.70126,128.99291 v 1.30133 q -0.064,-0.0853 -0.128,-0.17066 -0.064,-0.0853 -0.14934,-0.17067 -1.17333,-1.216 -3.05066,-1.216 -2.28266,0 -3.77599,1.62133 -1.49333,1.62133 -1.49333,3.968 0,2.32533 1.49333,3.96799 1.49333,1.62133 3.77599,1.62133 1.87733,0 3.02933,-1.17333 0.0853,-0.0853 0.14933,-0.17067 0.064,-0.0853 0.14934,-0.17066 v 1.25866 h 2.21866 v -10.66665 z m -3.136,2.176 q 1.28,0 2.09066,0.896 0.384,0.46933 0.59734,1.02399 0.21333,0.55467 0.21333,1.23734 0,0.66133 -0.21333,1.23733 -0.21334,0.55466 -0.59734,1.00266 -0.81066,0.91733 -2.09066,0.91733 -1.30133,0 -2.13333,-0.91733 -0.85333,-0.91733 -0.85333,-2.23999 0,-1.344 0.85333,-2.26133 0.832,-0.896 2.13333,-0.896 z m 29.84528,8.49065 v -5.58932 q 0,-2.38933 -1.19466,-3.86133 -1.216,-1.472 -3.17866,-1.472 -1.94133,0 -3.02933,1.45067 -0.10667,0.17066 -0.21333,0.34133 -0.10667,0.17067 -0.192,0.384 -0.192,-0.40533 -0.448,-0.704 -1.216,-1.472 -3.17866,-1.472 -1.64267,0 -2.64533,1.13067 -0.0213,0.0427 -0.0853,0.0853 -0.0427,0.0427 -0.0853,0.10667 v -1.06667 h -2.32533 v 10.66665 h 2.45333 v -5.67466 q 0,-1.30133 0.66133,-2.04799 0.64,-0.74667 1.64267,-0.74667 1.00266,0 1.66399,0.74667 0.64,0.74666 0.64,2.04799 v 5.67466 h 2.45333 v -5.67466 q 0,-1.30133 0.66133,-2.04799 0.64,-0.74667 1.64267,-0.74667 1.00266,0 1.664,0.74667 0.63999,0.74666 0.63999,2.04799 v 5.67466 z m 7.29598,-8.46932 q 1.28,0 2.112,0.91733 0.832,0.896 0.832,2.21867 0,1.30133 -0.832,2.23999 -0.832,0.896 -2.112,0.896 -1.28,0 -2.11199,-0.896 -0.832,-0.93866 -0.832,-2.23999 0,-1.32267 0.832,-2.21867 0.83199,-0.91733 2.11199,-0.91733 z m 0,-2.45333 q -2.30399,0 -3.83999,1.62133 -1.55733,1.62133 -1.55733,3.968 0,2.32533 1.55733,3.94666 1.536,1.64266 3.83999,1.64266 2.304,0 3.84,-1.64266 1.55733,-1.62133 1.55733,-3.94666 0,-2.34667 -1.55733,-3.968 -1.536,-1.62133 -3.84,-1.62133 z m 12.37331,2.432 q -1.30133,0 -2.13333,0.896 -0.85333,0.91733 -0.85333,2.26133 0,1.32266 0.85333,2.23999 0.832,0.91733 2.13333,0.91733 1.28,0 2.09066,-0.91733 0.384,-0.448 0.59734,-1.00266 0.21333,-0.576 0.21333,-1.23733 0,-0.68267 -0.21333,-1.23734 -0.21334,-0.55466 -0.59734,-1.02399 -0.81066,-0.896 -2.09066,-0.896 z m -0.192,-2.432 q 1.6,0 2.64533,0.98133 0.128,0.0853 0.23467,0.192 0.10666,0.0853 0.21333,0.192 v -5.37599 h 2.45333 v 14.93331 h -2.21867 v -1.25866 q -0.10666,0.10666 -0.21333,0.21333 -0.0853,0.10667 -0.192,0.192 -1.13066,1.10933 -2.92266,1.10933 -2.28266,0 -3.77599,-1.62133 -1.49334,-1.64266 -1.49334,-3.96799 0,-2.34667 1.49334,-3.968 1.49333,-1.62133 3.77599,-1.62133 z m 18.1333,6.65599 v -1.00266 q 0,-2.432 -1.42933,-4.05333 -1.42934,-1.6 -3.648,-1.6 -2.30399,0 -3.86133,1.62133 -1.55733,1.62133 -1.55733,3.968 0,2.30399 1.62133,3.94666 1.6,1.64266 3.94666,1.64266 1.23734,0 2.21867,-0.32 1.00266,-0.34133 1.87733,-1.088 l -1.344,-1.57866 q -0.576,0.448 -1.216,0.68266 -0.61866,0.21334 -1.536,0.21334 -1.10933,0 -1.87733,-0.704 -0.76799,-0.72533 -0.95999,-1.728 z m -5.03466,-4.35199 q 1.04533,0 1.68533,0.64 0.66133,0.64 0.87466,1.79199 h -5.33332 q 0.192,-1.10933 0.93866,-1.77066 0.768,-0.66133 1.83467,-0.66133 z m 7.01867,-2.048 v 10.66665 h 2.45333 v -5.11999 q 0.192,-1.536 1.23733,-2.45333 1.06666,-0.896 2.53866,-0.896 v -2.45333 q -1.36533,0 -2.41066,0.55467 -0.64,0.34133 -1.17333,0.85333 -0.0853,0.0853 -0.17067,0.17067 -0.064,0.0853 -0.14933,0.17066 v -1.49333 z m 17.62132,10.66665 v -5.58932 q 0,-2.38933 -1.216,-3.86133 -1.25867,-1.472 -3.24266,-1.472 -1.62133,0 -2.64533,1.04533 -0.064,0.064 -0.14934,0.14934 -0.0853,0.0853 -0.14933,0.17066 v -1.10933 h -2.32533 v 10.66665 h 2.45333 v -5.67466 q 0,-1.25866 0.704,-2.02666 0.68267,-0.768 1.728,-0.768 1.024,0 1.70666,0.768 0.68267,0.74667 0.68267,2.02666 v 5.67466 z m 3.15734,-2.47466 q 0,2.62399 -1.28,4.90666 h 2.13333 q 1.728,-2.02667 1.728,-4.90666 z m 14.7413,-5.99466 q 1.28,0 2.112,0.91733 0.832,0.896 0.832,2.21867 0,1.30133 -0.832,2.23999 -0.832,0.896 -2.112,0.896 -1.28,0 -2.11199,-0.896 -0.832,-0.93866 -0.832,-2.23999 0,-1.32267 0.832,-2.21867 0.83199,-0.91733 2.11199,-0.91733 z m 0,-2.45333 q -2.30399,0 -3.83999,1.62133 -1.55733,1.62133 -1.55733,3.968 0,2.32533 1.55733,3.94666 1.536,1.64266 3.83999,1.64266 2.304,0 3.84,-1.64266 1.55733,-1.62133 1.55733,-3.94666 0,-2.34667 -1.55733,-3.968 -1.536,-1.62133 -3.84,-1.62133 z m 9.81331,0.256 v 1.25867 q 0.0853,-0.10667 0.17067,-0.21334 0.10666,-0.10666 0.192,-0.192 1.13066,-1.10933 2.96532,-1.10933 2.28267,0 3.776,1.62133 1.49333,1.62133 1.49333,3.968 0,2.32533 -1.49333,3.96799 -1.49333,1.62133 -3.776,1.62133 -1.72799,0 -2.83732,-1.088 -0.064,-0.064 -0.128,-0.128 -0.064,-0.0853 -0.128,-0.17066 v 5.39732 h -2.45333 v -14.93331 z m 3.136,8.49065 q 1.30133,0 2.15466,-0.91733 0.832,-0.91733 0.832,-2.23999 0,-1.344 -0.832,-2.26133 -0.85333,-0.896 -2.15466,-0.896 -1.28,0 -2.09067,0.896 -0.81066,0.91733 -0.81066,2.26133 0,1.32266 0.81066,2.23999 0.81067,0.91733 2.09067,0.91733 z m 17.47198,-2.09066 v -1.00266 q 0,-2.432 -1.42934,-4.05333 -1.42933,-1.6 -3.64799,-1.6 -2.304,0 -3.86133,1.62133 -1.55733,1.62133 -1.55733,3.968 0,2.30399 1.62133,3.94666 1.6,1.64266 3.94666,1.64266 1.23733,0 2.21867,-0.32 1.00266,-0.34133 1.87733,-1.088 l -1.344,-1.57866 q -0.576,0.448 -1.216,0.68266 -0.61866,0.21334 -1.536,0.21334 -1.10933,0 -1.87733,-0.704 -0.768,-0.72533 -0.96,-1.728 z m -5.03466,-4.35199 q 1.04533,0 1.68533,0.64 0.66133,0.64 0.87466,1.79199 h -5.33332 q 0.192,-1.10933 0.93866,-1.77066 0.768,-0.66133 1.83467,-0.66133 z m 16.74666,8.61865 v -5.58932 q 0,-2.38933 -1.216,-3.86133 -1.25866,-1.472 -3.24266,-1.472 -1.62133,0 -2.64533,1.04533 -0.064,0.064 -0.14933,0.14934 -0.0853,0.0853 -0.14933,0.17066 v -1.10933 h -2.32533 v 10.66665 h 2.45333 v -5.67466 q 0,-1.25866 0.704,-2.02666 0.68266,-0.768 1.72799,-0.768 1.024,0 1.70667,0.768 0.68266,0.74667 0.68266,2.02666 v 5.67466 z m 2.368,-5.14132 h 7.03999 v -2.45333 h -7.03999 z m 16.66129,-3.60533 q -0.42666,-1.04533 -1.32266,-1.6 -0.93867,-0.59733 -2.304,-0.576 -1.536,0 -2.60266,0.87467 -1.088,0.87466 -1.088,2.34666 0.0213,1.23733 0.832,2.048 0.40533,0.42666 0.96,0.72533 0.576,0.29867 1.28,0.448 0.23466,0.064 0.448,0.128 0.23466,0.064 0.42666,0.14933 1.17333,0.36267 1.19467,0.98133 0,0.512 -0.42667,0.87467 -0.40533,0.34133 -1.13067,0.34133 -1.08799,0 -1.51466,-0.896 l -2.32533,0.832 q 0.46933,1.10933 1.51467,1.70667 1.04533,0.59733 2.41066,0.61866 1.64266,0 2.70933,-0.832 1.23733,-0.96 1.25866,-2.55999 0,-1.45067 -1.088,-2.41067 -0.78933,-0.704 -2.23999,-1.04533 -0.192,-0.064 -0.40534,-0.10666 -0.21333,-0.064 -0.44799,-0.128 -0.96,-0.27734 -0.98134,-0.85334 -0.0213,-0.42666 0.32,-0.72533 0.34134,-0.29867 0.93867,-0.29867 0.448,0 0.81066,0.192 0.34134,0.21334 0.46934,0.576 z m 7.27466,0.27733 q 1.27999,0 2.11199,0.91733 0.832,0.896 0.832,2.21867 0,1.30133 -0.832,2.23999 -0.832,0.896 -2.11199,0.896 -1.28,0 -2.112,-0.896 -0.832,-0.93866 -0.832,-2.23999 0,-1.32267 0.832,-2.21867 0.832,-0.91733 2.112,-0.91733 z m 0,-2.45333 q -2.304,0 -3.84,1.62133 -1.55733,1.62133 -1.55733,3.968 0,2.32533 1.55733,3.94666 1.536,1.64266 3.84,1.64266 2.30399,0 3.83999,-1.64266 1.55733,-1.62133 1.55733,-3.94666 0,-2.34667 -1.55733,-3.968 -1.536,-1.62133 -3.83999,-1.62133 z m 7.27463,0.256 v 5.58933 q 0,2.32533 1.408,3.81866 1.42933,1.51466 3.47733,1.51466 2.02666,0 3.43466,-1.51466 1.408,-1.49333 1.408,-3.81866 v -5.58933 h -2.45333 v 5.67466 q 0,1.25866 -0.68267,2.02666 -0.68266,0.768 -1.70666,0.768 -1.04533,0 -1.728,-0.768 -0.704,-0.768 -0.704,-2.02666 v -5.67466 z m 12.20265,0 v 10.66665 h 2.45333 v -5.11999 q 0.192,-1.536 1.23734,-2.45333 1.06666,-0.896 2.53866,-0.896 v -2.45333 q -1.36533,0 -2.41066,0.55467 -0.64,0.34133 -1.17334,0.85333 -0.0853,0.0853 -0.17066,0.17067 -0.064,0.0853 -0.14934,0.17066 v -1.49333 z m 12.71467,-0.256 q -2.30399,0 -3.86133,1.62133 -1.53599,1.62133 -1.53599,3.968 0,2.32533 1.53599,3.94666 1.55734,1.64266 3.86133,1.64266 2.28266,0 3.84,-1.62133 l -1.728,-1.74933 q -0.85333,0.91733 -2.112,0.91733 -1.28,0 -2.112,-0.91733 -0.83199,-0.91733 -0.83199,-2.21866 0,-1.32267 0.83199,-2.24 0.832,-0.896 2.112,-0.896 1.25867,0 2.112,0.91733 l 1.728,-1.74933 q -1.55734,-1.62133 -3.84,-1.62133 z m 15.61598,6.65599 v -1.00266 q 0,-2.432 -1.42933,-4.05333 -1.42933,-1.6 -3.648,-1.6 -2.30399,0 -3.86132,1.62133 -1.55733,1.62133 -1.55733,3.968 0,2.30399 1.62133,3.94666 1.59999,1.64266 3.94666,1.64266 1.23733,0 2.21866,-0.32 1.00266,-0.34133 1.87733,-1.088 l -1.344,-1.57866 q -0.576,0.448 -1.216,0.68266 -0.61866,0.21334 -1.53599,0.21334 -1.10933,0 -1.87733,-0.704 -0.768,-0.72533 -0.96,-1.728 z m -5.03466,-4.35199 q 1.04533,0 1.68533,0.64 0.66133,0.64 0.87467,1.79199 h -5.33333 q 0.192,-1.10933 0.93867,-1.77066 0.768,-0.66133 1.83466,-0.66133 z m 7.70133,6.14399 q 0,2.62399 -1.28,4.90666 h 2.13333 q 1.728,-2.02667 1.728,-4.90666 z m -221.71702,13.56797 q -0.42666,-1.04533 -1.32266,-1.59999 -0.93867,-0.59734 -2.304,-0.576 -1.53599,0 -2.60266,0.87466 -1.088,0.87467 -1.088,2.34667 0.0213,1.23733 0.832,2.04799 0.40533,0.42667 0.96,0.72533 0.576,0.29867 1.28,0.448 0.23466,0.064 0.448,0.128 0.23466,0.064 0.42666,0.14934 1.17333,0.36266 1.19467,0.98133 0,0.512 -0.42667,0.87466 -0.40533,0.34134 -1.13066,0.34134 -1.088,0 -1.51467,-0.896 l -2.32533,0.832 q 0.46934,1.10933 1.51467,1.70666 1.04533,0.59733 2.41066,0.61867 1.64266,0 2.70933,-0.832 1.23733,-0.96 1.25866,-2.56 0,-1.45066 -1.08799,-2.41066 -0.78934,-0.704 -2.24,-1.04533 -0.192,-0.064 -0.40533,-0.10667 -0.21334,-0.064 -0.448,-0.128 -0.96,-0.27733 -0.98133,-0.85333 -0.0213,-0.42667 0.31999,-0.72533 0.34134,-0.29867 0.93867,-0.29867 0.448,0 0.81067,0.192 0.34133,0.21333 0.46933,0.576 z m 10.47465,-1.91999 v 1.30133 q -0.064,-0.0853 -0.128,-0.17067 -0.064,-0.0853 -0.14933,-0.17066 -1.17334,-1.216 -3.05067,-1.216 -2.28266,0 -3.77599,1.62133 -1.49333,1.62133 -1.49333,3.96799 0,2.32533 1.49333,3.968 1.49333,1.62133 3.77599,1.62133 1.87733,0 3.02933,-1.17333 0.0853,-0.0853 0.14933,-0.17067 0.064,-0.0853 0.14934,-0.17067 v 1.25867 h 2.21866 v -10.66665 z m -3.136,2.17599 q 1.28,0 2.09067,0.896 0.384,0.46934 0.59733,1.024 0.21333,0.55467 0.21333,1.23733 0,0.66133 -0.21333,1.23733 -0.21333,0.55467 -0.59733,1.00267 -0.81067,0.91733 -2.09067,0.91733 -1.30133,0 -2.13333,-0.91733 -0.85333,-0.91733 -0.85333,-2.24 0,-1.344 0.85333,-2.26133 0.832,-0.896 2.13333,-0.896 z m 17.7493,8.49066 v -5.58933 q 0,-2.38933 -1.216,-3.86132 -1.25866,-1.472 -3.24266,-1.472 -1.62133,0 -2.64533,1.04533 -0.064,0.064 -0.14933,0.14933 -0.0853,0.0853 -0.14934,0.17067 v -1.10933 h -2.32533 v 10.66665 h 2.45333 v -5.67466 q 0,-1.25867 0.704,-2.02666 0.68267,-0.768 1.728,-0.768 1.024,0 1.70666,0.768 0.68267,0.74666 0.68267,2.02666 v 5.67466 z m 9.51466,-8.74666 q -0.42666,-1.04533 -1.32266,-1.59999 -0.93867,-0.59734 -2.304,-0.576 -1.536,0 -2.60266,0.87466 -1.088,0.87467 -1.088,2.34667 0.0213,1.23733 0.832,2.04799 0.40533,0.42667 0.96,0.72533 0.576,0.29867 1.28,0.448 0.23466,0.064 0.44799,0.128 0.23467,0.064 0.42667,0.14934 1.17333,0.36266 1.19467,0.98133 0,0.512 -0.42667,0.87466 -0.40533,0.34134 -1.13067,0.34134 -1.08799,0 -1.51466,-0.896 l -2.32533,0.832 q 0.46933,1.10933 1.51466,1.70666 1.04534,0.59733 2.41067,0.61867 1.64266,0 2.70933,-0.832 1.23733,-0.96 1.25866,-2.56 0,-1.45066 -1.088,-2.41066 -0.78933,-0.704 -2.23999,-1.04533 -0.192,-0.064 -0.40534,-0.10667 -0.21333,-0.064 -0.448,-0.128 -0.95999,-0.27733 -0.98133,-0.85333 -0.0213,-0.42667 0.32,-0.72533 0.34134,-0.29867 0.93867,-0.29867 0.448,0 0.81066,0.192 0.34134,0.21333 0.46934,0.576 z m 2.34666,3.60533 h 7.03998 v -2.45333 h -7.03998 z m 16.66128,-3.60533 q -0.42666,-1.04533 -1.32266,-1.59999 -0.93867,-0.59734 -2.304,-0.576 -1.53599,0 -2.60266,0.87466 -1.088,0.87467 -1.088,2.34667 0.0213,1.23733 0.832,2.04799 0.40533,0.42667 0.96,0.72533 0.576,0.29867 1.28,0.448 0.23466,0.064 0.448,0.128 0.23466,0.064 0.42666,0.14934 1.17333,0.36266 1.19467,0.98133 0,0.512 -0.42667,0.87466 -0.40533,0.34134 -1.13066,0.34134 -1.088,0 -1.51467,-0.896 l -2.32533,0.832 q 0.46934,1.10933 1.51467,1.70666 1.04533,0.59733 2.41066,0.61867 1.64266,0 2.70933,-0.832 1.23733,-0.96 1.25866,-2.56 0,-1.45066 -1.08799,-2.41066 -0.78934,-0.704 -2.24,-1.04533 -0.192,-0.064 -0.40533,-0.10667 -0.21334,-0.064 -0.448,-0.128 -0.96,-0.27733 -0.98133,-0.85333 -0.0213,-0.42667 0.31999,-0.72533 0.34134,-0.29867 0.93867,-0.29867 0.448,0 0.81067,0.192 0.34133,0.21333 0.46933,0.576 z m 12.37331,4.48 v -1.00267 q 0,-2.43199 -1.42933,-4.05332 -1.42933,-1.6 -3.64799,-1.6 -2.304,0 -3.86133,1.62133 -1.55733,1.62133 -1.55733,3.96799 0,2.304 1.62133,3.94666 1.6,1.64267 3.94666,1.64267 1.23733,0 2.21866,-0.32 1.00267,-0.34134 1.87733,-1.088 l -1.34399,-1.57867 q -0.576,0.448 -1.216,0.68267 -0.61867,0.21333 -1.536,0.21333 -1.10933,0 -1.87733,-0.704 -0.768,-0.72533 -0.96,-1.72799 z m -5.03466,-4.352 q 1.04534,0 1.68533,0.64 0.66134,0.64 0.87467,1.792 h -5.33333 q 0.192,-1.10933 0.93867,-1.77066 0.768,-0.66134 1.83466,-0.66134 z m 7.01867,-2.04799 v 10.66665 h 2.45333 v -5.11999 q 0.192,-1.536 1.23733,-2.45333 1.06667,-0.896 2.53867,-0.896 v -2.45333 q -1.36533,0 -2.41067,0.55466 -0.63999,0.34134 -1.17333,0.85334 -0.0853,0.0853 -0.17066,0.17066 -0.064,0.0853 -0.14934,0.17067 v -1.49333 z m 8.10667,10.66665 h 2.45333 v -10.66665 h -2.45333 z m 2.73066,-14.05865 q 0,-0.64 -0.42666,-1.06666 -0.448,-0.42667 -1.06667,-0.42667 -0.61866,0 -1.04533,0.42667 -0.448,0.448 -0.448,1.06666 0,0.59734 0.448,1.04533 0.42667,0.448 1.04533,0.448 0.61867,0 1.06667,-0.448 0.42666,-0.42666 0.42666,-1.04533 z m 7.63732,-1.25866 q -1.64267,0 -2.79466,1.152 -1.152,1.15199 -1.152,2.77333 v 0.72533 h -1.81333 v 2.43199 h 1.81333 v 8.23466 h 2.45333 v -8.23466 h 2.90133 v -2.43199 h -2.90133 v -0.72533 q 0,-0.61867 0.448,-1.04534 0.40533,-0.42666 1.04533,-0.42666 h 1.408 v -2.45333 z m 8.95999,1.32266 v 3.328 h -1.74933 v 2.43199 h 1.74933 v 3.60533 q 0,1.92 1.36533,3.264 1.36533,1.36533 3.26399,1.36533 h 0.72534 v -2.45333 h -0.72534 q -0.91733,0 -1.55733,-0.64 -0.61866,-0.61867 -0.61866,-1.536 v -3.60533 h 2.92266 v -2.43199 h -2.92266 v -3.328 z m 6.20798,3.328 4.60799,10.60265 -0.34133,0.768 q -0.27733,0.66133 -0.832,1.00266 -0.576,0.36267 -1.32266,0.36267 h -1.06667 v 2.45333 h 1.06667 q 1.42933,0 2.64533,-0.78934 1.19466,-0.74666 1.77066,-2.04799 l 5.18399,-12.35198 h -2.64533 l -3.15732,7.46665 -3.22133,-7.46665 z m 15.5733,0 v 1.25866 q 0.0853,-0.10666 0.17067,-0.21333 0.10666,-0.10667 0.192,-0.192 1.13066,-1.10933 2.96532,-1.10933 2.28267,0 3.776,1.62133 1.49333,1.62133 1.49333,3.96799 0,2.32533 -1.49333,3.968 -1.49333,1.62133 -3.776,1.62133 -1.72799,0 -2.83732,-1.088 -0.064,-0.064 -0.128,-0.128 -0.064,-0.0853 -0.128,-0.17067 v 5.39733 h -2.45333 v -14.93331 z m 3.136,8.49065 q 1.30133,0 2.15466,-0.91733 0.832,-0.91733 0.832,-2.24 0,-1.344 -0.832,-2.26133 -0.85333,-0.896 -2.15466,-0.896 -1.28,0 -2.09067,0.896 -0.81066,0.91733 -0.81066,2.26133 0,1.32267 0.81066,2.24 0.81067,0.91733 2.09067,0.91733 z m 17.47198,-2.09066 v -1.00267 q 0,-2.43199 -1.42933,-4.05332 -1.42933,-1.6 -3.64799,-1.6 -2.304,0 -3.86133,1.62133 -1.55733,1.62133 -1.55733,3.96799 0,2.304 1.62133,3.94666 1.6,1.64267 3.94666,1.64267 1.23733,0 2.21866,-0.32 1.00267,-0.34134 1.87733,-1.088 l -1.34399,-1.57867 q -0.576,0.448 -1.216,0.68267 -0.61867,0.21333 -1.536,0.21333 -1.10933,0 -1.87733,-0.704 -0.768,-0.72533 -0.96,-1.72799 z m -5.03466,-4.352 q 1.04534,0 1.68534,0.64 0.66133,0.64 0.87466,1.792 h -5.33332 q 0.192,-1.10933 0.93866,-1.77066 0.768,-0.66134 1.83466,-0.66134 z m 12.032,-6.69865 q -1.64267,0 -2.79467,1.152 -1.15199,1.15199 -1.15199,2.77333 v 0.72533 h -1.81333 v 2.43199 h 1.81333 v 8.23466 h 2.45333 v -8.23466 h 2.90132 v -2.43199 h -2.90132 v -0.72533 q 0,-0.61867 0.44799,-1.04534 0.40534,-0.42666 1.04534,-0.42666 h 1.40799 v -2.45333 z m 10.73063,4.65066 v 1.30133 q -0.064,-0.0853 -0.128,-0.17067 -0.064,-0.0853 -0.14933,-0.17066 -1.17333,-1.216 -3.05066,-1.216 -2.28267,0 -3.776,1.62133 -1.49333,1.62133 -1.49333,3.96799 0,2.32533 1.49333,3.968 1.49333,1.62133 3.776,1.62133 1.87733,0 3.02933,-1.17333 0.0853,-0.0853 0.14933,-0.17067 0.064,-0.0853 0.14933,-0.17067 v 1.25867 h 2.21867 v -10.66665 z m -3.13599,2.17599 q 1.28,0 2.09066,0.896 0.384,0.46934 0.59733,1.024 0.21334,0.55467 0.21334,1.23733 0,0.66133 -0.21334,1.23733 -0.21333,0.55467 -0.59733,1.00267 -0.81066,0.91733 -2.09066,0.91733 -1.30133,0 -2.13333,-0.91733 -0.85333,-0.91733 -0.85333,-2.24 0,-1.344 0.85333,-2.26133 0.832,-0.896 2.13333,-0.896 z m 12.84264,-2.43199 q -2.30399,0 -3.86132,1.62133 -1.536,1.62133 -1.536,3.96799 0,2.32533 1.536,3.94666 1.55733,1.64267 3.86132,1.64267 2.28267,0 3.84,-1.62133 l -1.728,-1.74933 q -0.85333,0.91733 -2.112,0.91733 -1.27999,0 -2.11199,-0.91733 -0.832,-0.91734 -0.832,-2.21867 0,-1.32266 0.832,-2.23999 0.832,-0.896 2.11199,-0.896 1.25867,0 2.112,0.91733 l 1.728,-1.74933 q -1.55733,-1.62133 -3.84,-1.62133 z m 15.61598,6.65599 v -1.00267 q 0,-2.43199 -1.42933,-4.05332 -1.42933,-1.6 -3.64799,-1.6 -2.304,0 -3.86133,1.62133 -1.55733,1.62133 -1.55733,3.96799 0,2.304 1.62133,3.94666 1.6,1.64267 3.94666,1.64267 1.23733,0 2.21866,-0.32 1.00267,-0.34134 1.87733,-1.088 l -1.344,-1.57867 q -0.57599,0.448 -1.21599,0.68267 -0.61867,0.21333 -1.536,0.21333 -1.10933,0 -1.87733,-0.704 -0.768,-0.72533 -0.96,-1.72799 z m -5.03466,-4.352 q 1.04533,0 1.68533,0.64 0.66134,0.64 0.87467,1.792 h -5.33333 q 0.192,-1.10933 0.93867,-1.77066 0.768,-0.66134 1.83466,-0.66134 z m 9.87733,7.33866 q 0,-0.66133 -0.46933,-1.13067 -0.46933,-0.46933 -1.10933,-0.46933 -0.66134,0 -1.13067,0.46933 -0.46933,0.46934 -0.46933,1.13067 0,0.66133 0.46933,1.10933 0.46933,0.46933 1.13067,0.46933 0.64,0 1.10933,-0.46933 0.46933,-0.46933 0.46933,-1.10933 z"
       id="text10-4"
       style="font-size:21.3333px;line-height:0.93;font-family:Unageo;-inkscape-font-specification:'Unageo, @wght=600';font-variation-settings:'wght' 600;white-space:pre;inline-size:259.158;display:inline;fill:#a6a6a6;stroke-width:3.77953"
       transform="matrix(1.0559296,0,0,1.0559296,0.85618626,27.659131)"
       aria-label="a modern, open-source, sans-serif typeface." /><text
       xml:space="preserve"
       style="font-style:normal;font-variant:normal;font-weight:normal;font-stretch:normal;font-size:32px;line-height:0.93;font-family:Unageo;-inkscape-font-specification:'Unageo, @wght=670';font-variant-ligatures:normal;font-variant-caps:normal;font-variant-numeric:normal;font-variant-east-asian:normal;font-variation-settings:'wght' 670;writing-mode:lr-tb;direction:ltr;white-space:pre;inline-size:463.602;display:none;fill:#cccccc;fill-opacity:1;stroke-width:3.77953"
       x="220.33653"
       y="139.65956"
       id="text10-3"
       transform="matrix(2.1816718,0,0,2.1816718,-251.54049,-175.82182)"
       inkscape:export-filename="text10-3.svg"
       inkscape:export-xdpi="72"
       inkscape:export-ydpi="72"><tspan
         x="220.33653"
         y="139.65956"
         id="tspan1">Unageo</tspan></text><text
       xml:space="preserve"
       style="font-style:normal;font-variant:normal;font-weight:normal;font-stretch:normal;font-size:21.3333px;line-height:0.93;font-family:Unageo;-inkscape-font-specification:'Unageo, @wght=600';font-variant-ligatures:normal;font-variant-caps:normal;font-variant-numeric:normal;font-variant-east-asian:normal;font-variation-settings:'wght' 600;writing-mode:lr-tb;direction:ltr;white-space:pre;inline-size:259.158;display:none;fill:#a6a6a6;fill-opacity:1;stroke-width:3.77953"
       x="220.33653"
       y="139.65956"
       id="text10-4-6"
       transform="matrix(1.0559296,0,0,1.0559296,0.85618626,27.659131)"><tspan
         x="220.33653"
         y="139.65956"
         id="tspan2">a modern, open-source, </tspan><tspan
         x="220.33653"
         y="159.49953"
         id="tspan5">sans-serif typeface.</tspan></text></g><defs
     id="defs10"><rect
       x="334.69708"
       y="212.98905"
       width="55.444769"
       height="67.010949"
       id="rect12" /><clipPath
       id="a"><path
         fill="#fff"
         d="M0 0h560v280H0z"
         id="path10" /></clipPath></defs><g
     id="g11"
     style="display:none"><rect
       style="font-variation-settings:'wght' 580;display:inline;fill:#8a5315;fill-opacity:1;stroke-width:17.7259"
       id="rect10"
       width="560"
       height="80"
       x="0"
       y="200.85501" /><rect
       style="font-variation-settings:'wght' 580;display:inline;fill:#8a5315;fill-opacity:1;stroke-width:17.7259"
       id="rect10-6"
       width="560"
       height="80"
       x="0"
       y="0" /><rect
       style="font-variation-settings:'wght' 580;display:inline;fill:#8a5315;fill-opacity:1;stroke-width:8.23464"
       id="rect10-6-5"
       width="120.85501"
       height="80"
       x="80"
       y="-80"
       transform="rotate(90)" /><rect
       style="font-variation-settings:'wght' 580;display:inline;fill:#8a5315;fill-opacity:1;stroke-width:8.23463"
       id="rect10-6-5-7"
       width="120.85501"
       height="80"
       x="80"
       y="-560"
       transform="rotate(90)" /></g><rect
     style="font-variation-settings:'wght' 600;display:none;fill:#d9d9d9;fill-opacity:1;stroke-width:5.95595"
     id="rect11"
     width="57.467964"
     height="109.98508"
     x="178.69225"
     y="91.430511" /><text
     xml:space="preserve"
     id="text11"
     style="font-style:normal;font-variant:normal;font-weight:normal;font-stretch:normal;font-size:21.3333px;line-height:0.93;font-family:Unageo;-inkscape-font-specification:'Unageo, @wght=600';font-variant-ligatures:normal;font-variant-caps:normal;font-variant-numeric:normal;font-variant-east-asian:normal;font-variation-settings:'wght' 600;writing-mode:lr-tb;direction:ltr;white-space:pre;shape-inside:url(#rect12);display:inline;fill:#d9d9d9;fill-opacity:1;stroke-width:3.77953" /></svg>
