<svg xmlns="http://www.w3.org/2000/svg" xml:space="preserve" width="560" height="280" fill="none"><g clip-path="url(#a)"><path fill="#080808" d="M560 0H0v280h560z" style="fill:#141414;fill-opacity:1"/><path fill="#0d0d0d" d="M0 0v280.855h442.559c4.221-22.015 7.821-45.186 7.574-66.783-.518-45.256-17.581-83.357-27.215-116.794-9.316-32.33-11.641-60.485-12.387-97.278Z" style="fill:#171717;fill-opacity:1"/><path fill="#121212" d="M0 0v280.855h299.102c6.033-31.258 15.87-62.531 18.638-88.235 4.051-37.608-7.606-63.351-17.652-96.135-8.682-28.333-16.099-61.93-11.264-96.485Z" style="fill:#1a1a1a;fill-opacity:1"/><path fill="#171717" d="M0 0v280.855h209.795c2.388-23.865.338-44.568-7.529-66.783-11.216-31.67-34.046-66.561-23.537-111.232 7.756-32.972 33.59-71.226 46.664-102.84Z" style="fill:#1c1c1c;fill-opacity:1"/><path fill="#1c1c1c" d="M0 0v280.855h102.768c-15.527-28.994-32.51-60.488-35.836-86.647-5.321-41.854 24.834-69.181 27.213-102.491C96.22 62.642 77.148 29.015 71.428 0Z" style="fill:#1f1f1f;fill-opacity:1"/><path fill="#0095ff" d="M80 80v66.423q0 23.794 14.302 39.113 14.301 15.32 35.045 15.319 20.743 0 35.044-15.32 14.301-15.318 14.301-39.112v-27.077H122.8v26.23h29.662v.847q0 13.031-6.568 20.616-6.568 7.586-16.547 7.586-9.981-.001-16.548-7.586-6.57-7.586-6.569-20.616V80Z"/><path fill="#007eff" d="M80 80v66.423q0 23.794 14.302 39.113 14.301 15.32 35.045 15.319c22.655-2.37 18.223-26.975 0-26.23q-9.981-.001-16.548-7.586-6.57-7.586-6.569-20.616V80Z"/><path fill="#0068ff" d="M80 80v49.473c0 21.947 26.23 21.787 26.23 0V80Z"/><path fill="#00acff" d="M163.861 109.662c8.192 0 14.831-6.64 14.831-14.83 0-8.192-6.64-14.832-14.83-14.832-8.192 0-14.832 6.64-14.832 14.831 0 8.192 6.64 14.831 14.831 14.831"/><path d="M222.512 117.26v12.64q0 4.48 2.656 7.328 2.656 2.816 6.528 2.816t6.496-2.816q2.656-2.848 2.656-7.328v-12.64h-4.096v12.64q0 2.752-1.44 4.384-1.504 1.664-3.616 1.664-2.144 0-3.616-1.664-1.472-1.632-1.472-4.384v-12.64zm37.28 22.4v-8.352q0-3.584-1.824-5.824-1.856-2.208-4.864-2.208-2.368 0-3.84 1.44l-.256.256q-.128.096-.224.256v-1.568h-3.872v16h4.096v-8.512q0-1.696.96-2.72.96-1.056 2.4-1.056t2.4 1.056q.928.992.928 2.72v8.512zm15.392-16v1.792q-.096-.128-.192-.224-.096-.128-.192-.224-1.728-1.728-4.416-1.728-3.424 0-5.696 2.432-2.24 2.432-2.24 5.952t2.24 5.952q2.272 2.432 5.696 2.432 2.688 0 4.384-1.632.128-.096.224-.192l.192-.256v1.696h3.648v-16zm-4.48 3.68q1.76 0 2.912 1.216.544.64.832 1.408t.288 1.696q0 .896-.288 1.696-.288.768-.832 1.376-1.152 1.248-2.912 1.248-1.792 0-2.944-1.248-1.184-1.248-1.184-3.072t1.184-3.104q1.152-1.216 2.944-1.216m19.008-4.032q-3.424 0-5.696 2.432-2.24 2.432-2.24 5.952 0 3.488 2.24 5.952 2.272 2.432 5.696 2.432 2.4 0 3.968-1.376.096-.064.16-.16t.16-.192q-.032.192-.032.32v.256q-.096 1.44-.928 2.496-.992 1.28-3.008 1.28-1.472 0-2.592-.32-1.12-.288-2.272-1.056l-1.92 3.296q.704.512 1.6.928.896.448 2.176.704 1.312.256 3.2.256 3.616 0 5.792-2.304t2.144-6.272v-14.24h-3.648v1.792q-.128-.16-.256-.288-.128-.16-.288-.288-1.696-1.6-4.256-1.6m.32 4.032q1.76 0 2.88 1.28.576.608.864 1.376t.288 1.696q0 .896-.288 1.664t-.864 1.408q-1.12 1.248-2.88 1.248-1.792 0-2.944-1.248-1.184-1.28-1.184-3.072 0-1.824 1.184-3.072 1.152-1.28 2.944-1.28m26.976 6.08v-1.632q0-3.648-2.208-6.08-2.176-2.432-5.504-2.432-3.488 0-5.824 2.432-2.368 2.464-2.368 5.952 0 3.456 2.464 5.92t5.984 2.464q1.824 0 3.264-.448 1.472-.48 2.816-1.568l-2.208-2.592q-.832.576-1.696.896-.864.288-2.176.288-1.472 0-2.528-.928-1.024-.96-1.344-2.272zm-7.648-6.336q1.408 0 2.304.832.896.864 1.216 2.4h-7.264q.288-1.504 1.312-2.368t2.432-.864m17.792.288q1.76 0 2.912 1.248t1.152 3.04-1.152 3.04-2.912 1.248-2.912-1.248q-1.184-1.248-1.184-3.04t1.184-3.04q1.152-1.248 2.912-1.248m0-4.096q-3.456 0-5.792 2.464-2.368 2.4-2.368 5.92 0 3.488 2.368 5.92 2.336 2.464 5.792 2.464t5.792-2.464q2.368-2.432 2.368-5.92t-2.368-5.92q-2.336-2.464-5.792-2.464" aria-label="Unageo" style="font-size:32px;line-height:.93;font-family:Unageo;-inkscape-font-specification:&quot;Unageo, @wght=670&quot;;font-variation-settings:&quot;wght&quot;670;white-space:pre;inline-size:463.602;display:inline;fill:#ccc;stroke-width:3.77953" transform="translate(-251.54 -175.822)scale(2.18167)"/><path d="M229.701 128.993v1.301l-.128-.17q-.064-.086-.15-.171-1.172-1.216-3.05-1.216-2.282 0-3.776 1.621-1.493 1.622-1.493 3.968 0 2.326 1.493 3.968 1.494 1.622 3.776 1.622 1.878 0 3.03-1.174.085-.085.149-.17t.15-.171v1.259h2.218v-10.667zm-3.136 2.176q1.28 0 2.09.896.385.47.598 1.024.214.555.214 1.237 0 .662-.214 1.238-.213.554-.597 1.002-.81.918-2.09.918-1.302 0-2.134-.918-.853-.917-.853-2.24 0-1.344.853-2.261.832-.896 2.133-.896m29.846 8.49v-5.589q0-2.39-1.195-3.861-1.216-1.472-3.179-1.472-1.941 0-3.03 1.45l-.212.342q-.107.17-.192.384-.192-.405-.448-.704-1.216-1.472-3.18-1.472-1.642 0-2.644 1.13-.022.043-.086.086-.042.043-.085.107v-1.067h-2.325v10.667h2.453v-5.675q0-1.301.661-2.048.64-.747 1.643-.747t1.664.747q.64.747.64 2.048v5.675h2.453v-5.675q0-1.301.662-2.048.64-.747 1.642-.747 1.003 0 1.664.747.64.747.64 2.048v5.675zm7.296-8.469q1.28 0 2.112.918.832.896.832 2.218 0 1.302-.832 2.24-.832.896-2.112.896t-2.112-.896q-.832-.938-.832-2.24 0-1.322.832-2.218.832-.918 2.112-.918m0-2.453q-2.304 0-3.84 1.621-1.558 1.622-1.558 3.968 0 2.326 1.558 3.947 1.536 1.643 3.84 1.643t3.84-1.643q1.557-1.621 1.557-3.947 0-2.346-1.557-3.968-1.536-1.621-3.84-1.621m12.373 2.432q-1.302 0-2.134.896-.853.917-.853 2.261 0 1.323.853 2.24.832.918 2.134.918 1.28 0 2.09-.918.384-.448.598-1.002.213-.576.213-1.238 0-.682-.213-1.237-.214-.555-.598-1.024-.81-.896-2.09-.896m-.192-2.432q1.6 0 2.645.981.128.086.235.192.106.086.213.192v-5.376h2.453v14.934h-2.218v-1.26l-.214.214q-.085.107-.192.192-1.13 1.11-2.922 1.11-2.283 0-3.776-1.622-1.494-1.642-1.494-3.968 0-2.346 1.494-3.968t3.776-1.621m18.133 6.656v-1.003q0-2.432-1.43-4.053-1.429-1.6-3.647-1.6-2.304 0-3.862 1.621-1.557 1.622-1.557 3.968 0 2.304 1.621 3.947 1.6 1.643 3.947 1.643 1.237 0 2.219-.32 1.002-.342 1.877-1.088l-1.344-1.58q-.576.449-1.216.684-.619.213-1.536.213-1.11 0-1.877-.704-.768-.725-.96-1.728zm-5.035-4.352q1.046 0 1.686.64.661.64.874 1.792h-5.333q.192-1.11.939-1.77.768-.662 1.834-.662m7.02-2.048v10.667h2.452v-5.12q.192-1.536 1.238-2.454 1.066-.896 2.538-.896v-2.453q-1.365 0-2.41.555-.64.34-1.174.853l-.17.17q-.064.086-.15.171v-1.493zm17.62 10.667v-5.59q0-2.39-1.216-3.861-1.258-1.472-3.242-1.472-1.622 0-2.646 1.045l-.149.15q-.085.085-.15.17v-1.11h-2.325v10.668h2.454v-5.675q0-1.259.704-2.027.682-.768 1.728-.768 1.024 0 1.706.768.683.747.683 2.027v5.675zm3.158-2.475q0 2.624-1.28 4.907h2.133q1.728-2.027 1.728-4.907zm14.741-5.995q1.28 0 2.112.918.832.896.832 2.218 0 1.302-.832 2.24-.832.896-2.112.896t-2.112-.896q-.832-.938-.832-2.24 0-1.322.832-2.218.832-.918 2.112-.918m0-2.453q-2.304 0-3.84 1.621-1.557 1.622-1.557 3.968 0 2.326 1.557 3.947 1.536 1.643 3.84 1.643t3.84-1.643q1.557-1.621 1.557-3.947 0-2.346-1.557-3.968-1.536-1.621-3.84-1.621m9.813.256v1.259l.171-.214.192-.192q1.13-1.11 2.965-1.11 2.283 0 3.776 1.622 1.494 1.622 1.494 3.968 0 2.326-1.494 3.968-1.493 1.622-3.776 1.622-1.728 0-2.837-1.088l-.128-.128-.128-.171v5.397h-2.453v-14.933zm3.136 8.49q1.302 0 2.155-.917.832-.917.832-2.24 0-1.344-.832-2.261-.853-.896-2.155-.896-1.28 0-2.09.896-.81.917-.81 2.261 0 1.323.81 2.24t2.09.918m17.472-2.09v-1.003q0-2.432-1.429-4.053-1.43-1.6-3.648-1.6-2.304 0-3.861 1.621-1.558 1.622-1.558 3.968 0 2.304 1.622 3.947 1.6 1.643 3.946 1.643 1.238 0 2.22-.32 1.002-.342 1.876-1.088l-1.344-1.58q-.576.449-1.216.684-.618.213-1.536.213-1.109 0-1.877-.704-.768-.725-.96-1.728zm-5.034-4.352q1.045 0 1.685.64.661.64.875 1.792h-5.334q.192-1.11.94-1.77.767-.662 1.834-.662m16.746 8.619v-5.59q0-2.39-1.216-3.861-1.258-1.472-3.242-1.472-1.622 0-2.646 1.045l-.149.15q-.085.085-.15.17v-1.11h-2.325v10.668h2.454v-5.675q0-1.259.704-2.027.682-.768 1.728-.768 1.024 0 1.706.768.683.747.683 2.027v5.675zm2.368-5.142h7.04v-2.453h-7.04zm16.662-3.605q-.427-1.045-1.323-1.6-.939-.597-2.304-.576-1.536 0-2.603.875-1.088.874-1.088 2.346.022 1.238.832 2.048.406.427.96.726.576.298 1.28.448.235.064.448.128.235.064.427.149 1.173.363 1.195.981 0 .512-.427.875-.405.341-1.13.341-1.089 0-1.515-.896l-2.326.832q.47 1.11 1.515 1.707t2.41.619q1.643 0 2.71-.832 1.237-.96 1.259-2.56 0-1.451-1.088-2.411-.79-.704-2.24-1.045-.192-.064-.406-.107-.213-.064-.448-.128-.96-.277-.981-.853-.021-.427.32-.726.341-.298.939-.298.448 0 .81.192.342.213.47.576zm7.274.277q1.28 0 2.112.918.832.896.832 2.218 0 1.302-.832 2.24-.832.896-2.112.896t-2.112-.896q-.832-.938-.832-2.24 0-1.322.832-2.218.832-.918 2.112-.918m0-2.453q-2.304 0-3.84 1.621-1.557 1.622-1.557 3.968 0 2.326 1.557 3.947 1.536 1.643 3.84 1.643t3.84-1.643q1.558-1.621 1.558-3.947 0-2.346-1.558-3.968-1.536-1.621-3.84-1.621m7.275.256v5.59q0 2.325 1.408 3.818 1.43 1.515 3.477 1.515 2.027 0 3.435-1.515 1.408-1.493 1.408-3.819v-5.59h-2.453v5.676q0 1.258-.683 2.026t-1.707.768q-1.045 0-1.728-.768-.704-.768-.704-2.026v-5.675zm12.203 0v10.667h2.453v-5.12q.192-1.536 1.237-2.454 1.067-.896 2.539-.896v-2.453q-1.365 0-2.41.555-.64.34-1.174.853l-.17.17q-.065.086-.15.171v-1.493zm12.714-.256q-2.304 0-3.861 1.621-1.536 1.622-1.536 3.968 0 2.326 1.536 3.947 1.557 1.643 3.861 1.643 2.283 0 3.84-1.622l-1.728-1.75q-.853.918-2.112.918-1.28 0-2.112-.917t-.832-2.219q0-1.322.832-2.24.832-.896 2.112-.896 1.259 0 2.112.918l1.728-1.75q-1.557-1.621-3.84-1.621m15.616 6.656v-1.003q0-2.432-1.43-4.053-1.428-1.6-3.647-1.6-2.304 0-3.861 1.621-1.558 1.622-1.558 3.968 0 2.304 1.622 3.947 1.6 1.643 3.946 1.643 1.238 0 2.219-.32 1.003-.342 1.877-1.088l-1.344-1.58q-.576.449-1.216.684-.618.213-1.536.213-1.109 0-1.877-.704-.768-.725-.96-1.728zm-5.034-4.352q1.045 0 1.685.64.661.64.875 1.792h-5.334q.192-1.11.939-1.77.768-.662 1.835-.662m7.7 6.144q0 2.624-1.28 4.907h2.134q1.728-2.027 1.728-4.907zM228.72 150.753q-.427-1.045-1.323-1.6-.938-.597-2.304-.576-1.536 0-2.602.875-1.088.874-1.088 2.346.02 1.238.832 2.048.405.427.96.726.576.298 1.28.448.234.064.448.128.234.064.426.149 1.174.363 1.195.981 0 .512-.427.875-.405.341-1.13.341-1.088 0-1.515-.896l-2.325.832q.469 1.11 1.514 1.707 1.046.597 2.41.619 1.644 0 2.71-.832 1.238-.96 1.259-2.56 0-1.451-1.088-2.411-.79-.704-2.24-1.045-.192-.064-.405-.107-.214-.064-.448-.128-.96-.277-.982-.853-.021-.427.32-.726.342-.298.939-.298.448 0 .81.192.342.213.47.576zm10.475-1.92v1.301l-.128-.17q-.064-.086-.15-.171-1.173-1.216-3.05-1.216-2.283 0-3.776 1.621-1.494 1.622-1.494 3.968 0 2.326 1.494 3.968 1.493 1.622 3.776 1.622 1.877 0 3.029-1.174.085-.085.15-.17.063-.086.149-.171v1.259h2.218v-10.667zm-3.136 2.176q1.28 0 2.09.896.384.47.598 1.024.213.555.213 1.237 0 .662-.213 1.238-.214.554-.598 1.002-.81.918-2.09.918-1.302 0-2.134-.918-.853-.917-.853-2.24 0-1.344.853-2.261.832-.896 2.134-.896m17.749 8.49v-5.589q0-2.39-1.216-3.861-1.259-1.472-3.243-1.472-1.621 0-2.645 1.045l-.15.15q-.085.085-.149.17v-1.11h-2.325V159.5h2.453v-5.675q0-1.259.704-2.027.683-.768 1.728-.768 1.024 0 1.707.768.683.747.683 2.027v5.675zm9.515-8.746q-.427-1.045-1.323-1.6-.939-.597-2.304-.576-1.536 0-2.603.875-1.088.874-1.088 2.346.022 1.238.832 2.048.406.427.96.726.576.298 1.28.448.235.064.448.128.235.064.427.149 1.173.363 1.195.981 0 .512-.427.875-.405.341-1.13.341-1.089 0-1.515-.896l-2.326.832q.47 1.11 1.515 1.707t2.41.619q1.643 0 2.71-.832 1.237-.96 1.259-2.56 0-1.451-1.088-2.411-.79-.704-2.24-1.045-.192-.064-.406-.107-.213-.064-.448-.128-.96-.277-.981-.853-.021-.427.32-.726.341-.298.939-.298.448 0 .81.192.342.213.47.576zm2.346 3.605h7.04v-2.453h-7.04zm16.661-3.605q-.426-1.045-1.322-1.6-.939-.597-2.304-.576-1.536 0-2.603.875-1.088.874-1.088 2.346.021 1.238.832 2.048.405.427.96.726.576.298 1.28.448.235.064.448.128.235.064.427.149 1.173.363 1.194.981 0 .512-.426.875-.406.341-1.13.341-1.089 0-1.516-.896l-2.325.832q.47 1.11 1.515 1.707t2.41.619q1.643 0 2.71-.832 1.237-.96 1.258-2.56 0-1.451-1.088-2.411-.789-.704-2.24-1.045-.192-.064-.405-.107-.213-.064-.448-.128-.96-.277-.981-.853-.021-.427.32-.726.341-.298.938-.298.448 0 .811.192.341.213.47.576zm12.374 4.48v-1.003q0-2.432-1.43-4.053-1.429-1.6-3.648-1.6-2.304 0-3.86 1.621-1.558 1.622-1.558 3.968 0 2.304 1.621 3.947 1.6 1.643 3.947 1.643 1.237 0 2.218-.32 1.003-.342 1.878-1.088l-1.344-1.58q-.576.449-1.216.684-.619.213-1.536.213-1.11 0-1.878-.704-.768-.725-.96-1.728zm-5.035-4.352q1.045 0 1.685.64.662.64.875 1.792h-5.333q.192-1.11.938-1.77.768-.662 1.835-.662m7.019-2.048V159.5h2.453v-5.12q.192-1.536 1.237-2.454 1.067-.896 2.54-.896v-2.453q-1.366 0-2.412.555-.64.34-1.173.853l-.17.17q-.065.086-.15.171v-1.493zm8.106 10.667h2.454v-10.667h-2.454zm2.731-14.06q0-.64-.427-1.066-.448-.426-1.066-.426t-1.046.426q-.448.448-.448 1.067 0 .597.448 1.045.427.448 1.046.448.618 0 1.066-.448.427-.426.427-1.045m7.637-1.258q-1.642 0-2.794 1.152t-1.152 2.774v.725h-1.814v2.432h1.814v8.235h2.453v-8.235h2.901v-2.432h-2.9v-.725q0-.62.447-1.046.405-.426 1.045-.426h1.408v-2.454zm8.96 1.323v3.328h-1.749v2.432h1.75v3.605q0 1.92 1.365 3.264 1.365 1.366 3.264 1.366h.725v-2.454h-.725q-.918 0-1.558-.64-.618-.618-.618-1.536v-3.605h2.922v-2.432h-2.922v-3.328zm6.208 3.328 4.608 10.603-.34.768q-.278.66-.833 1.002-.576.363-1.323.363h-1.066v2.453h1.066q1.43 0 2.646-.79 1.194-.746 1.77-2.047l5.184-12.352h-2.645l-3.157 7.467-3.222-7.467zm15.574 0v1.259l.17-.214.192-.192q1.131-1.11 2.966-1.11 2.282 0 3.776 1.622t1.493 3.968q0 2.326-1.493 3.968-1.494 1.622-3.776 1.622-1.728 0-2.838-1.088l-.128-.128-.128-.171v5.397h-2.453v-14.933zm3.136 8.49q1.301 0 2.154-.917.832-.917.832-2.24 0-1.344-.832-2.261-.853-.896-2.154-.896-1.28 0-2.091.896-.81.917-.81 2.261 0 1.323.81 2.24t2.09.918m17.472-2.09v-1.003q0-2.432-1.43-4.053-1.429-1.6-3.648-1.6-2.304 0-3.861 1.621-1.557 1.622-1.557 3.968 0 2.304 1.621 3.947 1.6 1.643 3.947 1.643 1.237 0 2.218-.32 1.003-.342 1.878-1.088l-1.344-1.58q-.576.449-1.216.684-.619.213-1.536.213-1.11 0-1.878-.704-.768-.725-.96-1.728zm-5.035-4.352q1.045 0 1.685.64.662.64.875 1.792h-5.333q.192-1.11.938-1.77.768-.662 1.835-.662m12.032-6.699q-1.643 0-2.795 1.152t-1.152 2.774v.725h-1.813v2.432h1.813v8.235h2.454v-8.235h2.901v-2.432h-2.901v-.725q0-.62.448-1.046.405-.426 1.045-.426h1.408v-2.454zm10.73 4.65v1.302l-.127-.17q-.064-.086-.15-.171-1.173-1.216-3.05-1.216-2.283 0-3.776 1.621-1.494 1.622-1.494 3.968 0 2.326 1.494 3.968 1.493 1.622 3.776 1.622 1.877 0 3.029-1.174.085-.085.15-.17.063-.086.149-.171v1.259h2.218v-10.667zm-3.135 2.177q1.28 0 2.09.896.384.47.598 1.024.213.555.213 1.237 0 .662-.213 1.238-.214.554-.598 1.002-.81.918-2.09.918-1.302 0-2.134-.918-.853-.917-.853-2.24 0-1.344.853-2.261.832-.896 2.134-.896m12.842-2.432q-2.304 0-3.861 1.621-1.536 1.622-1.536 3.968 0 2.326 1.536 3.947 1.557 1.643 3.861 1.643 2.283 0 3.84-1.622l-1.728-1.75q-.853.918-2.112.918-1.28 0-2.112-.917t-.832-2.219q0-1.322.832-2.24.832-.896 2.112-.896 1.259 0 2.112.918l1.728-1.75q-1.557-1.621-3.84-1.621m15.616 6.656v-1.003q0-2.432-1.429-4.053-1.43-1.6-3.648-1.6-2.304 0-3.861 1.621-1.558 1.622-1.558 3.968 0 2.304 1.622 3.947 1.6 1.643 3.946 1.643 1.238 0 2.219-.32 1.003-.342 1.877-1.088l-1.344-1.58q-.576.449-1.216.684-.618.213-1.536.213-1.109 0-1.877-.704-.768-.725-.96-1.728zm-5.034-4.352q1.045 0 1.685.64.661.64.875 1.792h-5.334q.192-1.11.939-1.77.768-.662 1.835-.662m9.877 7.339q0-.662-.47-1.131-.469-.47-1.109-.47-.661 0-1.13.47-.47.47-.47 1.13 0 .662.47 1.11.469.47 1.13.47.64 0 1.11-.47.469-.47.469-1.11" aria-label="a modern, open-source, sans-serif typeface." style="font-size:21.3333px;line-height:.93;font-family:Unageo;-inkscape-font-specification:&quot;Unageo, @wght=600&quot;;font-variation-settings:&quot;wght&quot;600;white-space:pre;inline-size:259.158;display:inline;fill:#a6a6a6;stroke-width:3.77953" transform="translate(.856 27.66)scale(1.05593)"/></g><defs><clipPath id="a"><path fill="#fff" d="M0 0h560v280H0Z"/></clipPath></defs></svg>