<svg xmlns="http://www.w3.org/2000/svg" width="560" height="280" fill="none" viewBox="0 0 560 280">
  <g clip-path="url(#a)">
    <path fill="#080808" d="M560 0H0v280h560V0Z"/>
    <path fill="#0D0D0D" d="M-.00003052 0v280.855H442.559c4.221-22.015 7.821-45.186 7.574-66.783-.518-45.256-17.581-83.357-27.215-116.7938C413.602 64.9473 411.277 36.7932 410.531 0H-.00003052Z"/>
    <path fill="#121212" d="M0 0v280.855h299.102c6.033-31.258 15.87-62.531 18.638-88.235 4.051-37.608-7.606-63.351-17.652-96.135C291.406 68.1518 283.989 34.5542 288.824 0H0Z"/>
    <path fill="#171717" d="M0 0v280.855h209.795c2.388-23.865.338-44.568-7.529-66.783-11.216-31.67-34.046-66.561-23.537-111.232 7.756-32.972 33.59-71.2259 46.664-102.84H0Z"/>
    <path fill="#1C1C1C" d="M0 0v280.855h102.768c-15.5266-28.994-32.5107-60.488-35.8363-86.647-5.321-41.854 24.8341-69.181 27.2128-102.4911C96.2208 62.6423 77.1476 29.0146 71.4277 0H0Z"/>
    <path fill="#0095FF" d="M98.1631 80.2778v66.1182c0 15.79 4.7449 28.768 14.2359 38.933 9.491 10.166 21.119 15.249 34.884 15.249s25.393-5.083 34.883-15.249c9.491-10.165 14.236-23.143 14.236-38.933v-26.953h-55.636v26.11h29.526v.843c0 8.647-2.179 15.488-6.538 20.521-4.358 5.034-9.849 7.551-16.471 7.551-6.623 0-12.113-2.517-16.472-7.551-4.359-5.033-6.538-11.874-6.538-20.521V80.2778H98.1631Z"/>
    <path fill="#007EFF" d="M98.1631 80.2778v66.1182c0 15.79 4.7449 28.768 14.2359 38.933 9.491 10.166 21.119 15.249 34.884 15.249 22.551-2.359 18.14-26.851 0-26.11-6.623 0-12.113-2.517-16.472-7.551-4.359-5.033-6.538-11.874-6.538-20.521V80.2778H98.1631Z"/>
    <path fill="#0068FF" d="M98.1631 80.2778v49.2462c0 21.846 26.1099 21.687 26.1099 0V80.2778H98.1631Z"/>
    <path fill="#00ACFF" d="M181.639 109.804c8.154 0 14.763-6.609 14.763-14.7629 0-8.1535-6.609-14.7633-14.763-14.7633s-14.763 6.6098-14.763 14.7633c0 8.1539 6.609 14.7629 14.763 14.7629Z"/>
  </g>
  <defs>
    <clipPath id="a">
      <path fill="#fff" d="M0 0h560v280H0z"/>
    </clipPath>
  </defs>
</svg>
