<svg xmlns="http://www.w3.org/2000/svg" width="560" height="280" fill="none" viewBox="0 0 560 280"><g clip-path="url(#a)"><path fill="#080808" d="M560 0H0v280h560V0Z" style="fill:#0d0d0d;fill-opacity:1"/><path fill="#0D0D0D" d="M0 0v280.855h442.559c4.221-22.015 7.821-45.186 7.574-66.783-.518-45.256-17.581-83.357-27.215-116.794-9.316-32.33-11.641-60.485-12.387-97.278H0Z" style="fill:#111;fill-opacity:1"/><path fill="#121212" d="M0 0v280.855h299.102c6.033-31.258 15.87-62.531 18.638-88.235 4.051-37.608-7.606-63.351-17.652-96.135-8.682-28.333-16.099-61.93-11.264-96.485H0Z" style="fill:#141414;fill-opacity:1"/><path fill="#171717" d="M0 0v280.855h209.795c2.388-23.865.338-44.568-7.529-66.783-11.216-31.67-34.046-66.561-23.537-111.232 7.756-32.972 33.59-71.226 46.664-102.84H0Z" style="fill:#1a1a1a;fill-opacity:1"/><path fill="#1C1C1C" d="M0 0v280.855h102.768c-15.527-28.994-32.51-60.488-35.836-86.647-5.321-41.854 24.834-69.181 27.213-102.491C96.22 62.642 77.148 29.015 71.428 0H0Z" style="fill:#1f1f1f;fill-opacity:1"/><path fill="#0095FF" d="M98.163 80.278v66.118c0 15.79 4.745 28.768 14.236 38.933 9.491 10.166 21.119 15.249 34.884 15.249s25.393-5.083 34.883-15.249c9.491-10.165 14.236-23.143 14.236-38.933v-26.953h-55.636v26.11h29.526v.843c0 8.647-2.179 15.488-6.538 20.521-4.358 5.034-9.849 7.551-16.471 7.551-6.623 0-12.113-2.517-16.472-7.551-4.359-5.033-6.538-11.874-6.538-20.521V80.278h-26.11Z"/><path fill="#007EFF" d="M98.163 80.278v66.118c0 15.79 4.745 28.768 14.236 38.933 9.491 10.166 21.119 15.249 34.884 15.249 22.551-2.359 18.14-26.851 0-26.11-6.623 0-12.113-2.517-16.472-7.551-4.359-5.033-6.538-11.874-6.538-20.521V80.278h-26.11Z"/><path fill="#0068FF" d="M98.163 80.278v49.246c0 21.846 26.11 21.687 26.11 0V80.278h-26.11Z"/><path fill="#00ACFF" d="M181.639 109.804c8.154 0 14.763-6.609 14.763-14.763 0-8.153-6.609-14.763-14.763-14.763s-14.763 6.61-14.763 14.763c0 8.154 6.609 14.763 14.763 14.763Z"/></g><defs><clipPath id="a"><path fill="#fff" d="M0 0h560v280H0z"/></clipPath></defs></svg>