<svg xmlns="http://www.w3.org/2000/svg" xml:space="preserve" width="560" height="280" fill="none"><g clip-path="url(#a)"><path fill="#080808" d="M560 0H0v280h560z" style="fill:#141414;fill-opacity:1"/><path fill="#0d0d0d" d="M0 0v280.855h442.559c4.221-22.015 7.821-45.186 7.574-66.783-.518-45.256-17.581-83.357-27.215-116.794-9.316-32.33-11.641-60.485-12.387-97.278Z" style="fill:#171717;fill-opacity:1"/><path fill="#121212" d="M0 0v280.855h299.102c6.033-31.258 15.87-62.531 18.638-88.235 4.051-37.608-7.606-63.351-17.652-96.135-8.682-28.333-16.099-61.93-11.264-96.485Z" style="fill:#1a1a1a;fill-opacity:1"/><path fill="#171717" d="M0 0v280.855h209.795c2.388-23.865.338-44.568-7.529-66.783-11.216-31.67-34.046-66.561-23.537-111.232 7.756-32.972 33.59-71.226 46.664-102.84Z" style="fill:#1c1c1c;fill-opacity:1"/><path fill="#1c1c1c" d="M0 0v280.855h102.768c-15.527-28.994-32.51-60.488-35.836-86.647-5.321-41.854 24.834-69.181 27.213-102.491C96.22 62.642 77.148 29.015 71.428 0Z" style="fill:#1f1f1f;fill-opacity:1"/><path fill="#0095ff" d="M80 80v66.423q0 23.794 14.302 39.113 14.301 15.32 35.045 15.319 20.743 0 35.044-15.32 14.301-15.318 14.301-39.112v-27.077H122.8v26.23h29.662v.847q0 13.031-6.568 20.616-6.568 7.586-16.547 7.586-9.981-.001-16.548-7.586-6.57-7.586-6.569-20.616V80Z"/><path fill="#007eff" d="M80 80v66.423q0 23.794 14.302 39.113 14.301 15.32 35.045 15.319c22.655-2.37 18.223-26.975 0-26.23q-9.981-.001-16.548-7.586-6.57-7.586-6.569-20.616V80Z"/><path fill="#0068ff" d="M80 80v49.473c0 21.947 26.23 21.787 26.23 0V80Z"/><path fill="#00acff" d="M163.861 109.662c8.192 0 14.831-6.64 14.831-14.83 0-8.192-6.64-14.832-14.83-14.832-8.192 0-14.832 6.64-14.832 14.831 0 8.192 6.64 14.831 14.831 14.831"/><text xml:space="preserve" x="220.337" y="139.66" style="font-style:normal;font-variant:normal;font-weight:400;font-stretch:normal;font-size:32px;line-height:.93;font-family:Unageo;-inkscape-font-specification:&quot;Unageo, @wght=670&quot;;font-variant-ligatures:normal;font-variant-caps:normal;font-variant-numeric:normal;font-variant-east-asian:normal;font-variation-settings:&quot;wght&quot;670;writing-mode:lr-tb;direction:ltr;white-space:pre;inline-size:463.602;display:inline;fill:#ccc;fill-opacity:1;stroke-width:3.77953" transform="translate(-251.54 -175.822)scale(2.18167)"><tspan x="220.337" y="139.66" style="font-weight: 600;">Unageo</tspan></text><text xml:space="preserve" x="220.337" y="139.66" style="font-style:normal;font-variant:normal;font-weight:400;font-stretch:normal;font-size:21.3333px;line-height:.93;font-family:Unageo;-inkscape-font-specification:&quot;Unageo, @wght=600&quot;;font-variant-ligatures:normal;font-variant-caps:normal;font-variant-numeric:normal;font-variant-east-asian:normal;font-variation-settings:&quot;wght&quot;600;writing-mode:lr-tb;direction:ltr;white-space:pre;inline-size:259.158;display:inline;fill:#a6a6a6;fill-opacity:1;stroke-width:3.77953" transform="translate(.856 27.66)scale(1.05593)"><tspan x="220.337" y="139.66" style="font-weight: 600;">a modern, open-source, </tspan><tspan x="220.337" y="159.5" style="font-weight: 600;">sans-serif typeface.</tspan></text></g><defs><clipPath id="a"><path fill="#fff" d="M0 0h560v280H0Z"/></clipPath></defs></svg>
